<svg id="Layer_1" data-name="Layer 1" xmlns="http://www.w3.org/2000/svg" viewBox="0 0 16 16"><defs><style>.cls-1{fill:#32b496;}</style></defs><title>uniliv_wifi_icon</title><path class="cls-1" d="M11.32,6A.49.49,0,0,1,11,5.85,4.22,4.22,0,0,0,5,5.85a.49.49,0,1,1-.7-.7,5.2,5.2,0,0,1,7.35,0,.5.5,0,0,1,0,.7A.51.51,0,0,1,11.32,6Z"/><path class="cls-1" d="M10.43,7.58a.49.49,0,0,1-.35-.15,3.06,3.06,0,0,0-4.18,0,.5.5,0,0,1-.71-.71,4,4,0,0,1,5.6,0,.51.51,0,0,1,0,.71A.51.51,0,0,1,10.43,7.58Z"/><path class="cls-1" d="M9.57,9.15A.54.54,0,0,1,9.21,9,1.71,1.71,0,0,0,6.79,9a.51.51,0,0,1-.71,0,.5.5,0,0,1,0-.71,2.72,2.72,0,0,1,3.84,0,.5.5,0,0,1,0,.71A.52.52,0,0,1,9.57,9.15Z"/><path class="cls-1" d="M8,12.47A1.49,1.49,0,1,1,9.48,11,1.49,1.49,0,0,1,8,12.47Zm0-2A.49.49,0,0,0,7.5,11a.49.49,0,0,0,1,0A.49.49,0,0,0,8,10.5Z"/><path class="cls-1" d="M8,15.39a7.34,7.34,0,1,1,7.34-7.34A7.34,7.34,0,0,1,8,15.39ZM8,1.71a6.34,6.34,0,1,0,6.34,6.34A6.35,6.35,0,0,0,8,1.71Z"/></svg>