<svg id="Layer_1" data-name="Layer 1" xmlns="http://www.w3.org/2000/svg" viewBox="0 0 16 16"><defs><style>.cls-1{fill:#32b496;stroke-miterlimit:10;stroke-width:0.1px;}.cls-1,.cls-3{stroke:#32b496;}.cls-2{fill:#fff;}.cls-3{fill:none;stroke-linecap:round;stroke-linejoin:round;stroke-width:0.8px;}</style></defs><title>uniliv_concierge_icon</title><path class="cls-1" d="M8,7.37c-3.45,0-5.66,2.13-5.66,5.06a.4.4,0,0,0,.4.4H13.26a.4.4,0,0,0,.4-.4C13.66,9.5,11.45,7.37,8,7.37Z"/><path class="cls-2" d="M3.16,12c.19-2.27,2-3.85,4.84-3.85S12.65,9.76,12.84,12Z"/><path class="cls-1" d="M7.6,7.28a.4.4,0,1,0,.8,0v-.6h.81a.41.41,0,0,0,.41-.41.4.4,0,0,0-.41-.4H6.79a.4.4,0,0,0-.41.4.41.41,0,0,0,.41.41H7.6Zm.8-4.85a.4.4,0,1,0-.8,0V3.84a.4.4,0,1,0,.8,0ZM2.19,4.54a.4.4,0,0,0-.57.06.41.41,0,0,0,0,.57l1.22,1a.41.41,0,0,0,.57,0,.4.4,0,0,0-.06-.57Zm12.14.63a.41.41,0,0,0,.05-.57.4.4,0,0,0-.57-.06l-1.21,1a.4.4,0,0,0-.06.57.41.41,0,0,0,.57,0Z"/><line class="cls-3" x1="2.6" y1="13.98" x2="13.4" y2="13.98"/></svg>