<svg id="Layer_1" data-name="Layer 1" xmlns="http://www.w3.org/2000/svg" viewBox="0 0 16 16"><defs><style>.cls-1{fill:#32b496;}</style></defs><title>uniliv_garden_icon</title><path class="cls-1" d="M10.58,12.71H9.5A2.67,2.67,0,0,0,8.43,12v-.68a3.35,3.35,0,0,0,1.77.5,3.38,3.38,0,0,0,2.41-1,.41.41,0,0,0,0-.6,3.39,3.39,0,0,0-4.18-.5V8.35a1.83,1.83,0,0,0,.92-.6,1.75,1.75,0,0,0,1.39-.48,1.69,1.69,0,0,0,.48-1.4,1.7,1.7,0,0,0,0-2.69,1.69,1.69,0,0,0-.48-1.4A1.75,1.75,0,0,0,9.35,1.3a1.73,1.73,0,0,0-2.7,0,1.75,1.75,0,0,0-1.39.48,1.69,1.69,0,0,0-.48,1.4,1.7,1.7,0,0,0,0,2.69,1.69,1.69,0,0,0,.48,1.4,1.75,1.75,0,0,0,1.39.48,1.83,1.83,0,0,0,.92.6v.5a3.4,3.4,0,0,0-4.18.49.44.44,0,0,0-.13.31.43.43,0,0,0,.13.3A3.38,3.38,0,0,0,5.8,11a3.44,3.44,0,0,0,1.77-.5v1.4a2.56,2.56,0,0,0-1.93.86H5.42a2.1,2.1,0,0,0-1.53.67,2.2,2.2,0,0,0-.63,1.54.43.43,0,0,0,.43.43h8.62a.43.43,0,0,0,.43-.43,2.2,2.2,0,0,0-.63-1.54A2.1,2.1,0,0,0,10.58,12.71ZM8.8,10.5a2.54,2.54,0,0,1,2.83,0,2.54,2.54,0,0,1-2.83,0h0ZM7.2,9.66a2.54,2.54,0,0,1-2.83,0,2.54,2.54,0,0,1,2.83,0h0Zm0-2.59a.42.42,0,0,0-.51-.21.86.86,0,0,1-.86-.2.84.84,0,0,1-.2-.86.43.43,0,0,0-.21-.51.85.85,0,0,1,0-1.53.43.43,0,0,0,.21-.51.84.84,0,0,1,.2-.86.84.84,0,0,1,.86-.19A.43.43,0,0,0,7.24,2,.85.85,0,0,1,8.76,2a.43.43,0,0,0,.51.22.84.84,0,0,1,.86.19.84.84,0,0,1,.2.86.43.43,0,0,0,.21.51.85.85,0,0,1,0,1.53.43.43,0,0,0-.21.51.84.84,0,0,1-.2.86.86.86,0,0,1-.86.2.42.42,0,0,0-.51.21.85.85,0,0,1-1.52,0Zm-3,7.42a1.33,1.33,0,0,1,1.23-.92h.43a.42.42,0,0,0,.34-.17A1.72,1.72,0,0,1,9,13.4a.42.42,0,0,0,.34.17h1.29a1.33,1.33,0,0,1,1.23.92Z"/><path class="cls-1" d="M8,5.7A1.25,1.25,0,1,1,9.25,4.45,1.26,1.26,0,0,1,8,5.7ZM8,3.94a.51.51,0,1,0,.5.51A.5.5,0,0,0,8,3.94Z"/></svg>