<svg id="Layer_1" data-name="Layer 1" xmlns="http://www.w3.org/2000/svg" viewBox="0 0 16 16"><defs><style>.cls-1,.cls-2{fill:none;stroke:#32b496;stroke-linecap:round;stroke-linejoin:round;}.cls-1{stroke-width:0.75px;}.cls-3{fill:#32b496;}</style></defs><title>uniliv_24-7 Dedicated_icon</title><polyline class="cls-1" points="10.49 3.79 13.49 3.8 13.51 0.78"/><path class="cls-2" d="M15,8a7,7,0,1,1-2.1-5"/><path class="cls-3" d="M5.35,9.74,6.09,9a2,2,0,0,0,.76-1.35A1.29,1.29,0,0,0,5.51,6.36,1.92,1.92,0,0,0,4,7.26l.73.44c.24-.37.48-.55.74-.55.5,0,.48.34.48.48,0,.36-.43.77-.67,1L4.07,9.88v.68H7V9.74Z"/><polygon class="cls-3" points="10.04 8.79 10.04 8.07 9.16 8.07 9.16 8.79 8.57 8.79 9.97 6.45 8.97 6.45 7.5 8.88 7.5 9.58 9.16 9.58 9.16 10.56 10.04 10.56 10.04 9.58 10.5 9.58 10.5 8.79 10.04 8.79"/><path class="cls-3" d="M11.5,5.92a.51.51,0,0,0-.37.17V5.44h-.38V7.27h.38V6.55c0-.1,0-.31.27-.31s.23.1.23.3v.73H12v-.8A.51.51,0,0,0,11.5,5.92Z"/></svg>