<svg id="Layer_1" data-name="Layer 1" xmlns="http://www.w3.org/2000/svg" viewBox="0 0 16 16"><defs><style>.cls-1,.cls-3{fill:#32b496;}.cls-2{fill:#fff;}.cls-3{stroke:#32b496;stroke-miterlimit:10;stroke-width:0.1px;}</style></defs><title>uniliv_shuttle_icon</title><path class="cls-1" d="M13.78,2.57h-.19v0A1.29,1.29,0,0,0,12.3,1.25H3.7A1.29,1.29,0,0,0,2.41,2.54v0H2.22A1.55,1.55,0,0,0,.67,4.13V7.57A.43.43,0,0,0,1.1,8a.44.44,0,0,0,.43-.43V4.13a.7.7,0,0,1,.69-.7h.19v8.31A1.28,1.28,0,0,0,3.31,13v.62a1.16,1.16,0,0,0,2.32,0V13h4.74v.56a1.16,1.16,0,0,0,2.32,0V13a1.28,1.28,0,0,0,.9-1.23V3.43h.19a.7.7,0,0,1,.69.7V7.57A.44.44,0,0,0,14.9,8a.43.43,0,0,0,.43-.43V4.13A1.55,1.55,0,0,0,13.78,2.57Z"/><path class="cls-2" d="M4.78,13.59h0a.31.31,0,0,1-.31.3.3.3,0,0,1-.3-.3V13h.61Z"/><path class="cls-2" d="M11.83,13.59a.3.3,0,0,1-.3.3.31.31,0,0,1-.31-.3V13h.61v.56Z"/><path class="cls-2" d="M12.6,11.61a.42.42,0,0,1-.42.41H3.82a.42.42,0,0,1-.42-.41V8.12h9.2Z"/><rect class="cls-2" x="3.4" y="4.17" width="9.2" height="3"/><path class="cls-2" d="M12.6,3.22H3.4V2.54a.42.42,0,0,1,.42-.43h8.36a.42.42,0,0,1,.42.43Z"/><path class="cls-3" d="M4.72,9.79a.5.5,0,0,0,0,1,.5.5,0,0,0,0-1Z"/><path class="cls-3" d="M11.23,9.79a.5.5,0,0,0,0,1,.5.5,0,0,0,0-1Z"/></svg>