<svg id="Layer_1" data-name="Layer 1" xmlns="http://www.w3.org/2000/svg" viewBox="0 0 16 16"><defs><style>.cls-1{fill:none;}.cls-2{fill:#32b496;}</style></defs><title>uniliv_content_insurance</title><rect class="cls-1" width="16" height="16"/><path class="cls-2" d="M13.58,15.63H2.42a.5.5,0,0,1-.5-.5V.87a.5.5,0,0,1,.5-.5h7.7a.51.51,0,0,1,.35.15L13.94,4a.54.54,0,0,1,.14.36V15.13A.5.5,0,0,1,13.58,15.63Zm-10.66-1H13.08V4.92H10a.5.5,0,0,1-.5-.5v-3H2.92Zm7.6-10.71h1.93L10.52,2Z"/><path class="cls-2" d="M11.8,6.94H8a.5.5,0,0,1-.5-.5.5.5,0,0,1,.5-.5h3.8a.5.5,0,0,1,.5.5A.5.5,0,0,1,11.8,6.94Z"/><path class="cls-2" d="M5.07,7.18A.72.72,0,0,1,4.55,7l-.48-.48a.5.5,0,0,1,.71-.71l.31.31,1-.8a.5.5,0,1,1,.63.78L5.53,7A.76.76,0,0,1,5.07,7.18Z"/><path class="cls-2" d="M11.8,9.56H8a.5.5,0,0,1-.5-.5.5.5,0,0,1,.5-.5h3.8a.5.5,0,0,1,.5.5A.5.5,0,0,1,11.8,9.56Z"/><path class="cls-2" d="M5.07,9.8a.73.73,0,0,1-.52-.22L4.07,9.1a.5.5,0,0,1,0-.7.5.5,0,0,1,.71,0l.31.31,1-.81A.52.52,0,0,1,6.8,8a.5.5,0,0,1-.08.7l-1.19,1A.71.71,0,0,1,5.07,9.8Zm.18-.93h0Zm-.34,0h0Z"/><path class="cls-2" d="M11.8,12.17H8a.5.5,0,0,1,0-1h3.8a.5.5,0,0,1,0,1Z"/><path class="cls-2" d="M5.07,12.41a.73.73,0,0,1-.52-.22l-.48-.47a.51.51,0,0,1,0-.71.5.5,0,0,1,.71,0l.31.31,1-.8a.51.51,0,0,1,.71.07.52.52,0,0,1-.08.71l-1.19.95A.76.76,0,0,1,5.07,12.41Zm.18-.93h0Zm-.34,0h0Z"/></svg>