<svg id="Layer_1" data-name="Layer 1" xmlns="http://www.w3.org/2000/svg" viewBox="0 0 16 16"><defs><style>.cls-1{fill:#32b496;}</style></defs><title>uniliv_bicycle_icon</title><path class="cls-1" d="M12.15,6.65a2.73,2.73,0,0,0-1,.19,8.42,8.42,0,0,1-.57-1.69A1.88,1.88,0,0,0,8.71,3.64a.41.41,0,0,0-.42.41.42.42,0,0,0,.42.41A.9.9,0,0,1,9,4.5,1,1,0,0,1,9.63,5l0,0-.12.22L8.83,6.35H5.38l-.19-.49h.08a.41.41,0,0,0,0-.82H3.85a.41.41,0,0,0,0,.82H4.3l.36.9a3,3,0,0,0-.81-.11A2.86,2.86,0,1,0,6.68,9.92h.76a.4.4,0,0,0,.35-.21L10,6.08a9.59,9.59,0,0,0,.45,1.16A2.9,2.9,0,0,0,9.29,9.51a2.86,2.86,0,1,0,2.86-2.86ZM3.85,9.92h2a2,2,0,1,1,0-.83h-2a.42.42,0,0,0,0,.83ZM7.2,9.09H6.68A2.84,2.84,0,0,0,5.8,7.41l0,0-.07-.18H8.34Zm5,2.45a2,2,0,0,1-2-2A2.06,2.06,0,0,1,10.77,8a18.52,18.52,0,0,0,1,1.74.43.43,0,0,0,.34.18.42.42,0,0,0,.33-.65s-.5-.74-1-1.69a2.09,2.09,0,0,1,.67-.11,2,2,0,1,1,0,4.07Z"/></svg>