<svg id="Layer_1" data-name="Layer 1" xmlns="http://www.w3.org/2000/svg" viewBox="0 0 16 16"><defs><style>.cls-1{fill:#32b496;stroke:#32b496;stroke-miterlimit:10;stroke-width:0.3px;}</style></defs><title>uniliv_tanning</title><path id="_Compound_Path_" data-name="&lt;Compound Path&gt;" class="cls-1" d="M4.8,1.38V1.1a.3.3,0,0,1,.59,0v.28a.3.3,0,1,1-.59,0ZM7.65,6.57a.28.28,0,0,1,0,.41.27.27,0,0,1-.2.09A.29.29,0,0,1,7.24,7L7,6.78a.29.29,0,0,1,.41-.41ZM7,2.48a.28.28,0,0,1,0-.41l.2-.2a.29.29,0,0,1,.41.41l-.2.2a.29.29,0,0,1-.21.09A.27.27,0,0,1,7,2.48Zm.8,1.94a.29.29,0,0,1,.3-.29h.28a.3.3,0,0,1,0,.59H8.14A.29.29,0,0,1,7.84,4.42Zm-4.69,2a.28.28,0,0,1,0,.41L3,7a.29.29,0,0,1-.21.09A.27.27,0,0,1,2.54,7a.28.28,0,0,1,0-.41l.2-.2A.28.28,0,0,1,3.15,6.37ZM1.48,4.42a.29.29,0,0,1,.29-.29h.28a.3.3,0,1,1,0,.59H1.77A.29.29,0,0,1,1.48,4.42ZM14.93,8.47,14,9.55l-.72,1.52a3.5,3.5,0,0,1-1.72,1.63.74.74,0,0,1,.14.22l.22.46a.33.33,0,0,1-.6.28l-.22-.45a.55.55,0,0,0-.35-.28H2.21a.52.52,0,0,0-.38.27l-.21.45a.34.34,0,0,1-.3.19l-.15,0A.33.33,0,0,1,1,13.38l.21-.46a1.17,1.17,0,0,1,1-.64h8.44a2.79,2.79,0,0,0,2-1.47l.74-1.57.06-.08,1-1.12a.32.32,0,0,1,.47,0A.34.34,0,0,1,14.93,8.47Zm-9.84-2a2,2,0,1,0-2-2A2.05,2.05,0,0,0,5.09,6.47Zm0-3.5A1.46,1.46,0,1,1,3.63,4.42,1.45,1.45,0,0,1,5.09,3Zm-3,7.68.64.23H10.1a1.24,1.24,0,0,0,.89-.37l.33-.57a6.65,6.65,0,0,1-3.16.25.33.33,0,1,1,.15-.64A7,7,0,0,0,12,9.05a.33.33,0,0,1,.36.1.33.33,0,0,1,0,.38l-.78,1.32a1.86,1.86,0,0,1-1.46.7H2.71l-.12,0-.69-.25a.34.34,0,0,1-.2-.43A.33.33,0,0,1,2.12,10.65Zm3-3.48a.29.29,0,0,1,.3.3v.28a.3.3,0,0,1-.59,0V7.47A.29.29,0,0,1,5.09,7.17ZM2.54,2.28A.29.29,0,0,1,3,1.87l.2.2a.28.28,0,0,1,0,.41.29.29,0,0,1-.21.09.27.27,0,0,1-.2-.09Z"/><path class="cls-1" d="M12.74,8.43a1.25,1.25,0,1,0-1.25-1.25A1.26,1.26,0,0,0,12.74,8.43Zm0-2.09a.84.84,0,0,1,.83.84.83.83,0,0,1-1.66,0A.84.84,0,0,1,12.74,6.34Z"/></svg>