<svg id="Layer_1" data-name="Layer 1" xmlns="http://www.w3.org/2000/svg" viewBox="0 0 16 16"><defs><style>.cls-1,.cls-2{fill:#32b496;}.cls-1{stroke:#32b496;stroke-miterlimit:10;stroke-width:0.2px;}</style></defs><title>unilive_sofa</title><path class="cls-1" d="M14,6.09v-1a1.56,1.56,0,0,0-1.68-1.69H3.64A1.56,1.56,0,0,0,2,5.08v1a1.16,1.16,0,0,0-.88,1.12v3.56a.61.61,0,0,0,.61.61H2v.68a.55.55,0,0,0,.54.55h.61a.55.55,0,0,0,.54-.55v-.68h8.66v.68a.55.55,0,0,0,.54.55h.61a.55.55,0,0,0,.54-.55v-.68h.29a.61.61,0,0,0,.61-.61V7.21A1.16,1.16,0,0,0,14,6.09Zm-11.55-1A1,1,0,0,1,3.64,3.94H12.3a1,1,0,0,1,1.15,1.15v1a1.14,1.14,0,0,0-.88,1.1v.32H3.37V7.21a1.14,1.14,0,0,0-.88-1.1Zm10.08,3v1H8.17v-1Zm-4.94,0v1H3.37v-1Zm-4.52,4h-.6v-.68h.6Zm10.34,0h-.61v-.68h.61Zm.89-1.29a.06.06,0,0,1-.06.06H1.69a.06.06,0,0,1-.06-.06V7.21a.61.61,0,0,1,1.21,0V9.39a.27.27,0,0,0,.27.28h9.75a.27.27,0,0,0,.27-.28V7.21a.61.61,0,0,1,1.21,0v3.56Z"/><path class="cls-2" d="M5,6.57a.8.8,0,0,1-.8-.8A.79.79,0,0,1,5,5a.79.79,0,0,1,.79.79A.79.79,0,0,1,5,6.57ZM5,5.45a.32.32,0,0,0-.32.32A.32.32,0,0,0,5,6.09a.32.32,0,0,0,.32-.32A.33.33,0,0,0,5,5.45Z"/><path class="cls-2" d="M10.91,6.57a.8.8,0,0,1-.8-.8.79.79,0,0,1,.8-.79.79.79,0,0,1,.79.79A.79.79,0,0,1,10.91,6.57Zm0-1.12a.32.32,0,0,0-.32.32.32.32,0,0,0,.32.32.32.32,0,0,0,.32-.32A.33.33,0,0,0,10.91,5.45Z"/></svg>