<svg id="Layer_1" data-name="Layer 1" xmlns="http://www.w3.org/2000/svg" viewBox="0 0 16 16"><defs><style>.cls-1{fill:#32b496;stroke:#32b496;stroke-miterlimit:10;stroke-width:0.3px;}.cls-2{fill:#fff;}</style></defs><title>uniliv_imacstation_icon</title><path class="cls-1" d="M2.1,9.17H13.9a.27.27,0,0,0,.25-.28V2.11a.27.27,0,0,0-.25-.28H2.1a.22.22,0,0,0-.17.07h0a.25.25,0,0,0-.06.19V8.89A.27.27,0,0,0,2.1,9.17Zm.25-6.79h11.3V8.62H2.35Z"/><path class="cls-1" d="M14.93,13.55c-.26-1.22-.52-2.45-.79-3.67a.25.25,0,0,0-.24-.19H2.1a.25.25,0,0,0-.24.19c-.27,1.22-.53,2.45-.79,3.67a.25.25,0,0,0,.24.32H14.69a.23.23,0,0,0,.23-.16A.29.29,0,0,0,14.93,13.55Z"/><path class="cls-2" d="M7.13,13.28c0-.16.06-.33.1-.5H8.77c0,.17.07.34.1.5Z"/><path class="cls-2" d="M9.5,13.28l-.18-.86a.24.24,0,0,0-.18-.17H6.92a.26.26,0,0,0-.24.17l-.18.86H1.71c.22-1,.44-2,.67-3H13.62c.22,1,.45,2,.67,3Z"/></svg>