<svg id="Layer_1" data-name="Layer 1" xmlns="http://www.w3.org/2000/svg" viewBox="0 0 16 16"><defs><style>.cls-1{fill:#32b496;stroke:#32b496;stroke-miterlimit:10;stroke-width:0.1px;}</style></defs><title>uniliv_gym_icon</title><path class="cls-1" d="M3.55,6.45a.28.28,0,0,0,0-.4.3.3,0,0,0-.41,0c-.56.56-.29,1.82.59,2.7a.3.3,0,0,0,.2.08.32.32,0,0,0,.2-.08.3.3,0,0,0,0-.41C3.39,7.6,3.29,6.71,3.55,6.45Z"/><path class="cls-1" d="M8.14,8.48A1.39,1.39,0,0,0,8,8.42,5.25,5.25,0,0,0,6.78,5.69,4.25,4.25,0,0,0,4.41,4.45a2.53,2.53,0,0,0-2.21.66c-1.1,1.1-.84,3.15.58,4.58a5.11,5.11,0,0,0,.87.68c.4,4.22,6,4.61,6.1,4.61h0a3.67,3.67,0,0,0,2.35-1.47c1.18-1.55,1.51-4,1-7.26a2.82,2.82,0,1,0-2.88,0A2.93,2.93,0,0,0,9.4,9.39,2.56,2.56,0,0,0,8.14,8.48ZM9.4,3.85A2.26,2.26,0,1,1,11.66,6.1,2.26,2.26,0,0,1,9.4,3.85Zm-.15,8h0a.43.43,0,0,0,0,.05V12s0,0,0,0a0,0,0,0,0,0,0v0l0,0,0,0v0l.05,0h0l0,0h.2l0,0h0l0,0,0,0h0A3.61,3.61,0,0,0,10,9.46c-.19-1.08-.35-2,.86-2.91a2.64,2.64,0,0,0,.81.12,2.88,2.88,0,0,0,.93-.16c.45,3,.15,5.26-.89,6.63a3.13,3.13,0,0,1-1.94,1.27c-.38,0-4.86-.45-5.48-3.72a5.05,5.05,0,0,0,.55.18h.06a.28.28,0,0,0,.28-.22A.28.28,0,0,0,5,10.31a3.81,3.81,0,0,1-1.77-1C2,8.08,1.72,6.39,2.6,5.51A2,2,0,0,1,4.33,5,3.66,3.66,0,0,1,6.38,6.09a5.21,5.21,0,0,1,1,4,.29.29,0,1,0,.56.12A4.58,4.58,0,0,0,8,9a2.08,2.08,0,0,1,1.16,1.08A2.25,2.25,0,0,1,9.25,11.83Z"/><path class="cls-1" d="M12.64,3.85a1,1,0,1,0-1,1A1,1,0,0,0,12.64,3.85Zm-1.4,0a.42.42,0,1,1,.42.41A.42.42,0,0,1,11.24,3.85Z"/><path class="cls-1" d="M6.44,12.09a.29.29,0,0,0-.4,0,.29.29,0,0,0,0,.4,6.29,6.29,0,0,0,2.46,1.12h.07a.29.29,0,0,0,.28-.22.29.29,0,0,0-.21-.35A6,6,0,0,1,6.44,12.09Z"/><path class="cls-1" d="M10.78,9.76h0a.28.28,0,0,0,.24-.32,2.39,2.39,0,0,1,.29-1.87.28.28,0,0,0-.07-.39.27.27,0,0,0-.39.06,2.87,2.87,0,0,0-.39,2.28A.28.28,0,0,0,10.78,9.76Z"/></svg>