<svg id="Layer_1" data-name="Layer 1" xmlns="http://www.w3.org/2000/svg" viewBox="0 0 16 16"><defs><style>.cls-1{fill:#32b496;stroke:#32b496;stroke-miterlimit:10;stroke-width:0.2px;}</style></defs><title>unilive_computerlab</title><path class="cls-1" d="M13.49,2.7h-11a.74.74,0,0,0-.76.72v7.22a.74.74,0,0,0,.76.72H6.27v.52a.89.89,0,0,1-.91.87H4.53a.28.28,0,1,0,0,.55h6.94a.28.28,0,1,0,0-.55h-.83a.89.89,0,0,1-.91-.87v-.52h3.76a.74.74,0,0,0,.76-.72V3.42A.74.74,0,0,0,13.49,2.7Zm-7,10.05a1.35,1.35,0,0,0,.32-.87v-.52h2.3v.52a1.35,1.35,0,0,0,.32.87Zm7.14-2.11a.18.18,0,0,1-.18.17h-11a.18.18,0,0,1-.18-.17V9.2H13.67Zm0-2H2.33V3.42a.18.18,0,0,1,.18-.17h11a.18.18,0,0,1,.18.17V8.65Z"/><ellipse class="cls-1" cx="8" cy="10" rx="0.31" ry="0.3"/></svg>