<svg id="Layer_1" data-name="Layer 1" xmlns="http://www.w3.org/2000/svg" viewBox="0 0 16 16"><defs><style>.cls-1{fill:#32b496;}</style></defs><title>uniliv_swimming_icon</title><path class="cls-1" d="M12.73,13.4a.86.86,0,0,1-.57-.2,1.64,1.64,0,0,0-1-.34,1.68,1.68,0,0,0-1,.34.85.85,0,0,1-.56.2A.9.9,0,0,1,9,13.2a1.64,1.64,0,0,0-1-.34,1.68,1.68,0,0,0-1,.34.88.88,0,0,1-1.12,0,1.75,1.75,0,0,0-2.07,0,.85.85,0,0,1-.56.2.87.87,0,0,1-.57-.2,1.65,1.65,0,0,0-1-.34v.84a.86.86,0,0,1,.57.2,1.72,1.72,0,0,0,1,.34,1.64,1.64,0,0,0,1-.34.9.9,0,0,1,1.13,0,1.73,1.73,0,0,0,2.06,0,.85.85,0,0,1,.56-.2.9.9,0,0,1,.57.2,1.64,1.64,0,0,0,1,.34,1.68,1.68,0,0,0,1-.34.85.85,0,0,1,.56-.2.9.9,0,0,1,.57.2,1.72,1.72,0,0,0,2.05,0,.87.87,0,0,1,.56-.2v-.84a1.71,1.71,0,0,0-1,.34A.8.8,0,0,1,12.73,13.4Z"/><path class="cls-1" d="M14.45,6.82V4.31a2.55,2.55,0,0,0-2.54-2.55,2.51,2.51,0,0,0-1.84.8,2.55,2.55,0,0,0-4.4,1.75v6.83a1.57,1.57,0,0,0-.92-.27,1.68,1.68,0,0,0-1,.34.85.85,0,0,1-.56.2.87.87,0,0,1-.57-.2,1.65,1.65,0,0,0-1-.34v.84a.86.86,0,0,1,.57.2,1.72,1.72,0,0,0,1,.34,1.64,1.64,0,0,0,1-.34.9.9,0,0,1,1.13,0,1.73,1.73,0,0,0,2.06,0,.85.85,0,0,1,.56-.2.9.9,0,0,1,.57.2,1.64,1.64,0,0,0,1,.34,1.68,1.68,0,0,0,1-.34.85.85,0,0,1,.56-.2.9.9,0,0,1,.57.2,1.72,1.72,0,0,0,2.05,0,.87.87,0,0,1,.56-.2v-.84a1.71,1.71,0,0,0-1,.34.8.8,0,0,1-.55.2.86.86,0,0,1-.57-.2,1.64,1.64,0,0,0-1-.34,1.55,1.55,0,0,0-.92.27V4.31a1.7,1.7,0,1,1,3.4,0V6.82ZM9.37,11.39a.9.9,0,0,1-.4-.18,1.64,1.64,0,0,0-1-.34,1.68,1.68,0,0,0-1,.34.86.86,0,0,1-.4.18V9.65H9.37v1.74Zm0-2.58H6.51V7.27H9.37Zm0-4.5V6.43H6.51V4.31a1.71,1.71,0,0,1,3.08-1A2.49,2.49,0,0,0,9.37,4.31Z"/></svg>