<svg id="Layer_1" data-name="Layer 1" xmlns="http://www.w3.org/2000/svg" viewBox="0 0 16 16"><defs><style>.cls-1{fill:none;}.cls-2{fill:#32b496;}</style></defs><title>uniliv_cctv_camera_icon</title><rect class="cls-1" width="16" height="16"/><path class="cls-2" d="M.66,15.63a.5.5,0,0,1-.5-.5V10.49a.5.5,0,0,1,.5-.5.5.5,0,0,1,.5.5v2.23H4.85L6.18,9.53A2.14,2.14,0,0,1,5,8.43a2.34,2.34,0,0,1-.27-.77L2.06,7A2.13,2.13,0,0,1,.53,4.39L1.15,2a2.23,2.23,0,0,1,1-1.36A2,2,0,0,1,3.75.45l10.6,2.72a.87.87,0,0,1,.6.5.94.94,0,0,1,0,.81l0,.06.27.07a.92.92,0,0,1,.65,1.11l-.63,2.45a.92.92,0,0,1-.88.68,11.78,11.78,0,0,1-1.55-.37l-.26.46a.85.85,0,0,1-1,.45L8.83,8.71a2.48,2.48,0,0,1-.66.59,2.91,2.91,0,0,1-.93.3L5.75,13.16a.9.9,0,0,1-.84.56H1.16v1.41A.5.5,0,0,1,.66,15.63Zm6.24-7,.12,0a3,3,0,0,0,.64-.19,1.41,1.41,0,0,0,.5-.53.5.5,0,0,1,.57-.26l2.92.75.4-.74a.52.52,0,0,1,.57-.25l1.61.41.59-2.26L14,5.35a.5.5,0,0,1-.34-.28.52.52,0,0,1,0-.44L14,4.11,3.49,1.42a1,1,0,0,0-.83.07,1.26,1.26,0,0,0-.55.74L1.5,4.64A1.13,1.13,0,0,0,2.31,6l3,.77a.5.5,0,0,1,.38.5A1.21,1.21,0,0,0,5.86,8c0,.08.34.69.91.65H6.9Zm7.94-3.14Z"/><path class="cls-2" d="M12.49,8.4a.53.53,0,0,1-.24-.06.51.51,0,0,1-.2-.68l1.65-3a.5.5,0,0,1,.88.48l-1.65,3A.51.51,0,0,1,12.49,8.4Z"/><circle class="cls-2" cx="7.02" cy="7.34" r="0.56"/></svg>