<svg id="Layer_1" data-name="Layer 1" xmlns="http://www.w3.org/2000/svg" viewBox="0 0 16 16"><defs><style>.cls-1{fill:#32b496;stroke:#32b496;stroke-miterlimit:10;stroke-width:0.2px;}</style></defs><title>unilive_tt_table_icon</title><path class="cls-1" d="M12.94,3.05a4.79,4.79,0,0,0-6.74.26A5,5,0,0,0,4.8,8a2,2,0,0,1,0,.26h0v.41s0,.08,0,.1,0,.08,0,.11,0,0,0,.08,0,.07-.06.13,0,.05,0,.07a1.48,1.48,0,0,1-.08.13s0,.05,0,.05-.08.08-.11.11l0,.05a1.54,1.54,0,0,1-.18.16L2.16,11.24a.77.77,0,0,0-.26.31.74.74,0,0,0-.1.41h0a1,1,0,0,0,.28.78l1.19,1.19a.93.93,0,0,0,.68.29H4s.08,0,.1,0a.2.2,0,0,0,.11,0,.44.44,0,0,1,.15-.05s0,0,0,0a1.16,1.16,0,0,0,.31-.26l1.6-2.08a1.74,1.74,0,0,0,.13-.15l.06,0,.1-.11s0,0,0,0l.13-.08a.12.12,0,0,1,.08,0,.69.69,0,0,1,.13,0s0,0,.08,0l.1,0,.1,0h.11a1.21,1.21,0,0,1,.33,0h0a.75.75,0,0,1,.26.05,5,5,0,0,0,4.69-1.4A4.79,4.79,0,0,0,12.94,3.05ZM4.34,13.52a.51.51,0,0,1-.24.15h0a.08.08,0,0,0-.08,0H4a.45.45,0,0,1-.33-.13l-1.2-1.19s0-.06,0-.08a.41.41,0,0,1-.1-.29s0-.1,0-.13a.43.43,0,0,1,.16-.2L4.54,10.1a.77.77,0,0,0,.21-.19s0,0,0,0A1.3,1.3,0,0,0,5,9.68l0,0a1.2,1.2,0,0,0,.13-.21s0,0,0,0a.8.8,0,0,0,.11-.23s0,0,0-.08l.08-.23h0l1.82,1.81-.26.08s0,0-.06,0-.15.07-.23.1h0L6.38,11l0,0a1.8,1.8,0,0,0-.21.19l0,0c0,.08-.13.13-.18.21Zm3.78-2.85c-.08,0-.16,0-.23-.06L5.37,8.1a.64.64,0,0,0,0-.23,4.55,4.55,0,0,1,1.24-4.2A4.67,4.67,0,0,1,9.8,2.3a3.93,3.93,0,0,1,2.78,1.11,4.25,4.25,0,0,1-.26,6A4.57,4.57,0,0,1,8.12,10.67Z"/><path class="cls-1" d="M11.11,3.51a3.55,3.55,0,0,0-3.7.85.25.25,0,0,0,0,.36.24.24,0,0,0,.18.08.21.21,0,0,0,.18-.08A3,3,0,0,1,10.93,4a.28.28,0,0,0,.34-.16A.26.26,0,0,0,11.11,3.51Z"/><path class="cls-1" d="M12.63,11.05a1.59,1.59,0,1,0,1.58,1.59A1.59,1.59,0,0,0,12.63,11.05Zm0,2.65a1.07,1.07,0,1,1,1.06-1.06A1,1,0,0,1,12.63,13.7Z"/></svg>