<svg id="Layer_1" data-name="Layer 1" xmlns="http://www.w3.org/2000/svg" viewBox="0 0 16 16"><defs><style>.cls-1{fill:#32b496;}</style></defs><title>uniliv_video-icon</title><path class="cls-1" d="M9.76,10H3.57a.42.42,0,0,0-.41.43.43.43,0,0,0,.41.44H9.76a.42.42,0,0,0,.4-.44A.41.41,0,0,0,9.76,10Z"/><path class="cls-1" d="M14.4,4.54a.41.41,0,0,0-.45,0L12,6V4.23a1,1,0,0,0-1-1H2.32a1,1,0,0,0-.95,1v7.54a1,1,0,0,0,.95,1H11a1,1,0,0,0,1-1V10l2,1.39a.41.41,0,0,0,.45,0,.43.43,0,0,0,.23-.38V4.92A.43.43,0,0,0,14.4,4.54Zm-3.31,7.23h0a.07.07,0,0,1-.08.08H2.32a.08.08,0,0,1-.09-.08V4.23a.08.08,0,0,1,.09-.08H11a.07.07,0,0,1,.08.08v7.54Zm2.68-1.53L12,9V7l1.81-1.26Z"/><path class="cls-1" d="M4.41,7.35A1.25,1.25,0,1,1,5.66,6.1,1.25,1.25,0,0,1,4.41,7.35Zm0-1.75a.5.5,0,0,0-.5.5.51.51,0,0,0,.5.5.5.5,0,0,0,.5-.5A.5.5,0,0,0,4.41,5.6Z"/></svg>