<svg id="Layer_1" data-name="Layer 1" xmlns="http://www.w3.org/2000/svg" viewBox="0 0 16 16"><defs><style>.cls-1{fill:#32b496;stroke:#32b496;stroke-miterlimit:10;stroke-width:0.2px;}</style></defs><title>uniliv_pet</title><path class="cls-1" d="M13.54,5.41a7.48,7.48,0,0,0-1.29-1.59,2,2,0,0,0-1.79-.61,1.2,1.2,0,0,0-.37.15A3.39,3.39,0,0,0,8,2.73a3.39,3.39,0,0,0-2.09.63,1.2,1.2,0,0,0-.37-.15,2,2,0,0,0-1.79.61A7.48,7.48,0,0,0,2.46,5.41c-.52.88-.64,1.59-.34,2.11a1.59,1.59,0,0,0,1.33.84,5.36,5.36,0,0,0-.17,1.42,3.42,3.42,0,0,0,.49,1.88A3,3,0,0,0,5,12.73a7,7,0,0,0,3,.54,7,7,0,0,0,3-.54,3,3,0,0,0,1.25-1.07,3.42,3.42,0,0,0,.49-1.88,5.36,5.36,0,0,0-.17-1.42,1.59,1.59,0,0,0,1.33-.84C14.18,7,14.06,6.29,13.54,5.41ZM3.68,7.63a1,1,0,0,1-.92-.47c-.15-.27,0-.77.34-1.37A6.35,6.35,0,0,1,4.24,4.38a1.4,1.4,0,0,1,1.08-.46A7.35,7.35,0,0,0,4.17,6.27c-.11.34-.22.63-.33.92S3.73,7.49,3.68,7.63Zm3.84,2.42a.89.89,0,0,1-.29-.49c0-.09,0-.09.07-.12A2.52,2.52,0,0,1,8,9.37a2.52,2.52,0,0,1,.7.07c.06,0,.07,0,.07.12a.89.89,0,0,1-.29.49.91.91,0,0,1-.48.29A.91.91,0,0,1,7.52,10.05Zm3.14,2a5.8,5.8,0,0,1-2.29.45V11A2,2,0,0,0,9,10.58a1.64,1.64,0,0,0,.5-1A.82.82,0,0,0,9,8.76a2.67,2.67,0,0,0-1-.13,2.67,2.67,0,0,0-1,.13.82.82,0,0,0-.52.8,1.64,1.64,0,0,0,.5,1,2,2,0,0,0,.64.43v1.51a5.8,5.8,0,0,1-2.29-.45A2.32,2.32,0,0,1,4,9.78a5.89,5.89,0,0,1,.51-2.33c.11-.28.23-.59.35-1,.65-2,1.34-3,3.12-3s2.47,1.06,3.12,3c.12.36.24.67.35,1A5.89,5.89,0,0,1,12,9.78,2.32,2.32,0,0,1,10.66,12.07Zm2.58-4.91a1,1,0,0,1-.92.47c-.05-.14-.11-.29-.16-.44s-.22-.58-.33-.92a7.35,7.35,0,0,0-1.15-2.35,1.4,1.4,0,0,1,1.08.46A6.35,6.35,0,0,1,12.9,5.79C13.26,6.39,13.39,6.89,13.24,7.16Z"/><path class="cls-1" d="M6.77,6.66a.49.49,0,0,0,0,1,.49.49,0,0,0,0-1Z"/><path class="cls-1" d="M9.23,6.66a.5.5,0,1,0,.49.49A.49.49,0,0,0,9.23,6.66Z"/></svg>