<svg id="Layer_1" data-name="Layer 1" xmlns="http://www.w3.org/2000/svg" viewBox="0 0 16 16"><defs><style>.cls-1,.cls-2{fill:#32b496;}.cls-2{stroke:#32b496;stroke-miterlimit:10;stroke-width:0.3px;}</style></defs><title>unilive_pooltable_icon</title><path class="cls-1" d="M8,7.13A1.34,1.34,0,1,0,6.66,5.79,1.34,1.34,0,0,0,8,7.13ZM8,5.19a.6.6,0,0,1,.6.6.6.6,0,0,1-1.2,0A.6.6,0,0,1,8,5.19Z"/><path class="cls-1" d="M10.78,8.36A1.35,1.35,0,1,0,9.44,9.7,1.35,1.35,0,0,0,10.78,8.36ZM9.44,9a.6.6,0,1,1,.59-.6A.6.6,0,0,1,9.44,9Z"/><path class="cls-1" d="M7.91,8.36A1.35,1.35,0,1,0,6.56,9.7,1.35,1.35,0,0,0,7.91,8.36ZM6.56,9a.6.6,0,1,1,.6-.6A.6.6,0,0,1,6.56,9Z"/><path class="cls-1" d="M10.87,9.59a1.34,1.34,0,1,0,1.34,1.34A1.34,1.34,0,0,0,10.87,9.59Zm0,1.94a.6.6,0,0,1-.6-.6.6.6,0,0,1,1.2,0A.6.6,0,0,1,10.87,11.53Z"/><path class="cls-1" d="M5.13,9.59a1.34,1.34,0,1,0,1.34,1.34A1.34,1.34,0,0,0,5.13,9.59Zm0,1.94a.6.6,0,0,1-.6-.6.6.6,0,0,1,1.2,0A.6.6,0,0,1,5.13,11.53Z"/><path class="cls-1" d="M8,9.59a1.34,1.34,0,1,0,1.34,1.34A1.34,1.34,0,0,0,8,9.59Zm0,1.94a.6.6,0,0,1-.6-.6.6.6,0,0,1,1.2,0A.6.6,0,0,1,8,11.53Z"/><path class="cls-2" d="M14.2,10.81,9.84,3.27A2.18,2.18,0,0,0,8,2,2.18,2.18,0,0,0,6.16,3.27L1.8,10.81A2.22,2.22,0,0,0,1.62,13a2.21,2.21,0,0,0,2,1h8.7a2.21,2.21,0,0,0,2-1A2.22,2.22,0,0,0,14.2,10.81Zm-.53,1.82a1.44,1.44,0,0,1-1.32.55H3.65a1.44,1.44,0,0,1-1.32-.55,1.44,1.44,0,0,1,.18-1.41L6.87,3.68A1.41,1.41,0,0,1,8,2.82a1.41,1.41,0,0,1,1.13.86l4.36,7.54A1.44,1.44,0,0,1,13.67,12.63Z"/></svg>