<svg id="Layer_1" data-name="Layer 1" xmlns="http://www.w3.org/2000/svg" viewBox="0 0 16 16"><defs><style>.cls-1{fill:#32b496;stroke:#32b496;stroke-miterlimit:10;stroke-width:0.1px;}</style></defs><title>uniliv_access_to_roof_top_icon</title><path class="cls-1" d="M14.7.83H11.36A.45.45,0,0,0,11,1a.47.47,0,0,0-.14.33V4.19H8a.45.45,0,0,0-.46.47V7.55H4.66a.44.44,0,0,0-.33.14A.45.45,0,0,0,4.19,8v2.89H1.3a.45.45,0,0,0-.47.46V14.7a.46.46,0,0,0,.47.47.45.45,0,0,0,.46-.47V11.81h2.9a.45.45,0,0,0,.46-.47V8.46H8a.44.44,0,0,0,.33-.13A.48.48,0,0,0,8.46,8V5.12h2.9a.45.45,0,0,0,.46-.46V1.76H14.7a.45.45,0,0,0,.47-.46A.47.47,0,0,0,14.7.83ZM12.57,9.59s0,0-.05,0h0l-.05,0h-.09L9.94,9.39a.31.31,0,0,0-.34.31.32.32,0,0,0,.31.35l1.6.06L9.6,11.88a.32.32,0,0,0,0,.47.33.33,0,0,0,.47,0L12,10.6l-.06,1.6a.32.32,0,0,0,.31.34.31.31,0,0,0,.24-.09.32.32,0,0,0,.11-.23l.09-2.39h0V9.75h0s0,0,0-.05v0s0,0,0,0l0,0Z"/></svg>