<svg id="Layer_1" data-name="Layer 1" xmlns="http://www.w3.org/2000/svg" viewBox="0 0 16 16"><defs><style>.cls-1{fill:none;}.cls-2{fill:#32b496;}</style></defs><title>uniliv_Electronic_keys_icon</title><rect class="cls-1" width="16" height="16"/><path class="cls-2" d="M12,10.54A3.71,3.71,0,0,1,8.83,4.82h0a3.47,3.47,0,0,1,.45-.72H4.79V7.81a.5.5,0,0,1-.5.5.5.5,0,0,1-.5-.5V4.1H1.32V8.31a.5.5,0,0,1-1,0V3.6a.5.5,0,0,1,.5-.5H12a3.72,3.72,0,0,1,0,7.44ZM10.87,4.1A2.52,2.52,0,0,0,9.71,5.28a2.85,2.85,0,0,0-.47,1.54A2.72,2.72,0,1,0,12,4.1Z"/><path class="cls-2" d="M2.23,12.9H.82a.5.5,0,0,1-.5-.5.5.5,0,0,1,.5-.5H2.23a.5.5,0,0,1,.5.5A.5.5,0,0,1,2.23,12.9Z"/><path class="cls-2" d="M5.16,12.9H3.79a.51.51,0,0,1-.5-.5.5.5,0,0,1,.5-.5H5.16a.5.5,0,0,1,.5.5A.51.51,0,0,1,5.16,12.9Z"/><path class="cls-2" d="M15.18,12.9H7.49a.51.51,0,0,1-.5-.5.5.5,0,0,1,.5-.5h7.19V10.57a.5.5,0,0,1,1,0V12.4A.5.5,0,0,1,15.18,12.9Z"/><path class="cls-2" d="M12,8.32a1.5,1.5,0,1,1,1.5-1.5A1.5,1.5,0,0,1,12,8.32Zm0-2.1a.6.6,0,1,0,.6.6A.6.6,0,0,0,12,6.22Z"/></svg>