<svg id="Layer_1" data-name="Layer 1" xmlns="http://www.w3.org/2000/svg" viewBox="0 0 16 16"><defs><style>.cls-1,.cls-3{fill:#32b496;}.cls-2{fill:#fff;}.cls-3{stroke:#32b496;stroke-miterlimit:10;stroke-width:0.1px;}</style></defs><title>uniliv_furnished_icon</title><path class="cls-1" d="M14.06.87H1.94a.6.6,0,0,0-.56.63V13.1a.59.59,0,0,0,.56.62h.93v1.15a.6.6,0,0,0,.56.63A.6.6,0,0,0,4,14.87V13.72h8v1.15a.6.6,0,0,0,.56.63.65.65,0,0,0,.57-.63V13.72H14a.6.6,0,0,0,.59-.59V1.5A.6.6,0,0,0,14.06.87Z"/><rect class="cls-2" x="2.35" y="1.82" width="5.2" height="10.95"/><rect class="cls-2" x="8.42" y="1.82" width="5.2" height="10.95"/><path class="cls-3" d="M6,6.53a.47.47,0,0,0,0,.94.47.47,0,0,0,0-.94Z"/><path class="cls-3" d="M10,6.53a.47.47,0,1,0,0,.94.47.47,0,0,0,0-.94Z"/></svg>