<svg id="Layer_1" data-name="Layer 1" xmlns="http://www.w3.org/2000/svg" viewBox="0 0 16 16"><defs><style>.cls-1{fill:#32b496;stroke:#32b496;stroke-miterlimit:10;stroke-width:0.3px;}</style></defs><title>uniliv_sauna_icon</title><path class="cls-1" d="M6.11,2.32A1.82,1.82,0,1,0,7.93,4.14,1.82,1.82,0,0,0,6.11,2.32Zm0,2.91A1.09,1.09,0,1,1,7.2,4.14,1.09,1.09,0,0,1,6.11,5.23Z"/><path class="cls-1" d="M10.46,14.2,9,10.2A.35.35,0,0,0,8.66,10H6.11V6.68a.36.36,0,0,0-.72,0v3.64a.36.36,0,0,0,.36.36H8.4l1.37,3.77a.39.39,0,0,0,.34.24.28.28,0,0,0,.13,0A.36.36,0,0,0,10.46,14.2Z"/><path class="cls-1" d="M6.71,11.78h-3a.36.36,0,1,0,0,.72H6.71a.36.36,0,1,0,0-.72Z"/><path class="cls-1" d="M10.36,1.45a.25.25,0,1,0-.45.23,3.35,3.35,0,0,1,0,2.58,7.7,7.7,0,0,0-.29,1.79.25.25,0,0,0,.25.25h0a.25.25,0,0,0,.25-.25,6.86,6.86,0,0,1,.27-1.66A3.9,3.9,0,0,0,10.36,1.45Z"/><path class="cls-1" d="M12.39,1.45a.25.25,0,0,0-.45.23,3.35,3.35,0,0,1,0,2.58,5,5,0,0,0,0,3.41.26.26,0,0,0,.24.16.15.15,0,0,0,.09,0,.24.24,0,0,0,.14-.32,4.56,4.56,0,0,1,0-3.1A3.84,3.84,0,0,0,12.39,1.45Z"/></svg>