<svg id="Layer_1" data-name="Layer 1" xmlns="http://www.w3.org/2000/svg" viewBox="0 0 16 16"><defs><style>.cls-1{fill:#32b496;}</style></defs><title>uniliv_microwave</title><path class="cls-1" d="M13,3.05H3A1.65,1.65,0,0,0,1.33,4.7v5.61A1.65,1.65,0,0,0,3,12h.1v.55a.44.44,0,0,0,.44.44A.43.43,0,0,0,4,12.51V12h8.1v.55a.43.43,0,0,0,.43.44.44.44,0,0,0,.44-.44V12H13a1.65,1.65,0,0,0,1.65-1.65V4.7A1.65,1.65,0,0,0,13,3.05Zm0,8H3a.78.78,0,0,1-.78-.78V4.7A.78.78,0,0,1,3,3.92H13a.78.78,0,0,1,.78.78v5.61h0A.78.78,0,0,1,13,11.09Z"/><path class="cls-1" d="M10.28,4.63h-6A1.21,1.21,0,0,0,3,5.84V9.17a1.21,1.21,0,0,0,1.2,1.21h6a1.21,1.21,0,0,0,1.21-1.21V5.84A1.21,1.21,0,0,0,10.28,4.63Zm.34,4.54a.34.34,0,0,1-.34.34h-6a.34.34,0,0,1-.33-.34V5.84a.34.34,0,0,1,.33-.34h6a.34.34,0,0,1,.34.34Z"/><circle class="cls-1" cx="12.63" cy="8.76" r="0.67"/><circle class="cls-1" cx="12.63" cy="6.25" r="0.67"/><path class="cls-1" d="M9.58,6.07a.44.44,0,0,0-.44.43v2a.44.44,0,0,0,.44.43A.43.43,0,0,0,10,8.51v-2A.43.43,0,0,0,9.58,6.07Z"/></svg>