<svg id="Layer_1" data-name="Layer 1" xmlns="http://www.w3.org/2000/svg" viewBox="0 0 16 16"><defs><style>.cls-1{fill:none;stroke:#32b496;stroke-linecap:round;stroke-linejoin:round;}.cls-2{fill:#32b496;}</style></defs><title>uniliv_pipedgas_icon</title><rect class="cls-1" x="1" y="1" width="14" height="14"/><polygon class="cls-1" points="14.5 12 14.5 12 1.5 12 1.5 12 14.5 12"/><path class="cls-2" d="M4.83,5.7a1.5,1.5,0,1,1,1.5-1.5A1.5,1.5,0,0,1,4.83,5.7Zm0-2.25a.75.75,0,1,0,.75.75A.76.76,0,0,0,4.83,3.45Z"/><path class="cls-2" d="M11.17,5.7a1.5,1.5,0,1,1,1.5-1.5A1.5,1.5,0,0,1,11.17,5.7Zm0-2.25a.75.75,0,1,0,.75.75A.75.75,0,0,0,11.17,3.45Z"/><path class="cls-2" d="M4.83,10.3a1.5,1.5,0,1,1,1.5-1.5A1.5,1.5,0,0,1,4.83,10.3Zm0-2.25a.75.75,0,1,0,.75.75A.76.76,0,0,0,4.83,8.05Z"/><path class="cls-2" d="M11.17,10.3a1.5,1.5,0,1,1,1.5-1.5A1.5,1.5,0,0,1,11.17,10.3Zm0-2.25a.75.75,0,1,0,.75.75A.75.75,0,0,0,11.17,8.05Z"/><path class="cls-2" d="M3.79,13.91H2.62a.41.41,0,0,1,0-.82H3.79a.41.41,0,1,1,0,.82Z"/><path class="cls-2" d="M7,13.92H5.83a.42.42,0,0,1,0-.84H7a.42.42,0,0,1,0,.84Z"/><path class="cls-2" d="M13.39,13.92H12.24a.42.42,0,0,1,0-.84h1.15a.42.42,0,1,1,0,.84Z"/><path class="cls-2" d="M10.19,13.92H9a.42.42,0,1,1,0-.84h1.15a.42.42,0,0,1,0,.84Z"/></svg>