<svg id="Layer_1" data-name="Layer 1" xmlns="http://www.w3.org/2000/svg" viewBox="0 0 16 16"><defs><style>.cls-1{fill:#32b496;stroke:#32b496;stroke-miterlimit:10;stroke-width:0.1px;}</style></defs><title>uniliv_cararking_icon</title><path class="cls-1" d="M10.8,10.49a.47.47,0,1,0,.47.47A.47.47,0,0,0,10.8,10.49Z"/><path class="cls-1" d="M5.2,10.49a.47.47,0,1,0,.47.47A.47.47,0,0,0,5.2,10.49Z"/><path class="cls-1" d="M8.93,10.49H7.07a.47.47,0,1,0,0,.93H8.93a.47.47,0,1,0,0-.93Z"/><path class="cls-1" d="M14.73,4,8.2.89a.47.47,0,0,0-.4,0L1.27,4A.48.48,0,0,0,1,4.42V14.69a.47.47,0,0,0,.47.47H14.53a.47.47,0,0,0,.47-.47V4.42A.46.46,0,0,0,14.73,4ZM8,1.83,12.47,4H3.53ZM5.67,13.76a.47.47,0,0,1-.94,0v-.47h.94v.47Zm.85.46a1.39,1.39,0,0,0,.08-.46v-.47H9.4v.47a1.39,1.39,0,0,0,.08.46Zm4.75-.46a.47.47,0,0,1-.94,0v-.47h.94v.47Zm.46-1.4H4.27a.47.47,0,0,1-.47-.47V10a.46.46,0,0,1,.47-.46h7.46a.46.46,0,0,1,.47.46v1.87A.47.47,0,0,1,11.73,12.36ZM4.85,8.62l.33-1.5a.47.47,0,0,1,.46-.36h4.72a.47.47,0,0,1,.46.36l.33,1.5Zm9.22,5.6h-2a1.39,1.39,0,0,0,.08-.46v-.55a1.4,1.4,0,0,0,.93-1.32V10a1.4,1.4,0,0,0-1-1.34l-.39-1.76a1.39,1.39,0,0,0-1.37-1.1H5.64a1.39,1.39,0,0,0-1.37,1.1L3.88,8.68a1.4,1.4,0,0,0-1,1.34v1.87a1.4,1.4,0,0,0,.93,1.32v.55a1.39,1.39,0,0,0,.08.46H1.93V4.89H14.07Z"/></svg>