<svg id="Layer_1" data-name="Layer 1" xmlns="http://www.w3.org/2000/svg" viewBox="0 0 16 16"><defs><style>.cls-1{fill:#32b496;}</style></defs><title>uniliv_cinema_room_icon</title><path class="cls-1" d="M14,11.05a.43.43,0,0,0,.43-.43V2.12A.43.43,0,0,0,14,1.69H2a.43.43,0,0,0-.43.43v8.5a.43.43,0,0,0,.43.43ZM11.47,8.5v1.69H4.53V8.5a1.83,1.83,0,0,0-.4-1.21,2.55,2.55,0,0,0,1.39-1A2.46,2.46,0,0,0,6,5V2.55h4.1V5a2.46,2.46,0,0,0,.43,1.3,2.55,2.55,0,0,0,1.39,1A1.83,1.83,0,0,0,11.47,8.5ZM2.41,6.65V2.55H5.09V5a1.74,1.74,0,0,1-.3.86,2.4,2.4,0,0,1-2.1.84Zm.27.86h0a1.37,1.37,0,0,1,.53.14.86.86,0,0,1,.46.85v1.69H2.41V7.51Zm10.91,0v2.68H12.32V8.5a.86.86,0,0,1,.46-.85,1.22,1.22,0,0,1,.53-.14Zm-.28-.86a2.4,2.4,0,0,1-2.1-.84,1.74,1.74,0,0,1-.3-.86V2.55h2.68v4.1Z"/><path class="cls-1" d="M13.67,12H10.83a.44.44,0,0,0-.43.43.43.43,0,0,0,.43.43h2.84a.43.43,0,0,0,.43-.43A.44.44,0,0,0,13.67,12Z"/><path class="cls-1" d="M9.42,12.89a.43.43,0,0,0,.43-.43A.44.44,0,0,0,9.42,12H6.58a.44.44,0,0,0-.43.43.43.43,0,0,0,.43.43Z"/><path class="cls-1" d="M5.6,12.46A.44.44,0,0,0,5.17,12H2.33a.44.44,0,0,0-.43.43.43.43,0,0,0,.43.43H5.17A.43.43,0,0,0,5.6,12.46Z"/><path class="cls-1" d="M7.29,13.45H4.46a.43.43,0,0,0,0,.86H7.29a.43.43,0,0,0,0-.86Z"/><path class="cls-1" d="M11.54,13.45H8.71a.43.43,0,0,0,0,.86h2.83a.43.43,0,0,0,0-.86Z"/></svg>