<svg id="Layer_1" data-name="Layer 1" xmlns="http://www.w3.org/2000/svg" viewBox="0 0 16 16"><defs><style>.cls-1{fill:#32b496;stroke:#32b496;stroke-miterlimit:10;stroke-width:0.3px;}</style></defs><title>uniliv_heating_icon</title><path class="cls-1" d="M14.71,4.21a.29.29,0,0,0-.29.29V6.83h-.59V6.25a1.17,1.17,0,0,0-1.16-1.17,1.19,1.19,0,0,0-.88.4,1.17,1.17,0,0,0-.87-.4,1.19,1.19,0,0,0-.88.4,1.17,1.17,0,0,0-.87-.4,1.19,1.19,0,0,0-.88.4,1.17,1.17,0,0,0-.87-.4,1.19,1.19,0,0,0-.88.4,1.17,1.17,0,0,0-.87-.4,1.19,1.19,0,0,0-.88.4,1.16,1.16,0,0,0-2,.48H1.88a.29.29,0,0,0-.3.29v.58H1.29a.3.3,0,0,0,0,.59h.29V8a.29.29,0,0,0,.3.29h.87v5.54A1.17,1.17,0,0,0,3.92,15a1.12,1.12,0,0,0,.87-.4,1.16,1.16,0,0,0,.88.4,1.12,1.12,0,0,0,.87-.4,1.16,1.16,0,0,0,.88.4,1.12,1.12,0,0,0,.87-.4,1.16,1.16,0,0,0,.88.4,1.12,1.12,0,0,0,.87-.4,1.16,1.16,0,0,0,.88.4,1.12,1.12,0,0,0,.87-.4,1.16,1.16,0,0,0,2-.77V7.42h.88a.29.29,0,0,0,.29-.3V4.5A.29.29,0,0,0,14.71,4.21ZM2.17,7.71V6.54h.58V7.71Zm1.75,6.71a.6.6,0,0,1-.59-.59V6.25a.59.59,0,0,1,.59-.58.58.58,0,0,1,.58.58v7.58A.59.59,0,0,1,3.92,14.42Zm1.75,0a.6.6,0,0,1-.59-.59V6.25a.59.59,0,0,1,.59-.58.58.58,0,0,1,.58.58v7.58A.59.59,0,0,1,5.67,14.42Zm1.75,0a.6.6,0,0,1-.59-.59V6.25a.59.59,0,0,1,.59-.58A.58.58,0,0,1,8,6.25v7.58A.59.59,0,0,1,7.42,14.42Zm1.75,0a.6.6,0,0,1-.59-.59V6.25a.59.59,0,0,1,.59-.58.58.58,0,0,1,.58.58v7.58A.59.59,0,0,1,9.17,14.42Zm1.75,0a.6.6,0,0,1-.59-.59V6.25a.59.59,0,0,1,.59-.58.58.58,0,0,1,.58.58v7.58A.59.59,0,0,1,10.92,14.42Zm2.33-.59a.59.59,0,0,1-.58.59.6.6,0,0,1-.59-.59V6.25a.59.59,0,0,1,.59-.58.58.58,0,0,1,.58.58Z"/><path class="cls-1" d="M10.2,4a1,1,0,0,0,.2.39h0a.27.27,0,0,0,.22.11.29.29,0,0,0,.3-.29A.29.29,0,0,0,10.85,4h0a1,1,0,0,1-.09-.2.26.26,0,0,1,.07-.3.83.83,0,0,0,.22-.87,1.14,1.14,0,0,0-.2-.39h0a.3.3,0,0,0-.52.19.29.29,0,0,0,.07.18h0a.82.82,0,0,1,.09.19.25.25,0,0,1-.07.29A.85.85,0,0,0,10.2,4Z"/><path class="cls-1" d="M7.79,3.81a1.79,1.79,0,0,0,.27.58h0a.29.29,0,0,0,.23.12.29.29,0,0,0,.29-.29A.28.28,0,0,0,8.52,4h0a1.1,1.1,0,0,1-.17-.39.71.71,0,0,1,.16-.7A1.31,1.31,0,0,0,8.8,1.69a2,2,0,0,0-.28-.58h0A.28.28,0,0,0,8.29,1,.29.29,0,0,0,8,1.29a.28.28,0,0,0,.06.18h0a1.23,1.23,0,0,1,.18.39.74.74,0,0,1-.17.7A1.29,1.29,0,0,0,7.79,3.81Z"/><path class="cls-1" d="M5.53,4a1.22,1.22,0,0,0,.2.39h0A.28.28,0,0,0,6,4.5a.29.29,0,0,0,.29-.29A.28.28,0,0,0,6.19,4h0a.56.56,0,0,1-.1-.2.3.3,0,0,1,.07-.3.85.85,0,0,0,.23-.87,1.28,1.28,0,0,0-.21-.39h0A.29.29,0,0,0,6,2.17a.29.29,0,0,0-.29.29.28.28,0,0,0,.06.18h0a.67.67,0,0,1,.1.19.27.27,0,0,1-.08.29A.89.89,0,0,0,5.53,4Z"/></svg>