<svg id="Layer_1" data-name="Layer 1" xmlns="http://www.w3.org/2000/svg" viewBox="0 0 16 16"><defs><style>.cls-1{fill:#32b496;stroke:#32b496;stroke-miterlimit:10;stroke-width:0.2px;}</style></defs><title>uniliv_wheelchair_icon</title><path class="cls-1" d="M6.93,1.7A1.65,1.65,0,1,0,8.58,3.35,1.65,1.65,0,0,0,6.93,1.7Zm0,2.64a1,1,0,1,1,1-1A1,1,0,0,1,6.93,4.34Z"/><path class="cls-1" d="M6.9,15.62A5,5,0,0,1,5.09,6.05a.36.36,0,0,1,.48.21.38.38,0,0,1-.21.48,4.21,4.21,0,1,0,4.75,6.66.37.37,0,0,1,.52-.05.38.38,0,0,1,0,.53A5,5,0,0,1,6.9,15.62Z"/><path class="cls-1" d="M13.68,14.46H12a.37.37,0,0,1-.35-.24l-1.15-3.16L6.89,11a.38.38,0,0,1-.37-.37l0-5.36a.38.38,0,0,1,.37-.37h0a.37.37,0,0,1,.37.37l0,5,3.51,0a.37.37,0,0,1,.35.25l1.15,3.15h1.41a.37.37,0,1,1,0,.74Z"/><path class="cls-1" d="M10.78,8.88H6.91a.36.36,0,0,1-.37-.37.37.37,0,0,1,.37-.37h3.87a.37.37,0,1,1,0,.74Z"/></svg>