<svg id="Layer_1" data-name="Layer 1" xmlns="http://www.w3.org/2000/svg" viewBox="0 0 16 16"><defs><style>.cls-1{fill:#32b496;stroke:#32b496;stroke-miterlimit:10;stroke-width:0.3px;}</style></defs><title>unilive_study_room_icon</title><path class="cls-1" d="M8.48,13.72,7,9.72a.36.36,0,0,0-.34-.24H4.14V6.21a.38.38,0,0,0-.37-.37.37.37,0,0,0-.36.37V9.84a.36.36,0,0,0,.36.37H6.43L7.8,14a.35.35,0,0,0,.34.24l.12,0A.37.37,0,0,0,8.48,13.72Z"/><path class="cls-1" d="M5.32,11.27H1.88V6.18A.27.27,0,0,0,1.6,5.9a.27.27,0,0,0-.28.28v8.25a.26.26,0,0,0,.28.28.26.26,0,0,0,.28-.28v-2.6H5.07v2.6a.28.28,0,1,0,.55,0V11.55A.3.3,0,0,0,5.32,11.27Z"/><path class="cls-1" d="M4.84,5.52A1.68,1.68,0,1,0,3.16,3.84,1.68,1.68,0,0,0,4.84,5.52Zm0-2.8A1.12,1.12,0,1,1,3.72,3.84,1.12,1.12,0,0,1,4.84,2.72Z"/><path class="cls-1" d="M14.4,8H8a.25.25,0,1,0,0,.5h2.94v5.71H9.2a.25.25,0,1,0,0,.5h4a.25.25,0,1,0,0-.5h-1.7V8.5H14.4a.25.25,0,1,0,0-.5Z"/></svg>