<svg id="Layer_1" data-name="Layer 1" xmlns="http://www.w3.org/2000/svg" viewBox="0 0 16 16"><defs><style>.cls-1{fill:#32b496;}.cls-2{fill:#fff;}</style></defs><title>unilive_foosball_icon</title><path class="cls-1" d="M13.34,8V7.56H14.6A.41.41,0,0,0,15,7.15V5.51a.41.41,0,0,0-.41-.41H13.2a2.49,2.49,0,0,0-1.13-1.34,1.62,1.62,0,0,0,.45-1.13,1.65,1.65,0,0,0-3.29,0,1.62,1.62,0,0,0,.45,1.13A2.49,2.49,0,0,0,8.55,5.1H7.45A2.49,2.49,0,0,0,6.32,3.76a1.62,1.62,0,0,0,.45-1.13,1.65,1.65,0,0,0-3.29,0,1.62,1.62,0,0,0,.45,1.13A2.49,2.49,0,0,0,2.8,5.1H1.4A.41.41,0,0,0,1,5.51V7.15a.41.41,0,0,0,.41.41H2.66V8a1.22,1.22,0,0,0,.82,1.16v3a1.24,1.24,0,0,0,1.23,1.24h.83a1.24,1.24,0,0,0,1.23-1.24v-3A1.22,1.22,0,0,0,7.59,8V7.56h.82V8a1.22,1.22,0,0,0,.82,1.16v3a1.24,1.24,0,0,0,1.23,1.24h.45a2.06,2.06,0,0,0,2,1.64h0a2.06,2.06,0,1,0,0-4.11h0a2.71,2.71,0,0,0-.4,0V9.13A1.22,1.22,0,0,0,13.34,8Z"/><rect class="cls-2" x="13.34" y="5.92" width="0.85" height="0.82"/><polygon class="cls-2" points="2.66 6.74 1.81 6.74 1.81 5.92 2.66 5.92 2.66 6.74 2.66 6.74"/><circle class="cls-2" cx="5.12" cy="2.63" r="0.82"/><path class="cls-2" d="M6,12.13a.41.41,0,0,1-.41.41H4.71a.41.41,0,0,1-.41-.41V9.2H6v2.93Z"/><path class="cls-2" d="M6.77,8a.41.41,0,0,1-.41.41H3.89A.41.41,0,0,1,3.48,8v-2a1.65,1.65,0,1,1,3.29,0V8Z"/><rect class="cls-2" x="7.59" y="5.92" width="0.82" height="0.82"/><circle class="cls-2" cx="10.88" cy="2.63" r="0.82"/><path class="cls-2" d="M10.91,12.54h-.45a.41.41,0,0,1-.41-.41V9.2H11.7v2.11A2.09,2.09,0,0,0,10.91,12.54Z"/><path class="cls-2" d="M12.92,11.73h0a1.23,1.23,0,1,1,0,2.46h0a1.23,1.23,0,0,1,0-2.46Z"/><path class="cls-2" d="M12.11,8.38H9.64A.41.41,0,0,1,9.23,8v-2a1.65,1.65,0,1,1,3.29,0V8A.41.41,0,0,1,12.11,8.38Z"/></svg>