<svg id="Layer_1" data-name="Layer 1" xmlns="http://www.w3.org/2000/svg" viewBox="0 0 16 16"><defs><style>.cls-1,.cls-2{fill:#32b496;}.cls-1{stroke:#32b496;stroke-miterlimit:10;stroke-width:0.1px;}</style></defs><title>uniliv_photogallery_icon</title><path class="cls-1" d="M12.84,1.5H3.16A1.66,1.66,0,0,0,1.5,3.16v9.68A1.66,1.66,0,0,0,3.16,14.5h9.68a1.66,1.66,0,0,0,1.66-1.66V3.16A1.66,1.66,0,0,0,12.84,1.5Zm.9,11.34a.9.9,0,0,1-.9.9H3.16a.9.9,0,0,1-.9-.9v-1.4L4.78,9.3a.24.24,0,0,1,.32,0l1.58,1.31a.4.4,0,0,0,.52,0L11,6.83a.27.27,0,0,1,.19-.08.3.3,0,0,1,.18.09l2.42,3v3Zm0-4.23L11.91,6.36a1,1,0,0,0-1.5-.08L6.9,9.8,5.59,8.71a1,1,0,0,0-1.3,0l-2,1.72V3.16a.9.9,0,0,1,.9-.9h9.68a.9.9,0,0,1,.9.9Z"/><path class="cls-2" d="M4.94,6.27a1.5,1.5,0,1,1,1.5-1.5A1.5,1.5,0,0,1,4.94,6.27ZM4.94,4a.75.75,0,0,0,0,1.5.75.75,0,1,0,0-1.5Z"/></svg>