<svg id="Layer_1" data-name="Layer 1" xmlns="http://www.w3.org/2000/svg" viewBox="0 0 16 16"><defs><style>.cls-1{fill:none;}.cls-2{fill:#32b496;}</style></defs><title>uniliv_Electronic_keys_icon copy 2</title><rect class="cls-1" width="16" height="16"/><path class="cls-2" d="M5.79,4.25V3.93a.33.33,0,0,1,.34-.32v0H9.91a.32.32,0,0,1,.32.32v.32a.32.32,0,0,1-.32.32H6.13A.33.33,0,0,1,5.79,4.25Z"/><path class="cls-2" d="M8,9.63V9.36c0-.15.27-.27.64-.27v0h3.77c.32,0,.59.12.59.27v.27c0,.14-.27.27-.59.27H8.64C8.27,9.92,8,9.79,8,9.63Z"/><path class="cls-2" d="M10.73,16H5.29A1.49,1.49,0,0,1,3.8,14.47V1.63A1.49,1.49,0,0,1,5.29.14h5.44a1.49,1.49,0,0,1,1.49,1.49V14.47A1.49,1.49,0,0,1,10.73,16ZM5.29,1.14a.49.49,0,0,0-.49.49V14.47a.49.49,0,0,0,.49.49h5.44a.49.49,0,0,0,.49-.49V1.63a.49.49,0,0,0-.49-.49Z"/><circle class="cls-2" cx="8.48" cy="9.5" r="1.5"/></svg>