<svg id="Layer_1" data-name="Layer 1" xmlns="http://www.w3.org/2000/svg" viewBox="0 0 16 16"><defs><style>.cls-1{fill:#32b496;}</style></defs><title>uniliv_play_station_icon</title><path id="_Compound_Path_" data-name="&lt;Compound Path&gt;" class="cls-1" d="M7.75,3.23a.23.23,0,0,1-.18-.07,1.57,1.57,0,0,0-2.14,0,.25.25,0,0,1-.36-.36,2,2,0,0,1,2.86,0,.27.27,0,0,1,0,.36A.26.26,0,0,1,7.75,3.23Zm-.44,1.1a.27.27,0,0,1-.19-.08.87.87,0,0,0-1.23,0,.25.25,0,1,1-.36-.36,1.4,1.4,0,0,1,2,0,.27.27,0,0,1,0,.36A.27.27,0,0,1,7.31,4.33ZM4.88,8.43H4.45V8A.43.43,0,1,0,3.6,8v.43H3.17a.43.43,0,0,0,0,.85H3.6V9.7a.43.43,0,1,0,.85,0V9.28h.43a.43.43,0,0,0,0-.85ZM15,2.32V13.68A1.29,1.29,0,0,1,13.68,15H9.9a1.71,1.71,0,0,1-1.67-1.37L8,12.18a.44.44,0,0,0-.42-.35H5.35a.43.43,0,0,0-.42.35l-.28,1.41A1.71,1.71,0,0,1,3,15H2.75A1.72,1.72,0,0,1,1,13.25V8A2.14,2.14,0,0,1,3.17,5.87h2l.09-.18A.7.7,0,0,1,5.9,5.3H7a.71.71,0,0,1,.64.39l.09.18H9V2.32A1.29,1.29,0,0,1,10.27,1h3.41A1.29,1.29,0,0,1,15,2.32ZM11,8A1.28,1.28,0,0,0,9.7,6.72H7.43a.43.43,0,0,1-.38-.23l-.17-.34H6l-.17.34a.42.42,0,0,1-.38.23H3.17A1.29,1.29,0,0,0,1.89,8v5.25a.87.87,0,0,0,.86.86H3a.85.85,0,0,0,.83-.69L4.09,12a1.28,1.28,0,0,1,1.26-1H7.53a1.27,1.27,0,0,1,1.25,1l.28,1.41a.87.87,0,0,0,.84.69h.23a.86.86,0,0,0,.85-.86Zm3.13-5.68a.43.43,0,0,0-.43-.43H12.4V4a.43.43,0,1,1-.85,0V1.89H10.27a.42.42,0,0,0-.42.43V5.87a2.14,2.14,0,0,1,2,2.13v5.25a1.77,1.77,0,0,1-.22.86h2.07a.43.43,0,0,0,.43-.43Zm-4,6.53a1.28,1.28,0,0,1-2.56,0,1.28,1.28,0,0,1,2.56,0Zm-.85,0a.43.43,0,1,0-.43.43A.42.42,0,0,0,9.28,8.85Z"/></svg>