<svg id="Layer_1" data-name="Layer 1" xmlns="http://www.w3.org/2000/svg" viewBox="0 0 16 16"><defs><style>.cls-1,.cls-2{fill:none;}.cls-1{stroke:#32b496;stroke-linecap:round;stroke-linejoin:round;}</style></defs><title>uniliv_electricity_icon</title><path class="cls-1" d="M5.2,15.13a.23.23,0,0,1-.11,0A.21.21,0,0,1,5,14.84l2.25-6.2L4.53,7.86a.21.21,0,0,1-.15-.14.2.2,0,0,1,0-.2L10,.94a.22.22,0,0,1,.27,0,.23.23,0,0,1,.11.25L8.73,6.68l2.74.78a.21.21,0,0,1,.15.14.23.23,0,0,1,0,.21L5.37,15.06A.23.23,0,0,1,5.2,15.13Z"/><rect class="cls-2" width="16" height="16"/></svg>