<svg id="Layer_1" data-name="Layer 1" xmlns="http://www.w3.org/2000/svg" viewBox="0 0 16 16"><defs><style>.cls-1{fill:#32b496;}</style></defs><title>uniliv_ac_icon</title><path class="cls-1" d="M14,10.61H2A1.64,1.64,0,0,1,.38,9V4.47A1.65,1.65,0,0,1,2,2.83H14a1.66,1.66,0,0,1,1.65,1.64V9A1.64,1.64,0,0,1,14,10.61ZM2,3.83a.65.65,0,0,0-.65.64V9A.64.64,0,0,0,2,9.61H14A.64.64,0,0,0,14.62,9V4.47A.65.65,0,0,0,14,3.83Z"/><path class="cls-1" d="M13.19,7.81H2.81a.39.39,0,0,0-.4.39.4.4,0,0,0,.4.4H13.19a.4.4,0,0,0,.4-.4A.39.39,0,0,0,13.19,7.81Z"/><path class="cls-1" d="M13.23,6.3a.4.4,0,0,0-.4.4v.13a.4.4,0,0,0,.79,0V6.7A.4.4,0,0,0,13.23,6.3Z"/><path class="cls-1" d="M3.82,10.72a.4.4,0,0,0-.48.29l-.29,1.17a.39.39,0,0,0,.29.48.41.41,0,0,0,.48-.29l.29-1.17A.4.4,0,0,0,3.82,10.72Z"/><path class="cls-1" d="M6.61,11.18a.39.39,0,0,0-.43.36l-.1,1.2a.4.4,0,0,0,.36.43.41.41,0,0,0,.43-.36L7,11.6A.39.39,0,0,0,6.61,11.18Z"/><path class="cls-1" d="M13,12.18,12.65,11a.39.39,0,1,0-.76.19l.29,1.17a.41.41,0,0,0,.48.29A.4.4,0,0,0,13,12.18Z"/><path class="cls-1" d="M9.91,12.74l-.09-1.2a.39.39,0,0,0-.43-.36A.38.38,0,0,0,9,11.6l.1,1.21a.4.4,0,0,0,.42.36A.39.39,0,0,0,9.91,12.74Z"/></svg>