<svg id="Layer_1" data-name="Layer 1" xmlns="http://www.w3.org/2000/svg" viewBox="0 0 16 16"><defs><style>.cls-1{fill:#32b496;}.cls-2{fill:#fff;}</style></defs><title>uniliv_bbq_icon</title><path class="cls-1" d="M14,6.62h-.34c0-.11,0-.22,0-.33a.52.52,0,0,0-.52-.52H2.87a.52.52,0,0,0-.52.52c0,.11,0,.22,0,.33H2a.52.52,0,0,0,0,1h.5A5.72,5.72,0,0,0,4.1,10.37h0L2.39,14.64a.52.52,0,0,0,.29.67.43.43,0,0,0,.19,0A.5.5,0,0,0,3.35,15L5,11a5.62,5.62,0,0,0,6.1,0l1.6,4a.5.5,0,0,0,.48.33.43.43,0,0,0,.19,0,.52.52,0,0,0,.29-.67L11.9,10.37h0a5.72,5.72,0,0,0,1.58-2.71H14a.52.52,0,1,0,0-1Z"/><path class="cls-2" d="M8,10.9A4.62,4.62,0,0,1,3.42,6.8h9.16A4.62,4.62,0,0,1,8,10.9Z"/><path class="cls-1" d="M5.44,5.1A.51.51,0,0,0,6,4.59V2a.52.52,0,1,0-1,0V4.59A.51.51,0,0,0,5.44,5.1Z"/><path class="cls-1" d="M10.56,5.1a.51.51,0,0,0,.52-.51V2a.52.52,0,1,0-1,0V4.59A.51.51,0,0,0,10.56,5.1Z"/><path class="cls-1" d="M8,4.25a.52.52,0,0,0,.52-.52V1.17a.52.52,0,1,0-1,0V3.73A.52.52,0,0,0,8,4.25Z"/></svg>