<svg id="Layer_1" data-name="Layer 1" xmlns="http://www.w3.org/2000/svg" viewBox="0 0 16 16"><defs><style>.cls-1{fill:#32b496;}</style></defs><title>uniliv_cleaning_icon</title><path class="cls-1" d="M14.18,10a2.63,2.63,0,0,0-1-2,3.43,3.43,0,0,0-1.06-.5V6.27h-.4V4.78a3.8,3.8,0,0,0-7.59,0v7.88H3A1.31,1.31,0,0,0,1.71,14v1H7.27V14A1.31,1.31,0,0,0,6,12.66H4.89V4.78a3,3,0,0,1,6,0V6.25h-.4V7.44a3.43,3.43,0,0,0-1.06.5,2.57,2.57,0,0,0-1,2l-.12,3.95a1,1,0,0,0,1,1.07h4a1,1,0,0,0,.72-.31,1.12,1.12,0,0,0,.3-.76ZM6.44,14v.2H2.54V14a.49.49,0,0,1,.49-.5H6A.52.52,0,0,1,6.44,14ZM11,6.8h.51v.53H11ZM9.9,8.61a2.31,2.31,0,0,1,2.74,0A1.79,1.79,0,0,1,13.35,10l.07,2.08h-.74V12a1.12,1.12,0,0,0-1.12-1.12H11A1.13,1.13,0,0,0,9.87,12v.06H9.13L9.2,10A1.69,1.69,0,0,1,9.9,8.61Zm2.23,3.46H10.41V12a.59.59,0,0,1,.57-.58h.56a.59.59,0,0,1,.58.58v.06Zm1.28,2a.17.17,0,0,1-.12.05h-.61v-.72h-.55v.72H10.41v-.72H9.86v.72H9.25a.17.17,0,0,1-.12-.05.26.26,0,0,1-.07-.17l0-1.31h4.32l0,1.31A.18.18,0,0,1,13.41,14.11Z"/><path class="cls-1" d="M12.71,13.58v.73a.29.29,0,0,1-.31.27.3.3,0,0,1-.32-.27v-.73a.3.3,0,0,1,.32-.26A.29.29,0,0,1,12.71,13.58Z"/><path class="cls-1" d="M10.45,13.58v.73a.3.3,0,0,1-.32.27.29.29,0,0,1-.31-.27v-.73a.29.29,0,0,1,.31-.26A.3.3,0,0,1,10.45,13.58Z"/></svg>