<svg id="Layer_1" data-name="Layer 1" xmlns="http://www.w3.org/2000/svg" viewBox="0 0 16 16"><defs><style>.cls-1,.cls-2{fill:#32b496;}.cls-1{stroke:#32b496;stroke-miterlimit:10;stroke-width:0.2px;}.cls-3{fill:#fff;}</style></defs><title>uniliv_laundry_icon</title><path class="cls-1" d="M2.63,2.63V13.37A1.27,1.27,0,0,0,3.9,14.63h8.2a1.27,1.27,0,0,0,1.27-1.26V2.63A1.27,1.27,0,0,0,12.1,1.37H3.9A1.27,1.27,0,0,0,2.63,2.63ZM12.1,14H3.9a.64.64,0,0,1-.64-.63v-8h9.48v8A.64.64,0,0,1,12.1,14ZM3.9,2h8.2a.64.64,0,0,1,.64.63V4.72H3.26V2.63A.64.64,0,0,1,3.9,2Z"/><path class="cls-1" d="M8,6.89a2.85,2.85,0,1,0,2.84,2.85A2.85,2.85,0,0,0,8,6.89Zm0,5.17a2.33,2.33,0,1,1,2.33-2.32A2.33,2.33,0,0,1,8,12.06Z"/><path class="cls-2" d="M6.56,2.91H4.38c-.18,0-.33.2-.33.43a.39.39,0,0,0,.33.43H6.56c.19,0,.33-.19.33-.43A.39.39,0,0,0,6.56,2.91Z"/><circle class="cls-2" cx="11.23" cy="3.42" r="0.76"/><circle class="cls-3" cx="11.23" cy="3.42" r="0.25"/></svg>