<svg height="512pt" viewBox="0 -31 512 512" width="512pt" xmlns="http://www.w3.org/2000/svg"><path d="m437 0h-61c-52.5 0-97.800781 30.597656-120 74.398438-22.199219-43.800782-67.5-74.398438-120-74.398438h-60c-8.402344 0-15 6.597656-15 15 0 74.398438 60.601562 135 135 135h120c74.398438 0 136-60.601562 136-135 0-8.402344-6.597656-15-15-15zm0 0" fill="#ffd400"/><path d="m437 0h-61c-52.5 0-97.800781 30.597656-120 74.398438v75.601562h60c74.398438 0 136-60.601562 136-135 0-8.402344-6.597656-15-15-15zm0 0" fill="#fdbf00"/><path d="m256 150c-2.898438 0-5.800781-.839844-8.320312-2.519531l-90-60c-6.894532-4.59375-8.753907-13.910157-4.160157-20.800781 4.59375-6.894532 13.910157-8.753907 20.800781-4.160157l81.679688 54.453125 81.679688-54.453125c6.890624-4.59375 16.207031-2.734375 20.800781 4.160157 4.59375 6.894531 2.734375 16.207031-4.160157 20.800781l-90 60c-2.519531 1.679687-5.421874 2.519531-8.320312 2.519531zm0 0" fill="#fdbf00"/><path d="m264.320312 147.480469 90-60c6.894532-4.59375 8.753907-13.910157 4.160157-20.800781-4.59375-6.894532-13.910157-8.753907-20.800781-4.160157l-81.679688 54.453125v33.027344c2.898438 0 5.800781-.839844 8.320312-2.519531zm0 0" fill="#ff9f00"/><path d="m482 225v180c0 24.898438-20.097656 45-45 45h-136l-45-30-45 30h-135c-24.902344 0-46-20.101562-46-45v-180c0-8.402344 6.597656-15 15-15h422c8.402344 0 15 6.597656 15 15zm0 0" fill="#ff4b00"/><path d="m482 225v180c0 24.898438-20.097656 45-45 45h-136l-45-30v-210h211c8.402344 0 15 6.597656 15 15zm0 0" fill="#dd3400"/><path d="m512 165v60c0 8.398438-6.597656 15-15 15h-482c-8.402344 0-15-6.601562-15-15v-60c0-24.902344 20.097656-45 45-45h166l45 30 45-30h166c24.902344 0 45 20.097656 45 45zm0 0" fill="#ff7816"/><path d="m512 165v60c0 8.398438-6.597656 15-15 15h-241v-90l45-30h166c24.902344 0 45 20.097656 45 45zm0 0" fill="#ff4b00"/><path d="m211 120h90v330h-90zm0 0" fill="#ffe470"/><path d="m256 120h45v330h-45zm0 0" fill="#ffd400"/></svg>