<?xml version="1.0" encoding="utf-8"?>
<!-- Generator: Adobe Illustrator 21.0.0, SVG Export Plug-In . SVG Version: 6.00 Build 0)  -->
<svg version="1.1" id="Layer_1" xmlns="http://www.w3.org/2000/svg" xmlns:xlink="http://www.w3.org/1999/xlink" x="0px" y="0px"
	 viewBox="0 0 600 600" style="enable-background:new 0 0 600 600;" xml:space="preserve">
<style type="text/css">
	.st0{fill:#FFFFFF;}
	.st1{font-family:'OpenSans-Bold';}
	.st2{font-size:23px;}
	.st3{fill:#462D7C;}
	.st4{font-family:'OpenSans';}
	.st5{font-size:12px;}
	.st6{fill:#D1D3D4;}
</style>
<g>
	<path d="M229.3,276.2c-10.8,0-19.7,8.8-19.7,19.7c0,13.5,17.6,33.2,18.3,34c0.7,0.8,1.9,0.8,2.6,0c0.7-0.8,18.3-20.6,18.3-34
		C249,285,240.2,276.2,229.3,276.2z M229.3,305.7c-5.5,0-9.9-4.4-9.9-9.9c0-5.5,4.4-9.9,9.9-9.9c5.5,0,9.9,4.4,9.9,9.9
		C239.2,301.3,234.8,305.7,229.3,305.7z"/>
	<text transform="matrix(1 0 0 1 255.3605 293.9894)" class="st1 st2">London</text>
	<path class="st3" d="M386.7,330.4H260.6c-2,0-3.6-1.6-3.6-3.6v-20.5c0-2,1.6-3.6,3.6-3.6h126.1c2,0,3.6,1.6,3.6,3.6v20.5
		C390.3,328.8,388.7,330.4,386.7,330.4z"/>
	<text transform="matrix(1 0 0 1 293.2041 320.6566)" class="st0 st4 st5">£149/week</text>
	<ellipse class="st6" cx="229.3" cy="332.6" rx="10.9" ry="2.2"/>
</g>
</svg>
