<?xml version="1.0" encoding="utf-8"?>
<!-- Generator: Adobe Illustrator 21.0.0, SVG Export Plug-In . SVG Version: 6.00 Build 0)  -->
<svg version="1.1" id="Layer_1" xmlns="http://www.w3.org/2000/svg" xmlns:xlink="http://www.w3.org/1999/xlink" x="0px" y="0px"
	 viewBox="0 0 140 50" style="enable-background:new 0 0 140 50;" xml:space="preserve">
<style type="text/css">
	.st0{font-family:'OpenSans-Bold';}
	.st1{font-size:17.5716px;}
	.st2{fill:#462D7C;}
	.st3{fill:#FFFFFF;}
	.st4{font-family:'OpenSans';}
	.st5{font-size:12px;}
	.st6{fill:#D1D3D4;}
</style>
<g>
	<path d="M16.2,3.6c-8.3,0-15,6.7-15,15c0,10.3,13.4,25.4,14,26c0.5,0.6,1.5,0.6,2,0c0.6-0.6,14-15.7,14-26
		C31.2,10.4,24.5,3.6,16.2,3.6z M16.2,26.2c-4.2,0-7.6-3.4-7.6-7.6s3.4-7.6,7.6-7.6s7.6,3.4,7.6,7.6S20.4,26.2,16.2,26.2z"/>
	<text transform="matrix(1 0 0 1 36.0815 17.2729)" class="st0 st1">London</text>
	<path class="st2" d="M135.6,45.1H41c-2,0-3.6-1.6-3.6-3.6V27.6c0-2,1.6-3.6,3.6-3.6h94.6c2,0,3.6,1.6,3.6,3.6v13.9
		C139.2,43.5,137.6,45.1,135.6,45.1z"/>
	<text transform="matrix(1 0 0 1 56.9937 37.6465)" class="st3 st4 st5">£149/week</text>
	<ellipse class="st6" cx="16.2" cy="46.8" rx="8.3" ry="1.7"/>
</g>
</svg>
