<svg id="Layer_1" data-name="Layer 1" xmlns="http://www.w3.org/2000/svg" xmlns:xlink="http://www.w3.org/1999/xlink" viewBox="0 0 800 800"><defs><style>.cls-1{fill:none;}.cls-2{clip-path:url(#clip-path);}.cls-3{fill:#f26d59;stroke:#000;stroke-miterlimit:10;stroke-width:4px;}.cls-4{font-size:288.87px;font-family:OpenSans-Bold, Open Sans;font-weight:700;}</style><clipPath id="clip-path"><rect class="cls-1" x="68.1" y="86.43" width="655.72" height="655.84"/></clipPath></defs><title>man 2</title><g class="cls-2"><path class="cls-3" d="M600.46,536.88h-41A81.9,81.9,0,0,1,477.6,455V428.67c18.11-21.54,31.11-47,39.19-73.93.84-4.54,5.2-6.78,8.12-9.9,15.68-15.67,18.76-42.13,7-61-1.6-2.86-4.47-5.34-4.32-8.88,0-24,.12-48.07,0-72.06-.64-29-8.92-59.11-29.24-80.56-16.4-17.33-38.91-27.66-62.14-32.07C406.82,84.71,376.11,85,347,92.39c-25.19,6.35-48.87,21.11-63.5,43-13,19-18.64,42.11-19.6,64.86-.36,24.43-.08,48.93-.16,73.42.56,4.9-3.6,8.22-5.48,12.28-11.07,20.09-6.2,47.47,11.6,62.08,4.52,3.12,5.36,8.8,7,13.7,7.76,24.19,20.63,46.57,36.91,66.06V455a81.91,81.91,0,0,1-81.9,81.9H191S116.73,557.36,68.1,659.73v40.95a40.93,40.93,0,0,0,41,41h573.3a40.93,40.93,0,0,0,41-41V659.73C674.68,557.36,600.46,536.88,600.46,536.88Zm0,0"/></g><text class="cls-4" transform="translate(557.4 283.78)">?</text></svg>