<svg id="Layer_1" data-name="Layer 1" xmlns="http://www.w3.org/2000/svg" viewBox="0 0 100 50"><defs><style>.cls-1{fill:#faf181;}.cls-2{fill:#ef464e;}.cls-3{fill:#db2f37;}.cls-4{fill:#ffdb57;}.cls-5{fill:#f4ba3b;}.cls-6{fill:#ef9325;}.cls-7{fill:#ef4136;}.cls-8{fill:#27aae1;}.cls-9{fill:#009444;}.cls-10{fill:#f26d59;}.cls-11{font-size:6.81px;fill:#fff;font-family:OpenSans-Bold, Open Sans;font-weight:700;}.cls-12{font-size:5.21px;font-family:OpenSans, Open Sans;}</style></defs><title>offer</title><rect class="cls-1" x="0.63" y="4.23" width="98.75" height="44.35"/><path class="cls-2" d="M96,38.35H83.24a.24.24,0,0,0-.24.24V46.1a.24.24,0,0,0,.24.24H96a.24.24,0,0,0,.24-.24V38.59A.24.24,0,0,0,96,38.35Z"/><path class="cls-3" d="M96,38.35H83.24a.24.24,0,0,0-.24.24v1H96.25v-1A.24.24,0,0,0,96,38.35Z"/><path class="cls-4" d="M90.86,38.35H88.39a.24.24,0,0,0-.24.24V46.1a.24.24,0,0,0,.24.24h2.47a.24.24,0,0,0,.24-.24V38.59A.24.24,0,0,0,90.86,38.35Z"/><path class="cls-5" d="M90.86,38.35H88.39a.24.24,0,0,0-.24.24v1h3v-1A.24.24,0,0,0,90.86,38.35Z"/><path class="cls-4" d="M95.54,33.88a4.89,4.89,0,0,0-1-1.62A.74.74,0,0,0,94,32c-.73,0-1.91.93-3.52,2.71a.24.24,0,0,0-.06.16V36.2a.24.24,0,0,0,.24.24h3.72a1.27,1.27,0,0,0,1.31-.74A2.56,2.56,0,0,0,95.54,33.88Z"/><path class="cls-6" d="M95.67,34.3l0-.07c-.37-.55-1.16-.35-1.75-.08a6,6,0,0,0-2.49,1.92.24.24,0,0,0,.2.37h2.76A1.38,1.38,0,0,0,95.53,36,1.89,1.89,0,0,0,95.67,34.3Z"/><path class="cls-4" d="M88.79,34.76C87.18,33,86,32.07,85.27,32a.74.74,0,0,0-.56.21,4.89,4.89,0,0,0-1,1.62,2.56,2.56,0,0,0-.14,1.82,1.27,1.27,0,0,0,1.31.74h3.72a.24.24,0,0,0,.24-.24V34.92A.24.24,0,0,0,88.79,34.76Z"/><path class="cls-6" d="M87.85,36.07a6,6,0,0,0-2.49-1.92c-.6-.27-1.39-.48-1.75.08l0,.07A1.89,1.89,0,0,0,83.72,36a1.38,1.38,0,0,0,1.16.48h2.76a.24.24,0,0,0,.2-.37Z"/><path class="cls-5" d="M90.64,34.44h-2a.24.24,0,0,0-.24.24V36.2a.24.24,0,0,0,.24.24h2a.24.24,0,0,0,.24-.24V34.68A.24.24,0,0,0,90.64,34.44Z"/><path class="cls-2" d="M97,36H82.2a.24.24,0,0,0-.24.24v2.39a.24.24,0,0,0,.24.24H97a.24.24,0,0,0,.24-.24V36.2A.24.24,0,0,0,97,36Z"/><rect class="cls-4" x="87.77" y="35.96" width="3.72" height="2.87"/><polygon class="cls-7" points="76.71 32.53 76.71 35.96 81 34.25 76.71 32.53"/><polygon class="cls-8" points="81.8 28.36 84.07 30.94 85.28 27.58 81.8 28.36"/><polygon class="cls-9" points="94.47 26.52 94.47 28.63 97.1 27.58 94.47 26.52"/><polygon class="cls-10" points="79.31 13.79 72.06 7.65 79.31 0.39 19.82 0.39 27.63 7.69 19.82 13.7 79.31 13.79"/><text class="cls-11" transform="translate(29.08 9.36)">Special offer</text><text class="cls-12" transform="translate(4.53 22.86)">Get a Free Gym &amp; Swim Membership!</text><text class="cls-12" transform="translate(4.53 31.67)">$50 Cashback</text></svg>