<?xml version="1.0" encoding="utf-8"?>
<!-- Generator: Adobe Illustrator 21.0.0, SVG Export Plug-In . SVG Version: 6.00 Build 0)  -->
<svg version="1.1" id="Layer_1" xmlns="http://www.w3.org/2000/svg" xmlns:xlink="http://www.w3.org/1999/xlink" x="0px" y="0px"
	 viewBox="0 0 400 200" style="enable-background:new 0 0 400 200;" xml:space="preserve">
<style type="text/css">
	.st0{fill:#B6E1DD;}
	.st1{fill:#EF464E;}
	.st2{fill:#DB2F37;}
	.st3{fill:#FFDB57;}
	.st4{fill:#F4BA3B;}
	.st5{fill:#EF9325;}
	.st6{fill:#EF4136;}
	.st7{fill:#27AAE1;}
	.st8{fill:#009444;}
	.st9{fill:#F26D59;}
	.st10{fill:#FFFFFF;}
	.st11{font-family:'OpenSans-Bold';}
	.st12{font-size:27.3097px;}
	.st13{font-family:'OpenSans-Semibold';}
	.st14{font-size:20.906px;}
	.st15{fill:#B3E0E0;}
</style>
<rect x="2" y="19.5" class="st0" width="396.2" height="177.9"/>
<g>
	<g>
		<path class="st1" d="M384.7,156.3h-51.2c-0.5,0-1,0.4-1,1v30.1c0,0.5,0.4,1,1,1h51.2c0.5,0,1-0.4,1-1v-30.1
			C385.7,156.8,385.2,156.3,384.7,156.3z"/>
		<path class="st2" d="M384.7,156.3h-51.2c-0.5,0-1,0.4-1,1v3.9h53.2v-3.9C385.7,156.8,385.2,156.3,384.7,156.3z"/>
		<path class="st3" d="M364,156.3h-9.9c-0.5,0-1,0.4-1,1v30.1c0,0.5,0.4,1,1,1h9.9c0.5,0,1-0.4,1-1v-30.1
			C365,156.8,364.6,156.3,364,156.3z"/>
		<path class="st4" d="M364,156.3h-9.9c-0.5,0-1,0.4-1,1v3.9H365v-3.9C365,156.8,364.6,156.3,364,156.3z"/>
		<path class="st3" d="M382.8,138.4c-1-2.5-2.5-4.9-4-6.5c-0.6-0.6-1.3-0.9-2.2-0.9c-2.9,0.1-7.7,3.7-14.1,10.9
			c-0.2,0.2-0.3,0.4-0.3,0.7v5.1c0,0.5,0.4,1,1,1h14.9c3.3,0,4.7-1.6,5.3-3C384.1,143.9,383.9,141.3,382.8,138.4z"/>
		<path class="st5" d="M383.4,140.1c0-0.1-0.1-0.2-0.1-0.3c-1.5-2.2-4.6-1.4-7-0.3c-7,3.2-9.9,7.5-10,7.7c-0.2,0.3-0.2,0.7,0,1
			s0.5,0.5,0.9,0.5h11.1c2.1,0,3.7-0.7,4.7-1.9C383.9,145.2,384.1,142.9,383.4,140.1z"/>
		<path class="st3" d="M355.7,141.9c-6.5-7.1-11.2-10.8-14.1-10.9c-0.9,0-1.7,0.3-2.2,0.9c-1.6,1.6-3.1,4-4,6.5
			c-1.1,2.9-1.3,5.5-0.6,7.3c0.6,1.4,1.9,3,5.3,3H355c0.5,0,1-0.4,1-1v-5.1C356,142.3,355.9,142.1,355.7,141.9z"/>
		<path class="st5" d="M351.9,147.2c-0.1-0.2-3-4.5-10-7.7c-2.4-1.1-5.6-1.9-7,0.3c-0.1,0.1-0.1,0.2-0.1,0.3
			c-0.8,2.8-0.6,5.1,0.6,6.7c1,1.3,2.6,1.9,4.7,1.9h11.1c0.4,0,0.7-0.2,0.9-0.5C352.2,147.9,352.1,147.5,351.9,147.2z"/>
		<path class="st4" d="M363.1,140.7H355c-0.5,0-1,0.4-1,1v6.1c0,0.5,0.4,1,1,1h8.1c0.5,0,1-0.4,1-1v-6.1
			C364.1,141.1,363.7,140.7,363.1,140.7z"/>
		<path class="st1" d="M388.9,146.8h-59.6c-0.5,0-1,0.4-1,1v9.6c0,0.5,0.4,1,1,1h59.6c0.5,0,1-0.4,1-1v-9.6
			C389.8,147.2,389.4,146.8,388.9,146.8z"/>
		<rect x="351.6" y="146.8" class="st3" width="14.9" height="11.5"/>
	</g>
	<polygon class="st6" points="307.3,133 307.3,146.8 324.5,139.9 	"/>
	<polygon class="st7" points="327.7,116.3 336.8,126.6 341.6,113.1 	"/>
	<polygon class="st8" points="378.5,108.9 378.5,117.3 389.1,113.1 	"/>
</g>
<polygon class="st9" points="317.7,57.8 288.6,33.2 317.7,4.1 79.1,4.1 110.4,33.4 79.1,57.5 "/>
<text transform="matrix(1 0 0 1 116.166 40.0366)" class="st10 st11 st12">Special offer</text>
<text transform="matrix(1 0 0 1 13.708 94.2056)" class="st13 st14">Get a Free Gym &amp; Swim Membership!</text>
<text transform="matrix(1 0 0 1 13.708 129.5352)" class="st13 st14">$50 Cashback</text>
</svg>
