<svg height="512pt" viewBox="0 -14 512 512" width="512pt" xmlns="http://www.w3.org/2000/svg"><path d="m417.097656 86.191406v259.75c0 13.5625-10.992187 24.550782-24.550781 24.550782h-367.996094c-13.558593 0-24.550781-10.988282-24.550781-24.550782v-259.738281c0-4.910156 1.484375-9.777344 4.324219-13.925781l42.449219-61.648438c4.585937-6.644531 12.140624-10.62499975 20.214843-10.62499975h283.121094c8.085937 0 15.640625 3.98046875 20.226563 10.63281275l42.4375 61.640625c2.882812 4.210937 4.324218 9.089844 4.324218 13.914062zm0 0" fill="#00cc76"/><path d="m417.097656 86.191406v259.75c0 13.5625-10.992187 24.550782-24.550781 24.550782h-183.988281v-370.48828175h141.550781c8.085937 0 15.640625 3.98046875 20.226563 10.63281275l42.4375 61.640625c2.882812 4.210937 4.324218 9.089844 4.324218 13.914062zm0 0" fill="#00aa63"/><path d="m415.800781 78.355469h-414.503906c.710937-2.152344 1.734375-4.1875 3.027344-6.078125l42.449219-61.648438c4.585937-6.644531 12.140624-10.62499975 20.214843-10.62499975h283.121094c8.085937 0 15.640625 3.98046875 20.226563 10.63281275l42.4375 61.640625c1.292968 1.890625 2.316406 3.925781 3.027343 6.078125zm0 0" fill="#a6ffb5"/><path d="m415.800781 78.355469h-207.242187v-78.35156275h141.550781c8.085937 0 15.640625 3.98046875 20.226563 10.63281275l42.4375 61.640625c1.292968 1.890625 2.316406 3.925781 3.027343 6.078125zm0 0" fill="#00ff94"/><path d="m271.054688 78.5625v108.476562c0 6.871094-8.023438 10.632813-13.300782 6.234376l-40.480468-33.703126c-2.53125-2.109374-5.621094-3.152343-8.714844-3.152343-3.101563 0-6.207032 1.042969-8.734375 3.152343l-40.472657 33.703126c-5.273437 4.398437-13.296874.636718-13.296874-6.234376v-108.476562l.039062-.207031 16.164062-78.355469h92.582032l16.171875 78.355469zm0 0" fill="#ffd422"/><path d="m271.054688 78.5625v108.476562c0 6.871094-8.023438 10.632813-13.300782 6.234376l-40.480468-33.703126c-2.53125-2.109374-5.621094-3.152343-8.714844-3.152343v-156.417969h46.28125l16.171875 78.355469zm0 0" fill="#eebf00"/><path d="m271.011719 78.355469h-124.917969l16.164062-78.355469h92.582032zm0 0" fill="#fff1b6"/><path d="m271.011719 78.355469h-62.453125v-78.355469h46.28125zm0 0" fill="#ffd422"/><path d="m400.042969 260.90625c-61.734375 0-111.957031 50.222656-111.957031 111.957031s50.222656 111.957031 111.957031 111.957031 111.957031-50.222656 111.957031-111.957031-50.222656-111.957031-111.957031-111.957031zm0 0" fill="#ff7c48"/><path d="m512 372.863281c0 61.734375-50.21875 111.953125-111.953125 111.953125h-.011719v-223.90625h.011719c61.734375 0 111.953125 50.21875 111.953125 111.953125zm0 0" fill="#ff4c04"/><path d="m480.65625 372.863281c0 44.453125-36.167969 80.609375-80.609375 80.609375-44.453125 0-80.621094-36.15625-80.621094-80.609375s36.167969-80.609375 80.621094-80.609375c44.441406 0 80.609375 36.15625 80.609375 80.609375zm0 0" fill="#fff5cc"/><path d="m480.65625 372.863281c0 44.453125-36.167969 80.609375-80.609375 80.609375h-.011719v-161.21875h.011719c44.441406 0 80.609375 36.15625 80.609375 80.609375zm0 0" fill="#ffeb99"/><path d="m390.148438 341.832031c0 10.808594-8.761719 19.570313-19.566407 19.570313-10.808593 0-19.570312-8.761719-19.570312-19.570313 0-10.808593 8.761719-19.570312 19.570312-19.570312 10.804688 0 19.566407 8.761719 19.566407 19.570312zm0 0" fill="#ff7c48"/><path d="m452.207031 403.890625c0 10.808594-8.761719 19.570313-19.570312 19.570313-10.808594 0-19.570313-8.761719-19.570313-19.570313s8.761719-19.570313 19.570313-19.570313c10.808593 0 19.570312 8.761719 19.570312 19.570313zm0 0" fill="#ff4c04"/><path d="m445.566406 351.070312-65.746094 65.746094c-6.121093 6.121094-16.046874 6.121094-22.167968 0-6.121094-6.125-6.121094-16.046875 0-22.160156l65.746094-65.746094c6.121093-6.121094 16.046874-6.121094 22.167968 0 6.109375 6.113282 6.109375 16.039063 0 22.160156zm0 0" fill="#ff7c48"/><path d="m445.566406 351.070312-45.53125 45.527344v-44.324218l23.363282-23.363282c6.121093-6.121094 16.046874-6.121094 22.167968 0 6.109375 6.113282 6.109375 16.039063 0 22.160156zm0 0" fill="#ff4c04"/></svg>