<?xml version="1.0" encoding="UTF-8" standalone="no"?>
<svg width="31px" height="47px" viewBox="0 0 31 47" version="1.1" xmlns="http://www.w3.org/2000/svg" xmlns:xlink="http://www.w3.org/1999/xlink">
    <!-- Generator: Sketch 49.2 (51160) - http://www.bohemiancoding.com/sketch -->
    <title>Group 36</title>
    <desc>Created with Sketch.</desc>
    <defs>
        <radialGradient cx="41.6674793%" cy="50%" fx="41.6674793%" fy="50%" r="100%" gradientTransform="translate(0.416675,0.500000),scale(0.225806,1.000000),rotate(-90.000000),scale(1.000000,3.171014),translate(-0.416675,-0.500000)" id="radialGradient-1">
            <stop stop-color="#000000" offset="0%"></stop>
            <stop stop-color="#FFFFFF" offset="100%"></stop>
        </radialGradient>
    </defs>
    <g id="Home" stroke="none" stroke-width="1" fill="none" fill-rule="evenodd">
        <g id="Home-Copy" transform="translate(-457.000000, -3865.000000)">
            <g id="Group-61" transform="translate(304.000000, 3675.000000)">
                <g id="Group-58" transform="translate(26.000000, 145.000000)">
                    <g id="Group-44" transform="translate(127.000000, 45.000000)">
                        <g id="Group-36">
                            <path d="M31,43.5030891 C31,45.4331862 24.0597849,47 15.4990687,47 C6.93835246,47 0,45.4331862 0,43.5030891 C0,41.5655781 6.93835246,40 15.4990687,40 C24.0597849,40 31,41.5655781 31,43.5030891" id="Fill-6969" fill="url(#radialGradient-1)" opacity="0.240788246"></path>
                            <path d="M16.000655,18 C13.7907319,18 12,16.210285 12,14 C12,11.7910252 13.7907319,10 16.000655,10 C18.210578,10 20,11.7910252 20,14 C20,16.210285 18.210578,18 16.000655,18 M14.4058285,0.0892439958 C8.03271977,0.802765992 2.84173059,6.03257317 2.0982675,12.4892082 C1.61057691,16.7300282 2.97027947,20.6483524 5.46306748,23.5373774 L5.45909174,23.5414086 L15.9921482,43 L25.0700843,26.2302175 C25.8374018,24.8139233 26.7173653,23.4661596 27.6105812,22.1251145 C29.1173861,19.8609251 30,17.133148 30,14.1957486 C30,5.82429462 22.8516223,-0.855400003 14.4058285,0.0892439958" id="Fill-6971" fill="#FF925C"></path>
                        </g>
                    </g>
                </g>
            </g>
        </g>
    </g>
</svg>