<?xml version="1.0"?>
<svg xmlns="http://www.w3.org/2000/svg" height="512px" viewBox="0 0 512 512" width="512px"><path d="m8.535156 136.535156h51.199219c4.710937 0 8.53125-3.816406 8.53125-8.535156v-59.734375h59.734375c4.710938 0 8.535156-3.8125 8.535156-8.53125v-51.199219c0-4.722656-3.824218-8.535156-8.535156-8.535156h-119.464844c-4.710937 0-8.535156 3.8125-8.535156 8.535156v119.464844c0 4.71875 3.824219 8.535156 8.535156 8.535156zm0 0" fill="#78ebb9"/><path d="m128 443.734375h-59.734375v-59.734375c0-4.71875-3.820313-8.535156-8.53125-8.535156h-51.199219c-4.710937 0-8.535156 3.816406-8.535156 8.535156v119.464844c0 4.722656 3.824219 8.535156 8.535156 8.535156h119.464844c4.710938 0 8.535156-3.8125 8.535156-8.535156v-51.199219c0-4.71875-3.824218-8.53125-8.535156-8.53125zm0 0" fill="#78ebb9"/><path d="m503.464844 0h-119.464844c-4.710938 0-8.535156 3.8125-8.535156 8.535156v51.199219c0 4.71875 3.824218 8.53125 8.535156 8.53125h59.734375v59.734375c0 4.71875 3.820313 8.535156 8.53125 8.535156h51.199219c4.710937 0 8.535156-3.816406 8.535156-8.535156v-119.464844c0-4.722656-3.824219-8.535156-8.535156-8.535156zm0 0" fill="#78ebb9"/><path d="m503.464844 375.464844h-51.199219c-4.710937 0-8.53125 3.816406-8.53125 8.535156v59.734375h-59.734375c-4.710938 0-8.535156 3.8125-8.535156 8.53125v51.199219c0 4.722656 3.824218 8.535156 8.535156 8.535156h119.464844c4.710937 0 8.535156-3.8125 8.535156-8.535156v-119.464844c0-4.71875-3.824219-8.535156-8.535156-8.535156zm0 0" fill="#78ebb9"/><path d="m503.464844 247.464844h-102.398438v-128c0-4.71875-3.824218-8.53125-8.53125-8.53125h-273.070312c-4.707032 0-8.53125 3.8125-8.53125 8.53125v128h-102.398438c-4.710937 0-8.535156 3.816406-8.535156 8.535156s3.824219 8.535156 8.535156 8.535156h102.398438v128c0 4.71875 3.824218 8.53125 8.53125 8.53125h273.070312c4.707032 0 8.53125-3.8125 8.53125-8.53125v-128h102.398438c4.710937 0 8.535156-3.816406 8.535156-8.535156s-3.824219-8.535156-8.535156-8.535156zm-119.464844 136.535156h-256v-119.464844h256zm0 0" fill="#78ebb9"/></svg>
