<svg height="464pt" viewBox="-64 0 464 464" width="464pt" xmlns="http://www.w3.org/2000/svg"><path d="m72 0h192c17.671875 0 32 14.328125 32 32v32h-256v-32c0-17.671875 14.328125-32 32-32zm0 0" fill="#acabb1"/><path d="m40 384h256v48c0 17.671875-14.328125 32-32 32h-192c-17.671875 0-32-14.328125-32-32zm0 0" fill="#acabb1"/><path d="m40 64h256v320h-256zm0 0" fill="#ffeb99"/><path d="m296 84.160156v299.839844h-256v-26.160156c112.425781-61.476563 202.160156-157.40625 256-273.679688zm0 0" fill="#ffe477"/><path d="m160 416h16v16h-16zm0 0" fill="#57565c"/><path d="m80 176h-80v191.519531l48-47.519531h208v-144zm0 0" fill="#00ddc2"/><path d="m104 24h16v16h-16zm0 0" fill="#57565c"/><path d="m136 24h16v16h-16zm0 0" fill="#57565c"/><path d="m80 104h24v-16h-32c-4.417969 0-8 3.582031-8 8v32h16zm0 0" fill="#ffd422"/><path d="m80 152v144h208l48 47.519531v-191.519531zm0 0" fill="#ffc477"/><g fill="#ff9478"><path d="m104 184h16v16h-16zm0 0"/><path d="m136 184h176v16h-176zm0 0"/><path d="m104 216h208v16h-208zm0 0"/><path d="m104 248h208v16h-208zm0 0"/></g><path d="m24 208h16v16h-16zm0 0" fill="#ffde55"/><path d="m24 240h40v16h-40zm0 0" fill="#ffde55"/><path d="m24 272h40v16h-40zm0 0" fill="#ffde55"/></svg>