<?xml version="1.0"?>
<svg xmlns="http://www.w3.org/2000/svg" height="512px" viewBox="0 -76 480 480" width="512px"><path d="m112 296c-4.417969 0-8 3.582031-8 8s3.582031 8 8 8h16c4.417969 0 8-3.582031 8-8s-3.582031-8-8-8zm0 0" fill="#c1cdd6"/><path d="m160 312c-4.417969 0-8 3.582031-8 8s3.582031 8 8 8h16c4.417969 0 8-3.582031 8-8s-3.582031-8-8-8zm0 0" fill="#c1cdd6"/><path d="m296 296c-4.417969 0-8 3.582031-8 8s3.582031 8 8 8h16c4.417969 0 8-3.582031 8-8s-3.582031-8-8-8zm0 0" fill="#c1cdd6"/><path d="m344 328h16c4.417969 0 8-3.582031 8-8s-3.582031-8-8-8h-16c-4.417969 0-8 3.582031-8 8s3.582031 8 8 8zm0 0" fill="#c1cdd6"/><path d="m32 8v80c0 4.417969 3.582031 8 8 8h24v32h-24c-4.417969 0-8 3.582031-8 8v48c0 4.417969 3.582031 8 8 8h24v72c0 4.417969 3.582031 8 8 8h32c4.417969 0 8-3.582031 8-8v-72h256v72c0 4.417969 3.582031 8 8 8h32c4.417969 0 8-3.582031 8-8v-72h24c4.417969 0 8-3.582031 8-8v-48c0-4.417969-3.582031-8-8-8h-24v-32h24c4.417969 0 8-3.582031 8-8v-80c0-4.417969-3.582031-8-8-8h-400c-4.417969 0-8 3.582031-8 8zm48 88h16v32h-16zm288 0v32h-256v-32zm-272 160h-16v-64h16zm304 0h-16v-64h16zm32-80h-384v-32h384zm-32-48h-16v-32h16zm-352-112h384v64h-384zm0 0" fill="#c1cdd6"/><path d="m80 56h16c4.417969 0 8-3.582031 8-8s-3.582031-8-8-8h-16c-4.417969 0-8 3.582031-8 8s3.582031 8 8 8zm0 0" fill="#c1cdd6"/><path d="m384 56h16c4.417969 0 8-3.582031 8-8s-3.582031-8-8-8h-16c-4.417969 0-8 3.582031-8 8s3.582031 8 8 8zm0 0" fill="#c1cdd6"/><path d="m56 264c0-4.417969-3.582031-8-8-8h-40c-4.417969 0-8 3.582031-8 8s3.582031 8 8 8h40c4.417969 0 8-3.582031 8-8zm0 0" fill="#c1cdd6"/><path d="m472 256h-40c-4.417969 0-8 3.582031-8 8s3.582031 8 8 8h40c4.417969 0 8-3.582031 8-8s-3.582031-8-8-8zm0 0" fill="#c1cdd6"/><path d="m360 264c0-4.417969-3.582031-8-8-8h-224c-4.417969 0-8 3.582031-8 8s3.582031 8 8 8h224c4.417969 0 8-3.582031 8-8zm0 0" fill="#c1cdd6"/></svg>
