<?xml version="1.0" encoding="UTF-8" standalone="no"?>
<svg width="79px" height="63px" viewBox="0 0 79 63" version="1.1" xmlns="http://www.w3.org/2000/svg" xmlns:xlink="http://www.w3.org/1999/xlink">
    <!-- Generator: Sketch 49 (51002) - http://www.bohemiancoding.com/sketch -->
    <title>Group 27</title>
    <desc>Created with Sketch.</desc>
    <defs>
        <polygon id="path-1" points="0.6399 0.3977 67.2419 0.3977 67.2419 61.19 0.6399 61.19"></polygon>
    </defs>
    <g id="Page-1" stroke="none" stroke-width="1" fill="none" fill-rule="evenodd">
        <g id="FAQ" transform="translate(-175.000000, -220.000000)">
            <g id="Group-27" transform="translate(175.000000, 212.000000)">
                <g id="Page-1" transform="translate(0.000000, 8.000000)">
                    <g id="Group-3" transform="translate(6.000000, 0.839300)">
                        <mask id="mask-2" fill="white">
                            <use xlink:href="#path-1"></use>
                        </mask>
                        <g id="Clip-2"></g>
                        <path d="M67.2419,33.6987 C67.2419,52.0907 52.3329,67.0007 33.9409,67.0007 C15.5499,67.0007 0.6399,52.0907 0.6399,33.6987 C0.6399,15.3067 15.5499,0.3977 33.9409,0.3977 C52.3329,0.3977 67.2419,15.3067 67.2419,33.6987" id="Fill-1" fill="#FFAD85" mask="url(#mask-2)"></path>
                    </g>
                    <g id="Group-8" transform="translate(0.000000, 33.839300)" stroke="#A7D3DB" stroke-linecap="round" stroke-linejoin="round">
                        <path d="M1.7214,0.5209 L1.7214,2.9639" id="Stroke-4"></path>
                        <path d="M0.4997,1.7426 L2.9427,1.7426" id="Stroke-6"></path>
                    </g>
                    <path d="M16.9362,19.9237 L16.9362,22.3667" id="Stroke-9" stroke="#FFFFFF" stroke-linecap="round" stroke-linejoin="round"></path>
                    <path d="M15.7146,21.1454 L18.1576,21.1454" id="Stroke-10" stroke="#FFFFFF" stroke-linecap="round" stroke-linejoin="round"></path>
                    <path d="M53.4763,9.6981 L53.4763,13.7651" id="Stroke-11" stroke="#FFFFFF" stroke-linecap="round" stroke-linejoin="round"></path>
                    <path d="M51.4421,11.7323 L55.5091,11.7323" id="Stroke-12" stroke="#FFFFFF" stroke-linecap="round" stroke-linejoin="round"></path>
                    <path d="M15.7146,1.2255 L15.7146,5.2915" id="Stroke-13" stroke="#A7D3DB" stroke-linecap="round" stroke-linejoin="round"></path>
                    <path d="M13.6814,3.2587 L17.7474,3.2587" id="Stroke-14" stroke="#A7D3DB" stroke-linecap="round" stroke-linejoin="round"></path>
                    <path d="M74.405,15.5311 L74.405,17.9731" id="Stroke-15" stroke="#A7D3DB" stroke-linecap="round" stroke-linejoin="round"></path>
                    <path d="M73.1833,16.7518 L75.6263,16.7518" id="Stroke-16" stroke="#A7D3DB" stroke-linecap="round" stroke-linejoin="round"></path>
                    <path d="M76.1589,53.0487 L76.1589,57.1147" id="Stroke-17" stroke="#A7D3DB" stroke-linecap="round" stroke-linejoin="round"></path>
                    <path d="M74.1257,55.0819 L78.1917,55.0819" id="Stroke-18" stroke="#A7D3DB" stroke-linecap="round" stroke-linejoin="round"></path>
                    <path d="M17.7478,62.0292 L59.2298,62.0292" id="Stroke-20" stroke="#545A5B" stroke-linecap="round" stroke-linejoin="round"></path>
                    <g id="Group-37" transform="translate(13.000000, 16.839300)">
                        <path d="M44.1423,18.433 L27.1253,1.066 C26.2463,0.173 24.8103,0.162 23.9163,1.042 L6.1643,18.444 L6.4513,24.425 L6.3153,42.658 C6.3053,43.91 7.3133,44.934 8.5663,44.943 L41.8183,45.19 C43.0713,45.2 44.0933,44.191 44.1033,42.938 L44.2383,24.706 L44.1423,18.433 Z" id="Fill-21" fill="#FFFFFF"></path>
                        <path d="M6.4929,18.7719 L6.3149,42.6559 C6.3059,43.9099 7.3139,44.9339 8.5679,44.9429 L41.8179,45.1899 C43.0709,45.1999 44.0939,44.1919 44.1029,42.9389 L44.2789,19.2069 M50.4629,24.7519 L27.1259,1.0669 C26.2459,0.1729 24.8099,0.1629 23.9169,1.0429 L0.2289,24.3789" id="Stroke-23" stroke="#545A5B" stroke-linecap="round" stroke-linejoin="round"></path>
                        <path d="M11.6364,44.6547 C11.1424,43.1897 10.8744,41.6217 10.8744,39.9897 C10.8744,31.9377 17.4024,25.4107 25.4524,25.4107 C33.5044,25.4107 40.0324,31.9377 40.0324,39.9897 C40.0324,41.6307 39.7614,43.2087 39.2614,44.6797" id="Fill-25" fill="#B4F1E3"></path>
                        <path d="M39.322,45.1908 C40.306,42.3038 40.411,39.0888 39.417,35.9658 C36.948,28.2078 28.628,23.9028 20.869,26.3718 C13.11,28.8408 8.806,37.1618 11.275,44.9198" id="Stroke-27" stroke="#545A5B" stroke-linecap="round" stroke-linejoin="round"></path>
                        <path d="M15.6911,40.0141 L35.8561,40.0141" id="Stroke-29" stroke="#545A5B" stroke-linecap="round" stroke-linejoin="round"></path>
                        <path d="M14.8044,34.2524 L14.8044,44.8924" id="Stroke-31" stroke="#545A5B" stroke-linecap="round" stroke-linejoin="round"></path>
                        <path d="M35.8874,36.9965 L35.8874,44.8925" id="Stroke-33" stroke="#545A5B" stroke-linecap="round" stroke-linejoin="round"></path>
                        <path d="M17.4792,38.2865 L20.4652,38.2865" id="Stroke-35" stroke="#545A5B" stroke-linecap="round" stroke-linejoin="round"></path>
                    </g>
                </g>
                <rect id="Rectangle-3" x="0" y="0" width="80" height="80"></rect>
            </g>
        </g>
    </g>
</svg>