<svg id="Layer_1" data-name="Layer 1" xmlns="http://www.w3.org/2000/svg" xmlns:xlink="http://www.w3.org/1999/xlink" viewBox="0 0 80 80"><defs><style>.cls-1,.cls-4,.cls-5,.cls-6{fill:none;}.cls-2{clip-path:url(#clip-path);}.cls-3{fill:#ffad85;}.cls-4{stroke:#a7d3db;}.cls-4,.cls-5,.cls-6{stroke-linecap:round;stroke-linejoin:round;}.cls-5{stroke:#fff;}.cls-6{stroke:#545a5b;}.cls-7{fill:#fff;}.cls-8{fill:#b4f1e3;}</style><clipPath id="clip-path"><rect class="cls-1" x="1.6" y="6.48" width="76.02" height="67.03"/></clipPath></defs><title>Accommodation-active</title><g class="cls-2"><circle class="cls-3" cx="40.6" cy="46.02" r="33.3"/></g><line class="cls-4" x1="2.38" y1="45.85" x2="2.38" y2="48.29"/><line class="cls-4" x1="1.15" y1="47.07" x2="3.6" y2="47.07"/><line class="cls-5" x1="17.59" y1="31.41" x2="17.59" y2="33.85"/><line class="cls-5" x1="16.37" y1="32.63" x2="18.81" y2="32.63"/><line class="cls-5" x1="54.13" y1="21.18" x2="54.13" y2="25.25"/><line class="cls-5" x1="52.1" y1="23.22" x2="56.16" y2="23.22"/><line class="cls-4" x1="16.37" y1="12.71" x2="16.37" y2="16.78"/><line class="cls-4" x1="14.34" y1="14.74" x2="18.4" y2="14.74"/><line class="cls-4" x1="75.06" y1="27.02" x2="75.06" y2="29.46"/><line class="cls-4" x1="73.84" y1="28.24" x2="76.28" y2="28.24"/><line class="cls-4" x1="76.81" y1="64.53" x2="76.81" y2="68.6"/><line class="cls-4" x1="74.78" y1="66.57" x2="78.85" y2="66.57"/><line class="cls-6" x1="18.4" y1="73.51" x2="59.88" y2="73.51"/><path class="cls-7" d="M57.8,46.76l-17-17.37a2.27,2.27,0,0,0-3.21,0L19.82,46.77l.28,6L20,71a2.27,2.27,0,0,0,2.25,2.29l33.25.24a2.27,2.27,0,0,0,2.29-2.25L57.89,53Z"/><path class="cls-6" d="M64.12,53.08,40.78,29.39a2.27,2.27,0,0,0-3.21,0L13.88,52.7m6.27-5.6L20,71a2.27,2.27,0,0,0,2.25,2.29l33.25.24a2.27,2.27,0,0,0,2.29-2.25l.17-23.73"/><path class="cls-8" d="M25.29,73a14.58,14.58,0,1,1,28.4-4.67A14.55,14.55,0,0,1,52.92,73"/><path class="cls-6" d="M53,73.52a14.77,14.77,0,1,0-28-.27"/><line class="cls-6" x1="29.35" y1="68.34" x2="49.51" y2="68.34"/><line class="cls-6" x1="28.46" y1="62.58" x2="28.46" y2="73.22"/><line class="cls-6" x1="49.54" y1="65.32" x2="49.54" y2="73.22"/><line class="cls-6" x1="31.13" y1="66.61" x2="34.12" y2="66.61"/></svg>