<svg id="Layer_1" data-name="Layer 1" xmlns="http://www.w3.org/2000/svg" xmlns:xlink="http://www.w3.org/1999/xlink" viewBox="0 0 80 80"><defs><style>.cls-1,.cls-4,.cls-5,.cls-6{fill:none;}.cls-2{clip-path:url(#clip-path);}.cls-3{fill:#ffad85;}.cls-4{stroke:#a7d3db;}.cls-4,.cls-5,.cls-6,.cls-8{stroke-linecap:round;stroke-linejoin:round;}.cls-5{stroke:#fff;}.cls-6,.cls-8{stroke:#545a5b;}.cls-7{fill:#fff;}.cls-8{fill:#b4f1e3;}</style><clipPath id="clip-path"><rect class="cls-1" x="1.6" y="6.48" width="76.02" height="67.03"/></clipPath></defs><title>booking_active</title><g class="cls-2"><circle class="cls-3" cx="40.6" cy="46.02" r="33.3"/></g><line class="cls-4" x1="2.38" y1="45.85" x2="2.38" y2="48.29"/><line class="cls-4" x1="1.15" y1="47.07" x2="3.6" y2="47.07"/><line class="cls-5" x1="17.59" y1="31.41" x2="17.59" y2="33.85"/><line class="cls-5" x1="16.37" y1="32.63" x2="18.81" y2="32.63"/><line class="cls-5" x1="54.13" y1="21.18" x2="54.13" y2="25.25"/><line class="cls-5" x1="52.1" y1="23.22" x2="56.16" y2="23.22"/><line class="cls-4" x1="16.37" y1="12.71" x2="16.37" y2="16.78"/><line class="cls-4" x1="14.34" y1="14.74" x2="18.4" y2="14.74"/><line class="cls-4" x1="75.06" y1="27.02" x2="75.06" y2="29.46"/><line class="cls-4" x1="73.84" y1="28.24" x2="76.28" y2="28.24"/><line class="cls-4" x1="76.81" y1="64.53" x2="76.81" y2="68.6"/><line class="cls-4" x1="74.78" y1="66.57" x2="78.85" y2="66.57"/><line class="cls-6" x1="19.26" y1="73.51" x2="60.74" y2="73.51"/><line class="cls-6" x1="28.41" y1="68.89" x2="24.83" y2="68.89"/><line class="cls-6" x1="29.3" y1="71.37" x2="24.83" y2="71.37"/><polygon class="cls-6" points="24.41 50.87 24.41 72.87 24.41 72.87 24.41 50.87 24.41 50.87"/><path class="cls-7" d="M38.76,72.87H55.48A1.64,1.64,0,0,0,57,71.1V41.35a1.65,1.65,0,0,0-1.48-1.77H38.76a1.65,1.65,0,0,0-1.48,1.77V71.1A1.65,1.65,0,0,0,38.76,72.87Z"/><path class="cls-6" d="M38.76,72.87H55.48A1.66,1.66,0,0,0,57,71.07V40.76A1.66,1.66,0,0,0,55.48,39H38.76a1.67,1.67,0,0,0-1.48,1.8V71.07A1.67,1.67,0,0,0,38.76,72.87Z"/><circle class="cls-6" cx="41.75" cy="43.72" r="1.79"/><circle class="cls-8" cx="24.41" cy="45.09" r="5.37"/><path class="cls-6" d="M24.61,39.8a8,8,0,0,1,16-.76"/></svg>