<svg id="Layer_1" data-name="Layer 1" xmlns="http://www.w3.org/2000/svg" xmlns:xlink="http://www.w3.org/1999/xlink" viewBox="0 0 80 80"><defs><style>.cls-1,.cls-4,.cls-5,.cls-6{fill:none;}.cls-2{clip-path:url(#clip-path);}.cls-3{fill:#e4e5e5;}.cls-4{stroke:#a7d3db;}.cls-4,.cls-5,.cls-6,.cls-8{stroke-linecap:round;stroke-linejoin:round;}.cls-5{stroke:#fff;}.cls-6,.cls-8{stroke:#545a5b;}.cls-7{fill:#fff;}.cls-8{fill:#b4f1e3;}.cls-9{fill:#545a5b;}</style><clipPath id="clip-path"><rect class="cls-1" x="1.6" y="6.48" width="76.02" height="67.03"/></clipPath></defs><title>Lifestyle-inactive</title><g class="cls-2"><circle class="cls-3" cx="40.6" cy="46.02" r="33.3"/></g><line class="cls-4" x1="2.38" y1="45.85" x2="2.38" y2="48.29"/><line class="cls-4" x1="1.15" y1="47.07" x2="3.6" y2="47.07"/><line class="cls-5" x1="17.59" y1="31.41" x2="17.59" y2="33.85"/><line class="cls-5" x1="16.37" y1="32.63" x2="18.81" y2="32.63"/><line class="cls-5" x1="54.13" y1="21.18" x2="54.13" y2="25.25"/><line class="cls-5" x1="52.1" y1="23.22" x2="56.16" y2="23.22"/><line class="cls-4" x1="16.37" y1="12.71" x2="16.37" y2="16.78"/><line class="cls-4" x1="14.34" y1="14.74" x2="18.4" y2="14.74"/><line class="cls-4" x1="75.06" y1="27.02" x2="75.06" y2="29.46"/><line class="cls-4" x1="73.84" y1="28.24" x2="76.28" y2="28.24"/><line class="cls-4" x1="76.81" y1="64.53" x2="76.81" y2="68.6"/><line class="cls-4" x1="74.78" y1="66.57" x2="78.85" y2="66.57"/><line class="cls-6" x1="19.26" y1="73.51" x2="60.74" y2="73.51"/><path class="cls-7" d="M26.4,73.67H53.6a2.23,2.23,0,0,0,2.4-2V38a2.23,2.23,0,0,0-2.4-2H26.4A2.23,2.23,0,0,0,24,38V71.67A2.23,2.23,0,0,0,26.4,73.67Z"/><path class="cls-6" d="M26.4,73.67H53.6a2.25,2.25,0,0,0,2.4-2V37.34a2.24,2.24,0,0,0-2.4-2H26.4a2.24,2.24,0,0,0-2.4,2V71.63A2.25,2.25,0,0,0,26.4,73.67Z"/><path class="cls-8" d="M30.65,69.15h18.7c.91,0,1.65-.52,1.65-1.16V48.61c0-.64-.74-1.15-1.65-1.15H30.65c-.91,0-1.65.51-1.65,1.15V68C29,68.63,29.74,69.15,30.65,69.15Z"/><line class="cls-6" x1="42.56" y1="51.21" x2="37.56" y2="51.21"/><line class="cls-6" x1="32.5" y1="73.94" x2="32.5" y2="76.03"/><line class="cls-6" x1="47.5" y1="73.94" x2="47.5" y2="76.03"/><rect class="cls-9" x="29" y="54.13" width="22" height="0.83"/><path class="cls-9" d="M47.5,35.72H32.57s-.07,0-.07,0V30.49a2.53,2.53,0,0,1,2.73-2.28h9.92a2.18,2.18,0,0,1,2.35,2v5.55Zm-1-.83V30.57c0-.84-.91-1.52-2-1.52h-8.6c-1.3,0-2.36.79-2.36,1.77v4a.06.06,0,0,0,.06,0Z"/></svg>