<?xml version="1.0" encoding="UTF-8" standalone="no"?>
<svg width="226px" height="208px" viewBox="0 0 226 208" version="1.1" xmlns="http://www.w3.org/2000/svg" xmlns:xlink="http://www.w3.org/1999/xlink">
    <!-- Generator: Sketch 49 (51002) - http://www.bohemiancoding.com/sketch -->
    <title>Page 1</title>
    <desc>Created with Sketch.</desc>
    <defs>
        <polygon id="path-1" points="0.5635 0.489 206.0745 0.489 206.0745 188.073 0.5635 188.073"></polygon>
    </defs>
    <g id="Page-1" stroke="none" stroke-width="1" fill="none" fill-rule="evenodd">
        <g id="FAQ" transform="translate(-288.000000, -1324.000000)">
            <g id="Page-1" transform="translate(288.000000, 1323.000000)">
                <g id="Group-3" transform="translate(13.000000, 19.756000)">
                    <mask id="mask-2" fill="white">
                        <use xlink:href="#path-1"></use>
                    </mask>
                    <g id="Clip-2"></g>
                    <path d="M206.0745,103.245 C206.0745,159.995 160.0695,206 103.3195,206 C46.5695,206 0.5635,159.995 0.5635,103.245 C0.5635,46.495 46.5695,0.489 103.3195,0.489 C160.0695,0.489 206.0745,46.495 206.0745,103.245" id="Fill-1" fill="#C5BED0" mask="url(#mask-2)"></path>
                </g>
                <path d="M47.8392,207.8292 L175.8382,207.8292" id="Stroke-4" stroke="#545A5B" stroke-linecap="round" stroke-linejoin="round"></path>
                <g id="Group-79" transform="translate(0.000000, 0.756000)">
                    <path d="M116.9232,206.9657 L56.1042,206.9657 C54.4302,206.9657 53.0722,205.6087 53.0722,203.9337 L53.0722,87.5727 L116.9232,87.5727 L116.9232,206.9657 Z" id="Fill-5" fill="#B4F1E3"></path>
                    <path d="M166.2093,207.0732 L74.2333,207.0732 L74.2333,79.7992 L169.1933,79.7992 L169.1933,204.0892 C169.1933,205.7372 167.8573,207.0732 166.2093,207.0732" id="Fill-7" fill="#FFFFFF"></path>
                    <path d="M89.1722,110.1942 L158.0822,110.1942" id="Stroke-9" stroke="#545A5B" stroke-linecap="round" stroke-linejoin="round"></path>
                    <path d="M89.1722,129.4569 L158.0822,129.4569" id="Stroke-11" stroke="#545A5B" stroke-linecap="round" stroke-linejoin="round"></path>
                    <path d="M89.1722,148.7196 L158.0822,148.7196" id="Stroke-13" stroke="#545A5B" stroke-linecap="round" stroke-linejoin="round"></path>
                    <path d="M89.1722,167.9823 L158.0822,167.9823" id="Stroke-15" stroke="#545A5B" stroke-linecap="round" stroke-linejoin="round"></path>
                    <path d="M89.1722,187.246 L158.0822,187.246" id="Stroke-17" stroke="#545A5B" stroke-linecap="round" stroke-linejoin="round"></path>
                    <path d="M169.1937,131.7069 L169.1937,79.7989 L74.2337,79.7989 L74.2337,196.4929 C74.2337,202.3359 69.4967,207.0729 63.6527,207.0729 C57.8097,207.0729 53.0727,202.3359 53.0727,196.4929 L53.0727,87.5729 L73.5017,87.5729" id="Stroke-19" stroke="#545A5B" stroke-linecap="round" stroke-linejoin="round"></path>
                    <path d="M66.2952,206.9657 L151.6832,206.9657" id="Stroke-21" stroke="#545A5B" stroke-linecap="round" stroke-linejoin="round"></path>
                    <path d="M181.0911,190.4608 L211.8491,206.9658" id="Stroke-23" stroke="#545A5B" stroke-linecap="round" stroke-linejoin="round"></path>
                    <path d="M186.8304,167.203 C186.8304,189.163 169.0284,206.966 147.0684,206.966 C125.1084,206.966 107.3064,189.163 107.3064,167.203 C107.3064,145.244 125.1084,127.441 147.0684,127.441 C169.0284,127.441 186.8304,145.244 186.8304,167.203" id="Fill-25" fill="#FFAD85"></path>
                    <path d="M184.8929,184.0233 C188.9549,175.2883 189.8869,165.0693 186.7429,155.1873 C180.0859,134.2673 157.6529,122.6633 136.7349,129.3193 C115.8149,135.9753 104.2109,158.4103 110.8679,179.3303 C117.5239,200.2493 139.9579,211.8513 160.8769,205.1953 C170.7589,202.0503 178.5609,195.3843 183.3409,187.0213 L184.8929,184.0233 Z" id="Stroke-27" stroke="#545A5B" stroke-linecap="round" stroke-linejoin="round"></path>
                    <path d="M9.6322,171.5077 C9.9582,171.5817 10.2952,171.2617 10.3052,170.8677 C10.3792,170.5407 10.0592,170.2047 9.6652,170.1957 L7.5652,170.1417 C7.2372,170.0677 6.9022,170.3877 6.8912,170.7807 C6.8882,170.9127 6.9482,171.1117 7.0762,171.2457 C7.2042,171.3807 7.4002,171.4507 7.5302,171.4537 L9.6322,171.5077 Z" id="Fill-29" fill="#C5BED0"></path>
                    <path d="M2.9993,171.4052 C3.3263,171.4792 3.5993,171.0922 3.6733,170.7652 C3.7463,170.4392 3.4273,170.1022 3.0323,170.0932 L0.9323,170.0392 C0.6053,169.9662 0.2693,170.2852 0.2593,170.6782 C0.2563,170.8102 0.3163,171.0092 0.4443,171.1432 C0.5723,171.2782 0.7683,171.3482 0.8983,171.3522 L2.9993,171.4052 Z" id="Fill-31" fill="#C5BED0"></path>
                    <path d="M5.1224,175.7948 C5.4484,175.8688 5.7854,175.5488 5.7954,175.1548 L5.8484,173.0538 C5.9224,172.7278 5.5354,172.4548 5.2084,172.3808 C4.8824,172.3068 4.5454,172.6268 4.5354,173.0208 L4.4814,175.1218 C4.4784,175.2528 4.5394,175.4508 4.6674,175.5858 C4.7954,175.7208 4.9904,175.7908 5.1224,175.7948" id="Fill-33" fill="#C5BED0"></path>
                    <path d="M5.2913,169.0985 C5.6183,169.1725 5.9543,168.8525 5.9653,168.4585 L6.0183,166.3585 C6.0923,166.0315 5.7713,165.6955 5.3783,165.6855 C5.0513,165.6115 4.7153,165.9305 4.7053,166.3255 L4.6513,168.4255 C4.6483,168.5565 4.7093,168.7555 4.8373,168.8905 C4.9653,169.0245 5.0933,169.1595 5.2913,169.0985" id="Fill-35" fill="#C5BED0"></path>
                    <path d="M216.8421,18.1923 C217.1681,18.2653 217.5051,17.9463 217.5151,17.5513 C217.5891,17.2253 217.2691,16.8883 216.8751,16.8793 L214.7751,16.8263 C214.4471,16.7523 214.1121,17.0713 214.1011,17.4653 C214.0981,17.5963 214.1581,17.7963 214.2861,17.9293 C214.4141,18.0643 214.6101,18.1353 214.7411,18.1383 L216.8421,18.1923 Z" id="Fill-37" fill="#C5BED0"></path>
                    <path d="M210.2103,18.0898 C210.5363,18.1638 210.8093,17.7768 210.8833,17.4498 C210.9573,17.1228 210.6373,16.7868 210.2433,16.7768 L208.1423,16.7238 C207.8153,16.6498 207.4793,16.9698 207.4693,17.3628 C207.4663,17.4948 207.5263,17.6938 207.6543,17.8278 C207.7823,17.9628 207.9783,18.0328 208.1083,18.0358 L210.2103,18.0898 Z" id="Fill-39" fill="#C5BED0"></path>
                    <path d="M212.3324,22.4784 C212.6584,22.5524 212.9954,22.2334 213.0054,21.8384 L213.0584,19.7384 C213.1324,19.4124 212.7454,19.1394 212.4184,19.0654 C212.0924,18.9914 211.7554,19.3114 211.7454,19.7054 L211.6924,21.8054 C211.6884,21.9374 211.7494,22.1354 211.8774,22.2704 C212.0054,22.4054 212.2004,22.4754 212.3324,22.4784" id="Fill-41" fill="#C5BED0"></path>
                    <path d="M212.5013,15.7831 C212.8283,15.8561 213.1643,15.5371 213.1753,15.1421 L213.2283,13.0421 C213.3023,12.7161 212.9813,12.3791 212.5883,12.3691 C212.2623,12.2951 211.9253,12.6151 211.9153,13.0091 L211.8613,15.1091 C211.8583,15.2411 211.9193,15.4391 212.0473,15.5741 C212.1753,15.7091 212.3033,15.8441 212.5013,15.7831" id="Fill-43" fill="#C5BED0"></path>
                    <path d="M39.1175,103.3251 C39.4445,103.3981 39.7805,103.0791 39.7915,102.6841 C39.8645,102.3581 39.5455,102.0211 39.1505,102.0121 L37.0505,101.9591 C36.7235,101.8851 36.3875,102.2051 36.3775,102.5981 C36.3745,102.7291 36.4345,102.9291 36.5625,103.0631 C36.6905,103.1971 36.8865,103.2681 37.0165,103.2711 L39.1175,103.3251 Z" id="Fill-45" fill="#FFFFFF"></path>
                    <path d="M32.4857,103.2226 C32.8127,103.2966 33.0857,102.9096 33.1597,102.5826 C33.2327,102.2556 32.9137,101.9196 32.5187,101.9096 L30.4187,101.8566 C30.0917,101.7826 29.7557,102.1026 29.7457,102.4956 C29.7427,102.6276 29.8027,102.8266 29.9307,102.9606 C30.0587,103.0956 30.2547,103.1656 30.3847,103.1686 L32.4857,103.2226 Z" id="Fill-47" fill="#FFFFFF"></path>
                    <path d="M34.6077,107.6112 C34.9347,107.6852 35.2707,107.3662 35.2817,106.9712 L35.3347,104.8712 C35.4087,104.5452 35.0207,104.2722 34.6947,104.1982 C34.3687,104.1242 34.0317,104.4442 34.0217,104.8382 L33.9677,106.9382 C33.9647,107.0702 34.0257,107.2682 34.1537,107.4032 C34.2817,107.5382 34.4767,107.6082 34.6077,107.6112" id="Fill-49" fill="#FFFFFF"></path>
                    <path d="M34.7777,100.9159 C35.1047,100.9899 35.4407,100.6699 35.4507,100.2759 L35.5047,98.1749 C35.5787,97.8489 35.2577,97.5119 34.8647,97.5019 C34.5377,97.4279 34.2017,97.7479 34.1907,98.1419 L34.1377,100.2429 C34.1347,100.3739 34.1957,100.5719 34.3237,100.7069 C34.4517,100.8419 34.5797,100.9769 34.7777,100.9159" id="Fill-51" fill="#FFFFFF"></path>
                    <path d="M48.7533,6.7802 C48.2523,6.7022 47.7773,7.2192 47.8033,7.8152 C47.8123,8.0142 47.9243,8.3072 48.1313,8.4982 C48.3383,8.6872 48.6403,8.7742 48.8383,8.7652 L52.0143,8.6292 C52.5153,8.7062 52.9893,8.1882 52.9643,7.5932 C53.0423,7.0922 52.5243,6.6182 51.9293,6.6432 L48.7533,6.7802 Z" id="Fill-53" fill="#C5BED0"></path>
                    <path d="M38.6292,7.2167 C38.1292,7.1387 37.6532,7.6557 37.6802,8.2517 C37.6882,8.4497 37.8002,8.7437 38.0072,8.9337 C38.2142,9.1237 38.5162,9.2097 38.7152,9.2007 L41.8912,9.0647 C42.3912,9.1427 42.8662,8.6247 42.8412,8.0287 C42.9182,7.5287 42.4002,7.0537 41.8052,7.0797 L38.6292,7.2167 Z" id="Fill-55" fill="#C5BED0"></path>
                    <path d="M45.429,10.4042 C44.928,10.3262 44.453,10.8432 44.479,11.4392 L44.616,14.6152 C44.624,14.8132 44.737,15.1072 44.944,15.2972 C45.151,15.4872 45.452,15.5732 45.651,15.5642 C46.152,15.6422 46.626,15.1252 46.601,14.5292 L46.464,11.3532 C46.439,10.7582 46.025,10.3782 45.429,10.4042" id="Fill-57" fill="#C5BED0"></path>
                    <path d="M44.9925,0.2802 C44.4925,0.2022 44.0165,0.7192 44.0435,1.3152 L44.1805,4.4912 C44.1885,4.6902 44.3005,4.9832 44.5075,5.1742 C44.7145,5.3632 45.0165,5.4502 45.2155,5.4412 C45.7155,5.5192 46.1905,5.0022 46.1645,4.4062 L46.0275,1.2302 C46.0025,0.6342 45.5885,0.2552 44.9925,0.2802" id="Fill-59" fill="#C5BED0"></path>
                    <path d="M220.9007,182.6591 C220.3997,182.5821 219.9247,183.0991 219.9507,183.6941 C219.9597,183.8931 220.0717,184.1861 220.2787,184.3771 C220.4857,184.5661 220.7877,184.6531 220.9857,184.6441 L224.1627,184.5081 C224.6627,184.5861 225.1377,184.0681 225.1117,183.4721 C225.1897,182.9711 224.6717,182.4971 224.0767,182.5221 L220.9007,182.6591 Z" id="Fill-61" fill="#C5BED0"></path>
                    <path d="M210.7767,183.0956 C210.2767,183.0176 209.8017,183.5346 209.8277,184.1306 C209.8367,184.3286 209.9477,184.6226 210.1547,184.8126 C210.3617,185.0026 210.6647,185.0886 210.8627,185.0796 L214.0387,184.9436 C214.5397,185.0216 215.0137,184.5036 214.9887,183.9076 C215.0667,183.4076 214.5477,182.9326 213.9537,182.9586 L210.7767,183.0956 Z" id="Fill-63" fill="#C5BED0"></path>
                    <path d="M217.5765,186.2831 C217.0755,186.2051 216.6005,186.7221 216.6265,187.3181 L216.7645,190.4941 C216.7715,190.6921 216.8845,190.9861 217.0915,191.1761 C217.2985,191.3661 217.5995,191.4521 217.7995,191.4441 C218.2995,191.5211 218.7735,191.0041 218.7485,190.4081 L218.6115,187.2321 C218.5865,186.6371 218.1725,186.2571 217.5765,186.2831" id="Fill-65" fill="#C5BED0"></path>
                    <path d="M217.1409,176.1591 C216.6399,176.0811 216.1649,176.5981 216.1909,177.1941 L216.3279,180.3701 C216.3359,180.5691 216.4489,180.8621 216.6559,181.0531 C216.8629,181.2421 217.1639,181.3291 217.3629,181.3201 C217.8639,181.3981 218.3379,180.8811 218.3129,180.2851 L218.1759,177.1091 C218.1499,176.5131 217.7359,176.1341 217.1409,176.1591" id="Fill-67" fill="#C5BED0"></path>
                    <path d="M125.4193,49.8769 C124.9193,49.7999 124.4433,50.3169 124.4703,50.9119 C124.4783,51.1109 124.5903,51.4039 124.7973,51.5949 C125.0043,51.7839 125.3063,51.8709 125.5053,51.8619 L128.6813,51.7259 C129.1823,51.8039 129.6563,51.2859 129.6313,50.6899 C129.7083,50.1889 129.1903,49.7149 128.5953,49.7399 L125.4193,49.8769 Z" id="Fill-69" fill="#FFFFFF"></path>
                    <path d="M115.2962,50.3134 C114.7952,50.2354 114.3202,50.7524 114.3462,51.3484 C114.3552,51.5464 114.4672,51.8404 114.6742,52.0304 C114.8812,52.2204 115.1832,52.3064 115.3812,52.2984 L118.5572,52.1614 C119.0582,52.2394 119.5322,51.7214 119.5072,51.1254 C119.5852,50.6254 119.0672,50.1514 118.4722,50.1764 L115.2962,50.3134 Z" id="Fill-71" fill="#FFFFFF"></path>
                    <path d="M122.095,53.5009 C121.595,53.4229 121.119,53.9399 121.146,54.5359 L121.283,57.7119 C121.291,57.9099 121.403,58.2039 121.61,58.3939 C121.817,58.5839 122.119,58.6699 122.318,58.6619 C122.818,58.7389 123.293,58.2219 123.267,57.6269 L123.13,54.4499 C123.105,53.8549 122.691,53.4749 122.095,53.5009" id="Fill-73" fill="#FFFFFF"></path>
                    <path d="M121.6595,43.3769 C121.1585,43.2989 120.6835,43.8169 120.7095,44.4119 L120.8465,47.5889 C120.8545,47.7869 120.9675,48.0799 121.1745,48.2709 C121.3815,48.4599 121.6825,48.5469 121.8815,48.5379 C122.3825,48.6159 122.8565,48.0989 122.8315,47.5029 L122.6945,44.3269 C122.6695,43.7309 122.2555,43.3519 121.6595,43.3769" id="Fill-75" fill="#FFFFFF"></path>
                    <path d="M150.7513,191.1493 C151.1233,191.5223 151.3103,191.9733 151.3103,192.5023 C151.3103,192.9833 151.1233,193.4213 150.7513,193.8183 C150.3783,194.2143 149.9273,194.4133 149.3983,194.4133 C148.9183,194.4133 148.4733,194.2203 148.0643,193.8363 C147.6553,193.4523 147.4513,193.0063 147.4513,192.5023 C147.4513,191.9493 147.6493,191.4923 148.0473,191.1313 C148.4433,190.7713 148.8943,190.5903 149.3983,190.5903 C149.9273,190.5903 150.3783,190.7773 150.7513,191.1493 M140.6733,146.5273 C142.9803,144.6763 145.9853,143.7513 149.6883,143.7513 C153.4853,143.7513 156.5623,144.7003 158.9183,146.5993 C161.2733,148.4993 162.4523,151.2753 162.4523,154.9283 C162.4523,156.9483 162.1693,158.6783 161.6053,160.1213 C161.0393,161.5633 160.3603,162.7533 159.5673,163.6913 C158.7733,164.6283 157.6923,165.7703 156.3223,167.1163 C155.0003,168.3423 153.9423,169.4243 153.1483,170.3623 C152.3553,171.2993 151.6883,172.4533 151.1473,173.8233 C150.6063,175.1933 150.3363,176.8163 150.3363,178.6913 L148.8573,178.6913 C148.8573,176.6713 149.1403,174.9233 149.7053,173.4453 C150.2703,171.9663 150.9613,170.7353 151.7783,169.7493 C152.5963,168.7633 153.6893,167.6333 155.0603,166.3593 C156.3823,165.0863 157.4283,163.9923 158.1973,163.0783 C158.9663,162.1653 159.6213,161.0293 160.1623,159.6703 C160.7033,158.3123 160.9743,156.7083 160.9743,154.8563 C160.9743,151.7083 159.9393,149.3163 157.8723,147.6803 C155.8053,146.0463 153.0533,145.2293 149.6153,145.2293 C146.2733,145.2293 143.6053,146.0163 141.6103,147.5903 C139.6143,149.1663 138.5093,151.4553 138.2933,154.4603 L136.8143,154.3153 C137.0783,150.9743 138.3653,148.3783 140.6733,146.5273" id="Fill-77" fill="#545A5B"></path>
                </g>
            </g>
        </g>
    </g>
</svg>