<?xml version="1.0" encoding="UTF-8" standalone="no"?>
<svg width="80px" height="68px" viewBox="0 0 80 68" version="1.1" xmlns="http://www.w3.org/2000/svg" xmlns:xlink="http://www.w3.org/1999/xlink">
    <!-- Generator: Sketch 49 (51002) - http://www.bohemiancoding.com/sketch -->
    <title>Page 1</title>
    <desc>Created with Sketch.</desc>
    <defs></defs>
    <g id="Page-1" stroke="none" stroke-width="1" fill="none" fill-rule="evenodd">
        <g id="FAQ" transform="translate(-394.000000, -220.000000)">
            <g id="Group-2" transform="translate(147.000000, 221.000000)">
                <g id="Group-18" transform="translate(6.000000, 0.000000)">
                    <g id="Nav-items">
                        <g id="Group-20" transform="translate(224.666667, 0.000000)">
                            <g id="Page-1" transform="translate(17.000000, 0.000000)">
                                <path d="M73.2426,33.538 C73.2426,51.93 58.3326,66.839 39.9406,66.839 C21.5496,66.839 6.6396,51.93 6.6396,33.538 C6.6396,15.146 21.5496,0.237 39.9406,0.237 C58.3326,0.237 73.2426,15.146 73.2426,33.538" id="Fill-1" fill="#E4E5E5"></path>
                                <path d="M1.7212,33.3603 L1.7212,35.8023" id="Stroke-3" stroke="#BDC0C0" stroke-linecap="round" stroke-linejoin="round"></path>
                                <path d="M0.5005,34.582 L2.9425,34.582" id="Stroke-5" stroke="#BDC0C0" stroke-linecap="round" stroke-linejoin="round"></path>
                                <path d="M16.936,18.9238 L16.936,21.3658" id="Stroke-7" stroke="#FFFFFF" stroke-linecap="round" stroke-linejoin="round"></path>
                                <path d="M15.7143,20.1455 L18.1573,20.1455" id="Stroke-9" stroke="#FFFFFF" stroke-linecap="round" stroke-linejoin="round"></path>
                                <path d="M53.476,8.6982 L53.476,12.7652" id="Stroke-11" stroke="#FFFFFF" stroke-linecap="round" stroke-linejoin="round"></path>
                                <path d="M51.4428,10.7314 L55.5088,10.7314" id="Stroke-13" stroke="#FFFFFF" stroke-linecap="round" stroke-linejoin="round"></path>
                                <path d="M15.7143,0.2255 L15.7143,4.2915" id="Stroke-15" stroke="#BDC0C0" stroke-linecap="round" stroke-linejoin="round"></path>
                                <path d="M13.6811,2.2587 L17.7471,2.2587" id="Stroke-17" stroke="#BDC0C0" stroke-linecap="round" stroke-linejoin="round"></path>
                                <path d="M74.4048,14.5312 L74.4048,16.9732" id="Stroke-19" stroke="#BDC0C0" stroke-linecap="round" stroke-linejoin="round"></path>
                                <path d="M73.1831,15.7519 L75.6261,15.7519" id="Stroke-21" stroke="#BDC0C0" stroke-linecap="round" stroke-linejoin="round"></path>
                                <path d="M76.1587,52.0478 L76.1587,56.1148" id="Stroke-23" stroke="#BDC0C0" stroke-linecap="round" stroke-linejoin="round"></path>
                                <path d="M74.1255,54.082 L78.1915,54.082" id="Stroke-25" stroke="#BDC0C0" stroke-linecap="round" stroke-linejoin="round"></path>
                                <polyline id="Fill-27" fill="#BDC0C0" points="30.2036 55.1201 30.2036 30.8391 49.4426 30.8391 49.4426 55.1201"></polyline>
                                <path d="M39.352,27.3837 C43.327,27.3837 46.559,24.1507 46.559,20.1767 C46.559,16.2017 43.327,12.9697 39.352,12.9697 C35.379,12.9697 32.146,16.2017 32.146,20.1767 C32.146,24.1507 35.379,27.3837 39.352,27.3837" id="Fill-29" fill="#FFFFFF"></path>
                                <path d="M39.352,27.3837 C43.327,27.3837 46.559,24.1507 46.559,20.1767 C46.559,16.2017 43.327,12.9697 39.352,12.9697 C35.379,12.9697 32.146,16.2017 32.146,20.1767 C32.146,24.1507 35.379,27.3837 39.352,27.3837 Z" id="Stroke-31" stroke="#545A5B" stroke-linecap="round" stroke-linejoin="round"></path>
                                <polyline id="Stroke-33" stroke="#545A5B" stroke-linecap="round" stroke-linejoin="round" points="30.2036 55.1201 30.2036 30.8391 49.4426 30.8391 49.4426 55.1201"></polyline>
                            </g>
                        </g>
                    </g>
                </g>
            </g>
        </g>
    </g>
</svg>