<?xml version="1.0" encoding="UTF-8" standalone="no"?>
<svg width="47px" height="49px" viewBox="0 0 47 49" version="1.1" xmlns="http://www.w3.org/2000/svg" xmlns:xlink="http://www.w3.org/1999/xlink">
    <!-- Generator: Sketch 49 (51002) - http://www.bohemiancoding.com/sketch -->
    <title>Group 18</title>
    <desc>Created with Sketch.</desc>
    <defs></defs>
    <g id="Page-1" stroke="none" stroke-width="1" fill="none" fill-rule="evenodd">
        <g id="About" transform="translate(-550.000000, -911.000000)">
            <g id="Group-19" transform="translate(153.000000, 869.000000)">
                <g id="Group-18" transform="translate(398.000000, 42.000000)">
                    <g id="Page-1">
                        <path d="M45.2559,22.98315 C45.2559,17.5764906 43.4618845,12.6145775 40.4719093,8.73284471 C37.481934,4.85111194 30.6782794,0.46665 24.0639,0.46665 C12.3609,0.46665 2.8719,10.5487125 2.8719,22.98315 C2.8719,35.4175875 12.3609,45.49965 24.0639,45.49965 C35.7669,45.49965 45.2559,35.4175875 45.2559,22.98315 Z" id="Fill-1" fill="#B4F1E3"></path>
                        <path d="M19.6536423,7.12442909 C7.48926582,7.12442909 -2.08670911,19.1107141 0.829408546,32.5429075 C2.44021639,39.9554008 8.11692542,45.9810025 15.0989443,47.6865842 C27.7410086,50.7731558 39,40.5927808 39,27.6799341" id="Stroke-5" stroke="#332E48" stroke-linecap="round" stroke-linejoin="round"></path>
                    </g>
                    <text id="2" font-family="OpenSans-Light, Open Sans" font-size="24" font-weight="300" line-spacing="24" fill="#332E48">
                        <tspan x="13" y="42">2</tspan>
                    </text>
                </g>
            </g>
        </g>
    </g>
</svg>