<?xml version="1.0" encoding="UTF-8" standalone="no"?>
<svg width="71px" height="52px" viewBox="0 0 71 52" version="1.1" xmlns="http://www.w3.org/2000/svg" xmlns:xlink="http://www.w3.org/1999/xlink">
    <!-- Generator: Sketch 49 (51002) - http://www.bohemiancoding.com/sketch -->
    <title>Page 1</title>
    <desc>Created with Sketch.</desc>
    <defs>
        <rect id="path-1" x="0" y="0" width="75" height="75"></rect>
    </defs>
    <g id="Page-1" stroke="none" stroke-width="1" fill="none" fill-rule="evenodd">
        <g id="Compare-Property-2-Copy-2" transform="translate(-1104.000000, -290.000000)">
            <g id="Group-8" transform="translate(1062.000000, 278.000000)">
                <g id="Page-1" transform="translate(40.000000, 0.000000)">
                    <mask id="mask-2" fill="white">
                        <use xlink:href="#path-1"></use>
                    </mask>
                    <g id="Mask"></g>
                    <g mask="url(#mask-2)" stroke="#BDC0C0">
                        <g transform="translate(2.000000, 12.000000)">
                            <path d="M14.6081,24.8503 L14.4301,48.7353 C14.4211,49.9883 15.4291,51.0123 16.6831,51.0213 L49.9331,51.2693 C51.1851,51.2783 52.2091,50.2703 52.2181,49.0173 L52.3941,25.2853 M58.5781,30.8313 L35.2411,7.1453 C34.3611,6.2523 32.9251,6.2423 32.0321,7.1213 L8.3441,30.4573" id="Stroke-1" stroke-linecap="round" stroke-linejoin="round"></path>
                            <path d="M44.2624,39.4303 C45.3824,37.0203 45.6404,34.2013 44.7724,31.4753 C42.9364,25.7033 36.7474,22.5023 30.9764,24.3383 C25.2054,26.1753 22.0044,32.3653 23.8404,38.1353 C25.6764,43.9073 31.8664,47.1073 37.6374,45.2713 C40.3634,44.4043 42.5154,42.5653 43.8344,40.2573 L44.2624,39.4303 Z" id="Stroke-3"></path>
                            <path d="M34.07,39.528 L34.079,30.083" id="Stroke-5" stroke-linecap="round" stroke-linejoin="round"></path>
                            <path d="M38.7965,34.8092 L29.3515,34.8012" id="Stroke-7" stroke-linecap="round" stroke-linejoin="round"></path>
                            <path d="M3.5065,42.6344 L3.5065,45.0774" id="Stroke-9" stroke-linecap="round" stroke-linejoin="round"></path>
                            <path d="M2.2858,43.8561 L4.7278,43.8561" id="Stroke-11" stroke-linecap="round" stroke-linejoin="round"></path>
                            <path d="M1.7213,15.1979 L1.7213,17.6409" id="Stroke-13" stroke-linecap="round" stroke-linejoin="round"></path>
                            <path d="M0.4997,16.4196 L2.9427,16.4196" id="Stroke-15" stroke-linecap="round" stroke-linejoin="round"></path>
                            <path d="M48.2614,3.9733 L48.2614,8.0393" id="Stroke-17" stroke-linecap="round" stroke-linejoin="round"></path>
                            <path d="M46.2282,6.0065 L50.2942,6.0065" id="Stroke-19" stroke-linecap="round" stroke-linejoin="round"></path>
                            <path d="M20.4997,0.4997 L20.4997,4.5667" id="Stroke-21" stroke-linecap="round" stroke-linejoin="round"></path>
                            <path d="M18.4665,2.5329 L22.5325,2.5329" id="Stroke-23" stroke-linecap="round" stroke-linejoin="round"></path>
                            <path d="M69.1901,20.8053 L69.1901,23.2483" id="Stroke-25" stroke-linecap="round" stroke-linejoin="round"></path>
                            <path d="M67.9684,22.027 L70.4114,22.027" id="Stroke-27" stroke-linecap="round" stroke-linejoin="round"></path>
                            <path d="M62.944,44.3229 L62.944,48.3889" id="Stroke-29" stroke-linecap="round" stroke-linejoin="round"></path>
                            <path d="M60.9108,46.3561 L64.9768,46.3561" id="Stroke-31" stroke-linecap="round" stroke-linejoin="round"></path>
                        </g>
                    </g>
                </g>
            </g>
        </g>
    </g>
</svg>