<?xml version="1.0" encoding="UTF-8" standalone="no"?>
<svg width="140px" height="140px" viewBox="0 0 140 140" version="1.1" xmlns="http://www.w3.org/2000/svg" xmlns:xlink="http://www.w3.org/1999/xlink">
    <!-- Generator: Sketch 49 (51002) - http://www.bohemiancoding.com/sketch -->
    <title>Group 19</title>
    <desc>Created with Sketch.</desc>
    <defs></defs>
    <g id="Page-1" stroke="none" stroke-width="1" fill="none" fill-rule="evenodd">
        <g id="Contact--Copy" transform="translate(-844.000000, -696.000000)">
            <g id="Group-19" transform="translate(844.000000, 696.000000)">
                <circle id="Oval-2-Copy-2" fill-opacity="0.15" fill="#FFAD85" cx="70" cy="70" r="70"></circle>
                <g id="001-building-1" transform="translate(0.000000, 13.000000)" fill="#000000" fill-rule="nonzero">
                    <path d="M127.982885,123.821031 C127.930385,121.809633 127.265627,120.823943 125.227854,120.573081 C124.8651,120.528561 124.500595,120.497548 124.135341,120.472286 C124.447595,119.533117 124.368094,118.476645 124.358094,117.509714 C124.343344,116.073572 124.331094,114.637431 124.323843,113.20104 C124.301843,108.67677 123.771087,104.167507 123.637336,99.6434875 C123.565585,97.212152 123.441583,94.7845683 123.411083,92.3432284 C123.394833,91.0311426 123.369833,89.7213079 123.324082,88.4102225 C123.300582,87.7346709 123.18058,86.3698116 123.411833,85.5659527 C123.944339,85.6122234 124.488345,85.674001 124.979351,85.5249344 C126.129614,85.1760287 126.277616,83.7458902 126.150114,82.7186816 C125.997363,81.4873819 124.943351,80.8613524 123.833088,80.6580117 C124.220092,79.7433533 124.02784,78.3484806 124.065591,77.5178598 C124.155592,75.5319732 124.426595,73.3672568 123.977839,71.3923751 C124.425345,71.461406 124.8796,71.5451934 125.314355,71.4871675 C126.330116,71.3513568 126.60387,70.4016829 126.62312,69.483523 C126.64762,68.330008 125.859611,67.9355819 124.8901,67.7254881 C125.219854,66.8998695 124.953601,65.7055863 124.8581,64.7544117 C124.685598,63.0388958 124.551596,61.7720803 122.499823,61.5119642 C120.677552,61.280861 118.82828,61.2791102 117.00776,61.0274979 C114.902735,60.7363679 112.754211,60.6733398 110.641187,60.4847556 C108.527162,60.2959213 106.389138,60.1140901 104.273864,60.3649521 C104.278614,60.2316426 104.285864,60.0975827 104.296614,59.9622723 C104.387615,58.8300168 104.361115,57.6860061 104.356365,56.5497488 C104.346865,54.2539739 104.569367,51.6910797 104.119862,49.4010574 C105.178374,49.256743 106.018384,48.7812807 106.020884,47.3408877 C106.025634,44.4708564 103.0581,44.4078282 100.874075,44.4405929 C99.325307,44.4638532 97.7862893,44.4345902 96.2467717,44.4053271 C96.4350238,43.0994941 96.4420239,41.7383865 96.4670242,40.433554 C96.4800244,39.7570019 96.7020269,38.5514637 96.3490229,37.7983775 C96.5675254,36.5738308 97.0730312,34.2575468 95.9920188,33.3809054 C95.0627581,32.6275691 92.5899798,33.7580738 92.0452235,32.8436656 C91.825221,32.4737504 92.1082243,30.9705793 92.1407246,30.5831564 C92.1804751,30.105193 92.2659761,29.7122676 91.8694715,29.3205927 C91.4279665,28.8848982 90.6634577,28.8371269 90.0872011,28.8051126 C89.2424414,28.7583417 88.592184,28.8106151 87.8314252,28.6352868 C87.7584244,28.069034 87.7341741,27.5020309 87.7461743,26.9280246 C87.7579244,26.360021 87.9356764,25.8102756 87.8599256,25.2437727 C87.7999249,24.7935717 87.550672,24.5294538 87.0961668,24.4796816 C86.0756551,24.3681318 84.8753914,24.0524909 83.796629,24.1240228 C83.1158712,23.5327588 83.7356283,21.7734734 83.4291248,20.9606105 C83.0906209,20.06346 82.5173643,20.0189401 81.6476044,20.027694 C81.0270973,20.0339468 79.7510826,20.2540451 79.3618282,19.6437726 C79.1188254,19.2628526 79.2095764,18.1833707 79.257827,17.792196 C79.3540781,17.0113474 79.4490792,16.3232903 78.5538189,15.9846391 C78.0628133,15.7990562 77.5203071,15.9223613 77.0155513,15.9063541 C76.7925487,15.899351 76.1875418,15.9136074 75.9905395,15.8010571 C75.597035,15.5759566 75.7252865,15.4504006 75.7262865,14.8251214 C75.7277865,14.0545274 76.0812906,12.667158 75.3817826,12.0841477 C74.8310263,11.6249427 73.6300125,11.7052286 72.7827528,11.6484532 C72.6895017,10.4164032 73.5132611,8.83769841 72.6750015,7.75371448 C72.2237464,7.17020398 71.4772378,7.25524194 70.8279804,7.26799764 C70.2812241,7.27850233 69.7047175,7.10067294 69.2787126,7.51635851 C68.7482065,8.03408965 69.0994606,9.25713566 68.4814535,9.66356711 C68.5707045,9.60504098 67.6176936,9.61204411 67.6396938,9.62454969 C67.3119401,9.43571539 67.5459428,8.68788153 67.5309426,8.38749742 C67.5126924,8.02683641 67.5969433,7.57688554 67.4414416,7.23573323 C67.2436893,6.80278995 66.9179356,7.09692126 66.5761816,6.86731876 C66.3731793,6.73125802 66.3816794,6.43537592 66.4129298,6.19276761 C66.4424301,5.962915 66.4721805,5.73281227 66.5016808,5.50295966 C66.5321811,5.26335269 66.5661815,5.01524192 66.696433,4.81165103 C67.1186879,4.15110614 68.2249505,4.84641655 68.786957,4.25440226 C69.04796,3.97927943 69.0697102,3.56184307 69.0764603,3.1826738 C69.0897105,2.44434418 69.1029606,1.70551434 69.1164608,0.96718472 C69.1202108,0.754089586 69.1197108,0.525737641 69.0002094,0.349909145 C68.8094572,0.0690337519 68.4132027,0.043272251 68.0741988,0.045523256 C66.169427,0.0582789506 64.2306548,-0.0862855884 62.335383,0.0825397815 C61.6766255,0.14106591 60.1813584,0.135313342 59.7221031,0.681557205 C59.4055995,1.05822536 59.3728491,1.67975284 59.4098495,2.14496052 C59.45285,2.68820305 59.368099,3.27021288 59.5348509,3.8049516 C59.6931028,4.31242816 60.1156076,4.77638529 60.6458637,4.81190114 C60.9263669,4.83040941 61.2093701,4.73061485 61.4853733,4.78238797 C62.2861325,4.93295519 62.4798847,6.10372786 62.0878802,6.71324998 C61.7848767,7.18446034 61.4311227,6.95285695 61.0066178,7.16870331 C60.5413625,7.40555905 60.4328612,8.0265863 60.4413613,8.50029778 C60.4466114,8.79768054 60.6568638,9.4532232 60.3601104,9.62404947 C60.3821107,9.61129377 59.4290997,9.60429064 59.5183508,9.66306688 C58.9003437,9.25713566 59.2515977,8.03383954 58.7210916,7.51585829 C58.2950867,7.10017271 57.7185801,7.2780021 57.1718239,7.26749741 C56.5230664,7.25474172 55.7760579,7.16970375 55.3248027,7.75321426 C54.4865431,8.83719819 55.3105525,10.4161531 55.2170515,11.647953 C54.3700418,11.7047284 53.168778,11.6246926 52.6180217,12.0836475 C51.9185137,12.6664077 52.2720177,14.0542773 52.2735177,14.8246212 C52.2747677,15.4499003 52.4030192,15.5754564 52.0092647,15.8005569 C51.8122624,15.9131071 51.2072555,15.8986007 50.984253,15.9058539 C50.4794972,15.9221112 49.936991,15.798556 49.4459853,15.9841388 C48.5509751,16.32279 48.6457262,17.010347 48.7419773,17.7916958 C48.7902278,18.1831206 48.8809789,19.2621022 48.6379761,19.6432724 C48.2487216,20.2535449 46.972707,20.0334466 46.3521999,20.0271938 C45.4826899,20.0184399 44.9089333,20.0629598 44.5706795,20.9601103 C44.2641759,21.7729732 44.883683,23.5322586 44.2031752,24.1235226 C43.1244129,24.0519906 41.9241491,24.3676315 40.9036374,24.4791813 C40.4493822,24.5289536 40.1998794,24.7930715 40.1398787,25.2432725 C40.0643778,25.8100255 40.2418798,26.3595208 40.25363,26.9275244 C40.2656301,27.5015306 40.2416298,28.0685338 40.168629,28.6347866 C39.4078703,28.8101148 38.7576128,28.7575914 37.9128532,28.8046124 C37.3368465,28.8363766 36.5720878,28.8841479 36.1305827,29.3198424 C35.7340782,29.7115173 35.8195792,30.1044427 35.8593296,30.5824061 C35.89183,30.969829 36.1748332,32.4732502 35.9548307,32.8429152 C35.4103245,33.7573235 32.9372961,32.6265686 32.0080355,33.3801551 C30.9270231,34.2567964 31.4325289,36.5730805 31.6510314,37.7976272 C31.2977773,38.5507134 31.5200299,39.7560015 31.53303,40.4328036 C31.5580303,41.7376362 31.5650304,43.0989939 31.7532826,44.4045768 C30.2137649,44.43409 28.6744973,44.4631029 27.1259795,44.4398425 C24.9417045,44.4070779 21.9744205,44.4698559 21.9791705,47.3401373 C21.9814206,48.7810306 22.8214302,49.2559926 23.8801923,49.4003071 C23.4306872,51.6903294 23.6534397,54.2532236 23.6436896,56.5489985 C23.6389396,57.6850057 23.6124393,58.8287663 23.7034403,59.961522 C23.7144404,60.0968324 23.7216905,60.2308922 23.7261906,60.3642018 C21.6109163,60.1133398 19.4728918,60.2951709 17.3586176,60.4840052 C15.2455934,60.6725894 13.0968187,60.7356176 10.9920446,61.0267475 C9.17152376,61.2783599 7.32225257,61.2798605 5.49998168,61.5112138 C3.44820817,61.7713299 3.31420663,63.0381455 3.14170466,64.7536614 C3.04595356,65.7050861 2.77970051,66.8993693 3.10970429,67.7247378 C2.14019318,67.9348316 1.35218415,68.3290075 1.37643443,69.4827726 C1.39593465,70.4009325 1.66918778,71.3506065 2.68519942,71.4864171 C3.11995441,71.544443 3.57420961,71.4604055 4.02171474,71.3916248 C3.5729596,73.3662564 3.8437127,75.5309728 3.93396374,77.5171094 C3.97171417,78.3477303 3.77946197,79.742603 4.1664664,80.6572613 C3.05620368,80.8606021 2.0021916,81.4863815 1.84943985,82.7179313 C1.72193839,83.7451399 1.86994008,85.1757786 3.02020326,85.5241841 C3.51120889,85.6730005 4.05521513,85.6114731 4.58772123,85.5652024 C4.81872388,86.3693114 4.6987225,87.7339206 4.67547223,88.4094722 C4.62972171,89.7208076 4.60447142,91.0303923 4.58847124,92.342478 C4.55847089,94.7838179 4.43421947,97.2114017 4.36246865,99.6427371 C4.22896712,104.166507 3.69796103,108.67577 3.67596078,113.20029 C3.6689607,114.636681 3.65646056,116.072822 3.64171039,117.508963 C3.63171027,118.475645 3.55220936,119.532367 3.86446294,120.471536 C3.49945876,120.496547 3.13495458,120.527561 2.77195042,120.572331 C0.734177065,120.823193 0.0694194464,121.809133 0.0169188447,123.820281 C-0.00183137017,124.543354 -0.0945824331,125.379477 0.479424145,125.92322 C1.09068115,126.501978 2.13469312,126.608526 2.93020223,126.697565 C4.87122448,126.914662 6.88424755,127.005953 8.8342699,126.9997 C13.7918267,126.983443 18.7598836,127.005953 23.7116904,126.779352 C26.0727175,126.671304 28.477745,126.641791 30.8405221,126.616029 C33.4248017,126.588267 35.9963312,126.353662 38.5751107,126.28138 C42.7351584,126.163827 46.9422066,126.650795 51.1092544,126.46071 C52.5730212,126.485471 54.0507881,126.365917 55.5010547,126.41669 C56.0663112,126.436449 56.6265676,126.444202 57.1878241,126.4382 C57.9110823,126.646543 58.6975914,126.686811 59.4721002,126.702818 C61.1773698,126.738084 62.858889,126.648544 64.5616586,126.615779 C66.5546814,126.577762 68.5484543,126.609276 70.536727,126.5515 C71.9964938,126.509481 73.5640117,126.59602 75.0647789,126.43795 C75.6745359,126.454957 76.2845429,126.470464 76.8920499,126.46046 C81.0590976,126.650544 85.2661458,126.163827 89.4261935,126.28113 C92.0054731,126.353662 94.5767525,126.588267 97.1607822,126.615779 C99.5235592,126.64104 101.928587,126.670803 104.289614,126.779102 C109.241171,127.005453 114.209478,126.983193 119.167034,126.99945 C121.117057,127.005703 123.13058,126.914662 125.071102,126.697315 C125.866611,126.608276 126.910623,126.501978 127.52213,125.92297 C128.094637,125.380477 128.001886,124.544104 127.982885,123.821031 Z M124.519596,83.1356178 C124.774849,84.0732864 124.119091,84.0025048 123.432833,83.9804949 C122.842576,83.9617366 122.29457,84.030017 121.708563,84.0907942 C120.144046,84.2531166 118.628028,84.307641 117.05476,84.2738759 C114.008725,84.2083467 110.94969,84.1165557 107.889655,84.0742868 C107.858655,83.3342064 107.805404,82.5978777 107.709153,81.8610487 C108.560163,81.9248272 109.695426,82.0548853 110.609686,81.8085253 C112.426707,81.9493382 114.305479,81.7550014 116.110999,81.9230764 C117.419264,82.0451309 118.740029,82.246971 120.048794,82.3240054 C121.172307,82.3905351 124.139091,81.7392444 124.519596,83.1356178 Z M107.944906,100.99359 C107.933156,97.6971185 107.682403,94.3088559 108.019157,91.0331435 C108.189659,89.3749032 107.980656,87.6833981 107.943656,86.0206557 C107.941406,85.9176097 107.938906,85.815064 107.936906,85.7122681 C110.07643,85.6842556 112.218705,85.6522413 114.357979,85.6689988 C116.231001,85.6835052 118.082272,85.9773864 119.970794,85.8110622 C120.731302,85.7437821 121.495811,85.6294811 122.25882,85.5657026 C121.801065,86.8757875 121.920816,88.6978509 121.887816,89.9038894 C121.824315,92.2276768 121.830565,94.5539653 121.805315,96.878253 C121.760564,101.006096 122.428822,105.170205 122.30082,109.294296 C122.228069,111.639843 122.420322,114.037163 122.411822,116.397217 C122.408822,117.249347 122.747575,118.95711 122.27582,119.708195 C121.865065,120.362237 120.200546,120.040594 119.483038,120.107623 C117.575266,120.285953 115.609994,120.327722 113.694472,120.318217 C112.65896,120.313215 111.622948,120.316717 110.587186,120.315966 C109.742176,120.315466 108.770915,120.411759 107.883655,120.321969 C107.862655,120.228677 107.825654,120.137637 107.773904,120.051849 C108.595163,113.729526 107.967656,107.339173 107.944906,100.99359 Z M122.560323,76.1252381 C122.503073,76.9175918 122.451572,77.7317052 122.380321,78.5205574 C122.344321,78.9179848 122.347321,79.8203877 122.151819,80.2180653 C122.067568,80.3178598 122.019817,80.4254078 122.001317,80.5347066 C120.653051,80.4914373 119.316036,80.4804324 117.959771,80.3561269 C115.966748,80.1735454 113.996475,80.1307763 111.994702,80.159289 C111.880201,80.1607897 111.7627,80.1602895 111.643698,80.1587888 C111.636448,80.150285 111.629948,80.1400304 111.622448,80.1317767 C111.032691,79.4997446 110.248432,79.0162787 109.476673,78.5663279 C109.373672,78.4885431 109.270171,78.4102582 109.16717,78.3344743 C108.469412,77.8227459 107.702403,77.5036034 106.944894,77.094921 C106.103885,76.6412184 105.258125,76.158753 104.401615,75.701799 C104.475866,75.1655596 104.681118,73.7106601 104.694369,73.4252827 C104.716869,72.9460688 104.735619,72.4518481 104.748369,71.9556266 C104.778119,71.9496239 104.80787,71.9446217 104.83887,71.9346172 C105.434627,71.7432818 106.153885,71.8670871 106.773392,71.8640857 C107.787154,71.8593336 108.808416,71.8933488 109.821177,71.8548316 C111.690199,71.7843001 113.52972,71.6677481 115.406991,71.6404859 C116.983509,71.6174756 118.663529,71.6037195 120.227297,71.4083823 C121.075556,71.3023349 121.945066,71.2985833 122.805326,71.3118392 C122.449822,72.8887932 122.676825,74.5165199 122.560323,76.1252381 Z M124.995601,69.5085341 C125.028602,69.5660598 125.221604,70.1565734 125.097102,70.2468637 C125.073352,70.2641214 123.904589,69.9854971 123.709586,69.9757427 C122.330321,69.9057114 120.974305,70.0172612 119.609789,70.1250594 C116.788757,70.3486592 113.898474,69.9644877 111.095192,70.2868816 C109.506174,70.4694631 107.839405,70.3924287 106.241886,70.3321518 C105.742131,70.3133934 105.206874,70.2233532 104.746619,70.3621652 C104.740369,70.1553229 104.735369,69.9474801 104.722369,69.7451397 C104.707369,69.5085341 104.690868,69.2724287 104.674368,69.0360732 C106.439388,69.20815 108.223159,69.1688825 110.007429,69.1696328 C111.095192,69.1698829 112.162204,68.993054 113.247967,69.004309 C114.482231,69.0173148 115.640994,69.1906422 116.869758,69.0450772 C118.089772,68.9005127 119.356287,68.9480339 120.578301,68.8482393 C121.091056,68.8062206 121.620312,68.7969665 122.147319,68.7784582 C122.768076,68.937029 123.394833,68.9180205 124.04709,69.0233175 C124.526596,69.100602 124.764599,69.1066047 124.995601,69.5085341 Z M109.382172,61.9334023 C111.102942,62.1117319 112.804711,62.2602982 114.526731,62.403112 C115.890747,62.5166627 117.233512,62.739012 118.585028,62.8740723 C119.494788,62.9648628 120.415799,63.0591549 121.330309,63.0579043 C121.716314,63.0574041 122.321071,62.9683643 122.686825,63.1391906 C123.453833,63.4976006 123.284082,64.1558945 123.335332,64.7544117 C123.404333,65.5650236 124.00234,66.9156266 123.083829,67.21451 C122.749325,67.3233086 122.078818,67.1907494 121.724564,67.210008 C119.363287,67.3393157 117.04176,67.8027726 114.666233,67.5811737 C112.766211,67.4038445 110.885439,67.6659615 108.982168,67.6512049 C107.511901,67.6396998 106.029884,67.4741259 104.564617,67.5171451 C104.456616,66.0502402 104.355865,64.5843358 104.348115,63.108677 C104.344614,62.4498829 104.293864,61.8183509 104.274864,61.1803161 C105.948383,61.6877927 107.652152,61.7543224 109.382172,61.9334023 Z M62.1943814,3.52282565 C61.9431285,3.55058805 61.6863756,3.60661306 61.4408728,3.55659073 C60.9418671,3.45554562 60.6153633,2.90104807 60.6781141,2.39557241 C60.7406148,1.88984663 61.1233692,1.46315614 61.5828744,1.24430844 C62.3398831,0.883647426 63.3838951,0.960931928 64.2061545,0.937671544 C65.1551654,0.910909597 66.1079263,0.931668864 67.047187,1.08123564 C67.30719,1.12250406 67.5799432,1.1770284 67.7781954,1.35035578 C68.0699488,1.60622001 68.1141993,2.03641206 68.1381995,2.42383502 C68.1574498,2.73147236 68.1656999,3.07287478 67.9659476,3.30772963 C67.6411939,3.68990024 67.044937,3.55734106 66.607932,3.63987791 C66.1816771,3.72041386 65.6666712,3.98428166 65.4984193,4.4162245 C65.2476664,5.06026202 66.0706759,6.20402264 65.296417,6.6602263 C65.1836657,6.72650589 65.0499142,6.74726516 64.9194127,6.75551885 C64.1521539,6.8037904 63.3346445,6.72525534 63.3113942,5.80859611 C63.294394,5.12679172 63.5873974,3.8992437 62.7476378,3.56734553 C62.5716358,3.49756438 62.3846336,3.5023165 62.1943814,3.52282565 Z M56.8193198,8.4727855 C58.055584,8.0608516 57.9768331,10.1372786 58.57884,10.67802 C59.1513466,11.1924997 61.0506183,11.1302219 61.542374,10.5372071 C61.9201283,10.0817538 61.8618776,9.38369216 61.8266272,8.83469707 C61.8023769,8.46228081 61.7328761,8.37974396 61.9578787,8.14914101 C61.9906291,8.11587616 62.0538798,8.08611287 62.1353808,8.05960104 C62.8028884,8.15289269 63.5843974,8.04334378 64.1401537,8.03834155 C64.9869134,8.03033797 66.2486779,7.62865865 66.170927,8.83519729 C66.1356766,9.3844425 66.0771759,10.082254 66.4551803,10.5377074 C66.9464359,11.1302219 68.8434576,11.1927498 69.4174642,10.6795207 C69.9307201,10.2203157 69.7707183,9.42871226 70.1572227,8.9469972 C70.4947266,8.52655951 71.3249861,8.49879711 71.5942392,9.0005211 C71.7932414,9.3716868 71.5002381,10.3486229 71.4589876,10.7620575 C71.4314873,11.03643 71.3812367,11.3255591 71.3579864,11.6134376 C70.271474,11.5379039 69.133461,11.612187 68.1166993,11.5346524 C66.4229299,11.4058449 64.7379106,11.4803782 63.0438912,11.3910883 C61.4978734,11.3095519 59.886855,11.4721245 58.3463373,11.6412 C57.7763308,11.7037279 57.2113243,11.7540004 56.6485679,11.8112759 C56.6393178,11.4591187 56.571317,11.0997083 56.5378166,10.7625577 C56.481566,10.1913027 56.0140606,8.74140542 56.8193198,8.4727855 Z M54.1927897,13.2839334 C54.6440449,13.2679262 55.1053002,13.1923925 55.5588054,13.1131071 C56.5000662,13.0923478 57.4570771,12.9607891 58.3470873,12.8877565 C59.889605,12.7614501 61.5023735,12.5918744 63.0446412,12.6821647 C64.7381606,12.7809588 66.4251799,12.7179307 68.1174493,12.8537413 C69.3299632,12.9512849 70.8902311,13.2371625 72.2134963,13.0740897 C72.7392523,13.1663809 73.2787585,13.2656752 73.8055145,13.2841835 C74.0340171,13.2921871 74.2117692,13.368221 74.2955201,13.3527141 C74.2800199,13.7003693 74.2257693,14.2040942 74.2247693,14.2691232 C74.2185192,14.6460415 74.1735187,15.0927409 74.1845188,15.5266846 C70.5102267,14.8773948 66.7164333,14.8318744 63.0138908,15.1317583 C60.8293658,15.3088374 58.6300906,15.2605658 56.4468156,15.4989222 C55.5648055,15.5952152 54.6800453,15.7020129 53.7975352,15.8170643 C53.8482858,15.2975823 53.782035,14.7313295 53.7745349,14.2688731 C53.7732849,14.2038441 53.7195343,13.7001192 53.7037841,13.352464 C53.7867851,13.3679709 53.9642871,13.2919369 54.1927897,13.2839334 Z M50.2727448,17.6771447 C50.2697448,17.5285783 50.2572446,17.4475422 50.2439945,17.4042728 C50.2562446,17.4055234 50.2724948,17.4032724 50.293495,17.395769 C50.4822472,17.3234868 51.0210034,17.4192795 51.2440059,17.4092751 C51.6667608,17.3907668 52.2362673,17.3765105 52.7047727,17.2442014 C54.0255378,17.1594135 55.3600531,16.9205569 56.6335677,16.8260147 C58.8255928,16.6626918 61.023618,16.6724461 63.2146431,16.5381362 C65.6621712,16.3880692 68.088199,16.414581 70.537477,16.5378861 C71.843992,16.6036654 73.3552593,16.974581 74.7662755,16.9983416 C74.8340263,17.0486141 74.9065271,17.0958852 74.9900281,17.1356529 C75.4912838,17.3735091 76.2352923,17.3865149 76.7542983,17.4092751 C76.9773008,17.4192795 77.516057,17.3234868 77.7048092,17.395769 C77.7258094,17.4037726 77.7418096,17.4057735 77.7543098,17.4042728 C77.7410596,17.4475422 77.7283095,17.5288285 77.7255594,17.6771447 C77.7123093,18.3687034 77.6828089,19.2560996 77.8993114,19.9979308 C77.8073104,19.9889267 77.7150593,19.9809232 77.6243083,19.9696681 C76.202792,19.7905882 74.7777756,19.6500254 73.3452592,19.5892483 C70.2764741,19.4599406 67.1411881,19.4294269 64.0714029,19.5599852 C60.9688674,19.6920442 57.884082,19.8511152 54.7715464,19.8623702 C53.2935294,19.8678727 51.6935111,19.808096 50.1234931,19.9031384 C50.3112452,19.1810661 50.2854949,18.3394403 50.2727448,17.6771447 Z M45.9674455,22.2239245 C45.9139448,21.3830491 45.9096948,21.4245677 46.7242041,21.4428258 C47.4279622,21.4583327 48.2767219,21.5538754 48.9599798,21.3085158 C49.2874835,21.2860058 49.6202373,21.261745 49.9667413,21.2544917 C51.4797586,21.2234779 52.992526,21.2299808 54.5075433,21.2307311 C57.6100789,21.2322318 60.7048644,21.1697039 63.7963998,21.0138843 C66.954436,20.8548133 70.2142233,20.7887838 73.3730095,20.9868723 C74.7170249,21.0711599 76.0802906,21.1589491 77.4098058,21.3327767 C78.213065,21.4375735 79.0995752,21.5296146 79.9515849,21.4680871 C80.4008401,21.488096 80.8623454,21.4520799 81.2741001,21.4428258 C82.0881094,21.4245677 82.0841094,21.3832992 82.0308588,22.2239245 C81.9961084,22.7701684 81.880357,23.3074082 81.9561079,23.8569035 C81.9796082,24.0289804 82.0246087,24.1890518 82.0788593,24.3426204 C79.7735829,24.0397352 77.4638064,23.719092 75.1410298,23.642808 C71.2919857,23.5167517 67.4219413,23.5019951 63.5723972,23.6860773 C59.9353555,23.860155 56.2998139,23.9917137 52.6642722,24.205059 C50.6209988,24.3248625 48.5869755,24.3521246 46.540202,24.3806374 C46.3239495,24.3836387 46.1089471,24.3936432 45.8949446,24.4073993 C45.9616954,24.2350724 46.015446,24.0537414 46.0424463,23.8569035 C46.1176972,23.3074082 46.0019459,22.7699183 45.9674455,22.2239245 Z M44.2746761,25.7344918 C44.8666828,25.7149831 45.4609397,25.6782166 46.0489464,25.6859701 C48.0697196,25.712732 50.0789926,25.7482479 52.0967657,25.6524551 C55.8470587,25.4741255 59.5888516,25.3053002 63.3376445,25.114465 C67.1176879,24.9221291 70.9499818,24.8623524 74.7300251,25.0214234 C76.380794,25.0909545 77.9678122,25.2727856 79.610581,25.4813788 C80.8558453,25.6396994 82.0668592,25.6652108 83.2876232,25.6604587 C84.2678844,25.8577968 85.3088963,25.8342863 86.3169079,25.9190742 C86.2686573,26.3745275 86.1714062,26.8489893 86.1761563,27.2874351 C86.1814063,27.7799049 86.2144067,28.2531162 86.2739074,28.7288285 C85.7359012,28.7485874 85.195145,28.7871046 84.6606389,28.7846034 C82.5941152,28.774599 80.5203415,28.6272832 78.4465677,28.6275333 C74.0302671,28.6280335 69.5994663,28.8321247 65.1786656,28.6130268 C60.6058632,28.3866758 56.0085605,28.6215306 51.4385082,28.7613431 C49.1247316,28.8321247 46.8112051,28.84413 44.4959286,28.8558853 C43.5669179,28.8606374 42.6301572,28.8593868 41.7016466,28.9184132 C41.7781474,28.3776718 41.8161479,27.8451841 41.822148,27.2871849 C41.826898,26.8489893 41.7296469,26.3745275 41.6813963,25.9188241 C42.5411562,25.8465418 43.4249163,25.8532948 44.2746761,25.7344918 Z M37.4335977,30.4558496 C37.4883483,30.1134467 37.288346,30.2505079 37.8491024,30.3585561 C38.2041065,30.4273368 38.6641118,30.3600568 39.0401161,30.3645588 C39.294619,30.36731 39.5256216,30.3533038 39.7488742,30.3255414 C40.8763871,30.385068 42.1286515,30.1629688 43.1001626,30.181227 C45.4319393,30.2252466 47.7507159,30.1146973 50.0774926,30.1314547 C54.8102968,30.1652198 59.5498511,29.7337772 64.2876554,29.9291144 C68.610205,30.107444 72.9327545,29.9186097 77.2455539,29.9996459 C79.433579,30.0409143 81.6231041,29.981888 83.8086291,30.093938 C84.8651412,30.1482122 85.9571538,30.0614235 87.0384162,30.0389134 C87.7051738,30.2555101 88.24343,30.3725624 88.9579382,30.3645588 C89.3336925,30.360557 89.7941977,30.4275869 90.1489518,30.3585561 C90.7094582,30.2500077 90.5097059,30.1134467 90.5644566,30.4558496 C90.7049582,31.3337415 90.3757044,32.3386901 90.5302062,33.2398424 C89.377693,33.1500523 88.2146796,33.1210394 87.0911668,33.0460059 C84.9796426,32.9049429 82.8671183,32.6768411 80.746344,32.7001015 C75.3387821,32.7591278 69.92297,32.9547151 64.510658,33.03275 C59.2315975,33.1087839 53.956537,33.1563051 48.6797265,33.3591457 C45.9736955,33.4634423 43.2766646,33.5112136 40.5691336,33.5772431 C39.5361218,33.6025043 38.4626095,33.559235 37.3905972,33.5587348 C37.7088508,32.5812984 37.2765959,31.4385383 37.4335977,30.4558496 Z M33.0800478,34.6482212 C33.184799,34.5809411 33.8683068,34.6422185 34.2828115,34.6697308 C36.2973346,35.055403 38.5643606,34.9396013 40.5693836,34.8813252 C43.2754146,34.8025401 45.9734455,34.8017897 48.6799765,34.6962426 C53.953537,34.4906508 59.2335975,34.3738487 64.510908,34.3220756 C69.92297,34.269302 75.3390321,34.112482 80.746594,34.0759657 C82.8688684,34.0617093 84.9798926,34.3145722 87.0914168,34.4466312 C88.855687,34.5569304 91.0102117,35.0093824 92.8059823,34.656725 C93.0219847,34.6629778 93.2329871,34.6664793 93.4282394,34.6799854 C93.6362418,34.6942417 94.7805049,34.5594315 94.9185065,34.6479711 C95.2122598,34.836055 95.0972585,35.1419416 95.1020086,35.4905973 C95.1097587,36.0498469 95.1340089,36.5735807 95.1877595,37.1055682 C94.8575058,37.0708027 94.5127518,37.0723034 94.2562489,37.0522945 C93.4299894,36.9877656 92.5947298,37.0187795 91.7654703,37.0262828 C89.9927,37.0430403 88.24843,37.1310796 86.4834098,37.2118657 C82.5813651,37.3901953 78.6108196,37.1293288 74.7022748,37.1308295 C73.7030133,37.1310796 72.6982518,37.163344 71.6992404,37.1243266 C71.6594899,37.1228259 71.6197394,37.1193244 71.579989,37.1173235 C71.3127359,37.0760551 71.0382328,37.053545 70.7624796,37.0427902 C70.3094744,36.9935182 69.8579693,36.948248 69.398714,36.9855146 C69.1612113,37.0047732 68.9227085,37.0335361 68.6847058,37.0590475 C67.2696896,37.0875602 65.8474233,37.2743936 64.4301571,37.3176629 C63.4323956,37.3479264 62.4376342,37.3524284 61.4426228,37.3601819 C60.497862,37.1963588 59.5448511,37.0622989 58.6005902,36.9852645 C57.8263314,36.9224865 57.0730727,37.0940631 56.3000639,37.1240765 C55.3010524,37.1630939 54.2962909,37.1308295 53.2970295,37.1305794 C49.3882347,37.1293288 45.4176892,37.3899452 41.5158944,37.2116156 C39.7511242,37.1310796 38.0066042,37.0427902 36.2338339,37.0260327 C35.4048244,37.0182793 34.5690648,36.9875155 33.7430554,37.0520443 C33.4865524,37.0720533 33.1415485,37.0705526 32.8115447,37.1053181 C32.8650453,36.5730805 32.8895456,36.0495968 32.8972957,35.4903471 C32.9010457,35.1421917 32.7862944,34.8363052 33.0800478,34.6482212 Z M33.2340495,41.9599854 C33.2097993,41.2706777 33.1487986,40.5871225 33.1397984,39.8940631 C33.1370484,39.6812181 33.0525474,39.1154655 33.0817978,38.7262918 C35.3505738,38.4854343 37.7798516,38.4551707 40.0406275,38.6324999 C42.6319072,38.8355906 45.226687,38.7790653 47.8314668,38.7885696 C50.6489991,38.7988242 53.4825316,38.9168769 56.2993139,38.8480962 C56.8678204,38.83434 57.4193267,38.818583 57.970083,38.8113297 C60.1168576,39.01342 62.3438831,38.9078729 64.429407,38.8711064 C65.0141637,38.8608519 65.5971704,38.827587 66.1796771,38.7913208 C66.7606838,38.8606017 67.3436904,38.8841122 67.9716976,38.8470957 C69.2439622,38.7723123 70.4297258,38.8175825 71.6984904,38.8483463 C74.5150226,38.9166268 77.3488051,38.7990743 80.1663374,38.7888197 C82.7711172,38.7790653 85.365897,38.8360908 87.9571767,38.63275 C90.2179526,38.4554209 92.6472304,38.4856844 94.9160064,38.7265419 C94.9452568,39.1157156 94.8607558,39.6814682 94.8580058,39.8943132 C94.8492557,40.5876228 94.788255,41.2709278 94.7642547,41.9602355 C94.7362544,42.7745991 94.873756,43.5832101 95.0385078,44.3843177 C93.8417441,44.3643088 92.6437304,44.3523034 91.4399666,44.3730627 C90.0197003,44.3975737 88.6254343,44.2159926 87.198668,44.2335004 C85.717401,44.2515084 84.1638832,44.3623079 82.6923663,44.216993 C79.7418325,43.9261132 76.7960488,44.2299988 73.8392649,44.1404589 C71.5097382,44.0696773 68.8829581,43.6890073 66.4956807,44.0856844 C65.2734167,44.1066938 64.0451526,44.1494629 62.7971383,44.1124464 C62.3833836,44.1001909 61.9703789,44.095939 61.5583741,44.095939 C59.1560966,43.683755 56.5063162,44.069177 54.1585393,44.1404589 C51.2017554,44.230249 48.2562217,43.9261132 45.3054379,44.216993 C43.833921,44.3623079 42.2804032,44.2515084 40.7991362,44.2335004 C39.3723699,44.2159926 37.9778539,44.3978238 36.5578376,44.3730627 C35.3538238,44.3520533 34.1560601,44.3643088 32.9592964,44.3843177 C33.1245483,43.58296 33.2620499,42.7745991 33.2340495,41.9599854 Z M23.7754411,47.5849966 C23.5719388,46.7213611 24.9362044,46.4319819 25.4659605,46.335939 C26.7862256,46.096332 28.1967418,46.156609 29.5360071,46.134349 C32.1137867,46.0925804 34.6660659,45.9687751 37.2543456,45.9732771 C38.4403592,45.9750279 39.6048725,45.7951976 40.7991362,45.8029511 C42.1521517,45.811705 43.5424177,45.8952423 44.8919331,45.8144562 C47.7267156,45.6441302 50.5302478,45.59886 53.3767804,45.628123 C54.1477892,45.6361266 54.911298,45.5848537 55.6755567,45.5308296 C56.2378132,45.560843 56.8015696,45.5555906 57.3225756,45.5595924 C59.0608455,45.5725982 60.7731151,45.4477925 62.5163851,45.5133218 C64.2366548,45.5778506 65.9281742,45.5230761 67.6126935,45.3712583 C67.6721942,45.3760105 67.7329449,45.3815129 67.7896956,45.3845143 C68.5392041,45.4222811 69.2864627,45.4172789 70.0372213,45.4192798 C71.578489,45.4237818 73.0850062,45.6443803 74.6212738,45.628123 C77.4678065,45.5986098 80.2713386,45.6441302 83.1061211,45.8144562 C84.4556366,45.8954924 85.8459025,45.811705 87.198918,45.8029511 C88.3929317,45.7951976 89.557445,45.975278 90.7437086,45.9732771 C93.3317383,45.9687751 95.8845175,46.0925804 98.4622971,46.134349 C99.8018124,46.1561087 101.212079,46.096332 102.532344,46.335939 C103.0621,46.4319819 104.426365,46.7213611 104.222863,47.5849966 C104.065861,48.2502937 103.182351,48.0812182 102.707846,48.0892217 C100.220817,48.132241 97.674538,48.4081141 95.1907596,48.1147331 C89.7964478,47.4784491 84.2011336,47.8000927 78.7698214,47.7925893 C76.2582926,47.7890878 73.761014,47.8291056 71.2654854,47.5917497 C71.0769832,47.5682392 70.886731,47.5494808 70.6947288,47.5359748 C69.6787172,47.4256755 68.613705,47.3078729 67.5996934,47.4006643 C67.3239402,47.4259256 67.0084366,47.4822007 66.6776828,47.5417273 C65.8861737,47.5592351 65.0981647,47.6025045 64.3091557,47.6297666 C64.3061556,47.6285161 64.3026556,47.628266 64.2996556,47.6270154 C64.1961544,47.5922499 64.1056533,47.6027546 64.0291525,47.6392709 C64.0096522,47.6397711 63.990152,47.6397711 63.9709018,47.6405214 C63.8944009,47.6027546 63.8023999,47.5914995 63.6981487,47.6270154 C63.6743984,47.635019 63.6483981,47.6405214 63.6238978,47.6475246 C63.118142,47.6567787 62.6116362,47.6545277 62.1036304,47.6275156 C61.978379,47.6207626 61.8488775,47.6177613 61.722626,47.6120087 C61.2468706,47.5314727 60.7846153,47.43568 60.3986108,47.4004142 C59.3270986,47.3023705 58.1973356,47.4399319 57.1293234,47.554483 C56.8948207,47.5794942 56.660318,47.599253 56.4258153,47.619512 C55.5345551,47.6457738 54.5015433,47.6455237 53.5467823,47.7685786 C52.1102659,47.8018434 50.6717494,47.7900882 49.2284828,47.7920891 C43.7969206,47.7993423 38.2018565,47.4779488 32.8075446,48.1142329 C30.3237662,48.4073638 27.777487,48.1317407 25.2904585,48.0887215 C24.8157031,48.0809681 23.9321929,48.2502937 23.7754411,47.5849966 Z M67.6814443,55.4207448 C67.0231868,53.9728484 66.1089263,51.0753048 64.4141569,50.3977524 C63.8053999,50.1543937 63.4993964,50.4607805 63.2156431,50.9952691 C62.6308864,52.0972611 62.2988826,53.4896327 61.893128,54.6716604 C61.3523718,56.2478641 60.1648582,58.2352513 61.5126236,59.3580025 C61.0848687,59.4920624 60.6573638,59.6396283 60.233859,59.8029512 C52.293268,62.1389941 45.0751852,66.4779311 37.3928472,69.5135364 C35.4285747,70.2896328 33.4438019,71.0124555 31.5352801,71.91836 C29.693259,72.7925002 27.9227387,73.7609325 26.0282169,74.5342778 C25.687963,74.6730898 25.3514592,74.8256579 25.0159553,74.9844788 C25.074206,74.7881411 25.1174565,74.5745458 25.1417068,74.3226833 C25.2539581,73.1611648 25.2229577,71.9678821 25.2074575,70.8016114 C25.1754572,68.419548 25.4807107,66.0399856 25.4567104,63.6539204 C25.4457103,62.5851933 25.6404625,61.486953 25.5509615,60.4302312 C25.4412102,59.1336524 25.4034598,57.8545814 25.3922097,56.5502491 C25.3724594,54.271982 25.6442125,51.734099 25.2222077,49.4563321 C25.8189645,49.4453272 26.4072213,49.413563 26.8972269,49.4523303 C33.0077969,49.9322946 39.1591174,49.4358229 45.2996878,49.4325715 C48.8827289,49.4308207 52.4892702,49.5381186 56.0590611,49.3017631 C56.9733216,49.241236 57.885332,49.1424419 58.7980925,49.0468993 C59.9088552,49.0614058 61.0298681,49.1034245 62.1031304,49.1732057 C63.8269001,49.2852557 65.5344197,49.1264348 67.2586895,49.1356889 C68.3747023,49.1416916 69.664967,49.2825045 70.882981,49.2167251 C71.234235,49.2492396 71.5859891,49.2785027 71.9379931,49.3020132 C75.508034,49.5383687 79.1145753,49.4310708 82.6973664,49.4328216 C88.8379368,49.436073 94.9892573,49.9325447 101.099827,49.4525804 C101.589833,49.4140632 102.17834,49.4460775 102.774847,49.4565822 C102.352842,51.7343491 102.624595,54.2722321 102.604845,56.5504992 C102.593594,57.8550816 102.555844,59.1341526 102.446093,60.4304813 C102.356592,61.4872031 102.551344,62.5854434 102.540344,63.6541705 C102.516094,66.0402357 102.821597,68.4197981 102.789597,70.8021116 C102.774096,71.9683823 102.743096,73.161665 102.855347,74.3231836 C102.879848,74.575046 102.923098,74.7886414 102.981099,74.984979 C102.645595,74.8261581 102.309091,74.67359 101.968837,74.534778 C100.074066,73.7611827 98.3037953,72.7930004 96.4617742,71.9188602 C94.5532523,71.0129557 92.5684795,70.2903832 90.604207,69.5140366 C83.6816277,66.7783152 77.1348027,62.9886234 70.098222,60.5555372 C69.3589635,60.1381008 68.4832035,59.8259615 67.6441939,59.5525894 C68.3942025,58.2722678 68.2952013,56.7708475 67.6814443,55.4207448 Z M66.3866795,59.1449074 C66.3124286,59.1201464 66.2356777,59.0953853 66.1639269,59.0706243 C65.388418,58.8025046 63.7191489,58.3065331 62.9143897,58.9658275 C62.771138,59.0010932 62.6268864,59.0403607 62.4828847,59.0786278 C62.2551321,58.5921606 61.9168782,58.1947332 62.0163794,57.6017185 C62.1283807,56.935421 62.5271352,56.2150994 62.7586379,55.5785653 C63.025141,54.8457381 63.2676437,54.106408 63.5438969,53.3768323 C63.7473992,52.8393424 63.9281513,51.4732325 64.4974078,51.6765733 C64.9854134,51.8509011 65.3634177,52.8891146 65.5736702,53.3363142 C65.9034239,54.0376273 66.1539268,54.7807091 66.43393,55.5025313 C66.8526848,56.5830137 67.1991888,58.1199498 66.3866795,59.1449074 Z M26.7574753,76.1755105 C28.5737461,75.4837017 30.311516,74.581799 32.0280357,73.6801465 C34.1238097,72.5789048 36.4743367,71.8483287 38.6658618,70.9534292 C42.8229094,69.2561715 46.9534568,67.4428619 50.9572526,65.4432192 C52.9867759,64.4295167 55.2088014,63.7422098 57.3063254,62.8618168 C57.6145789,62.7737775 57.9315826,62.640468 58.2400861,62.4979043 C59.188847,62.1830137 60.32811,61.9366538 61.2221203,61.4364304 C62.1728812,61.2000749 63.1438923,60.9532147 64.0966532,60.7911424 C64.2901554,60.7581276 64.4829077,60.7471227 64.6749099,60.7448717 C65.3379175,60.9764751 65.9619246,61.4129199 66.6751828,61.6652826 C67.1536883,61.8346082 67.7499451,62.0792174 68.2862012,62.0507047 C68.3222017,62.0619597 68.3579521,62.0722143 68.3942025,62.0832192 C69.8884696,62.8413076 71.3992369,63.6101509 73.0582559,63.8099901 C73.0750061,63.811991 73.0900063,63.8102402 73.1047565,63.8069887 C74.4405218,64.3094631 75.7780371,64.8126877 77.0405516,65.4432192 C81.0443475,67.4428619 85.1746448,69.2561715 89.3319424,70.9534292 C91.5234676,71.8483287 93.8739945,72.579155 95.9697685,73.6801465 C97.6862882,74.5820491 99.4240581,75.4837017 101.240329,76.1755105 C103.157101,76.9055864 104.949121,78.0475963 106.807143,78.9244878 C107.537401,79.2691416 108.216159,79.7713658 108.926917,80.1890523 C108.897417,80.192804 108.868416,80.1970559 108.839166,80.201808 C108.491412,80.170544 108.194159,80.1357785 108.078907,80.1272747 C107.092646,80.0534918 106.125635,79.8086325 105.137374,79.7541081 C103.010099,79.6370559 100.861325,79.4904904 98.7300501,79.4564753 C96.9290295,79.4279625 95.0855084,79.1833533 93.2967379,79.3164127 C91.4379666,79.4552247 89.5909454,79.4249612 87.722924,79.4192086 C83.8116292,79.4074534 79.9703352,79.357431 76.0825406,78.9795123 C74.3217704,78.8081858 72.5550002,78.7706691 70.7819798,78.8071854 C70.1964731,78.8194409 69.6197165,78.8767164 69.0427099,78.9264886 C67.650194,78.9342421 66.2501779,78.9580027 64.8786622,79.0255329 C64.0649029,79.0655507 63.2516435,79.10882 62.4381342,79.1475874 C61.6216249,78.9820134 60.8003655,79.0255329 59.9613558,78.9947691 C59.0430953,78.9610041 58.139335,78.826444 57.2140744,78.8071854 C55.441054,78.770419 53.6740338,78.8084359 51.9135136,78.9795123 C48.025719,79.3576811 44.184425,79.4074534 40.2731302,79.4192086 C38.4056088,79.4247111 36.5583376,79.4552247 34.6995663,79.3164127 C32.9107958,79.1828531 31.0677747,79.4274623 29.2662541,79.4564753 C27.1352296,79.4902403 24.986455,79.6370559 22.8589306,79.7541081 C21.8711693,79.8086325 20.9041582,80.0534918 19.9173969,80.1270246 C19.8018956,80.1355284 19.5051422,80.1702939 19.1571382,80.2015579 C19.1278879,80.1970559 19.0988875,80.1930541 19.0693872,80.1888022 C19.7803953,79.7708656 20.4589031,79.2688915 21.1891615,78.9242376 C23.0489328,78.0473462 24.8407033,76.9055864 26.7574753,76.1755105 Z M5.19347817,71.3120893 C6.05398803,71.2988334 6.92324799,71.3025851 7.77150772,71.4086324 C9.33527564,71.6039696 11.0150449,71.6177257 12.591813,71.640736 C14.4688345,71.6677481 16.3081055,71.7845502 18.177627,71.8550817 C19.1901386,71.8930987 20.2116503,71.8595837 21.2254119,71.8640857 C21.844919,71.8670871 22.5639272,71.7432818 23.1599341,71.9346172 C23.1909344,71.9446217 23.2206848,71.9496239 23.2504351,71.9556266 C23.2631853,72.4518481 23.2819355,72.9463189 23.3044357,73.4252827 C23.3176859,73.7109102 23.5229382,75.1655596 23.5971891,75.701799 C22.7406793,76.158753 21.8949196,76.6414685 21.0539099,77.094921 C20.2961513,77.5036034 19.5293925,77.8227459 18.8316345,78.3344743 C18.7286333,78.4102582 18.6251321,78.4885431 18.5221309,78.5663279 C17.7503721,79.0162787 16.9661131,79.4997446 16.3763563,80.1317767 C16.3686062,80.1397803 16.3621062,80.150285 16.3551061,80.1587888 C16.2361047,80.1602895 16.1183534,80.1610398 16.0041021,80.159289 C14.0020791,80.1307763 12.0320565,80.1735454 10.0390337,80.3561269 C8.68276816,80.4804324 7.34575284,80.4914373 5.99748739,80.5347066 C5.97898717,80.4254078 5.93123663,80.3178598 5.84698566,80.2180653 C5.65148342,79.8203877 5.65448345,78.9179848 5.61848304,78.5205574 C5.54723222,77.7317052 5.49598164,76.9175918 5.43848098,76.1252381 C5.32122963,74.5165199 5.54823224,72.8887932 5.19347817,71.3120893 Z M4.66272209,64.7546618 C4.71372267,64.1558945 4.54422073,63.4976006 5.31122952,63.1394407 C5.67698371,62.9686145 6.28174064,63.0574041 6.66774507,63.0581544 C7.58200554,63.059405 8.5030161,62.9651129 9.41302653,62.8743224 C10.764542,62.7392621 12.1070574,62.5169128 13.471073,62.4033621 C15.1930928,62.2605484 16.8951123,62.111982 18.615632,61.9336524 C20.3456518,61.7545725 22.0499214,61.6882929 23.7234405,61.1808163 C23.7046903,61.8188512 23.6536897,62.450133 23.6501897,63.1091772 C23.6424396,64.584836 23.5416885,66.0507404 23.4336872,67.5176453 C21.9686704,67.4746261 20.4864034,67.6402 19.0161366,67.6517052 C17.1128648,67.6664618 15.2315932,67.4040946 13.3320714,67.5816739 C10.9562942,67.8032728 8.63501761,67.3398159 6.27374055,67.2105082 C5.91948649,67.1909995 5.24897881,67.3235587 4.91447497,67.2150102 C3.99596445,66.9161268 4.5937213,65.5650236 4.66272209,64.7546618 Z M2.9009519,70.2468637 C2.77695048,70.1563233 2.96995269,69.5658097 3.00245306,69.5085341 C3.23345571,69.1066047 3.47145844,69.1008521 3.95046393,69.0235676 C4.6024714,68.9182706 5.22922858,68.9372791 5.8502357,68.7787083 C6.37724174,68.7972166 6.9064978,68.8067208 7.41925368,68.8484895 C8.64126768,68.948284 9.9077822,68.9005127 11.1277962,69.0453273 C12.3565603,69.1908923 13.5153235,69.0173148 14.7495877,69.0045591 C15.8351001,68.9933041 16.9023624,69.170133 17.9901248,69.1698829 C19.7743953,69.1693827 21.5581657,69.2084001 23.3231859,69.0363233 C23.3066858,69.2724287 23.2901856,69.5085341 23.2751854,69.7453899 C23.2621852,69.9477302 23.2574352,70.155573 23.2509351,70.3624153 C22.7906798,70.2236034 22.2554237,70.3138937 21.755668,70.3324019 C20.1581497,70.3924287 18.4916306,70.4697132 16.9023624,70.2871317 C14.0990802,69.9647378 11.2090471,70.3489093 8.38776478,70.1253095 C7.02349914,70.0172612 5.6674836,69.9057114 4.28796779,69.9759928 C4.09346556,69.9854971 2.92470217,70.2641214 2.9009519,70.2468637 Z M4.56522097,83.9802448 C3.87896311,84.0022547 3.22295559,84.0730363 3.47845852,83.1353676 C3.85871287,81.7389943 6.82549687,82.3905351 7.94875975,82.3242555 C9.25802475,82.2467209 10.5782899,82.0448808 11.8868049,81.9233265 C13.6923256,81.7550014 15.5710971,81.9498384 17.3881179,81.8087754 C18.3023784,82.0551354 19.4376414,81.9248272 20.2886512,81.8612989 C20.1926501,82.5981278 20.1393995,83.3342064 20.1081491,84.0745369 C17.048364,84.1165557 13.989079,84.2085968 10.9430441,84.274126 C9.36927603,84.3078911 7.85350866,84.2533668 6.28924073,84.0910443 C5.70398402,84.0297669 5.15572774,83.9614865 4.56522097,83.9802448 Z M5.69773395,109.294046 C5.56973248,105.169955 6.23824014,101.005846 6.19323963,96.8780029 C6.16798934,94.5537152 6.17473942,92.2274267 6.11098869,89.9036393 C6.07798831,88.6978509 6.19748968,86.8755374 5.73998443,85.5654525 C6.50274318,85.6294811 7.26750194,85.7437821 8.02801066,85.8108121 C9.9165323,85.9768862 11.7683035,85.683005 13.640825,85.6687486 C15.7800995,85.6522413 17.9223741,85.6842556 20.0618986,85.712018 C20.0598985,85.8148138 20.0573985,85.9173596 20.0551485,86.0204056 C20.0181481,87.6831479 19.8091457,89.374403 19.9796476,91.0328934 C20.3164015,94.3086058 20.0656486,97.6968684 20.0538985,100.99334 C20.0311482,107.338423 19.403641,113.729026 20.2256504,120.051849 C20.1738999,120.137387 20.1366494,120.228677 20.1158992,120.321969 C19.228889,120.411759 18.2573779,120.315466 17.4123682,120.316217 C16.3766063,120.316967 15.3405945,120.313465 14.3050826,120.318468 C12.3890606,120.327972 10.4240381,120.285953 8.51626625,120.107874 C7.79850803,120.040594 6.13448896,120.362487 5.72348424,119.708445 C5.25172884,118.95711 5.59023272,117.249598 5.58748269,116.397467 C5.57798258,114.036913 5.77048478,111.639593 5.69773395,109.294046 Z M20.9589089,123.161237 C20.8981582,123.784515 20.793907,124.460067 20.8496576,125.089848 C20.8564077,125.165632 20.8721579,125.233412 20.8924081,125.29669 C19.6798942,125.303693 18.4686303,125.302693 17.2623665,125.292438 C13.1395692,125.258923 9.03577221,125.459012 4.91922503,125.197396 C4.07221532,125.143372 2.82795106,125.265676 2.0721924,124.868249 C1.58768685,124.613135 1.65043757,124.414546 1.68293794,123.821031 C1.72118838,123.115966 1.80793937,122.577476 2.49519725,122.293099 C3.40670769,121.916431 4.97422566,122.0715 5.9552369,122.055993 C6.21198984,122.051991 6.46924279,122.045489 6.72624574,122.037735 C7.19100106,122.032983 7.66275647,122.013474 8.10726156,122.050741 C10.1647851,122.223068 12.2378089,122.328115 14.3038326,122.323113 C16.4136068,122.31786 18.8981352,122.667516 20.9924092,122.229321 C20.9874092,122.538459 20.9894092,122.849347 20.9589089,123.161237 Z M21.8776694,100.713715 C21.8564191,97.6243361 22.106172,94.3453722 21.6941673,91.2832552 C21.6054163,90.6237107 21.5564157,89.9619153 21.5284154,89.298369 C21.8499191,89.3146263 22.1749228,89.302871 22.5284268,89.2813614 C23.0169324,89.2515982 23.4894379,89.2998697 23.9636933,89.3571453 C23.8311918,89.9256491 23.9054426,90.5944477 24.1009449,91.0203878 C24.1371953,91.0996732 24.1796958,91.170955 24.2249463,91.2387353 C24.3131973,91.419566 24.4511989,91.583139 24.6644513,91.7184495 C25.0867062,91.986319 25.7882142,91.9760645 26.3339705,92.0058277 C26.1774687,92.873215 25.8954654,93.6903298 25.7472137,94.562219 C25.5707117,95.6004325 25.4644605,96.6489006 25.3622093,97.695868 C25.1452068,99.922362 24.902454,102.145104 24.7289521,104.372849 C24.5547001,106.609347 24.4714491,108.839343 24.2979471,111.077592 C24.1196951,113.378619 24.114195,115.711661 23.8699422,118.000933 C23.7879413,118.767525 23.8221917,119.534618 24.0711945,120.161898 C23.4546875,120.210169 22.8401804,120.30221 22.2261734,120.388249 C22.017921,117.306373 21.8106686,114.280272 21.7814183,111.189642 C21.7484179,107.684077 21.9019197,104.214528 21.8776694,100.713715 Z M33.4898025,89.3158769 C34.6083153,89.3291328 35.7275781,89.3526433 36.8448409,89.3781547 C36.7190895,89.9419063 36.7940903,90.5994499 36.9870925,91.0203878 C37.023343,91.0996732 37.0658434,91.170955 37.111344,91.2387353 C37.199595,91.419566 37.3375966,91.583139 37.550849,91.7184495 C37.9731038,91.986319 38.6746119,91.9760645 39.2203681,92.0058277 C39.0638663,92.873215 38.7818631,93.6903298 38.6336114,94.562219 C38.4571094,95.6001824 38.3508582,96.6489006 38.248607,97.695868 C38.0316045,99.922362 37.7891017,102.145104 37.6153497,104.372849 C37.4410977,106.609347 37.3578468,108.839343 37.1843448,111.077592 C37.0060928,113.378619 37.0005927,115.711661 36.7563399,118.000933 C36.680089,118.717003 36.7020893,119.434573 36.9078416,120.037342 C36.326835,119.998325 35.7450783,119.96456 35.1593216,119.956806 C34.3178119,119.945551 33.4805524,119.982317 32.6442928,120.041594 C33.101048,118.990375 33.0357973,117.490455 32.9855467,116.565292 C32.8510451,114.071429 32.0897864,111.609329 32.0695362,109.116216 C32.0467859,106.353983 31.792783,103.625015 31.788283,100.855529 C31.7835329,97.9867479 31.5370301,95.1687398 31.353528,92.3124646 C31.9725351,92.295457 32.5572918,92.1914106 32.9680465,91.8775205 C33.6615544,91.3470336 33.4895525,90.1459974 33.4898025,89.3158769 Z M46.3774502,89.4234249 C47.4902129,89.4229246 48.6019757,89.4356803 49.7124884,89.4724468 C49.6147373,90.0136884 49.6914881,90.6224602 49.8739902,91.0198876 C49.9102406,91.099173 49.9529911,91.1704548 49.9982417,91.2382351 C50.0864927,91.4190658 50.2244942,91.5826388 50.4377467,91.7179492 C50.8600015,91.9858188 51.5615096,91.9755642 52.1072658,92.0053275 C51.950764,92.8727148 51.6687608,93.6898295 51.5205091,94.5617188 C51.3442571,95.5996822 51.2377559,96.6484004 51.1355047,97.6953678 C50.9185022,99.9218618 50.6759994,102.144604 50.5022474,104.372349 C50.3279954,106.608847 50.2447445,108.838843 50.0712425,111.077092 C49.8929904,113.378119 49.8874904,115.711161 49.6432376,118.000433 C49.5567366,118.813796 49.5972371,119.62891 49.8894904,120.275448 C48.3777231,120.363238 46.8687058,120.387999 45.3604385,120.374242 C46.0049459,119.331027 45.927695,117.592 45.8724444,116.564292 C45.7379428,114.070428 44.9766841,111.608329 44.9564339,109.115216 C44.9336836,106.352983 44.6796807,103.624015 44.6751807,100.854528 C44.6704306,97.9857474 44.4239278,95.1677393 44.2404257,92.3114642 C44.8594328,92.2944566 45.4441895,92.1904102 45.8549442,91.87652 C46.5187018,91.3695437 46.3892003,90.2470426 46.3774502,89.4234249 Z M59.2640978,89.419173 C60.7933654,89.4974579 62.334383,89.4922056 63.81315,89.5062118 C65.4554188,89.5217187 67.0921876,89.5742422 68.7297063,89.6400216 C68.7067061,90.433876 68.6499554,91.412813 69.2572124,91.8770202 C69.6679671,92.1911605 70.2524738,92.2952069 70.8717309,92.3119644 C70.6882288,95.1679895 70.4414759,97.9862476 70.4369759,100.855028 C70.4324758,103.624515 70.1784729,106.353983 70.1557227,109.115716 C70.1354724,111.608829 69.3744637,114.070678 69.2397122,116.564792 C69.1874616,117.532974 69.1237108,119.124685 69.6544669,120.179155 C67.4314414,120.19041 65.2056659,120.165899 62.9783904,120.180906 C61.5178737,120.190911 60.0421068,120.267445 58.5698399,120.306462 C58.4803389,120.296208 58.3908378,120.283452 58.3008368,120.275698 C58.8843435,119.224729 58.8130927,117.561487 58.7590921,116.564792 C58.6245905,114.070928 57.8633318,111.608829 57.8430816,109.115716 C57.8203313,106.353483 57.5663284,103.624515 57.5618283,100.855028 C57.5570783,97.9862476 57.3105755,95.1682396 57.1270734,92.3119644 C57.7460804,92.2949568 58.3308372,92.1909104 58.7415919,91.8770202 C59.4065995,91.3685432 59.275098,90.2430408 59.2640978,89.419173 Z M78.2855658,89.4724468 C79.3963286,89.4359304 80.5080913,89.4229246 81.6206041,89.4234249 C81.6088539,90.2467924 81.4793524,91.3690435 82.1433601,91.8767701 C82.5541148,92.1909104 83.1386215,92.2949568 83.7578786,92.3117143 C83.5743765,95.1677393 83.3276236,97.9859975 83.3231236,100.854778 C83.3186235,103.624265 83.0646206,106.353733 83.0418704,109.115466 C83.0216201,111.608579 82.2603614,114.070428 82.1258599,116.564542 C82.0706092,117.59225 81.9931083,119.331277 82.6378657,120.374493 C81.1295984,120.387999 79.6205811,120.363238 78.1088138,120.275698 C78.4010672,119.62916 78.4418176,118.813796 78.3550666,118.000683 C78.1108138,115.711661 78.1055638,113.378619 77.9270617,111.077342 C77.7535597,108.839093 77.6705588,106.609097 77.4960568,104.372599 C77.3223048,102.145104 77.079802,99.922362 76.8627995,97.6956179 C76.7605484,96.6486505 76.6542971,95.5999323 76.4777951,94.5619689 C76.3295434,93.6900797 76.0477902,92.8729649 75.8910384,92.0055776 C76.4367947,91.9758143 77.1380527,91.9860689 77.5603075,91.7181993 C77.77356,91.5828889 77.9113116,91.4190658 77.9998126,91.2384852 C78.0450631,91.1707049 78.0875636,91.099173 78.124064,91.0201377 C78.3065661,90.6227103 78.383567,90.0139385 78.2855658,89.4724468 Z M91.1532133,89.3779045 C92.2699761,89.3528934 93.3894889,89.3293829 94.5082518,89.3156267 C94.5087518,90.1459974 94.3367498,91.3467835 95.0302577,91.8767701 C95.4410125,92.1909104 96.0255192,92.2949568 96.6447762,92.3117143 C96.4612741,95.1677393 96.2145213,97.9859975 96.2100213,100.854778 C96.2055212,103.624265 95.9515183,106.353733 95.928768,109.115466 C95.9085178,111.608579 95.1475091,114.070428 95.0127575,116.564542 C94.962757,117.489705 94.8972562,118.989624 95.3540115,120.040844 C94.5177519,119.981817 93.6804923,119.945051 92.8389826,119.956056 C92.2532259,119.964059 91.6714693,119.997824 91.0904626,120.036592 C91.2959649,119.434073 91.3182152,118.716252 91.2419643,118.000183 C90.9977115,115.711161 90.9924615,113.378119 90.8139594,111.076842 C90.6404574,108.838593 90.5574565,106.608597 90.3829545,104.372099 C90.2092025,102.144604 89.9666997,99.9218618 89.7496972,97.6951177 C89.6474461,96.6481503 89.5411948,95.5994321 89.3646928,94.5614687 C89.2164411,93.6895794 88.9346879,92.8724646 88.7779361,92.0050774 C89.3236923,91.9753141 90.0249504,91.9855687 90.4474552,91.7176991 C90.6607077,91.5823887 90.7984592,91.4185656 90.8869603,91.237985 C90.9322108,91.1702047 90.9747113,91.0986728 91.0112117,91.0196375 C91.2037139,90.5991998 91.2789648,89.9416562 91.1532133,89.3779045 Z M97.5110362,100.27652 C97.5127862,97.592822 97.7735392,94.9368863 97.9452912,92.261692 C98.3160454,92.2334294 98.6640494,92.2044164 98.9543027,92.2036661 C99.5643097,92.2016652 100.166067,92.149642 100.769574,92.0898653 C100.666072,94.0427371 101.207579,96.0111159 101.31033,97.9607362 C101.446331,100.540888 101.930837,103.106283 102.012838,105.69794 C102.088589,108.087007 102.314091,110.482576 102.483843,112.873394 C102.573844,114.145212 102.569344,115.401022 102.606845,116.67384 C102.652845,118.221281 103.413854,120.244685 100.999826,120.187659 C99.9535642,120.162898 98.9228024,119.915288 97.8830404,119.868267 C97.0105304,119.828749 96.5960257,119.723702 96.4790243,118.7105 C96.3962734,117.992929 96.3172725,117.287865 96.3447728,116.565042 C96.446774,113.888347 97.2057827,111.290687 97.232283,108.607239 C97.2457831,107.246382 97.4820358,105.918539 97.5285364,104.562934 C97.5772869,103.138048 97.5102862,101.702157 97.5110362,100.27652 Z M98.9543027,91.0801645 C98.3027952,91.0774133 96.2037712,91.3685432 95.8675173,90.8768237 C95.750516,90.7057473 95.7595161,90.1174847 95.7752663,89.6585298 C96.187021,89.6255151 96.8302784,89.6927951 97.0840313,89.6640323 C98.0405422,89.5564843 99.0028033,89.5817455 99.9643143,89.5767433 C100.514321,89.573742 101.064577,89.575993 101.614583,89.5682395 C101.835836,89.5652382 102.449343,89.4429336 102.631095,89.5419778 C102.831347,89.6510265 102.942598,89.7638268 102.869598,90.1407451 C102.791847,90.5406736 102.542844,90.7555196 102.23834,90.8915803 C101.908587,90.9145906 101.546832,90.9093382 101.429581,90.9193427 C100.604322,90.9896241 99.7830622,91.0836661 98.9543027,91.0801645 Z M84.6248885,100.27652 C84.6266385,97.592822 84.8873915,94.9368863 85.0591435,92.261692 C85.4298977,92.2334294 85.7779017,92.2044164 86.068155,92.2036661 C86.678162,92.2016652 87.2799189,92.149642 87.8834258,92.0898653 C87.7799247,94.0427371 88.3214309,96.0111159 88.424182,97.9607362 C88.5601836,100.540888 89.0444391,103.106283 89.1266901,105.69794 C89.202441,108.087007 89.4279435,110.482576 89.5976955,112.873394 C89.6876965,114.145212 89.6831965,115.401022 89.7206969,116.67384 C89.7666974,118.221281 90.5277061,120.244685 88.1136785,120.187659 C87.0674165,120.162898 86.0366547,119.915288 84.9968928,119.868267 C84.1243828,119.828749 83.709878,119.723702 83.5928767,118.7105 C83.5101257,117.992929 83.4311248,117.287865 83.4586251,116.565042 C83.5606263,113.888347 84.319635,111.290687 84.3461353,108.607239 C84.3596355,107.246382 84.5958882,105.918539 84.6423887,104.562934 C84.6911393,103.138048 84.6236385,101.702157 84.6248885,100.27652 Z M89.9834499,90.1407451 C89.905699,90.5406736 89.6566962,90.7555196 89.3521927,90.8915803 C89.0224389,90.9145906 88.6606847,90.9093382 88.5434334,90.9193427 C87.7176739,90.9898742 86.8966645,91.0836661 86.067905,91.0801645 C85.4163976,91.0774133 83.3173735,91.3685432 82.9811197,90.8768237 C82.8641183,90.7057473 82.8726184,90.1174847 82.8888686,89.6585298 C83.3006233,89.6255151 83.9438807,89.6927951 84.1976336,89.6640323 C85.1541446,89.5564843 86.1164056,89.5817455 87.0779166,89.5767433 C87.6281729,89.573742 88.1781792,89.575993 88.7284355,89.5682395 C88.9496881,89.5652382 89.5631951,89.4429336 89.7451972,89.5419778 C89.9454495,89.6510265 90.0564507,89.7638268 89.9834499,90.1407451 Z M71.7382408,100.27652 C71.7399908,97.592822 72.0007438,94.9368863 72.1724958,92.261692 C72.54325,92.2334294 72.890754,92.2044164 73.1815073,92.2036661 C73.7915143,92.2016652 74.3932712,92.149642 74.9967782,92.0898653 C74.893277,94.0427371 75.4347832,96.0111159 75.5375343,97.9607362 C75.6735359,100.540888 76.1577915,103.106283 76.2400424,105.69794 C76.3157933,108.087007 76.5415459,110.482576 76.7110478,112.873394 C76.8012988,114.145212 76.7965488,115.401022 76.8340492,116.67384 C76.8800497,118.221281 77.6410585,120.244685 75.2270308,120.187659 C74.1807688,120.162898 73.150007,119.915288 72.1102451,119.868267 C71.2377351,119.828749 70.8232303,119.723702 70.706229,118.7105 C70.623478,117.992929 70.5444771,117.287865 70.5719774,116.565042 C70.6739786,113.888347 71.4329873,111.290687 71.4594876,108.607239 C71.4729878,107.246382 71.7092405,105.918539 71.755741,104.562934 C71.8044916,103.138048 71.7369908,101.702157 71.7382408,100.27652 Z M77.0970522,90.1407451 C77.0193013,90.5406736 76.7707985,90.7555196 76.465795,90.8915803 C76.1357912,90.9145906 75.7742871,90.9093382 75.6570357,90.9193427 C74.8312763,90.9898742 74.0102668,91.0836661 73.1815073,91.0801645 C72.5299999,91.0774133 70.4309758,91.3685432 70.094722,90.8768237 C69.9804707,90.7097491 69.9862207,90.1442467 70.0017209,89.6900439 C71.0734832,89.7275606 72.2649968,89.7315624 73.3662595,89.5779939 C73.6412626,89.5777438 73.9165158,89.578244 74.1917689,89.5767433 C74.7417752,89.573742 75.2920315,89.575993 75.8422878,89.5682395 C75.943289,89.5667388 76.1265411,89.5407272 76.3130432,89.522219 C76.4600449,89.5209684 76.6060466,89.5152158 76.7527983,89.5127147 C76.7947988,89.5189675 76.8325492,89.5274713 76.8587995,89.5419778 C77.0590518,89.6510265 77.1703031,89.7638268 77.0970522,90.1407451 Z M53.0012761,92.0898653 C53.604783,92.149642 54.2065399,92.201165 54.8165469,92.2036661 C55.1073002,92.2046665 55.4548042,92.2336795 55.8255584,92.261692 C55.9973104,94.9368863 56.2578134,97.5925719 56.2598134,100.27652 C56.2608134,101.702407 56.1935627,103.138298 56.2423132,104.562934 C56.2888137,105.918289 56.5250665,107.246382 56.5385666,108.607239 C56.5650669,111.290687 57.3240756,113.888347 57.4260768,116.565042 C57.4538271,117.288115 57.3745762,117.992929 57.2918252,118.7105 C57.1748239,119.723452 56.7603192,119.828749 55.8878092,119.868267 C54.8480472,119.915288 53.8172854,120.162898 52.7710234,120.187659 C50.3569958,120.244935 51.1180045,118.221281 51.164005,116.67384 C51.2017554,115.401022 51.1967554,114.144961 51.2870064,112.873394 C51.4567584,110.482827 51.682511,108.087257 51.7580118,105.69794 C51.8400128,103.106534 52.3240183,100.540888 52.4605199,97.9607362 C52.5635211,96.0111159 53.1047773,94.0429872 53.0012761,92.0898653 Z M57.9033323,90.8768237 C57.5673284,91.3685432 55.4680543,91.0774133 54.8165469,91.0801645 C53.9877874,91.0836661 53.166778,90.9896241 52.3410185,90.9193427 C52.2237672,90.9093382 51.862013,90.9145906 51.5322592,90.8915803 C51.2275057,90.7555196 50.9785029,90.5409238 50.901002,90.1407451 C50.8280012,89.7638268 50.9390024,89.6510265 51.1395047,89.5419778 C51.166005,89.5274713 51.2035055,89.5189675 51.2455059,89.5127147 C51.3922576,89.5149657 51.5385093,89.5209684 51.685261,89.522219 C51.8715131,89.5409773 52.0550152,89.5667388 52.1560164,89.5682395 C52.7060227,89.5754928 53.256279,89.573742 53.8065353,89.5767433 C54.7677963,89.5817455 55.7300573,89.5564843 56.6868183,89.6640323 C56.9408212,89.692545 57.5840786,89.6255151 57.9955833,89.6585298 C58.0115835,90.1174847 58.0200836,90.7059975 57.9033323,90.8768237 Z M40.1151284,92.0898653 C40.7186353,92.149642 41.3203922,92.201165 41.9303992,92.2036661 C42.2211525,92.2046665 42.5686565,92.2336795 42.9394108,92.261692 C43.1111627,94.9368863 43.3716657,97.5925719 43.3736657,100.27652 C43.3746657,101.702407 43.307415,103.138298 43.3559155,104.562934 C43.4024161,105.918289 43.6386688,107.246382 43.6521689,108.607239 C43.6786692,111.290687 44.4376779,113.888347 44.5396791,116.565042 C44.5674294,117.288115 44.4881785,117.992929 44.4054276,118.7105 C44.2884262,119.723452 43.8739215,119.828749 43.0014115,119.868267 C41.9616496,119.915288 40.9308877,120.162898 39.8846257,120.187659 C37.4705981,120.244935 38.2316068,118.221281 38.2776073,116.67384 C38.3153578,115.401022 38.3103577,114.144961 38.4006087,112.873394 C38.5703607,110.482827 38.7958633,108.087257 38.8716141,105.69794 C38.9536151,103.106534 39.4381206,100.540888 39.5741222,97.9607362 C39.6771234,96.0111159 40.2183796,94.0429872 40.1151284,92.0898653 Z M45.0169346,90.8768237 C44.6809307,91.3685432 42.5816567,91.0774133 41.9301492,91.0801645 C41.1013897,91.0836661 40.2803803,90.9896241 39.4546208,90.9193427 C39.3373695,90.9093382 38.9756153,90.9145906 38.6458616,90.8915803 C38.3411081,90.7555196 38.0921052,90.5409238 38.0146043,90.1407451 C37.9416035,89.7638268 38.0526048,89.6510265 38.2531071,89.5419778 C38.4348591,89.4429336 39.0486162,89.5652382 39.2696187,89.5682395 C39.819625,89.5754928 40.3698813,89.573742 40.9201376,89.5767433 C41.8813986,89.5817455 42.8436597,89.5564843 43.8004206,89.6640323 C44.0544235,89.692545 44.6976809,89.6255151 45.1094356,89.6585298 C45.1251858,90.1174847 45.1339359,90.7059975 45.0169346,90.8768237 Z M27.2284807,92.0898653 C27.8319876,92.149642 28.4337445,92.201165 29.0437515,92.2036661 C29.3345048,92.2046665 29.6820088,92.2336795 30.0527631,92.261692 C30.224515,94.9368863 30.485018,97.5925719 30.487018,100.27652 C30.4880181,101.702407 30.4207673,103.138298 30.4692678,104.562934 C30.5157684,105.918289 30.7520211,107.246382 30.7655212,108.607239 C30.7920215,111.290687 31.5510302,113.888347 31.6530314,116.565042 C31.6807817,117.288115 31.6015308,117.992929 31.5187799,118.7105 C31.4017785,119.723452 30.9872738,119.828749 30.1147638,119.868267 C29.0750019,119.915288 28.0442401,120.162898 26.9979781,120.187659 C24.5839504,120.244935 25.3449591,118.221281 25.3909596,116.67384 C25.4287101,115.401022 25.42371,114.144961 25.5139611,112.873394 C25.683713,110.482827 25.9094656,108.087257 25.9849665,105.69794 C26.0669674,103.106534 26.5514729,100.540888 26.6874745,97.9607362 C26.7904757,96.0111159 27.3319819,94.0429872 27.2284807,92.0898653 Z M32.1302869,90.8768237 C31.794283,91.3685432 29.694759,91.0774133 29.0435015,91.0801645 C28.214742,91.0836661 27.3937326,90.9896241 26.5679731,90.9193427 C26.4507218,90.9093382 26.0889676,90.9145906 25.7592139,90.8915803 C25.4544604,90.7555196 25.2054575,90.5409238 25.1279566,90.1407451 C25.0549558,89.7638268 25.1659571,89.6510265 25.3664594,89.5419778 C25.5482114,89.4429336 26.1619685,89.5652382 26.382971,89.5682395 C26.9329773,89.5754928 27.4832336,89.573742 28.0334899,89.5767433 C28.9947509,89.5817455 29.957012,89.5564843 30.9137729,89.6640323 C31.1677758,89.692545 31.8105332,89.6255151 32.2227879,89.6585298 C32.2387881,90.1174847 32.2472882,90.7059975 32.1302869,90.8768237 Z M105.812131,121.979209 C105.777881,122.350875 105.66613,122.750803 105.67188,123.12297 C105.68088,123.702478 105.788131,124.305498 105.68488,124.891759 C105.65863,125.040326 105.66838,125.170134 105.70013,125.283934 C103.142351,125.25142 100.582321,125.171384 98.0465423,125.015314 C93.8644944,124.757449 89.5324447,124.462318 85.3448967,124.69242 C83.3556239,124.801719 81.354101,124.820477 79.3605782,124.827481 C77.4140559,124.834234 75.4450333,124.612134 73.5077611,124.860245 C73.0955064,124.852992 72.6847517,124.853242 72.277997,124.87025 C72.1327453,124.876252 71.9864937,124.879254 71.839742,124.880754 C71.6204895,124.876502 71.4012369,124.874001 71.1814844,124.873751 C69.0142096,124.813975 66.7291834,124.42305 64.6581597,124.918771 C64.5749087,124.93878 64.5054079,124.976047 64.4464072,125.023068 C64.159654,125.031322 63.8729007,125.040576 63.5863974,125.053081 C63.5213966,124.990803 63.4396457,124.942532 63.3388945,124.918771 C60.9148668,124.338512 58.1973356,124.974546 55.7190572,124.87025 C55.3123026,124.853242 54.9017979,124.852492 54.4892931,124.860245 C52.5517709,124.612134 50.5829984,124.834234 48.636476,124.827481 C46.6432032,124.820477 44.6414303,124.801469 42.6521575,124.69242 C38.4648595,124.462318 34.1328098,124.75795 29.9505119,125.015314 C27.4149828,125.171384 24.8544535,125.25167 22.2969242,125.283934 C22.3289246,125.169883 22.3384247,125.040075 22.3121744,124.891759 C22.2086732,124.305498 22.3161744,123.702478 22.3251745,123.12297 C22.3311746,122.750553 22.2191733,122.350625 22.1849229,121.979209 C22.1814229,121.941192 22.1779228,121.908177 22.1744228,121.871911 C22.6744285,121.810133 23.1421839,121.740602 23.5226882,121.701835 C24.3626979,121.617047 25.1899573,121.647811 26.032467,121.599289 C26.1052178,121.595288 26.1777187,121.584783 26.2502195,121.57903 C27.16373,121.649062 28.1524913,121.521004 29.0395015,121.416458 C29.8187604,121.324417 30.7995216,121.390696 31.5425301,121.140585 C31.5497802,121.137833 31.5560303,121.134082 31.5635304,121.13133 C32.662793,121.102067 33.7645556,121.116074 34.844068,121.232125 C36.1693332,121.374439 37.4880983,121.605792 38.8178635,121.71309 C42.3904045,122.001969 46.1124471,122.100263 49.6982382,121.876663 C51.8245126,121.744104 54.1777896,122.014975 56.4315654,121.908677 C58.5208393,121.977458 60.6246134,121.879414 62.7148874,121.893921 C65.383168,121.911929 68.0799489,122.050491 70.7402294,121.937941 C73.1027564,121.837646 75.5272842,122.25033 77.859061,121.857154 C78.0060626,121.862407 78.1535643,121.867409 78.298566,121.876663 C81.8841071,122.100263 85.6061497,122.001969 89.1789407,121.71309 C90.5087059,121.605792 91.827471,121.374439 93.1527362,121.232125 C94.2322486,121.116074 95.3340112,121.102067 96.4335238,121.13133 C96.4407739,121.134082 96.447024,121.137833 96.4545241,121.140334 C97.1972826,121.390446 98.1782938,121.324167 98.9575528,121.416208 C99.8440629,121.520754 100.833074,121.648811 101.746835,121.57878 C101.819586,121.584783 101.891836,121.595037 101.964587,121.599039 C102.806847,121.647561 103.634606,121.616797 104.474366,121.701585 C104.85487,121.740102 105.322876,121.809633 105.822631,121.871661 C105.819131,121.908177 105.815631,121.941192 105.812131,121.979209 Z M106.303637,91.2830051 C105.891632,94.3451221 106.141385,97.6240859 106.120135,100.713465 C106.095885,104.214028 106.249386,107.683827 106.216386,111.189142 C106.187136,114.279772 105.979883,117.305873 105.771631,120.387748 C105.157874,120.30171 104.543117,120.209669 103.92661,120.161397 C104.175363,119.534117 104.209363,118.767025 104.127862,118.000433 C103.883609,115.711411 103.878359,113.378369 103.699857,111.077092 C103.526355,108.838843 103.443354,106.608847 103.268852,104.372349 C103.0951,102.144854 102.852597,99.9221119 102.635595,97.6953678 C102.533344,96.6484004 102.427093,95.5996822 102.25059,94.5617188 C102.102339,93.6898295 101.820586,92.8727148 101.663834,92.0053275 C102.20959,91.9755642 102.910848,91.9858188 103.333103,91.7179492 C103.546355,91.5826388 103.684107,91.4188157 103.772608,91.2382351 C103.817858,91.1704548 103.860359,91.0989229 103.896609,91.0198876 C104.091862,90.5936973 104.166362,89.9248987 104.033861,89.3566451 C104.508116,89.2993695 104.980372,89.251348 105.469127,89.2808612 C105.822881,89.3023708 106.147385,89.3141261 106.469139,89.2978688 C106.441639,89.9619153 106.392388,90.6237107 106.303637,91.2830051 Z M106.499889,88.1190926 C105.420627,87.9450148 104.345615,87.972277 103.233352,88.0555642 C101.677584,88.171616 100.182317,87.9515178 98.632549,87.9532685 C95.2905107,87.9572703 91.9439724,88.0205486 88.599434,88.0415579 C84.9823926,88.0645682 81.3306007,87.7411738 77.7283095,87.9887844 C75.8992885,88.1143404 74.0170169,87.974528 72.1829959,87.9937866 C70.8314804,88.0075428 69.5279655,87.9047469 68.2149504,88.0748228 C66.9279357,88.028302 65.6404209,87.9915356 64.3489061,88.0017902 C62.8436389,88.0137956 61.3356216,88.1010845 59.8348544,88.0625673 C59.7671036,88.0608165 59.6996028,88.0560644 59.6318521,88.0535633 C59.1840969,88.0025405 58.7373418,87.9810309 58.2890867,87.9752784 C58.0333337,87.9602717 57.7775808,87.947516 57.5213279,87.9455151 C57.3330757,87.9440144 57.1528237,87.9597714 56.9763216,87.9847826 C56.5923172,87.9912855 56.2060628,87.9977884 55.8155583,87.9935365 C53.9815373,87.9742779 52.0995157,88.1140903 50.2702448,87.9885343 C46.6679535,87.7409237 43.0161616,88.064068 39.3991202,88.0413078 C36.0548319,88.0200483 32.7082935,87.9567701 29.3662552,87.9530184 C27.8164874,87.9512676 26.3212203,88.1713659 24.7654525,88.0553141 C23.6529397,87.972277 22.5779274,87.9447647 21.498915,88.1188425 C21.4759148,86.0061493 21.581666,83.8839518 21.3019128,81.7845146 C22.887431,81.6589585 24.465199,81.5126432 26.0559673,81.4636213 C25.8659651,82.2142064 25.8222146,83.109356 25.8394648,83.8429335 C25.8522149,84.3844253 25.7054632,85.2878286 26.032967,85.750285 C26.4097213,86.2817723 27.1827302,85.998896 27.2589811,85.5134293 C27.2969815,85.4358947 27.3237318,85.3481055 27.3332319,85.2488112 C27.4024827,84.5229871 27.5239841,83.8496865 27.5067339,83.1148585 C27.4934837,82.5558589 27.4999838,81.9968594 27.4987338,81.4388603 C28.8167489,81.4351086 30.1747645,81.4436124 31.4970296,81.3725807 C31.5145298,81.5331524 31.53328,81.693724 31.5522803,81.8542957 C31.356778,82.9270246 31.53103,84.1683288 31.4922796,85.1680251 C31.4557791,86.1049434 32.8800455,86.0916875 32.9405462,85.1680251 C32.9900467,84.4109371 33.1175482,83.6688558 33.102798,82.9087665 C33.0917979,82.3512676 33.013547,81.8087754 32.926046,81.2645324 C34.1815604,81.1547334 35.4720752,81.2312676 36.7570899,81.2975472 C36.76509,81.5088915 36.7853402,81.7207361 36.8078405,81.9330809 C36.8060905,82.0956535 36.7975904,82.2577258 36.7708401,82.4180474 C36.6250884,83.2894364 36.7015893,84.209097 36.680339,85.0904905 C36.6585888,85.9886415 38.0526048,85.9881412 38.074855,85.0904905 C38.0926052,84.3739206 38.2391069,83.6495972 38.2831074,82.9292756 C38.3141077,82.4185476 38.2821074,81.8820581 38.2166066,81.3565735 C38.3831085,81.3605753 38.5496104,81.3650773 38.7153623,81.3655775 C39.8893758,81.3703297 41.0716394,81.3883377 42.2564029,81.4013435 C42.2996534,81.659959 42.348404,81.9155731 42.3791543,82.1574311 C42.3446539,82.444059 42.3069035,82.7264351 42.2879033,82.9898027 C42.2281526,83.8089183 42.3049035,84.5897669 42.2889033,85.4028799 C42.2706531,86.3242913 43.661169,86.3125361 43.7121696,85.4028799 C43.7621702,84.5122323 43.9481723,83.6143315 43.8764215,82.7196821 C43.8466712,82.3490166 43.7651702,81.9725985 43.7136696,81.6064351 C43.7106696,81.5851756 43.7066696,81.5103922 43.6991695,81.4123484 C45.4114391,81.4196017 47.1254587,81.3960912 48.8249782,81.2852917 C48.8194781,81.3458187 48.8144781,81.3973417 48.808728,81.4313569 C48.7507274,81.792268 48.6719765,82.1284181 48.6732265,82.4935811 C48.6754765,83.2589228 48.6962267,84.0367701 48.7347272,84.7993605 C48.7657275,85.409633 49.4404853,85.6597446 49.8894904,85.2778241 C50.3154953,84.9154123 50.200744,83.9920001 50.2357444,83.490026 C50.290745,82.6999232 50.3149953,81.9420849 50.2757448,81.1677392 C50.5419979,81.1414775 50.8082509,81.113465 51.073254,81.0817008 C52.1767666,80.9491416 53.2795293,80.8418437 54.3857919,80.7845682 C54.1080388,81.7379938 54.3467915,82.7627013 54.2887908,83.7421385 C54.2502904,83.9817455 54.21454,84.2223529 54.1885397,84.4672122 C54.1862897,84.4872212 54.1815396,84.5084807 54.1807896,84.5279894 C54.1797896,84.5357428 54.1787896,84.5429961 54.1777896,84.5507495 L54.1817896,84.5507495 C54.1807896,85.2683199 55.266552,85.5039251 55.5150549,84.7315803 C55.9235596,83.4625137 55.9843103,82.0861492 55.9670601,80.7400483 C56.2160629,80.7397982 56.4650658,80.7420492 56.7148186,80.748302 C57.5550783,80.7698116 58.3738376,80.8353408 59.1838469,80.8568504 C59.1818469,81.1104637 59.1438465,81.418101 59.1138461,81.6949746 C58.9975948,82.6621564 59.0080949,83.6365914 59.1148461,84.6277839 C59.2068472,85.481415 60.4206111,85.5144297 60.4681116,84.6277839 C60.5211123,83.6413435 60.4416113,82.6461492 60.5063621,81.6619599 C60.5241123,81.3918393 60.5466125,81.1122144 60.5441125,80.8348406 C60.6416136,80.8280876 60.7393648,80.8153319 60.8368659,80.8053274 C61.6403751,80.8055775 62.4453843,80.7783154 63.2473935,80.7458009 C63.1063919,81.2140099 63.0818916,81.7307406 63.0723915,82.2112051 C63.0543913,83.1111068 63.0171409,84.1035499 63.1383922,84.9941975 C63.2651437,85.9236124 64.5724087,85.5787084 64.6559096,84.7888558 C64.6596597,84.7528397 64.6636597,84.7170738 64.6671598,84.6810577 C64.6786599,84.5717589 64.6539096,84.4659617 64.604159,84.3711694 C64.510908,83.6323395 64.5269082,82.7814596 64.511908,82.0528844 C64.5029079,81.6124378 64.5631586,81.1394766 64.5019079,80.6950282 C64.6276593,80.6897758 64.7539108,80.6845235 64.8794122,80.6797714 C65.3084171,80.6637642 65.7406721,80.6535097 66.173677,80.645256 C66.6009319,80.7425494 67.0271868,80.804327 67.4536917,80.8348406 C67.4509417,81.1122144 67.4734419,81.3918393 67.4914421,81.6619599 C67.5561929,82.6463994 67.476692,83.6410934 67.5296926,84.6277839 C67.5774431,85.5144297 68.791207,85.481415 68.8829581,84.6277839 C68.9899593,83.6365914 69.0002094,82.6621564 68.8839581,81.6949746 C68.8542078,81.418101 68.8162073,81.1107138 68.8142073,80.8568504 C69.6239666,80.8353408 70.442726,80.7698116 71.2832356,80.748302 C71.5329885,80.7420492 71.7822413,80.7395481 72.0309942,80.7400483 C72.013994,82.0861492 72.0744947,83.4625137 72.4829993,84.7315803 C72.7315022,85.5039251 73.8170146,85.2680698 73.8162646,84.5507495 L73.8202647,84.5507495 C73.8197647,84.5429961 73.8182646,84.5357428 73.8172646,84.5279894 C73.8167646,84.5084807 73.8120146,84.4877214 73.8095145,84.4672122 C73.7832642,84.2223529 73.7477638,83.9814954 73.7092634,83.7421385 C73.6512627,82.7627013 73.8900155,81.7382439 73.6122623,80.7845682 C74.718775,80.8418437 75.8212876,80.9488915 76.9248002,81.0817008 C77.1900533,81.113465 77.4560563,81.1414775 77.7223094,81.1677392 C77.6830589,81.9420849 77.7073092,82.6999232 77.7623098,83.490026 C77.7973102,83.9922502 77.6828089,84.9154123 78.1085638,85.2778241 C78.557319,85.6597446 79.2325767,85.409633 79.263327,84.7993605 C79.3018275,84.0367701 79.3225777,83.2586727 79.3248278,82.4935811 C79.3260778,82.128168 79.2475769,81.7920179 79.1893262,81.4313569 C79.1838261,81.3970916 79.1788261,81.3453185 79.173076,81.2852917 C80.8725955,81.3960912 82.5861151,81.4193516 84.2988848,81.4123484 C84.2916347,81.5103922 84.2873846,81.5849255 84.2843846,81.6064351 C84.232884,81.9730988 84.1508831,82.3490166 84.1216327,82.7196821 C84.0501319,83.6145816 84.235884,84.5119822 84.2858846,85.4028799 C84.3368852,86.3125361 85.7276511,86.3242913 85.7091509,85.4028799 C85.6929007,84.5900171 85.7699016,83.8091685 85.7101509,82.9898027 C85.6909007,82.726185 85.6534003,82.444059 85.6188999,82.1574311 C85.6499002,81.9155731 85.6984008,81.659959 85.7416513,81.4013435 C86.9266649,81.3883377 88.1091784,81.3703297 89.2826919,81.3655775 C89.4481938,81.3650773 89.6149457,81.3603252 89.7814476,81.3565735 C89.7161968,81.8820581 89.6839465,82.4185476 89.7149468,82.9292756 C89.7589473,83.6495972 89.905449,84.3739206 89.9231992,85.0904905 C89.9454495,85.9881412 91.3394654,85.9886415 91.3177152,85.0904905 C91.296465,84.2088469 91.3729658,83.2891863 91.2272142,82.4180474 C91.2004639,82.2577258 91.1919638,82.0956535 91.1902137,81.9330809 C91.212464,81.7207361 91.2327142,81.5088915 91.2409643,81.2975472 C92.525979,81.2310175 93.8159938,81.1547334 95.0720082,81.2645324 C94.9845072,81.8087754 94.9060063,82.3515177 94.8952562,82.9087665 C94.880506,83.6686057 95.0080075,84.4109371 95.0577581,85.1680251 C95.1180088,86.0916875 96.5425251,86.1049434 96.5060247,85.1680251 C96.4670242,84.1683288 96.6415262,82.9275249 96.446024,81.8542957 C96.4647742,81.693724 96.4840244,81.5331524 96.5012746,81.3725807 C97.8235398,81.4436124 99.1815553,81.4351086 100.49957,81.4388603 C100.49832,81.9968594 100.50482,82.5558589 100.49157,83.1148585 C100.47407,83.8496865 100.596072,84.522737 100.665072,85.2488112 C100.674572,85.3481055 100.701323,85.4358947 100.739323,85.5134293 C100.815574,85.9991461 101.588333,86.2815222 101.965337,85.750285 C102.292841,85.2880787 102.146089,84.3844253 102.158839,83.8429335 C102.17609,83.1088558 102.132339,82.2139563 101.942337,81.4636213 C103.533105,81.5128933 105.110873,81.6592086 106.696391,81.7845146 C106.417138,83.884202 106.522639,86.0063994 106.499889,88.1190926 Z M125.925612,124.868249 C125.169853,125.265926 123.925839,125.143372 123.078579,125.197396 C118.962032,125.459263 114.858235,125.258923 110.735438,125.292438 C109.529424,125.302443 108.31816,125.303943 107.105396,125.29669 C107.125646,125.233412 107.141397,125.165632 107.148147,125.089848 C107.203897,124.460067 107.099896,123.784515 107.038895,123.161237 C107.008645,122.849097 107.010395,122.537958 107.004645,122.229321 C109.099169,122.667516 111.583697,122.31761 113.693472,122.323113 C115.759495,122.328365 117.832519,122.223318 119.890043,122.050741 C120.334548,122.013724 120.806303,122.032733 121.271058,122.037735 C121.528061,122.045489 121.785564,122.051991 122.042067,122.055993 C123.023329,122.0715 124.590847,121.916681 125.502607,122.293099 C126.190365,122.577226 126.276616,123.115716 126.314866,123.820781 C126.347367,124.414546 126.410117,124.613135 125.925612,124.868249 Z" id="Shape"></path>
                    <path d="M93.7786524,76.1014021 C92.993431,75.4597678 91.9759044,75.0367549 91.0527048,74.6403905 C89.7429153,74.0779256 88.5026166,73.3889449 87.1715032,72.8712391 C85.055921,72.0484984 82.9676836,71.1592656 80.8531048,70.3437691 C78.6143457,69.4806675 76.3462349,68.6004901 74.1614127,67.5847416 C73.1857813,67.1311993 72.2048817,66.7425966 71.2039125,66.3713284 C70.1934103,65.5879136 68.6528209,65.1260921 67.5703192,64.7250707 C66.3124596,64.2585922 64.9238971,63.7597733 63.5824981,64.1274194 C61.1914612,64.7822486 58.4554788,65.6350013 56.2360366,66.9795873 C55.7684159,67.1713015 55.3025513,67.3697424 54.8389446,67.5852591 C52.6541224,68.6012663 50.3862624,69.481185 48.1472524,70.3442866 C46.0329245,71.1595244 43.9441853,72.0490158 41.828854,72.8717566 C40.4979915,73.3892036 39.257442,74.078443 37.9476525,74.6409079 C37.0244528,75.0375311 36.0071771,75.4602853 35.2217048,76.1019196 C35.0212601,76.2656916 34.9572884,76.6185904 35.0275319,76.8589446 C35.5370478,78.6006712 38.5040809,77.8583935 39.778247,77.7541279 C42.2726421,77.5502538 44.7562498,77.4146827 47.2609306,77.4793635 C49.9030878,77.5479253 52.5291894,77.5655185 55.1718483,77.4791048 C55.7694194,77.4597006 56.3644818,77.4384852 56.9595442,77.4229618 C57.7475252,77.565001 58.5721331,77.5274861 59.3874589,77.5533585 C61.0883539,77.6069142 62.7859875,77.6335628 64.4891404,77.6708189 C67.4672118,77.7357585 70.5458819,77.8327799 73.5116608,77.4687559 C73.6165242,77.4721193 73.7213876,77.4757414 73.8267528,77.4791048 C76.4696626,77.5652598 79.0955134,77.5479253 81.7376706,77.4793635 C84.2428531,77.4144239 86.7262099,77.5499951 89.2203542,77.7538692 C90.4942693,77.8581348 93.4615534,78.6004125 93.971571,76.8584271 C94.0433197,76.6178143 93.979348,76.2651741 93.7786524,76.1014021 Z M86.4600374,76.0437068 C84.3931239,75.9065833 82.3181825,76.0281834 80.2517707,76.0967451 C78.0278129,76.17074 75.7993394,76.0625936 73.5778903,76.020163 C72.565632,76.0007587 71.5716872,75.9309033 70.557171,75.9399587 C69.7410927,75.9472029 68.8392169,76.1138209 68.0266507,76.0496574 C67.9288116,76.0421545 67.8425125,76.0651808 67.7695095,76.1094226 C66.6844991,76.1011434 65.5944712,76.102437 64.4903947,76.0861374 C62.9620979,76.0638872 61.4189998,76.0121425 59.89271,76.0346515 C59.4032637,75.9992063 58.9093017,75.9438395 58.4434371,75.9399587 C57.4289209,75.9309033 56.4349761,76.0010174 55.4227178,76.020163 C53.2010178,76.0625936 50.9727952,76.17074 48.7488374,76.0967451 C46.6824256,76.0279247 44.6072333,75.9065833 42.5405707,76.0437068 C42.1163504,76.0716489 39.1069203,76.3565035 37.4960874,76.4465393 C38.1947589,76.0985562 38.9486216,75.8134429 39.5978718,75.4866751 C40.81208,74.8755701 42.03256,74.3257827 43.2936808,73.8269638 C45.2720374,73.0451013 47.2195371,72.1732031 49.1911203,71.3918581 C51.2136299,70.5908501 53.2549548,69.6977365 55.2102314,68.7358025 C56.1532497,68.2719113 57.1188463,67.8564013 58.0849446,67.442185 C59.8460483,66.9162001 61.5883367,66.2831037 63.3140678,65.6841587 C65.8325464,64.8101907 68.0216333,66.7692451 70.4289767,67.2328777 C71.5571367,67.7174668 72.6890598,68.1935181 73.7906276,68.7358025 C75.7459042,69.6977365 77.78748,70.5908501 79.8097387,71.3918581 C81.7813219,72.1732031 83.7288215,73.0448426 85.7071782,73.8269638 C86.9685498,74.325524 88.1890298,74.8753114 89.4029872,75.4866751 C90.0519865,75.8134429 90.806351,76.0980387 91.5047715,76.4465393 C89.8936878,76.3567622 86.8840068,76.0721664 86.4600374,76.0437068 Z" id="Shape"></path>
                </g>
            </g>
        </g>
    </g>
</svg>