<svg id="Layer_1" data-name="Layer 1" xmlns="http://www.w3.org/2000/svg" xmlns:xlink="http://www.w3.org/1999/xlink" viewBox="0 0 80 80"><defs><style>.cls-1,.cls-8,.cls-9{fill:#fff;}.cls-2{mask:url(#mask);}.cls-3{fill:#9e92b1;}.cls-4{fill:none;}.cls-10,.cls-11,.cls-4,.cls-8,.cls-9{stroke:#424242;}.cls-4,.cls-8{stroke-linecap:round;stroke-linejoin:round;}.cls-11,.cls-5{fill:#ffceb6;}.cls-6{mask:url(#mask-2-2);}.cls-7{mask:url(#mask-3);}.cls-10,.cls-11,.cls-9{stroke-miterlimit:10;}.cls-10{fill:#b4f1e3;}</style><mask id="mask" x="6.68" y="11.89" width="68.31" height="68.31" maskUnits="userSpaceOnUse"><g id="mask-2"><polygon id="path-1" class="cls-1" points="6.68 11.89 75 11.89 75 74.24 6.68 74.24 6.68 11.89"/></g></mask><mask id="mask-2-2" x="0.32" y="45.19" width="1.22" height="1.03" maskUnits="userSpaceOnUse"><g id="mask-4"><polygon id="path-3" class="cls-1" points="0.32 45.19 1.54 45.19 1.54 46.22 0.32 46.22 0.32 45.19"/></g></mask><mask id="mask-3" x="77.84" y="64.61" width="1.84" height="1.03" maskUnits="userSpaceOnUse"><g id="mask-6"><polygon id="path-5" class="cls-1" points="77.84 64.61 79.68 64.61 79.68 65.63 77.84 65.63 77.84 64.61"/></g></mask></defs><title>Unilive-icons_services</title><g id="Home"><g id="Home-Copy"><g id="Group-70"><g id="Page-1"><g id="Group-3"><g class="cls-2"><path id="Fill-1" class="cls-3" d="M75,46A34.16,34.16,0,1,1,40.84,11.89,34.16,34.16,0,0,1,75,46"/></g></g><path id="Stroke-4" class="cls-4" d="M18.08,74.24H60.62"/><g id="Group-77"><path id="Fill-27" class="cls-5" d="M3.66,45.72a.23.23,0,1,0,0-.47l-.75,0a.22.22,0,0,0-.24.23.25.25,0,0,0,.07.17.26.26,0,0,0,.16.07Z"/><g id="Group-31"><g class="cls-6"><path id="Fill-29" class="cls-5" d="M1.29,45.68c.12,0,.21-.11.24-.23a.22.22,0,0,0-.23-.24l-.75,0a.22.22,0,0,0-.24.23.26.26,0,0,0,.07.17.25.25,0,0,0,.16.07Z"/></g></g><path id="Fill-32" class="cls-5" d="M2,47.25A.22.22,0,0,0,2.29,47l0-.75c0-.12-.11-.21-.23-.24a.22.22,0,0,0-.24.23l0,.75a.25.25,0,0,0,.07.17.25.25,0,0,0,.16.07"/><path id="Fill-34" class="cls-5" d="M2.11,44.86a.22.22,0,0,0,.24-.23l0-.75a.22.22,0,0,0-.23-.24.22.22,0,0,0-.24.23l0,.75a.26.26,0,0,0,.07.17s.09.1.16.07"/><path id="Fill-36" class="cls-5" d="M77.45,26a.23.23,0,0,0,0-.47l-.75,0a.22.22,0,0,0-.24.23.26.26,0,0,0,.07.17.25.25,0,0,0,.16.07Z"/><path id="Fill-38" class="cls-5" d="M75.08,26c.12,0,.21-.11.24-.23a.22.22,0,0,0-.23-.24l-.75,0a.22.22,0,0,0-.24.23.25.25,0,0,0,.07.17.26.26,0,0,0,.16.07Z"/><path id="Fill-40" class="cls-5" d="M75.84,27.55a.22.22,0,0,0,.24-.23l0-.75c0-.12-.11-.21-.23-.24a.22.22,0,0,0-.24.23l0,.75a.24.24,0,0,0,.23.24"/><path id="Fill-42" class="cls-5" d="M75.9,25.17a.22.22,0,0,0,.24-.23l0-.75a.23.23,0,0,0-.47,0l0,.75a.25.25,0,0,0,.07.17s.09.1.16.07"/><path id="Fill-44" class="cls-1" d="M18.79,30.53A.22.22,0,0,0,19,30.3c0-.12-.09-.24-.23-.24l-.75,0a.22.22,0,0,0-.24.23.25.25,0,0,0,.06.17.25.25,0,0,0,.16.07Z"/><path id="Fill-46" class="cls-1" d="M16.43,30.5c.12,0,.21-.11.24-.23a.22.22,0,0,0-.23-.24l-.75,0a.22.22,0,0,0-.24.23.26.26,0,0,0,.07.17.25.25,0,0,0,.16.07Z"/><path id="Fill-48" class="cls-1" d="M17.19,32.06a.22.22,0,0,0,.24-.23l0-.75c0-.12-.11-.21-.23-.24a.22.22,0,0,0-.24.23l0,.75A.25.25,0,0,0,17,32a.26.26,0,0,0,.16.07"/><path id="Fill-50" class="cls-1" d="M17.25,29.67a.22.22,0,0,0,.24-.23l0-.75a.23.23,0,0,0-.47,0l0,.75a.25.25,0,0,0,.07.17s.09.1.16.07"/><path id="Fill-52" class="cls-5" d="M17.58,11.28a.33.33,0,0,0-.34.37.38.38,0,0,0,.12.24.38.38,0,0,0,.25.09l1.13,0a.35.35,0,0,0,0-.71Z"/><path id="Fill-54" class="cls-5" d="M14,11.43a.33.33,0,0,0-.34.37.36.36,0,0,0,.37.34l1.13,0a.35.35,0,0,0,0-.71Z"/><path id="Fill-56" class="cls-5" d="M16.4,12.57a.33.33,0,0,0-.34.37l0,1.13a.39.39,0,0,0,.12.24.38.38,0,0,0,.25.1.33.33,0,0,0,.34-.37l0-1.13a.33.33,0,0,0-.37-.34"/><path id="Fill-58" class="cls-5" d="M16.24,9a.33.33,0,0,0-.34.37l0,1.13a.38.38,0,0,0,.12.24.38.38,0,0,0,.25.1.33.33,0,0,0,.34-.37l0-1.13A.33.33,0,0,0,16.24,9"/><g id="Group-62"><g class="cls-7"><path id="Fill-60" class="cls-5" d="M78.18,64.66a.33.33,0,0,0-.34.37.36.36,0,0,0,.37.34l1.13,0a.35.35,0,0,0,0-.71Z"/></g></g><path id="Fill-63" class="cls-5" d="M74.57,64.81a.33.33,0,0,0-.34.37.36.36,0,0,0,.37.34l1.13,0a.35.35,0,0,0,0-.71Z"/><path id="Fill-65" class="cls-5" d="M77,65.95a.33.33,0,0,0-.34.37l0,1.13a.36.36,0,0,0,.37.34.33.33,0,0,0,.34-.37l0-1.13a.33.33,0,0,0-.37-.34"/><path id="Fill-67" class="cls-5" d="M76.84,62.34a.33.33,0,0,0-.34.37l0,1.13a.36.36,0,0,0,.37.34.33.33,0,0,0,.34-.37l0-1.13a.33.33,0,0,0-.37-.34"/><path id="Fill-69" class="cls-1" d="M65.5,56.77a.33.33,0,0,0-.34.37.36.36,0,0,0,.37.34l1.13,0a.35.35,0,0,0,0-.71Z"/><path id="Fill-71" class="cls-1" d="M61.89,56.92a.33.33,0,0,0-.34.37.36.36,0,0,0,.37.34l1.13,0a.35.35,0,1,0,0-.71Z"/><path id="Fill-73" class="cls-1" d="M64.31,58.06a.33.33,0,0,0-.34.37l0,1.13a.36.36,0,0,0,.37.34.33.33,0,0,0,.34-.37l0-1.13a.33.33,0,0,0-.37-.34"/><path id="Fill-75" class="cls-1" d="M64.16,54.45a.33.33,0,0,0-.34.37l0,1.13a.36.36,0,0,0,.37.34.33.33,0,0,0,.34-.37l0-1.13a.33.33,0,0,0-.37-.34"/></g></g></g></g></g><path class="cls-8" d="M66.62,44.41,41.14,25a1,1,0,0,0-1.21,0L14.45,44.41a1,1,0,0,0,.61,1.8H66A1,1,0,0,0,66.62,44.41Z"/><rect class="cls-9" x="22.6" y="46.42" width="6.75" height="27.82"/><rect class="cls-10" x="37.16" y="46.42" width="6.75" height="27.82"/><rect class="cls-9" x="51.72" y="46.42" width="6.75" height="27.82"/><circle class="cls-11" cx="40.53" cy="37.4" r="3.41"/></svg>