<?xml version="1.0" encoding="UTF-8" standalone="no"?>
<svg width="87px" height="75px" viewBox="0 0 87 75" version="1.1" xmlns="http://www.w3.org/2000/svg" xmlns:xlink="http://www.w3.org/1999/xlink">
    <!-- Generator: Sketch 49 (51002) - http://www.bohemiancoding.com/sketch -->
    <title>Group 31</title>
    <desc>Created with Sketch.</desc>
    <defs>
        <filter x="-8.9%" y="-7.4%" width="117.7%" height="120.6%" filterUnits="objectBoundingBox" id="filter-1">
            <feOffset dx="0" dy="2" in="SourceAlpha" result="shadowOffsetOuter1"></feOffset>
            <feGaussianBlur stdDeviation="2" in="shadowOffsetOuter1" result="shadowBlurOuter1"></feGaussianBlur>
            <feColorMatrix values="0 0 0 0 0   0 0 0 0 0   0 0 0 0 0  0 0 0 0.1 0" type="matrix" in="shadowBlurOuter1" result="shadowMatrixOuter1"></feColorMatrix>
            <feMerge>
                <feMergeNode in="shadowMatrixOuter1"></feMergeNode>
                <feMergeNode in="SourceGraphic"></feMergeNode>
            </feMerge>
        </filter>
        <polygon id="path-2" points="67.2426 67 0.6396 67 0.6396 0.3974 67.2426 0.3974 67.2426 67"></polygon>
    </defs>
    <g id="Page-1" stroke="none" stroke-width="1" fill="none" fill-rule="evenodd">
        <g id="Book_accommodaton_1-Copy-2" transform="translate(-422.000000, -311.000000)">
            <g id="Group-5" transform="translate(425.000000, 306.000000)">
                <g id="Page-1">
                    <g id="Group-31">
                        <rect id="Rectangle-3" x="0" y="0" width="80" height="80"></rect>
                        <g id="Page-1" filter="url(#filter-1)" transform="translate(1.000000, 6.000000)">
                            <g id="Group-3" transform="translate(6.000000, 0.839300)">
                                <mask id="mask-3" fill="white">
                                    <use xlink:href="#path-2"></use>
                                </mask>
                                <g id="Clip-2"></g>
                                <path d="M67.2426,33.6994 C67.2426,52.0914 52.3326,67.0004 33.9406,67.0004 C15.5496,67.0004 0.6396,52.0914 0.6396,33.6994 C0.6396,15.3064 15.5496,0.3974 33.9406,0.3974 C52.3326,0.3974 67.2426,15.3064 67.2426,33.6994" id="Fill-1" fill="#FFAD85" mask="url(#mask-3)"></path>
                            </g>
                            <path d="M1.7212,34.3599 L1.7212,36.8029" id="Stroke-4" stroke="#C5BED0" stroke-linecap="round" stroke-linejoin="round"></path>
                            <path d="M0.5005,35.5816 L2.9425,35.5816" id="Stroke-6" stroke="#C5BED0" stroke-linecap="round" stroke-linejoin="round"></path>
                            <path d="M16.936,19.9234 L16.936,22.3664" id="Stroke-8" stroke="#FFFFFF" stroke-linecap="round" stroke-linejoin="round"></path>
                            <path d="M15.7143,21.1451 L18.1573,21.1451" id="Stroke-10" stroke="#FFFFFF" stroke-linecap="round" stroke-linejoin="round"></path>
                            <path d="M53.476,9.6988 L53.476,13.7648" id="Stroke-12" stroke="#FFFFFF" stroke-linecap="round" stroke-linejoin="round"></path>
                            <path d="M51.4428,11.732 L55.5088,11.732" id="Stroke-14" stroke="#FFFFFF" stroke-linecap="round" stroke-linejoin="round"></path>
                            <path d="M15.7143,1.2252 L15.7143,5.2922" id="Stroke-16" stroke="#C5BED0" stroke-linecap="round" stroke-linejoin="round"></path>
                            <path d="M13.6811,3.2584 L17.7471,3.2584" id="Stroke-18" stroke="#C5BED0" stroke-linecap="round" stroke-linejoin="round"></path>
                            <path d="M74.4048,15.5308 L74.4048,17.9738" id="Stroke-20" stroke="#C5BED0" stroke-linecap="round" stroke-linejoin="round"></path>
                            <path d="M73.1831,16.7525 L75.6261,16.7525" id="Stroke-22" stroke="#C5BED0" stroke-linecap="round" stroke-linejoin="round"></path>
                            <path d="M76.1587,53.0484 L76.1587,57.1144" id="Stroke-24" stroke="#C5BED0" stroke-linecap="round" stroke-linejoin="round"></path>
                            <path d="M74.1255,55.0816 L78.1915,55.0816" id="Stroke-26" stroke="#C5BED0" stroke-linecap="round" stroke-linejoin="round"></path>
                            <polyline id="Fill-28" fill="#C5BED0" points="30.2036 56.1207 30.2036 31.8387 49.4426 31.8387 49.4426 56.1207"></polyline>
                            <path d="M39.352,28.3834 C43.327,28.3834 46.559,25.1514 46.559,21.1764 C46.559,17.2024 43.327,13.9694 39.352,13.9694 C35.379,13.9694 32.146,17.2024 32.146,21.1764 C32.146,25.1514 35.379,28.3834 39.352,28.3834" id="Fill-30" fill="#FFFFFF"></path>
                            <path d="M39.352,28.3834 C43.327,28.3834 46.559,25.1514 46.559,21.1764 C46.559,17.2024 43.327,13.9694 39.352,13.9694 C35.379,13.9694 32.146,17.2024 32.146,21.1764 C32.146,25.1514 35.379,28.3834 39.352,28.3834 Z" id="Stroke-32" stroke="#332E48" stroke-linecap="round" stroke-linejoin="round"></path>
                            <polyline id="Stroke-34" stroke="#332E48" stroke-linecap="round" stroke-linejoin="round" points="30.2036 56.1207 30.2036 31.8387 49.4426 31.8387 49.4426 56.1207"></polyline>
                        </g>
                    </g>
                </g>
            </g>
        </g>
    </g>
</svg>