<?xml version="1.0" encoding="UTF-8" standalone="no"?>
<svg width="16px" height="17px" viewBox="0 0 16 17" version="1.1" xmlns="http://www.w3.org/2000/svg" xmlns:xlink="http://www.w3.org/1999/xlink">
    <!-- Generator: Sketch 49 (51002) - http://www.bohemiancoding.com/sketch -->
    <title>Group 5</title>
    <desc>Created with Sketch.</desc>
    <defs></defs>
    <g id="Page-1" stroke="none" stroke-width="1" fill="none" fill-rule="evenodd" stroke-linecap="round" stroke-linejoin="round">
        <g id="Contact--Copy-2" transform="translate(-1025.000000, -402.000000)" stroke="#FD6F56">
            <g id="Group-15" transform="translate(834.000000, 227.000000)">
                <g id="Group-2" transform="translate(191.000000, 78.000000)">
                    <g id="Group-10" transform="translate(0.000000, 96.000000)">
                        <g id="Group-5" transform="translate(0.000000, 2.000000)">
                            <g id="Page-1">
                                <path d="M12.1764,9.6545 C11.8734,9.3395 11.5084,9.1705 11.1214,9.1705 C10.7384,9.1705 10.3694,9.3365 10.0544,9.6515 L9.0684,10.6335 C8.9874,10.5915 8.9054,10.5505 8.8274,10.5095 C8.7154,10.4535 8.6094,10.4005 8.5184,10.3435 C7.5944,9.7575 6.7554,8.9925 5.9494,8.0035 C5.5594,7.5095 5.2974,7.0945 5.1074,6.6745 C5.3634,6.4395 5.6004,6.1965 5.8314,5.9625 C5.9184,5.8745 6.0064,5.7845 6.0934,5.6965 C6.7484,5.0415 6.7484,4.1925 6.0934,3.5375 L5.2414,2.6845 C5.1444,2.5885 5.0444,2.4885 4.9514,2.3875 C4.7634,2.1945 4.5674,1.9955 4.3644,1.8075 C4.0614,1.5085 3.6994,1.3485 3.3184,1.3485 C2.9384,1.3485 2.5694,1.5085 2.2574,1.8075 C2.2544,1.8105 2.2544,1.8105 2.2514,1.8135 L1.1904,2.8845 C0.7904,3.2845 0.5624,3.7705 0.5124,4.3365 C0.4384,5.2475 0.7064,6.0955 0.9124,6.6515 C1.4184,8.0155 2.1734,9.2795 3.3004,10.6335 C4.6674,12.2665 6.3124,13.5555 8.1914,14.4645 C8.9084,14.8035 9.8664,15.2075 10.9374,15.2755 C11.0034,15.2785 11.0714,15.2815 11.1344,15.2815 C11.8554,15.2815 12.4604,15.0225 12.9354,14.5085 C12.9384,14.5015 12.9444,14.4985 12.9474,14.4925 C13.1104,14.2955 13.2974,14.1175 13.4934,13.9265 C13.6284,13.7995 13.7654,13.6655 13.8994,13.5245 C14.2084,13.2035 14.3704,12.8285 14.3704,12.4445 C14.3704,12.0575 14.2054,11.6865 13.8904,11.3745 L12.1764,9.6545 Z" id="Stroke-1"></path>
                                <path d="M12.5856,7.1389 C12.4166,6.1499 11.9486,5.2469 11.2336,4.5329 C10.5196,3.8179 9.6176,3.3499 8.6276,3.1809" id="Stroke-3"></path>
                                <path d="M15.2604,7.0168 C14.9824,5.3878 14.2144,3.9058 13.0344,2.7258 C11.8554,1.5458 10.3724,0.7778 8.7434,0.4998" id="Stroke-5"></path>
                            </g>
                        </g>
                    </g>
                </g>
            </g>
        </g>
    </g>
</svg>