<?xml version="1.0" encoding="utf-8"?>
<!-- Generator: Adobe Illustrator 22.1.0, SVG Export Plug-In . SVG Version: 6.00 Build 0)  -->
<svg version="1.1" id="Layer_1" xmlns="http://www.w3.org/2000/svg" xmlns:xlink="http://www.w3.org/1999/xlink" x="0px" y="0px"
	 viewBox="0 0 16 17" style="enable-background:new 0 0 16 17;" xml:space="preserve">
<style type="text/css">
	.st0{fill:none;stroke:#000000;stroke-linecap:round;stroke-linejoin:round;}
</style>
<title>Group 5</title>
<desc>Created with Sketch.</desc>
<g id="Page-1_1_">
	<g id="Contact--Copy-2" transform="translate(-1025.000000, -402.000000)">
		<g id="Group-15" transform="translate(834.000000, 227.000000)">
			<g id="Group-2" transform="translate(191.000000, 78.000000)">
				<g id="Group-10" transform="translate(0.000000, 96.000000)">
					<g id="Group-5" transform="translate(0.000000, 2.000000)">
						<g id="Page-1">
							<path id="Stroke-1" class="st0" d="M12.2,9.7c-0.3-0.3-0.7-0.5-1.1-0.5c-0.4,0-0.8,0.2-1.1,0.5l-1,1c-0.1,0-0.2-0.1-0.2-0.1
								c-0.1-0.1-0.2-0.1-0.3-0.2C7.6,9.8,6.8,9,5.9,8C5.6,7.5,5.3,7.1,5.1,6.7C5.4,6.4,5.6,6.2,5.8,6C5.9,5.9,6,5.8,6.1,5.7
								c0.7-0.7,0.7-1.5,0-2.2L5.2,2.7C5.1,2.6,5,2.5,5,2.4C4.8,2.2,4.6,2,4.4,1.8c-0.3-0.3-0.7-0.5-1-0.5c-0.4,0-0.7,0.2-1.1,0.5
								c0,0,0,0,0,0L1.2,2.9C0.8,3.3,0.6,3.8,0.5,4.3C0.4,5.2,0.7,6.1,0.9,6.7c0.5,1.4,1.3,2.6,2.4,4c1.4,1.6,3,2.9,4.9,3.8
								c0.7,0.3,1.7,0.7,2.7,0.8c0.1,0,0.1,0,0.2,0c0.7,0,1.3-0.3,1.8-0.8c0,0,0,0,0,0c0.2-0.2,0.4-0.4,0.5-0.6
								c0.1-0.1,0.3-0.3,0.4-0.4c0.3-0.3,0.5-0.7,0.5-1.1c0-0.4-0.2-0.8-0.5-1.1L12.2,9.7z"/>
							<path id="Stroke-3" class="st0" d="M12.6,7.1c-0.2-1-0.6-1.9-1.4-2.6c-0.7-0.7-1.6-1.2-2.6-1.4"/>
							<path id="Stroke-5" class="st0" d="M15.3,7c-0.3-1.6-1-3.1-2.2-4.3c-1.2-1.2-2.7-1.9-4.3-2.2"/>
						</g>
					</g>
				</g>
			</g>
		</g>
	</g>
</g>
</svg>
