<?xml version="1.0" encoding="UTF-8" standalone="no"?>
<svg width="51px" height="50px" viewBox="0 0 51 50" version="1.1" xmlns="http://www.w3.org/2000/svg" xmlns:xlink="http://www.w3.org/1999/xlink">
    <!-- Generator: Sketch 49 (51002) - http://www.bohemiancoding.com/sketch -->
    <title>Page 1</title>
    <desc>Created with Sketch.</desc>
    <defs></defs>
    <g id="5th-Feb" stroke="none" stroke-width="1" fill="none" fill-rule="evenodd">
        <g id="Home-Copy-5" transform="translate(-1122.000000, -1742.000000)">
            <g id="Group-46" transform="translate(132.000000, 1741.000000)">
                <g id="Group-39" transform="translate(898.000000, 1.000000)">
                    <g id="Page-1" transform="translate(93.000000, 0.000000)">
                        <path d="M50,23 C50,10.2985561 39.7007149,0 26.9983719,0 C14.2960289,0 4,10.2985561 4,23 C4,35.7014439 14.2960289,46 26.9983719,46 C39.7007149,46 50,35.7014439 50,23 Z" id="Fill-1" fill="#B4F1E3"></path>
                        <path d="M19.0597632,24.9854035 C19.3615747,24.8340011 19.4370275,24.527905 19.4370275,24.2251002 L17.9968621,16 L24.1446299,21.4834001 C24.3709884,21.7105037 24.7515333,21.7105037 24.9811724,21.5591013 L32.1918414,17.596308 L28.9276851,25.2157985 C28.7767793,25.5186033 28.8489516,25.8246995 29.0818713,26.0518031 L35,31.8412994 L26.8773356,31.0777046 C26.5755242,31.0777046 26.2704322,31.2323984 26.1162459,31.5384946 L22.5502781,39 L20.7295678,30.9263022 C20.6508344,30.6202061 20.4244758,30.3931025 20.1193838,30.3174013 L12,29.1753005 L19.0597632,24.9854035 Z" id="Stroke-3" stroke="#332E48" stroke-linecap="round" stroke-linejoin="round"></path>
                        <path d="M20,30 L0,50" id="Stroke-5" stroke="#332E48" stroke-linecap="round" stroke-linejoin="round"></path>
                        <path d="M34,44 L31,39" id="Stroke-7" stroke="#332E48" stroke-linecap="round" stroke-linejoin="round"></path>
                        <path d="M25,12 L25,6" id="Stroke-9" stroke="#332E48" stroke-linecap="round" stroke-linejoin="round"></path>
                        <path d="M46,20 L38,21.875" id="Stroke-11" stroke="#332E48" stroke-linecap="round" stroke-linejoin="round"></path>
                        <path d="M9,19.903 L3,19" id="Stroke-13" stroke="#332E48" stroke-linecap="round" stroke-linejoin="round"></path>
                    </g>
                </g>
            </g>
        </g>
    </g>
</svg>