<?xml version="1.0" encoding="UTF-8" standalone="no"?>
<svg width="22px" height="25px" viewBox="0 0 22 25" version="1.1" xmlns="http://www.w3.org/2000/svg" xmlns:xlink="http://www.w3.org/1999/xlink">
    <!-- Generator: Sketch 49 (51002) - http://www.bohemiancoding.com/sketch -->
    <title>Page 1</title>
    <desc>Created with Sketch.</desc>
    <defs></defs>
    <g id="Page-1" stroke="none" stroke-width="1" fill="none" fill-rule="evenodd">
        <g id="Book_accommodaton_2-Copy" transform="translate(-463.000000, -978.000000)">
            <g id="Group-26" transform="translate(251.000000, 566.000000)">
                <g id="Page-1" transform="translate(212.000000, 412.000000)">
                    <path d="M19.3912714,23.89984 L2.60841429,23.89984 C1.6027,23.89984 0.785557143,23.06784 0.785557143,22.04384 L0.785557143,4.95584 C0.785557143,3.93184 1.6027,3.09984 2.60841429,3.09984 L19.3912714,3.09984 C20.3985571,3.09984 21.2141286,3.93184 21.2141286,4.95584 L21.2141286,22.04384 C21.2141286,23.06784 20.3985571,23.89984 19.3912714,23.89984 Z" id="Stroke-1" stroke="#FD6F56" stroke-linecap="round" stroke-linejoin="round"></path>
                    <path d="M4.32142857,0.79984 L4.32142857,5.10064" id="Stroke-3" stroke="#FD6F56" stroke-linecap="round" stroke-linejoin="round"></path>
                    <path d="M8.77407143,0.79984 L8.77407143,5.10064" id="Stroke-5" stroke="#FD6F56" stroke-linecap="round" stroke-linejoin="round"></path>
                    <path d="M13.2259286,0.79984 L13.2259286,5.10064" id="Stroke-7" stroke="#FD6F56" stroke-linecap="round" stroke-linejoin="round"></path>
                    <path d="M17.6785714,0.79984 L17.6785714,5.10064" id="Stroke-9" stroke="#FD6F56" stroke-linecap="round" stroke-linejoin="round"></path>
                    <path d="M0.785714286,9.80912 L21.2142857,9.80912" id="Stroke-11" stroke="#FD6F56" stroke-linecap="round" stroke-linejoin="round"></path>
                    <path d="M5.7211,12.84976 C5.7211,13.37456 5.3031,13.80016 4.78767143,13.80016 C4.27224286,13.80016 3.85581429,13.37456 3.85581429,12.84976 C3.85581429,12.32496 4.27224286,11.89936 4.78767143,11.89936 C5.3031,11.89936 5.7211,12.32496 5.7211,12.84976" id="Fill-13" fill="#FD6F56"></path>
                    <path d="M8.26932857,12.17792 C8.6339,11.80832 9.22475714,11.80832 9.58932857,12.17792 C9.9539,12.54912 9.9539,13.15072 9.58932857,13.52192 C9.22475714,13.89152 8.6339,13.89152 8.26932857,13.52192 C7.90632857,13.15072 7.90632857,12.54912 8.26932857,12.17792" id="Fill-15" fill="#FD6F56"></path>
                    <path d="M12.4111429,12.17792 C12.7757143,11.80832 13.3665714,11.80832 13.7295714,12.17792 C14.0941429,12.54912 14.0941429,13.15072 13.7295714,13.52192 C13.3665714,13.89152 12.7757143,13.89152 12.4111429,13.52192 C12.0465714,13.15072 12.0465714,12.54912 12.4111429,12.17792" id="Fill-17" fill="#FD6F56"></path>
                    <path d="M16.5521714,12.17792 C16.9167429,11.80832 17.5076,11.80832 17.8721714,12.17792 C18.2367429,12.54912 18.2367429,13.15072 17.8721714,13.52192 C17.5076,13.89152 16.9167429,13.89152 16.5521714,13.52192 C16.1876,13.15072 16.1876,12.54912 16.5521714,12.17792" id="Fill-19" fill="#FD6F56"></path>
                    <path d="M5.7211,16.69984 C5.7211,17.22464 5.3031,17.65024 4.78767143,17.65024 C4.27224286,17.65024 3.85581429,17.22464 3.85581429,16.69984 C3.85581429,16.17504 4.27224286,15.74944 4.78767143,15.74944 C5.3031,15.74944 5.7211,16.17504 5.7211,16.69984" id="Fill-21" fill="#FD6F56"></path>
                    <path d="M8.26932857,16.02784 C8.6339,15.65824 9.22475714,15.65824 9.58932857,16.02784 C9.9539,16.39904 9.9539,17.00064 9.58932857,17.37184 C9.22475714,17.74144 8.6339,17.74144 8.26932857,17.37184 C7.90632857,17.00064 7.90632857,16.39904 8.26932857,16.02784" id="Fill-23" fill="#FD6F56"></path>
                    <path d="M12.4111429,16.02784 C12.7757143,15.65824 13.3665714,15.65824 13.7295714,16.02784 C14.0941429,16.39904 14.0941429,17.00064 13.7295714,17.37184 C13.3665714,17.74144 12.7757143,17.74144 12.4111429,17.37184 C12.0465714,17.00064 12.0465714,16.39904 12.4111429,16.02784" id="Fill-25" fill="#FD6F56"></path>
                    <path d="M16.5521714,16.02784 C16.9167429,15.65824 17.5076,15.65824 17.8721714,16.02784 C18.2367429,16.39904 18.2367429,17.00064 17.8721714,17.37184 C17.5076,17.74144 16.9167429,17.74144 16.5521714,17.37184 C16.1876,17.00064 16.1876,16.39904 16.5521714,16.02784" id="Fill-27" fill="#FD6F56"></path>
                    <path d="M5.7211,20.54976 C5.7211,21.07456 5.3031,21.50016 4.78767143,21.50016 C4.27224286,21.50016 3.85581429,21.07456 3.85581429,20.54976 C3.85581429,20.02496 4.27224286,19.59936 4.78767143,19.59936 C5.3031,19.59936 5.7211,20.02496 5.7211,20.54976" id="Fill-29" fill="#FD6F56"></path>
                    <path d="M8.26932857,19.87792 C8.6339,19.50832 9.22475714,19.50832 9.58932857,19.87792 C9.9539,20.24912 9.9539,20.85072 9.58932857,21.22192 C9.22475714,21.59152 8.6339,21.59152 8.26932857,21.22192 C7.90632857,20.85072 7.90632857,20.24912 8.26932857,19.87792" id="Fill-31" fill="#FD6F56"></path>
                    <path d="M12.4111429,19.87792 C12.7757143,19.50832 13.3665714,19.50832 13.7295714,19.87792 C14.0941429,20.24912 14.0941429,20.85072 13.7295714,21.22192 C13.3665714,21.59152 12.7757143,21.59152 12.4111429,21.22192 C12.0465714,20.85072 12.0465714,20.24912 12.4111429,19.87792" id="Fill-33" fill="#FD6F56"></path>
                    <path d="M16.5521714,19.87792 C16.9167429,19.50832 17.5076,19.50832 17.8721714,19.87792 C18.2367429,20.24912 18.2367429,20.85072 17.8721714,21.22192 C17.5076,21.59152 16.9167429,21.59152 16.5521714,21.22192 C16.1876,20.85072 16.1876,20.24912 16.5521714,19.87792" id="Fill-35" fill="#FD6F56"></path>
                </g>
            </g>
        </g>
    </g>
</svg>