<svg id="Layer_1" data-name="Layer 1" xmlns="http://www.w3.org/2000/svg" xmlns:xlink="http://www.w3.org/1999/xlink" viewBox="0 0 80 80"><defs><style>.cls-1{fill:#fff;}.cls-2{mask:url(#mask);}.cls-3{fill:#9e92b1;}.cls-4{fill:#ffceb6;}.cls-5{mask:url(#mask-2-2);}.cls-6{mask:url(#mask-3);}.cls-7{fill:#b4f1e3;}.cls-8{fill:none;stroke:#424242;stroke-linecap:round;stroke-linejoin:round;}.cls-9{fill:#f48a69;}</style><mask id="mask" x="6.54" y="11.89" width="68.31" height="68.31" maskUnits="userSpaceOnUse"><g id="mask-2"><polygon id="path-1" class="cls-1" points="6.54 11.89 74.86 11.89 74.86 74.24 6.54 74.24 6.54 11.89"/></g></mask><mask id="mask-2-2" x="0.18" y="45.19" width="1.22" height="1.03" maskUnits="userSpaceOnUse"><g id="mask-4"><polygon id="path-3" class="cls-1" points="0.18 45.19 1.4 45.19 1.4 46.22 0.18 46.22 0.18 45.19"/></g></mask><mask id="mask-3" x="77.7" y="64.61" width="1.84" height="1.03" maskUnits="userSpaceOnUse"><g id="mask-6"><polygon id="path-5" class="cls-1" points="77.7 64.61 79.54 64.61 79.54 65.63 77.7 65.63 77.7 64.61"/></g></mask></defs><title>Unilive-icons_services</title><g id="Home"><g id="Home-Copy"><g id="Group-70"><g id="Page-1"><g id="Group-3"><g class="cls-2"><path id="Fill-1" class="cls-3" d="M74.86,46A34.16,34.16,0,1,1,40.7,11.89,34.16,34.16,0,0,1,74.86,46"/></g></g><g id="Group-77"><path id="Fill-27" class="cls-4" d="M3.52,45.72a.23.23,0,1,0,0-.47l-.75,0a.22.22,0,0,0-.24.23.25.25,0,0,0,.07.17.26.26,0,0,0,.16.07Z"/><g id="Group-31"><g class="cls-5"><path id="Fill-29" class="cls-4" d="M1.15,45.68c.12,0,.21-.11.24-.23a.22.22,0,0,0-.23-.24l-.75,0a.22.22,0,0,0-.24.23.26.26,0,0,0,.07.17.25.25,0,0,0,.16.07Z"/></g></g><path id="Fill-32" class="cls-4" d="M1.91,47.25A.22.22,0,0,0,2.15,47l0-.75c0-.12-.11-.21-.23-.24a.22.22,0,0,0-.24.23l0,.75a.25.25,0,0,0,.07.17.25.25,0,0,0,.16.07"/><path id="Fill-34" class="cls-4" d="M2,44.86a.22.22,0,0,0,.24-.23l0-.75A.22.22,0,0,0,2,43.65a.22.22,0,0,0-.24.23l0,.75a.26.26,0,0,0,.07.17s.09.1.16.07"/><path id="Fill-36" class="cls-4" d="M77.31,26a.23.23,0,0,0,0-.47l-.75,0a.22.22,0,0,0-.24.23.26.26,0,0,0,.07.17.25.25,0,0,0,.16.07Z"/><path id="Fill-38" class="cls-4" d="M74.95,26c.12,0,.21-.11.24-.23a.22.22,0,0,0-.23-.24l-.75,0a.22.22,0,0,0-.24.23.25.25,0,0,0,.07.17.26.26,0,0,0,.16.07Z"/><path id="Fill-40" class="cls-4" d="M75.7,27.55a.22.22,0,0,0,.24-.23l0-.75c0-.12-.11-.21-.23-.24a.22.22,0,0,0-.24.23l0,.75a.24.24,0,0,0,.23.24"/><path id="Fill-42" class="cls-4" d="M75.76,25.17a.22.22,0,0,0,.24-.23l0-.75a.23.23,0,0,0-.47,0l0,.75a.25.25,0,0,0,.07.17s.09.1.16.07"/><path id="Fill-44" class="cls-1" d="M18.65,30.53a.22.22,0,0,0,.24-.23c0-.12-.09-.24-.23-.24l-.75,0a.22.22,0,0,0-.24.23.25.25,0,0,0,.06.17.25.25,0,0,0,.16.07Z"/><path id="Fill-46" class="cls-1" d="M16.29,30.5c.12,0,.21-.11.24-.23A.22.22,0,0,0,16.3,30l-.75,0a.22.22,0,0,0-.24.23.26.26,0,0,0,.07.17.25.25,0,0,0,.16.07Z"/><path id="Fill-48" class="cls-1" d="M17,32.06a.22.22,0,0,0,.24-.23l0-.75c0-.12-.11-.21-.23-.24a.22.22,0,0,0-.24.23l0,.75a.25.25,0,0,0,.07.17.26.26,0,0,0,.16.07"/><path id="Fill-50" class="cls-1" d="M17.11,29.67a.22.22,0,0,0,.24-.23l0-.75a.23.23,0,0,0-.47,0l0,.75a.25.25,0,0,0,.07.17s.09.1.16.07"/><path id="Fill-52" class="cls-4" d="M17.44,11.28a.33.33,0,0,0-.34.37.38.38,0,0,0,.12.24.38.38,0,0,0,.25.09l1.13,0a.35.35,0,0,0,0-.71Z"/><path id="Fill-54" class="cls-4" d="M13.84,11.43a.33.33,0,0,0-.34.37.36.36,0,0,0,.37.34l1.13,0a.35.35,0,0,0,0-.71Z"/><path id="Fill-56" class="cls-4" d="M16.26,12.57a.33.33,0,0,0-.34.37l0,1.13a.39.39,0,0,0,.12.24.38.38,0,0,0,.25.1.33.33,0,0,0,.34-.37l0-1.13a.33.33,0,0,0-.37-.34"/><path id="Fill-58" class="cls-4" d="M16.1,9a.33.33,0,0,0-.34.37l0,1.13a.38.38,0,0,0,.12.24.38.38,0,0,0,.25.1.33.33,0,0,0,.34-.37l0-1.13A.33.33,0,0,0,16.1,9"/><g id="Group-62"><g class="cls-6"><path id="Fill-60" class="cls-4" d="M78,64.66a.33.33,0,0,0-.34.37.36.36,0,0,0,.37.34l1.13,0a.35.35,0,0,0,0-.71Z"/></g></g><path id="Fill-63" class="cls-4" d="M74.44,64.81a.33.33,0,0,0-.34.37.36.36,0,0,0,.37.34l1.13,0a.35.35,0,0,0,0-.71Z"/><path id="Fill-65" class="cls-4" d="M76.86,65.95a.33.33,0,0,0-.34.37l0,1.13a.36.36,0,0,0,.37.34.33.33,0,0,0,.34-.37l0-1.13a.33.33,0,0,0-.37-.34"/><path id="Fill-67" class="cls-4" d="M76.7,62.34a.33.33,0,0,0-.34.37l0,1.13a.36.36,0,0,0,.37.34.33.33,0,0,0,.34-.37l0-1.13a.33.33,0,0,0-.37-.34"/><path id="Fill-69" class="cls-1" d="M65.36,56.77a.33.33,0,0,0-.34.37.36.36,0,0,0,.37.34l1.13,0a.35.35,0,0,0,0-.71Z"/><path id="Fill-71" class="cls-1" d="M61.75,56.92a.33.33,0,0,0-.34.37.36.36,0,0,0,.37.34l1.13,0a.35.35,0,1,0,0-.71Z"/><path id="Fill-73" class="cls-1" d="M64.17,58.06a.33.33,0,0,0-.34.37l0,1.13a.36.36,0,0,0,.37.34.33.33,0,0,0,.34-.37l0-1.13a.33.33,0,0,0-.37-.34"/><path id="Fill-75" class="cls-1" d="M64,54.45a.33.33,0,0,0-.34.37l0,1.13a.36.36,0,0,0,.37.34.33.33,0,0,0,.34-.37l0-1.13a.33.33,0,0,0-.37-.34"/></g><path class="cls-7" d="M19.07,32.2H41.52a0,0,0,0,1,0,0v42a0,0,0,0,1,0,0H22.1a3,3,0,0,1-3-3V32.2A0,0,0,0,1,19.07,32.2Z"/><path class="cls-1" d="M26.51,29.47H59.89a0,0,0,0,1,0,0V71.22a3,3,0,0,1-3,3H26.51a0,0,0,0,1,0,0V29.47A0,0,0,0,1,26.51,29.47Z"/><line class="cls-8" x1="31.76" y1="46.92" x2="55.98" y2="46.92"/><line class="cls-8" x1="31.76" y1="53.69" x2="55.98" y2="53.69"/><line class="cls-8" x1="31.76" y1="60.46" x2="55.98" y2="60.46"/><line class="cls-8" x1="31.76" y1="67.24" x2="55.98" y2="67.24"/><path class="cls-8" d="M26.25,32.2H19.07V70.49a3.72,3.72,0,0,0,3.72,3.72h0a3.72,3.72,0,0,0,3.72-3.72v-41H59.89v41a3.73,3.73,0,0,1-3.76,3.73"/><path id="Stroke-4" class="cls-8" d="M17.94,74.24H60.48"/></g></g></g></g><path class="cls-9" d="M32.05,41.71V35.41h1.33V40.6h2.55v1.1Z"/><path class="cls-9" d="M42.53,38.55a3.42,3.42,0,0,1-.78,2.4,3.36,3.36,0,0,1-4.44,0,3.43,3.43,0,0,1-.77-2.41,3.38,3.38,0,0,1,.78-2.4,2.91,2.91,0,0,1,2.23-.83,2.87,2.87,0,0,1,2.22.83A3.43,3.43,0,0,1,42.53,38.55Zm-4.59,0a2.63,2.63,0,0,0,.4,1.59,1.4,1.4,0,0,0,1.2.53q1.6,0,1.6-2.12t-1.59-2.13a1.41,1.41,0,0,0-1.2.54A2.62,2.62,0,0,0,37.93,38.55Z"/><path class="cls-9" d="M47.47,41.71,47,40.21H44.72l-.46,1.5H42.82L45,35.38h1.63l2.23,6.32Zm-.78-2.62L46,36.78q-.08-.27-.11-.42-.14.55-.81,2.73Z"/><path class="cls-9" d="M55.06,41.71h-1.7l-2.74-4.76h0q.08,1.26.08,1.8v3H49.47V35.41h1.68l2.73,4.71h0q-.06-1.23-.06-1.74v-3h1.2Z"/></svg>