<svg id="Layer_1" data-name="Layer 1" xmlns="http://www.w3.org/2000/svg" xmlns:xlink="http://www.w3.org/1999/xlink" viewBox="0 0 16 16"><defs><style>.cls-1{fill:#eef2ff;}.cls-2{clip-path:url(#clip-path);}.cls-3{clip-path:url(#clip-path-2);}.cls-4{clip-path:url(#clip-path-3);}.cls-5{fill:none;stroke:#30343f;stroke-linecap:round;stroke-linejoin:round;}</style><clipPath id="clip-path"><circle class="cls-1" cx="95.86" cy="7.06" r="7.06"/></clipPath><clipPath id="clip-path-2"><circle class="cls-1" cx="74.64" cy="-24.99" r="7.06"/></clipPath><clipPath id="clip-path-3"><circle class="cls-1" cx="117.43" cy="-24.99" r="7.06"/></clipPath></defs><title>email</title><circle class="cls-1" cx="95.86" cy="7.06" r="7.06"/><circle class="cls-1" cx="74.64" cy="-24.99" r="7.06"/><circle class="cls-1" cx="117.43" cy="-24.99" r="7.06"/><path class="cls-5" d="M10,7.88l2.68,2.52"/><path class="cls-5" d="M3.37,10.4,6,7.88"/><path class="cls-5" d="M14.06,13.14H1.94A1.17,1.17,0,0,1,.77,12V4A1.17,1.17,0,0,1,1.94,2.86H14.06A1.17,1.17,0,0,1,15.23,4V12A1.17,1.17,0,0,1,14.06,13.14Z"/><path class="cls-5" d="M14.83,3.65l-6,5.21a1.34,1.34,0,0,1-1.71,0l-6-5.22"/></svg>