<?xml version="1.0" encoding="UTF-8" standalone="no"?>
<svg width="80px" height="67px" viewBox="0 0 80 67" version="1.1" xmlns="http://www.w3.org/2000/svg" xmlns:xlink="http://www.w3.org/1999/xlink">
    <!-- Generator: Sketch 49.2 (51160) - http://www.bohemiancoding.com/sketch -->
    <title>Page 1</title>
    <desc>Created with Sketch.</desc>
    <defs>
        <polygon id="path-1" points="0.213128205 0.408307692 68.5228718 0.408307692 68.5228718 62.76 0.213128205 62.76"></polygon>
        <polygon id="path-3" points="0.600869697 0.817690209 2.44205128 0.817690209 2.44205128 1.84333123 0.600869697 1.84333123"></polygon>
    </defs>
    <g id="Home" stroke="none" stroke-width="1" fill="none" fill-rule="evenodd">
        <g id="Home-Copy" transform="translate(-1036.000000, -3287.000000)">
            <g id="Group-70" transform="translate(207.000000, 2955.000000)">
                <g id="Page-1" transform="translate(829.000000, 331.000000)">
                    <g id="Group-3" transform="translate(6.153846, 3.937744)">
                        <mask id="mask-2" fill="white">
                            <use xlink:href="#path-1"></use>
                        </mask>
                        <g id="Clip-2"></g>
                        <path d="M68.5228718,34.5631795 C68.5228718,53.4267692 53.2315897,68.7180513 34.368,68.7180513 C15.5054359,68.7180513 0.213128205,53.4267692 0.213128205,34.5631795 C0.213128205,15.6995897 15.5054359,0.408307692 34.368,0.408307692 C53.2315897,0.408307692 68.5228718,15.6995897 68.5228718,34.5631795" id="Fill-1" fill="#9E92B1" mask="url(#mask-2)"></path>
                    </g>
                    <circle id="Oval-2" fill="#FFCEB6" cx="40.5" cy="37.5" r="23.5"></circle>
                    <path d="M17.7595897,66.6970256 L60.3052308,66.6970256" id="Stroke-4" stroke="#424242" stroke-linecap="round" stroke-linejoin="round"></path>
                    <g id="Group-80" transform="translate(0.000000, 0.860821)">
                        <path d="M57.5662564,36.7246154 C57.5662564,46.1338462 49.9385641,53.7605128 40.530359,53.7605128 C31.1221538,53.7605128 23.4944615,46.1338462 23.4944615,36.7246154 C23.4944615,27.3164103 31.1221538,19.6897436 40.530359,19.6897436 C49.9385641,19.6897436 57.5662564,27.3164103 57.5662564,36.7246154" id="Fill-5" fill="#B4F1E3"></path>
                        <path d="M34.9981538,28.2751795 L34.9981538,29.3900513 L39.4658462,29.3900513 C39.4791795,29.3900513 40.9089231,29.3982564 42.3232821,29.9787692 C43.2791795,30.3685128 43.977641,30.9213333 44.432,31.6259487 L34.9981538,31.6259487 L34.9981538,32.7397949 L44.9089231,32.7397949 C44.9961026,33.0885128 45.0484103,33.4577436 45.0484103,33.8567179 C45.0484103,35.242359 44.6340513,36.3244103 43.8166154,37.0731282 C42.2104615,38.5438974 39.5427692,38.3274872 39.4648205,38.322359 L34.9981538,38.322359 L34.9981538,39.682359 L43.5499487,47.6628718 L44.3130256,46.8454359 L36.3755897,39.4403077 L39.4145641,39.4372308 C39.5427692,39.4485128 42.592,39.7059487 44.566359,37.9038974 C45.6258462,36.9315897 46.1632821,35.5715897 46.1632821,33.8567179 C46.1632821,33.4577436 46.1171282,33.0885128 46.0484103,32.7397949 L48.3961026,32.7397949 L48.3961026,31.6259487 L45.7037949,31.6259487 C45.2504615,30.6300513 44.5068718,29.9049231 43.6514872,29.3900513 L48.3961026,29.3900513 L48.3961026,28.2751795 L34.9981538,28.2751795 Z" id="Fill-7" fill="#3B4D92"></path>
                        <path d="M34.9981538,28.2751795 L34.9981538,29.3900513 L39.4658462,29.3900513 C39.4791795,29.3900513 40.9089231,29.3982564 42.3232821,29.9787692 C43.2791795,30.3685128 43.977641,30.9213333 44.432,31.6259487 L34.9981538,31.6259487 L34.9981538,32.7397949 L44.9089231,32.7397949 C44.9961026,33.0885128 45.0484103,33.4577436 45.0484103,33.8567179 C45.0484103,35.242359 44.6340513,36.3244103 43.8166154,37.0731282 C42.2104615,38.5438974 39.5427692,38.3274872 39.4648205,38.322359 L34.9981538,38.322359 L34.9981538,39.682359 L43.5499487,47.6628718 L44.3130256,46.8454359 L36.3755897,39.4403077 L39.4145641,39.4372308 C39.5427692,39.4485128 42.592,39.7059487 44.566359,37.9038974 C45.6258462,36.9315897 46.1632821,35.5715897 46.1632821,33.8567179 C46.1632821,33.4577436 46.1171282,33.0885128 46.0484103,32.7397949 L48.3961026,32.7397949 L48.3961026,31.6259487 L45.7037949,31.6259487 C45.2504615,30.6300513 44.5068718,29.9049231 43.6514872,29.3900513 L48.3961026,29.3900513 L48.3961026,28.2751795 L34.9981538,28.2751795 Z" id="Stroke-9" stroke="#3B4D92" stroke-width="0.4" stroke-linecap="round" stroke-linejoin="round"></path>
                        <path d="M57.5662564,36.7246154 C57.5662564,46.1338462 49.9385641,53.7605128 40.530359,53.7605128 C31.1221538,53.7605128 23.4944615,46.1338462 23.4944615,36.7246154 C23.4944615,27.3164103 31.1221538,19.6897436 40.530359,19.6897436 C49.9385641,19.6897436 57.5662564,27.3164103 57.5662564,36.7246154 Z" id="Stroke-11" stroke="#424242" stroke-linecap="round" stroke-linejoin="round"></path>
                        <path d="M40.529641,49.1758974 C33.6537436,49.1758974 28.0804103,43.6015385 28.0804103,36.7246154 C28.0804103,29.8487179 33.6537436,24.274359 40.529641,24.274359 C47.4065641,24.274359 52.9809231,29.8487179 52.9809231,36.7246154 C52.9809231,43.6015385 47.4065641,49.1758974 40.529641,49.1758974 Z" id="Fill-13" fill="#FFFFFF"></path>
                        <path d="M52.9809231,36.7246154 C52.9809231,43.6015385 47.4065641,49.1758974 40.529641,49.1758974 C33.6537436,49.1758974 28.0804103,43.6015385 28.0804103,36.7246154 C28.0804103,29.8487179 33.6537436,24.274359 40.529641,24.274359 C47.4065641,24.274359 52.9809231,29.8487179 52.9809231,36.7246154 Z" id="Stroke-15" stroke="#424242"></path>
                        <path d="M36.4875897,30.5488205 L36.4875897,31.3642051 L39.7532308,31.3642051 C39.7624615,31.3642051 40.8065641,31.370359 41.8404103,31.7939487 C42.5388718,32.0790769 43.0486154,32.4842051 43.3819487,32.9980513 L36.4875897,32.9980513 L36.4875897,33.8124103 L43.7306667,33.8124103 C43.7942564,34.0677949 43.8322051,34.3365128 43.8322051,34.6298462 C43.8322051,35.6411282 43.529641,36.4318974 42.9316923,36.9806154 C41.758359,38.0534359 39.8075897,37.8965128 39.7522051,37.8924103 L36.4875897,37.8924103 L36.4875897,38.8862564 L42.7368205,44.7190769 L43.2947692,44.1211282 L37.4927179,38.7088205 L39.7142564,38.7067692 C39.8086154,38.716 42.0373333,38.9036923 43.4793846,37.5857436 C44.2547692,36.876 44.6475897,35.8821538 44.6475897,34.6298462 C44.6475897,34.3365128 44.6137436,34.0677949 44.5634872,33.8124103 L46.2793846,33.8124103 L46.2793846,32.9980513 L44.3111795,32.9980513 C43.9809231,32.2708718 43.4352821,31.7406154 42.8106667,31.3642051 L46.2793846,31.3642051 L46.2793846,30.5488205 L36.4875897,30.5488205 Z" id="Fill-17" fill="#332E48"></path>
                        <path d="M36.4875897,30.5488205 L36.4875897,31.3642051 L39.7532308,31.3642051 C39.7624615,31.3642051 40.8065641,31.370359 41.8404103,31.7939487 C42.5388718,32.0790769 43.0486154,32.4842051 43.3819487,32.9980513 L36.4875897,32.9980513 L36.4875897,33.8124103 L43.7306667,33.8124103 C43.7942564,34.0677949 43.8322051,34.3365128 43.8322051,34.6298462 C43.8322051,35.6411282 43.529641,36.4318974 42.9316923,36.9806154 C41.758359,38.0534359 39.8075897,37.8965128 39.7522051,37.8924103 L36.4875897,37.8924103 L36.4875897,38.8862564 L42.7368205,44.7190769 L43.2947692,44.1211282 L37.4927179,38.7088205 L39.7142564,38.7067692 C39.8086154,38.716 42.0373333,38.9036923 43.4793846,37.5857436 C44.2547692,36.876 44.6475897,35.8821538 44.6475897,34.6298462 C44.6475897,34.3365128 44.6137436,34.0677949 44.5634872,33.8124103 L46.2793846,33.8124103 L46.2793846,32.9980513 L44.3111795,32.9980513 C43.9809231,32.2708718 43.4352821,31.7406154 42.8106667,31.3642051 L46.2793846,31.3642051 L46.2793846,30.5488205 L36.4875897,30.5488205 Z" id="Stroke-19" stroke="#332E48" stroke-width="0.4" stroke-linecap="round" stroke-linejoin="round"></path>
                        <path d="M52.9809231,36.7246154 C52.9809231,43.6015385 47.4065641,49.1758974 40.529641,49.1758974 C33.6537436,49.1758974 28.0804103,43.6015385 28.0804103,36.7246154 C28.0804103,29.8487179 33.6537436,24.274359 40.529641,24.274359 C47.4065641,24.274359 52.9809231,29.8487179 52.9809231,36.7246154 Z" id="Stroke-21" stroke="#332E48" stroke-linecap="round" stroke-linejoin="round"></path>
                        <path d="M53.5098462,55.9273846 C49.8072821,58.4350769 45.3395897,59.8996923 40.530359,59.8996923 C27.730359,59.8996923 17.3549744,49.5243077 17.3549744,36.7243077" id="Stroke-23" stroke="#424242" stroke-linecap="round" stroke-linejoin="round"></path>
                        <polygon id="Fill-25" fill="#424242" points="55.6933333 54.2516923 51.6379487 55.2988718 53.3210256 56.0188718 53.5312821 57.838359"></polygon>
                        <path d="M26.2001026,18.5095385 C30.1447179,15.4038974 35.1201026,13.5495385 40.530359,13.5495385 C53.3293333,13.5495385 63.7047179,23.9259487 63.7047179,36.7249231" id="Stroke-27" stroke="#424242" stroke-linecap="round" stroke-linejoin="round"></path>
                        <polygon id="Fill-29" fill="#424242" points="24.1427692 20.3374359 28.1150769 19.0071795 26.3837949 18.4071795 26.046359 16.6061538"></polygon>
                        <path d="M3.3385641,37.3126154 C3.45446154,37.3392821 3.5734359,37.2254359 3.57753846,37.0849231 C3.60420513,36.9690256 3.49035897,36.8490256 3.34984615,36.8459487 L2.60112821,36.8264615 C2.48523077,36.7997949 2.36625641,36.913641 2.36215385,37.0541538 C2.36112821,37.1013333 2.38266667,37.1710769 2.42779487,37.2192821 C2.47394872,37.2674872 2.54369231,37.2921026 2.59087179,37.2941538 L3.3385641,37.3126154 Z" id="Fill-31" fill="#FFCEB6"></path>
                        <path d="M0.975794872,37.2765128 C1.09169231,37.3021538 1.18912821,37.1657436 1.21579487,37.0488205 C1.24246154,36.9318974 1.12758974,36.8129231 0.988102564,36.8088205 L0.239384615,36.7893333 C0.123487179,36.7636923 0.00348717949,36.8775385 0.00041025641,37.0180513 C-0.000615384615,37.0642051 0.0198974359,37.1349744 0.0660512821,37.1831795 C0.111179487,37.2313846 0.181948718,37.256 0.228102564,37.2570256 L0.975794872,37.2765128 Z" id="Fill-33" fill="#FFCEB6"></path>
                        <path d="M1.732,38.84 C1.84789744,38.865641 1.96789744,38.7517949 1.97097436,38.6112821 L1.99046154,37.8635897 C2.01712821,37.7476923 1.87969231,37.6502564 1.76276923,37.6235897 C1.64687179,37.5979487 1.52687179,37.7107692 1.52276923,37.8512821 L1.50328205,38.6 C1.50225641,38.6471795 1.52482051,38.7179487 1.56994872,38.7661538 C1.61610256,38.814359 1.68482051,38.8389744 1.732,38.84" id="Fill-35" fill="#FFCEB6"></path>
                        <path d="M1.79210256,36.4552821 C1.908,36.4809231 2.028,36.3670769 2.03210256,36.2265641 L2.05158974,35.4788718 C2.07723077,35.3629744 1.96338462,35.2419487 1.82287179,35.2388718 C1.70697436,35.2132308 1.58697436,35.3260513 1.58389744,35.4665641 L1.56441026,36.2152821 C1.56338462,36.2624615 1.58492308,36.3332308 1.63107692,36.3814359 C1.67620513,36.429641 1.72235897,36.4768205 1.79210256,36.4552821" id="Fill-37" fill="#FFCEB6"></path>
                        <path d="M77.129641,17.6201026 C77.2455385,17.6457436 77.3655385,17.5329231 77.3686154,17.3924103 C77.3963077,17.2754872 77.2814359,17.1565128 77.1419487,17.1524103 L76.3932308,17.1329231 C76.2773333,17.1072821 76.1573333,17.2211282 76.1542564,17.361641 C76.1522051,17.4077949 76.1737436,17.4785641 76.2188718,17.5267692 C76.2650256,17.5749744 76.3347692,17.5995897 76.3819487,17.6006154 L77.129641,17.6201026 Z" id="Fill-39" fill="#FFCEB6"></path>
                        <path d="M74.7677949,17.584 C74.8836923,17.609641 74.9811282,17.4722051 75.0067692,17.3552821 C75.0334359,17.2393846 74.9195897,17.1193846 74.7801026,17.1163077 L74.0313846,17.0968205 C73.9154872,17.0711795 73.7954872,17.184 73.7913846,17.3245128 C73.790359,17.3716923 73.8118974,17.4424615 73.8570256,17.4906667 C73.9031795,17.5378462 73.9729231,17.5634872 74.0201026,17.5645128 L74.7677949,17.584 Z" id="Fill-41" fill="#FFCEB6"></path>
                        <path d="M75.5229744,19.1465641 C75.6398974,19.1732308 75.7588718,19.0593846 75.7629744,18.9188718 L75.7824615,18.1711795 C75.8081026,18.0552821 75.6706667,17.9578462 75.5537436,17.9311795 C75.4378462,17.9045128 75.3178462,18.018359 75.3147692,18.1588718 L75.2952821,18.9075897 C75.2942564,18.9547692 75.3157949,19.0245128 75.3619487,19.0727179 C75.4070769,19.1209231 75.4768205,19.1455385 75.5229744,19.1465641" id="Fill-43" fill="#FFCEB6"></path>
                        <path d="M75.5841026,16.7617436 C75.7,16.7884103 75.82,16.6745641 75.8230769,16.5340513 L75.8425641,15.786359 C75.8682051,15.6704615 75.7553846,15.5494359 75.6148718,15.546359 C75.4979487,15.5196923 75.3789744,15.6335385 75.3748718,15.7740513 L75.3553846,16.5227692 C75.354359,16.5699487 75.3769231,16.6396923 75.4220513,16.6878974 C75.4682051,16.7361026 75.5133333,16.7832821 75.5841026,16.7617436" id="Fill-45" fill="#FFCEB6"></path>
                        <path d="M18.4737436,22.1253333 C18.5906667,22.152 18.709641,22.0381538 18.7137436,21.897641 C18.7404103,21.7817436 18.6255385,21.6617436 18.4860513,21.657641 L17.7373333,21.6381538 C17.6214359,21.6125128 17.5024615,21.726359 17.498359,21.8668718 C17.4973333,21.9140513 17.5178462,21.9837949 17.564,22.032 C17.6091282,22.0802051 17.6798974,22.1048205 17.7260513,22.1058462 L18.4737436,22.1253333 Z" id="Fill-47" fill="#FFFFFF"></path>
                        <path d="M16.112,22.0892308 C16.2278974,22.1148718 16.3253333,21.9774359 16.352,21.8605128 C16.3786667,21.7446154 16.2637949,21.625641 16.1243077,21.6215385 L15.3755897,21.6020513 C15.2596923,21.5764103 15.1396923,21.6902564 15.1366154,21.8307692 C15.1355897,21.8769231 15.1561026,21.9476923 15.2022564,21.9958974 C15.2473846,22.0441026 15.3181538,22.0687179 15.3643077,22.0697436 L16.112,22.0892308 Z" id="Fill-49" fill="#FFFFFF"></path>
                        <path d="M16.8682051,23.6527179 C16.9841026,23.678359 17.1041026,23.5645128 17.1071795,23.424 L17.1266667,22.6763077 C17.1523077,22.5604103 17.0158974,22.4629744 16.8989744,22.4363077 C16.7820513,22.409641 16.6630769,22.5234872 16.6589744,22.664 L16.6394872,23.4127179 C16.6384615,23.4598974 16.6610256,23.5306667 16.7061538,23.5778462 C16.7523077,23.6260513 16.8210256,23.6506667 16.8682051,23.6527179" id="Fill-51" fill="#FFFFFF"></path>
                        <path d="M16.9283077,21.2678974 C17.0442051,21.2935385 17.1642051,21.1796923 17.1683077,21.0391795 L17.1867692,20.2914872 C17.2134359,20.1755897 17.0995897,20.0545641 16.9590769,20.0514872 C16.8431795,20.0248205 16.7231795,20.1386667 16.7201026,20.2791795 L16.7006154,21.0278974 C16.6985641,21.0750769 16.7211282,21.1458462 16.7672821,21.1930256 C16.8124103,21.2412308 16.8585641,21.2894359 16.9283077,21.2678974" id="Fill-53" fill="#FFFFFF"></path>
                        <path d="M17.2627692,2.87148718 C17.0843077,2.84379487 16.9161026,3.02738462 16.9253333,3.23969231 C16.9284103,3.31046154 16.9684103,3.41507692 17.0412308,3.48276923 C17.1150769,3.55046154 17.2227692,3.58020513 17.2935385,3.57712821 L18.4248205,3.52994872 C18.6032821,3.55661538 18.7725128,3.372 18.7632821,3.16071795 C18.7909744,2.98225641 18.606359,2.81302564 18.3950769,2.82225641 L17.2627692,2.87148718 Z" id="Fill-55" fill="#FFCEB6"></path>
                        <path d="M13.6580513,3.02676923 C13.4795897,2.99907692 13.310359,3.18266667 13.3195897,3.39497436 C13.3226667,3.46574359 13.3626667,3.57035897 13.4354872,3.63805128 C13.5093333,3.70574359 13.6170256,3.73548718 13.6877949,3.73241026 L14.8190769,3.68523077 C14.9975385,3.71189744 15.1667692,3.52728205 15.1575385,3.316 C15.1852308,3.13753846 15.001641,2.96830769 14.7893333,2.97753846 L13.6580513,3.02676923 Z" id="Fill-57" fill="#FFCEB6"></path>
                        <path d="M16.0788718,4.16153846 C15.9004103,4.13384615 15.7311795,4.3174359 15.7414359,4.52974359 L15.789641,5.66102564 C15.7927179,5.73179487 15.8327179,5.83641026 15.9065641,5.90410256 C15.9793846,5.97282051 16.0881026,6.0025641 16.1578462,5.99948718 C16.3363077,6.02717949 16.5055385,5.84358974 16.4963077,5.63128205 L16.4470769,4.5 C16.4388718,4.28769231 16.2911795,4.15230769 16.0788718,4.16153846" id="Fill-59" fill="#FFCEB6"></path>
                        <path d="M15.9236923,0.555794872 C15.7452308,0.528102564 15.576,0.712717949 15.5862564,0.924 L15.6344615,2.05630769 C15.6375385,2.12605128 15.6775385,2.23169231 15.7513846,2.29835897 C15.8242051,2.36707692 15.9329231,2.39682051 16.0026667,2.39374359 C16.1811282,2.4214359 16.350359,2.23784615 16.3411282,2.02553846 L16.2918974,0.89425641 C16.2836923,0.681948718 16.136,0.546564103 15.9236923,0.555794872" id="Fill-61" fill="#FFCEB6"></path>
                        <g id="Group-65" transform="translate(76.923077, 55.384615)">
                            <mask id="mask-4" fill="white">
                                <use xlink:href="#path-3"></use>
                            </mask>
                            <g id="Clip-64"></g>
                            <path d="M0.939692308,0.867282051 C0.761230769,0.839589744 0.592,1.02317949 0.601230769,1.23548718 C0.604307692,1.30728205 0.644307692,1.41087179 0.718153846,1.47958974 C0.792,1.54625641 0.899692308,1.57702564 0.970461538,1.57394872 L2.10174359,1.52574359 C2.28020513,1.5534359 2.4494359,1.36882051 2.44020513,1.15651282 C2.46687179,0.978051282 2.28328205,0.808820513 2.072,0.818051282 L0.939692308,0.867282051 Z" id="Fill-63" fill="#FFCEB6" mask="url(#mask-4)"></path>
                        </g>
                        <path d="M74.2570256,56.4071795 C74.0785641,56.3794872 73.9093333,56.5630769 73.9195897,56.7753846 C73.9226667,56.8471795 73.9626667,56.9507692 74.0354872,57.0194872 C74.1093333,57.0861538 74.2170256,57.1169231 74.2877949,57.1138462 L75.4190769,57.065641 C75.5975385,57.0933333 75.7667692,56.9087179 75.7575385,56.6964103 C75.7852308,56.5179487 75.6006154,56.3487179 75.3893333,56.3579487 L74.2570256,56.4071795 Z" id="Fill-66" fill="#FFCEB6"></path>
                        <path d="M76.6788718,57.5419487 C76.5004103,57.5152821 76.3311795,57.6988718 76.3404103,57.9111795 L76.389641,59.0424615 C76.3927179,59.1132308 76.4327179,59.2178462 76.5065641,59.2845128 C76.5793846,59.3532308 76.6881026,59.384 76.7578462,59.3809231 C76.9363077,59.4075897 77.1055385,59.224 77.0963077,59.0127179 L77.0470769,57.8804103 C77.0388718,57.6681026 76.8911795,57.5327179 76.6788718,57.5419487" id="Fill-68" fill="#FFCEB6"></path>
                        <path d="M76.5235897,53.9372308 C76.3451282,53.9095385 76.1758974,54.0931282 76.1851282,54.3054359 L76.234359,55.4367179 C76.2374359,55.5074872 76.2774359,55.6121026 76.3512821,55.6797949 C76.4241026,55.7474872 76.5328205,55.7782564 76.6025641,55.7751795 C76.7810256,55.8028718 76.9502564,55.6182564 76.9410256,55.4069744 L76.8917949,54.2746667 C76.8835897,54.0633846 76.7358974,53.928 76.5235897,53.9372308" id="Fill-70" fill="#FFCEB6"></path>
                        <path d="M65.1794872,48.3613333 C65.0010256,48.333641 64.8317949,48.5172308 64.8420513,48.7295385 C64.8451282,48.8013333 64.8851282,48.9049231 64.9579487,48.973641 C65.0317949,49.0403077 65.1394872,49.0710769 65.2102564,49.068 L66.3415385,49.0197949 C66.52,49.0474872 66.6892308,48.8628718 66.68,48.6505641 C66.7076923,48.4721026 66.5230769,48.3028718 66.3117949,48.3121026 L65.1794872,48.3613333 Z" id="Fill-72" fill="#FFFFFF"></path>
                        <path d="M61.5746667,48.5165128 C61.3962051,48.4888205 61.2269744,48.6724103 61.2362051,48.8847179 C61.2392821,48.9565128 61.2792821,49.0601026 61.3521026,49.1288205 C61.4259487,49.1954872 61.533641,49.2262564 61.6044103,49.2231795 L62.7356923,49.1749744 C62.9141538,49.2026667 63.0833846,49.0180513 63.0741538,48.8057436 C63.1018462,48.6272821 62.9182564,48.4580513 62.7059487,48.4672821 L61.5746667,48.5165128 Z" id="Fill-74" fill="#FFFFFF"></path>
                        <path d="M63.9955897,49.6513846 C63.8171282,49.6247179 63.6478974,49.8083077 63.6581538,50.0206154 L63.706359,51.1518974 C63.7094359,51.2226667 63.7494359,51.3272821 63.8232821,51.3939487 C63.8961026,51.4626667 64.0048205,51.4934359 64.0745641,51.490359 C64.2530256,51.5170256 64.4222564,51.3334359 64.4130256,51.1221538 L64.3637949,49.9898462 C64.3555897,49.7775385 64.2078974,49.6421538 63.9955897,49.6513846" id="Fill-76" fill="#FFFFFF"></path>
                        <path d="M63.8403077,46.0465641 C63.6618462,46.0188718 63.4926154,46.2024615 63.5028718,46.4147692 L63.5510769,47.5460513 C63.5541538,47.6168205 63.5941538,47.7214359 63.668,47.7891282 C63.7408205,47.8568205 63.8495385,47.8875897 63.9192821,47.8845128 C64.0977436,47.9122051 64.2669744,47.7275897 64.2577436,47.5163077 L64.2085128,46.384 C64.2003077,46.1727179 64.0526154,46.0363077 63.8403077,46.0465641" id="Fill-78" fill="#FFFFFF"></path>
                    </g>
                </g>
            </g>
        </g>
    </g>
</svg>