<?xml version="1.0" encoding="UTF-8" standalone="no"?>
<svg width="26px" height="17px" viewBox="0 0 26 17" version="1.1" xmlns="http://www.w3.org/2000/svg" xmlns:xlink="http://www.w3.org/1999/xlink">
    <!-- Generator: Sketch 49.2 (51160) - http://www.bohemiancoding.com/sketch -->
    <title>Group 3</title>
    <desc>Created with Sketch.</desc>
    <defs>
        <polygon id="path-1" points="0 16.6039956 25.4023075 16.6039956 25.4023075 0 0 0"></polygon>
    </defs>
    <g id="Services" stroke="none" stroke-width="1" fill="none" fill-rule="evenodd" opacity="0.6">
        <g id="Guarantor" transform="translate(-1260.000000, -1408.000000)">
            <g id="Group-19" transform="translate(0.000000, 1014.000000)">
                <g id="Group-17">
                    <g id="Group-16">
                        <g id="Group-14">
                            <g id="Group-2" transform="translate(153.000000, 63.000000)">
                                <g id="fine-print" transform="translate(186.000000, 327.000000)">
                                    <g id="social" transform="translate(709.000000, 0.000000)">
                                        <g id="Group-12">
                                            <g id="Group-3" transform="translate(209.145139, 0.000000)">
                                                <g id="g+" transform="translate(3.212316, 4.087137)">
                                                    <mask id="mask-2" fill="white">
                                                        <use xlink:href="#path-1"></use>
                                                    </mask>
                                                    <g id="Clip-2"></g>
                                                    <path d="M22.6064561,6.82243384 L22.6064561,3.94550391 L20.6094193,3.94550391 L20.6094193,6.82243384 L17.7336864,6.82243384 L17.7336864,8.8773838 L20.6094193,8.8773838 L20.6094193,11.8365117 L22.6064561,11.8365117 L22.6064561,8.8773838 L25.4023075,8.8773838 L25.4023075,6.82243384 L22.6064561,6.82243384 Z M8.06802849,6.65803785 L8.06802849,9.94595777 C8.06802849,9.94595777 11.1677491,9.94168348 12.4298763,9.94168348 C11.7464104,12.0731598 10.6836673,13.2338777 8.06802849,13.2338777 C5.42099621,13.2338777 3.35502175,11.0257929 3.35502175,8.30199781 C3.35502175,5.57820275 5.42099621,3.37011792 8.06802849,3.37011792 C9.46755185,3.37011792 10.3714107,3.8762932 11.2005005,4.58179861 C11.8641557,3.89889765 11.808718,3.80157522 13.4971726,2.16082097 C12.0638594,0.818363269 10.1588461,0 8.06802849,0 C3.6121602,0 0,3.71691128 0,8.30199781 C0,12.8870021 3.6121602,16.6039956 8.06802849,16.6039956 C14.7283058,16.6039956 16.3562103,10.636421 15.8165311,6.65803785 L8.06802849,6.65803785 L8.06802849,6.65803785 Z" id="Fill-1" fill="#303944" mask="url(#mask-2)"></path>
                                                </g>
                                            </g>
                                        </g>
                                    </g>
                                </g>
                            </g>
                        </g>
                    </g>
                </g>
            </g>
        </g>
    </g>
</svg>