<?xml version="1.0" encoding="UTF-8" standalone="no"?>
<svg width="79px" height="68px" viewBox="0 0 79 68" version="1.1" xmlns="http://www.w3.org/2000/svg" xmlns:xlink="http://www.w3.org/1999/xlink">
    <!-- Generator: Sketch 49 (51002) - http://www.bohemiancoding.com/sketch -->
    <title>Group 33</title>
    <desc>Created with Sketch.</desc>
    <defs></defs>
    <g id="Page-1" stroke="none" stroke-width="1" fill="none" fill-rule="evenodd">
        <g id="Book_accommodaton_1-Copy-2" transform="translate(-932.000000, -313.000000)">
            <g id="Group-5" transform="translate(425.000000, 306.000000)">
                <g id="Page-1">
                    <g id="Group-33" transform="translate(507.000000, 0.000000)">
                        <rect id="Rectangle-3-Copy-3" x="0" y="0" width="80" height="80"></rect>
                        <g id="Group-28" transform="translate(0.000000, 8.000000)">
                            <path d="M73.5249,33.5381 C73.5249,51.9301 58.6159,66.8391 40.2239,66.8391 C21.8329,66.8391 6.9219,51.9301 6.9219,33.5381 C6.9219,15.1461 21.8329,0.2371 40.2239,0.2371 C58.6159,0.2371 73.5249,15.1461 73.5249,33.5381" id="Fill-36" fill="#E4E5E5"></path>
                            <path d="M2.0044,33.3604 L2.0044,35.8024" id="Stroke-38" stroke="#BDC0C0" stroke-linecap="round" stroke-linejoin="round"></path>
                            <path d="M0.7827,34.582 L3.2257,34.582" id="Stroke-40" stroke="#BDC0C0" stroke-linecap="round" stroke-linejoin="round"></path>
                            <path d="M17.2192,18.9238 L17.2192,21.3658" id="Stroke-42" stroke="#FFFFFF" stroke-linecap="round" stroke-linejoin="round"></path>
                            <path d="M15.9976,20.1455 L18.4396,20.1455" id="Stroke-44" stroke="#FFFFFF" stroke-linecap="round" stroke-linejoin="round"></path>
                            <path d="M53.7583,8.6983 L53.7583,12.7653" id="Stroke-46" stroke="#FFFFFF" stroke-linecap="round" stroke-linejoin="round"></path>
                            <path d="M51.7251,10.7315 L55.7911,10.7315" id="Stroke-48" stroke="#FFFFFF" stroke-linecap="round" stroke-linejoin="round"></path>
                            <path d="M15.9976,0.2256 L15.9976,4.2916" id="Stroke-50" stroke="#BDC0C0" stroke-linecap="round" stroke-linejoin="round"></path>
                            <path d="M13.9644,2.2588 L18.0304,2.2588" id="Stroke-52" stroke="#BDC0C0" stroke-linecap="round" stroke-linejoin="round"></path>
                            <path d="M74.688,14.5313 L74.688,16.9733" id="Stroke-54" stroke="#BDC0C0" stroke-linecap="round" stroke-linejoin="round"></path>
                            <path d="M73.4663,15.752 L75.9093,15.752" id="Stroke-56" stroke="#BDC0C0" stroke-linecap="round" stroke-linejoin="round"></path>
                            <path d="M76.4409,52.0479 L76.4409,56.1149" id="Stroke-58" stroke="#BDC0C0" stroke-linecap="round" stroke-linejoin="round"></path>
                            <path d="M74.4077,54.082 L78.4737,54.082" id="Stroke-60" stroke="#BDC0C0" stroke-linecap="round" stroke-linejoin="round"></path>
                            <polyline id="Fill-62" fill="#FFFFFF" points="26.4858 42.4834 26.4858 24.3294 40.8698 24.3294 40.8698 42.4834"></polyline>
                            <polyline id="Fill-64" fill="#BDC0C0" points="44.9937 50.6973 44.9937 36.4923 55.7697 36.4923 55.7697 50.6973"></polyline>
                            <path d="M33.3267,21.7461 C36.2977,21.7461 38.7147,19.3291 38.7147,16.3581 C38.7147,13.3871 36.2977,10.9701 33.3267,10.9701 C30.3547,10.9701 27.9377,13.3871 27.9377,16.3581 C27.9377,19.3291 30.3547,21.7461 33.3267,21.7461" id="Fill-66" fill="#FFFFFF"></path>
                            <path d="M50.3813,33.9092 C53.3533,33.9092 55.7703,31.4922 55.7703,28.5202 C55.7703,25.5492 53.3533,23.1322 50.3813,23.1322 C47.4103,23.1322 44.9933,25.5492 44.9933,28.5202 C44.9933,31.4922 47.4103,33.9092 50.3813,33.9092" id="Fill-68" fill="#FFFFFF"></path>
                            <path d="M33.3267,21.7461 C36.2977,21.7461 38.7147,19.3291 38.7147,16.3581 C38.7147,13.3871 36.2977,10.9701 33.3267,10.9701 C30.3547,10.9701 27.9377,13.3871 27.9377,16.3581 C27.9377,19.3291 30.3547,21.7461 33.3267,21.7461 Z" id="Stroke-70" stroke="#545A5B" stroke-linecap="round" stroke-linejoin="round"></path>
                            <path d="M50.3813,33.9092 C53.3533,33.9092 55.7703,31.4922 55.7703,28.5202 C55.7703,25.5492 53.3533,23.1322 50.3813,23.1322 C47.4103,23.1322 44.9933,25.5492 44.9933,28.5202 C44.9933,31.4922 47.4103,33.9092 50.3813,33.9092 Z" id="Stroke-72" stroke="#545A5B" stroke-linecap="round" stroke-linejoin="round"></path>
                            <polyline id="Stroke-74" stroke="#545A5B" stroke-linecap="round" stroke-linejoin="round" points="26.4858 42.4834 26.4858 24.3294 40.8698 24.3294 40.8698 42.4834"></polyline>
                            <polyline id="Stroke-76" stroke="#545A5B" stroke-linecap="round" stroke-linejoin="round" points="44.9937 50.6973 44.9937 36.4923 55.7697 36.4923 55.7697 50.6973"></polyline>
                            <path d="M29.4468,41.2002 L29.4468,59.7472" id="Stroke-78" stroke="#545A5B" stroke-linecap="round" stroke-linejoin="round"></path>
                            <path d="M37.6978,41.2002 L37.6978,59.7472" id="Stroke-80" stroke="#545A5B" stroke-linecap="round" stroke-linejoin="round"></path>
                            <path d="M47,50 L47,60.625" id="Stroke-82" stroke="#545A5B" stroke-linecap="round" stroke-linejoin="round"></path>
                            <path d="M54,50 L54,60.625" id="Stroke-82-Copy" stroke="#545A5B" stroke-linecap="round" stroke-linejoin="round"></path>
                        </g>
                    </g>
                </g>
            </g>
        </g>
    </g>
</svg>