<?xml version="1.0" encoding="UTF-8" standalone="no"?>
<svg width="80px" height="67px" viewBox="0 0 80 67" version="1.1" xmlns="http://www.w3.org/2000/svg" xmlns:xlink="http://www.w3.org/1999/xlink">
    <!-- Generator: Sketch 49.2 (51160) - http://www.bohemiancoding.com/sketch -->
    <title>Page 1</title>
    <desc>Created with Sketch.</desc>
    <defs>
        <polygon id="path-1" points="0.212512821 0.408307692 68.5232821 0.408307692 68.5232821 62.76 0.212512821 62.76"></polygon>
        <polygon id="path-3" points="0 0.888269487 1.21922638 0.888269487 1.21922638 1.91391051 0 1.91391051"></polygon>
        <polygon id="path-5" points="0.601279953 0.817690209 2.44205128 0.817690209 2.44205128 1.84333123 0.601279953 1.84333123"></polygon>
    </defs>
    <g id="Home" stroke="none" stroke-width="1" fill="none" fill-rule="evenodd">
        <g id="Home-Copy" transform="translate(-782.000000, -3103.000000)">
            <g id="Group-70" transform="translate(207.000000, 2955.000000)">
                <g id="Page-1" transform="translate(575.000000, 147.000000)">
                    <g id="Group-3" transform="translate(6.153846, 3.937744)">
                        <mask id="mask-2" fill="white">
                            <use xlink:href="#path-1"></use>
                        </mask>
                        <g id="Clip-2"></g>
                        <path d="M68.5232821,34.5631795 C68.5232821,53.4267692 53.2309744,68.7180513 34.3673846,68.7180513 C15.5048205,68.7180513 0.212512821,53.4267692 0.212512821,34.5631795 C0.212512821,15.6995897 15.5048205,0.408307692 34.3673846,0.408307692 C53.2309744,0.408307692 68.5232821,15.6995897 68.5232821,34.5631795" id="Fill-1" fill="#9E92B1" mask="url(#mask-2)"></path>
                    </g>
                    <path d="M17.7589744,66.6970256 L60.3046154,66.6970256" id="Stroke-4" stroke="#332E48" stroke-linecap="round" stroke-linejoin="round"></path>
                    <polyline id="Fill-5" fill="#FFCEB6" points="25.4062564 47.6746667 25.4062564 29.0562051 40.1590769 29.0562051 40.1590769 47.6746667"></polyline>
                    <polyline id="Fill-6" fill="#B4F1E3" points="44.3886154 56.0990769 44.3886154 41.5308718 55.4409231 41.5308718 55.4409231 56.0990769"></polyline>
                    <g id="Group-77" transform="translate(0.000000, 0.860821)">
                        <path d="M32.4214359,25.5448205 C35.4686154,25.5448205 37.9486154,23.0658462 37.9486154,20.0186667 C37.9486154,16.9714872 35.469641,14.4925128 32.4214359,14.4925128 C29.3742564,14.4925128 26.8952821,16.9714872 26.8952821,20.0186667 C26.8952821,23.0658462 29.3742564,25.5448205 32.4214359,25.5448205" id="Fill-7" fill="#FFFFFF"></path>
                        <path d="M49.9144615,38.0207179 C52.9626667,38.0207179 55.441641,35.5407179 55.441641,32.4935385 C55.441641,29.446359 52.9626667,26.9673846 49.9144615,26.9673846 C46.8672821,26.9673846 44.3883077,29.446359 44.3883077,32.4935385 C44.3883077,35.5407179 46.8672821,38.0207179 49.9144615,38.0207179" id="Fill-9" fill="#FFFFFF"></path>
                        <path d="M32.4214359,25.5448205 C35.4686154,25.5448205 37.9486154,23.0658462 37.9486154,20.0186667 C37.9486154,16.9714872 35.469641,14.4925128 32.4214359,14.4925128 C29.3742564,14.4925128 26.8952821,16.9714872 26.8952821,20.0186667 C26.8952821,23.0658462 29.3742564,25.5448205 32.4214359,25.5448205 Z" id="Stroke-11" stroke="#332E48" stroke-linecap="round" stroke-linejoin="round"></path>
                        <path d="M49.9144615,38.0207179 C52.9626667,38.0207179 55.441641,35.5407179 55.441641,32.4935385 C55.441641,29.446359 52.9626667,26.9673846 49.9144615,26.9673846 C46.8672821,26.9673846 44.3883077,29.446359 44.3883077,32.4935385 C44.3883077,35.5407179 46.8672821,38.0207179 49.9144615,38.0207179 Z" id="Stroke-13" stroke="#332E48" stroke-linecap="round" stroke-linejoin="round"></path>
                        <polyline id="Stroke-15" stroke="#332E48" stroke-linecap="round" stroke-linejoin="round" points="25.4062564 46.8138462 25.4062564 28.1953846 40.1590769 28.1953846 40.1590769 46.8138462"></polyline>
                        <polyline id="Stroke-17" stroke="#332E48" stroke-linecap="round" stroke-linejoin="round" points="44.3886154 55.2382564 44.3886154 40.6700513 55.4409231 40.6700513 55.4409231 55.2382564"></polyline>
                        <path d="M28.4420513,45.4986667 L28.4420513,65.4566154" id="Stroke-19" stroke="#332E48" stroke-linecap="round" stroke-linejoin="round"></path>
                        <path d="M36.905641,45.4986667 L36.905641,65.4566154" id="Stroke-21" stroke="#332E48" stroke-linecap="round" stroke-linejoin="round"></path>
                        <path d="M46.722359,54.5362051 L46.722359,65.433641" id="Stroke-23" stroke="#332E48" stroke-linecap="round" stroke-linejoin="round"></path>
                        <path d="M53.0334359,54.5362051 L53.0334359,65.433641" id="Stroke-25" stroke="#332E48" stroke-linecap="round" stroke-linejoin="round"></path>
                        <path d="M3.33794872,37.3126154 C3.45384615,37.3392821 3.57384615,37.2254359 3.57794872,37.0849231 C3.60461538,36.9690256 3.48974359,36.8490256 3.35025641,36.8459487 L2.60153846,36.8264615 C2.48564103,36.7997949 2.36564103,36.913641 2.3625641,37.0541538 C2.36153846,37.1013333 2.38205128,37.1710769 2.42820513,37.2192821 C2.47333333,37.2674872 2.54410256,37.2921026 2.59025641,37.2941538 L3.33794872,37.3126154 Z" id="Fill-27" fill="#FFCEB6"></path>
                        <g id="Group-31" transform="translate(0.000000, 35.897436)">
                            <mask id="mask-4" fill="white">
                                <use xlink:href="#path-3"></use>
                            </mask>
                            <g id="Clip-30"></g>
                            <path d="M0.976102564,1.37907692 C1.092,1.40471795 1.1894359,1.26830769 1.21507692,1.15138462 C1.24276923,1.03446154 1.12789744,0.915487179 0.988410256,0.911384615 L0.239692308,0.891897436 C0.123794872,0.86625641 0.00379487179,0.980102564 -0.000307692308,1.12061538 C-0.00133333333,1.16676923 0.0202051282,1.23753846 0.0653333333,1.28574359 C0.111487179,1.33394872 0.181230769,1.3585641 0.228410256,1.35958974 L0.976102564,1.37907692 Z" id="Fill-29" fill="#FFCEB6" mask="url(#mask-4)"></path>
                        </g>
                        <path d="M1.73230769,38.84 C1.84820513,38.865641 1.96717949,38.7517949 1.97128205,38.6112821 L1.99076923,37.8635897 C2.01641026,37.7476923 1.87897436,37.6502564 1.76205128,37.6235897 C1.64615385,37.5979487 1.52717949,37.7107692 1.52307692,37.8512821 L1.50358974,38.6 C1.5025641,38.6471795 1.52410256,38.7179487 1.57025641,38.7661538 C1.61538462,38.814359 1.68512821,38.8389744 1.73230769,38.84" id="Fill-32" fill="#FFCEB6"></path>
                        <path d="M1.79241026,36.4552821 C1.90830769,36.4809231 2.02830769,36.3670769 2.03138462,36.2265641 L2.05087179,35.4788718 C2.07651282,35.3629744 1.96369231,35.2419487 1.82317949,35.2388718 C1.70728205,35.2132308 1.58728205,35.3260513 1.58317949,35.4665641 L1.56369231,36.2152821 C1.56266667,36.2624615 1.58523077,36.3332308 1.63035897,36.3814359 C1.67651282,36.429641 1.72164103,36.4768205 1.79241026,36.4552821" id="Fill-34" fill="#FFCEB6"></path>
                        <path d="M77.1300513,17.6201026 C77.2459487,17.6457436 77.3649231,17.5329231 77.3690256,17.3924103 C77.3956923,17.2754872 77.2818462,17.1565128 77.142359,17.1524103 L76.393641,17.1329231 C76.2767179,17.1072821 76.1577436,17.2211282 76.153641,17.361641 C76.1526154,17.4077949 76.1741538,17.4785641 76.2192821,17.5267692 C76.2654359,17.5749744 76.3351795,17.5995897 76.382359,17.6006154 L77.1300513,17.6201026 Z" id="Fill-36" fill="#FFCEB6"></path>
                        <path d="M74.7671795,17.584 C74.8841026,17.609641 74.9805128,17.4722051 75.0071795,17.3552821 C75.0338462,17.2393846 74.9189744,17.1193846 74.7794872,17.1163077 L74.0307692,17.0968205 C73.9148718,17.0711795 73.7948718,17.184 73.7917949,17.3245128 C73.7907692,17.3716923 73.8112821,17.4424615 73.8574359,17.4906667 C73.9025641,17.5378462 73.9733333,17.5634872 74.0194872,17.5645128 L74.7671795,17.584 Z" id="Fill-38" fill="#FFCEB6"></path>
                        <path d="M75.5233846,19.1465641 C75.6392821,19.1732308 75.7592821,19.0593846 75.762359,18.9188718 L75.7818462,18.1711795 C75.8085128,18.0552821 75.6710769,17.9578462 75.5541538,17.9311795 C75.4382564,17.9045128 75.3182564,18.018359 75.3141538,18.1588718 L75.2956923,18.9075897 C75.293641,18.9547692 75.3162051,19.0245128 75.3613333,19.0727179 C75.4074872,19.1209231 75.4762051,19.1455385 75.5233846,19.1465641" id="Fill-40" fill="#FFCEB6"></path>
                        <path d="M75.5834872,16.7617436 C75.6993846,16.7884103 75.8193846,16.6745641 75.8234872,16.5340513 L75.8429744,15.786359 C75.8686154,15.6704615 75.7547692,15.5494359 75.6142564,15.546359 C75.498359,15.5196923 75.378359,15.6335385 75.3752821,15.7740513 L75.3557949,16.5227692 C75.3547692,16.5699487 75.3763077,16.6396923 75.4224615,16.6878974 C75.4675897,16.7361026 75.5137436,16.7832821 75.5834872,16.7617436" id="Fill-42" fill="#FFCEB6"></path>
                        <path d="M18.4741538,22.1253333 C18.5900513,22.152 18.7100513,22.0381538 18.7131282,21.897641 C18.7408205,21.7817436 18.6259487,21.6617436 18.4864615,21.657641 L17.7377436,21.6381538 C17.6218462,21.6125128 17.5018462,21.726359 17.4987692,21.8668718 C17.4967179,21.9140513 17.5182564,21.9837949 17.5633846,22.032 C17.6095385,22.0802051 17.6792821,22.1048205 17.7264615,22.1058462 L18.4741538,22.1253333 Z" id="Fill-44" fill="#FFFFFF"></path>
                        <path d="M16.1123077,22.0892308 C16.2282051,22.1148718 16.325641,21.9774359 16.3512821,21.8605128 C16.3779487,21.7446154 16.2641026,21.625641 16.1246154,21.6215385 L15.3758974,21.6020513 C15.26,21.5764103 15.14,21.6902564 15.1358974,21.8307692 C15.1348718,21.8769231 15.1564103,21.9476923 15.2015385,21.9958974 C15.2476923,22.0441026 15.3174359,22.0687179 15.3646154,22.0697436 L16.1123077,22.0892308 Z" id="Fill-46" fill="#FFFFFF"></path>
                        <path d="M16.8675897,23.6527179 C16.9845128,23.678359 17.1034872,23.5645128 17.1075897,23.424 L17.1270769,22.6763077 C17.1527179,22.5604103 17.0152821,22.4629744 16.898359,22.4363077 C16.7824615,22.409641 16.6624615,22.5234872 16.6593846,22.664 L16.6398974,23.4127179 C16.6388718,23.4598974 16.6604103,23.5306667 16.7065641,23.5778462 C16.7516923,23.6260513 16.8214359,23.6506667 16.8675897,23.6527179" id="Fill-48" fill="#FFFFFF"></path>
                        <path d="M16.9286154,21.2678974 C17.0445128,21.2935385 17.1645128,21.1796923 17.1675897,21.0391795 L17.1870769,20.2914872 C17.2127179,20.1755897 17.0998974,20.0545641 16.9593846,20.0514872 C16.8424615,20.0248205 16.7234872,20.1386667 16.7193846,20.2791795 L16.6998974,21.0278974 C16.6988718,21.0750769 16.7214359,21.1458462 16.7665641,21.1930256 C16.8127179,21.2412308 16.8578462,21.2894359 16.9286154,21.2678974" id="Fill-50" fill="#FFFFFF"></path>
                        <path d="M17.2631795,2.87148718 C17.0847179,2.84379487 16.9154872,3.02738462 16.9247179,3.23969231 C16.9277949,3.31046154 16.9677949,3.41507692 17.041641,3.48276923 C17.1144615,3.55046154 17.2231795,3.58020513 17.2929231,3.57712821 L18.4252308,3.52994872 C18.6036923,3.55661538 18.7729231,3.372 18.7626667,3.16071795 C18.790359,2.98225641 18.6067692,2.81302564 18.3944615,2.82225641 L17.2631795,2.87148718 Z" id="Fill-52" fill="#FFCEB6"></path>
                        <path d="M13.6574359,3.02676923 C13.4789744,2.99907692 13.3097436,3.18266667 13.3189744,3.39497436 C13.3220513,3.46574359 13.3620513,3.57035897 13.4358974,3.63805128 C13.5097436,3.70574359 13.6174359,3.73548718 13.6882051,3.73241026 L14.8194872,3.68523077 C14.9979487,3.71189744 15.1671795,3.52728205 15.1579487,3.316 C15.1846154,3.13753846 15.0010256,2.96830769 14.7887179,2.97753846 L13.6574359,3.02676923 Z" id="Fill-54" fill="#FFCEB6"></path>
                        <path d="M16.0792821,4.16153846 C15.9008205,4.13384615 15.7315897,4.3174359 15.7408205,4.52974359 L15.7900513,5.66102564 C15.7931282,5.73179487 15.8331282,5.83641026 15.9059487,5.90410256 C15.9797949,5.97282051 16.0874872,6.0025641 16.1582564,5.99948718 C16.3367179,6.02717949 16.5059487,5.84358974 16.4967179,5.63128205 L16.4474872,4.5 C16.4392821,4.28769231 16.2915897,4.15230769 16.0792821,4.16153846" id="Fill-56" fill="#FFCEB6"></path>
                        <path d="M15.9241026,0.555794872 C15.745641,0.528102564 15.5764103,0.712717949 15.585641,0.924 L15.6348718,2.05630769 C15.6379487,2.12605128 15.6779487,2.23169231 15.7507692,2.29835897 C15.8246154,2.36707692 15.9323077,2.39682051 16.0030769,2.39374359 C16.1815385,2.4214359 16.3507692,2.23784615 16.3415385,2.02553846 L16.2923077,0.89425641 C16.2841026,0.681948718 16.1364103,0.546564103 15.9241026,0.555794872" id="Fill-58" fill="#FFCEB6"></path>
                        <g id="Group-62" transform="translate(76.923077, 55.384615)">
                            <mask id="mask-6" fill="white">
                                <use xlink:href="#path-5"></use>
                            </mask>
                            <g id="Clip-61"></g>
                            <path d="M0.940102564,0.867282051 C0.761641026,0.839589744 0.592410256,1.02317949 0.601641026,1.23548718 C0.604717949,1.30728205 0.644717949,1.41087179 0.718564103,1.47958974 C0.791384615,1.54625641 0.900102564,1.57702564 0.969846154,1.57394872 L2.10215385,1.52574359 C2.28061538,1.5534359 2.44882051,1.36882051 2.43958974,1.15651282 C2.46728205,0.978051282 2.28369231,0.808820513 2.07138462,0.818051282 L0.940102564,0.867282051 Z" id="Fill-60" fill="#FFCEB6" mask="url(#mask-6)"></path>
                        </g>
                        <path d="M74.2574359,56.4071795 C74.0789744,56.3794872 73.9097436,56.5630769 73.9189744,56.7753846 C73.9220513,56.8471795 73.9620513,56.9507692 74.0358974,57.0194872 C74.1087179,57.0861538 74.2174359,57.1169231 74.2871795,57.1138462 L75.4194872,57.065641 C75.5979487,57.0933333 75.7671795,56.9087179 75.7569231,56.6964103 C75.7846154,56.5179487 75.6010256,56.3487179 75.3887179,56.3579487 L74.2574359,56.4071795 Z" id="Fill-63" fill="#FFCEB6"></path>
                        <path d="M76.6792821,57.5419487 C76.5008205,57.5152821 76.3315897,57.6988718 76.3408205,57.9111795 L76.3900513,59.0424615 C76.3931282,59.1132308 76.4331282,59.2178462 76.5059487,59.2845128 C76.5797949,59.3532308 76.6874872,59.384 76.7582564,59.3809231 C76.9367179,59.4075897 77.1059487,59.224 77.0967179,59.0127179 L77.0474872,57.8804103 C77.0392821,57.6681026 76.8905641,57.5327179 76.6792821,57.5419487" id="Fill-65" fill="#FFCEB6"></path>
                        <path d="M76.524,53.9372308 C76.3455385,53.9095385 76.1763077,54.0931282 76.1855385,54.3054359 L76.2347692,55.4367179 C76.2378462,55.5074872 76.2778462,55.6121026 76.3506667,55.6797949 C76.4245128,55.7474872 76.5322051,55.7782564 76.6029744,55.7751795 C76.7814359,55.8028718 76.9506667,55.6182564 76.9404103,55.4069744 L76.8922051,54.2746667 C76.884,54.0633846 76.7352821,53.928 76.524,53.9372308" id="Fill-67" fill="#FFCEB6"></path>
                        <path d="M65.1798974,48.3613333 C65.0014359,48.333641 64.8322051,48.5172308 64.8414359,48.7295385 C64.8445128,48.8013333 64.8845128,48.9049231 64.958359,48.973641 C65.0311795,49.0403077 65.1398974,49.0710769 65.209641,49.068 L66.3419487,49.0197949 C66.5204103,49.0474872 66.689641,48.8628718 66.6793846,48.6505641 C66.7070769,48.4721026 66.5234872,48.3028718 66.3111795,48.3121026 L65.1798974,48.3613333 Z" id="Fill-69" fill="#FFFFFF"></path>
                        <path d="M61.5740513,48.5165128 C61.3955897,48.4888205 61.226359,48.6724103 61.2355897,48.8847179 C61.2386667,48.9565128 61.2786667,49.0601026 61.3525128,49.1288205 C61.426359,49.1954872 61.5340513,49.2262564 61.6048205,49.2231795 L62.7361026,49.1749744 C62.9145641,49.2026667 63.0837949,49.0180513 63.0745641,48.8057436 C63.1012308,48.6272821 62.917641,48.4580513 62.7053333,48.4672821 L61.5740513,48.5165128 Z" id="Fill-71" fill="#FFFFFF"></path>
                        <path d="M63.996,49.6513846 C63.8175385,49.6247179 63.6483077,49.8083077 63.6575385,50.0206154 L63.7067692,51.1518974 C63.7098462,51.2226667 63.7498462,51.3272821 63.8226667,51.3939487 C63.8965128,51.4626667 64.0042051,51.4934359 64.0749744,51.490359 C64.2534359,51.5170256 64.4226667,51.3334359 64.4134359,51.1221538 L64.3642051,49.9898462 C64.356,49.7775385 64.2083077,49.6421538 63.996,49.6513846" id="Fill-73" fill="#FFFFFF"></path>
                        <path d="M63.8407179,46.0465641 C63.6622564,46.0188718 63.4930256,46.2024615 63.5022564,46.4147692 L63.5514872,47.5460513 C63.5545641,47.6168205 63.5945641,47.7214359 63.6673846,47.7891282 C63.7412308,47.8568205 63.8489231,47.8875897 63.9196923,47.8845128 C64.0981538,47.9122051 64.2673846,47.7275897 64.2581538,47.5163077 L64.2089231,46.384 C64.2007179,46.1727179 64.0530256,46.0363077 63.8407179,46.0465641" id="Fill-75" fill="#FFFFFF"></path>
                    </g>
                </g>
            </g>
        </g>
    </g>
</svg>