<?xml version="1.0" encoding="UTF-8" standalone="no"?>
<svg width="87px" height="75px" viewBox="0 0 87 75" version="1.1" xmlns="http://www.w3.org/2000/svg" xmlns:xlink="http://www.w3.org/1999/xlink">
    <!-- Generator: Sketch 49 (51002) - http://www.bohemiancoding.com/sketch -->
    <title>Group 18</title>
    <desc>Created with Sketch.</desc>
    <defs>
        <filter x="-8.9%" y="-7.4%" width="117.7%" height="120.6%" filterUnits="objectBoundingBox" id="filter-1">
            <feOffset dx="0" dy="2" in="SourceAlpha" result="shadowOffsetOuter1"></feOffset>
            <feGaussianBlur stdDeviation="2" in="shadowOffsetOuter1" result="shadowBlurOuter1"></feGaussianBlur>
            <feColorMatrix values="0 0 0 0 0   0 0 0 0 0   0 0 0 0 0  0 0 0 0.1 0" type="matrix" in="shadowBlurOuter1" result="shadowMatrixOuter1"></feColorMatrix>
            <feMerge>
                <feMergeNode in="shadowMatrixOuter1"></feMergeNode>
                <feMergeNode in="SourceGraphic"></feMergeNode>
            </feMerge>
        </filter>
        <polygon id="path-2" points="67.2423 67 0.6393 67 0.6393 0.3974 67.2423 0.3974"></polygon>
    </defs>
    <g id="Page-1" stroke="none" stroke-width="1" fill="none" fill-rule="evenodd">
        <g id="Book_accommodaton_1-Copy" transform="translate(-928.000000, -312.000000)">
            <g id="Group-18" transform="translate(931.000000, 307.000000)">
                <g id="Page-1" filter="url(#filter-1)" transform="translate(1.000000, 6.000000)">
                    <g id="Group-3" transform="translate(6.000000, 0.839300)">
                        <mask id="mask-3" fill="white">
                            <use xlink:href="#path-2"></use>
                        </mask>
                        <g id="Clip-2"></g>
                        <path d="M67.2423,33.6994 C67.2423,52.0914 52.3333,67.0004 33.9413,67.0004 C15.5503,67.0004 0.6393,52.0914 0.6393,33.6994 C0.6393,15.3064 15.5503,0.3974 33.9413,0.3974 C52.3333,0.3974 67.2423,15.3064 67.2423,33.6994" id="Fill-1" fill="#FFAD85" mask="url(#mask-3)"></path>
                    </g>
                    <path d="M1.7218,34.3599 L1.7218,36.8029" id="Stroke-4" stroke="#A7D3DB" stroke-linecap="round" stroke-linejoin="round"></path>
                    <path d="M0.5001,35.5816 L2.9431,35.5816" id="Stroke-6" stroke="#C5BED0" stroke-linecap="round" stroke-linejoin="round"></path>
                    <path d="M16.9366,19.9234 L16.9366,22.3664" id="Stroke-8" stroke="#C5BED0" stroke-linecap="round" stroke-linejoin="round"></path>
                    <path d="M15.715,21.1451 L18.157,21.1451" id="Stroke-10" stroke="#FFFFFF" stroke-linecap="round" stroke-linejoin="round"></path>
                    <path d="M53.4757,9.6988 L53.4757,13.7648" id="Stroke-12" stroke="#FFFFFF" stroke-linecap="round" stroke-linejoin="round"></path>
                    <path d="M51.4425,11.732 L55.5085,11.732" id="Stroke-14" stroke="#FFFFFF" stroke-linecap="round" stroke-linejoin="round"></path>
                    <path d="M15.715,1.2252 L15.715,5.2922" id="Stroke-16" stroke="#C5BED0" stroke-linecap="round" stroke-linejoin="round"></path>
                    <path d="M13.6817,3.2584 L17.7477,3.2584" id="Stroke-18" stroke="#C5BED0" stroke-linecap="round" stroke-linejoin="round"></path>
                    <path d="M74.4054,15.5308 L74.4054,17.9738" id="Stroke-20" stroke="#C5BED0" stroke-linecap="round" stroke-linejoin="round"></path>
                    <path d="M73.1837,16.7525 L75.6267,16.7525" id="Stroke-22" stroke="#C5BED0" stroke-linecap="round" stroke-linejoin="round"></path>
                    <path d="M76.1583,53.0484 L76.1583,57.1144" id="Stroke-24" stroke="#C5BED0" stroke-linecap="round" stroke-linejoin="round"></path>
                    <path d="M74.1251,55.0816 L78.1911,55.0816" id="Stroke-26" stroke="#C5BED0" stroke-linecap="round" stroke-linejoin="round"></path>
                    <polyline id="Fill-28" fill="#B4F1E3" points="26.2032 43.483 26.2032 25.33 40.5872 25.33 40.5872 43.483"></polyline>
                    <polyline id="Fill-30" fill="#C5BED0" points="44.711 51.6969 44.711 37.4919 55.487 37.4919 55.487 51.6969"></polyline>
                    <path d="M33.0441,22.7457 C36.0151,22.7457 38.4321,20.3287 38.4321,17.3577 C38.4321,14.3867 36.0151,11.9697 33.0441,11.9697 C30.0721,11.9697 27.6551,14.3867 27.6551,17.3577 C27.6551,20.3287 30.0721,22.7457 33.0441,22.7457" id="Fill-32" fill="#FFFFFF"></path>
                    <path d="M50.0987,34.9097 C53.0707,34.9097 55.4877,32.4917 55.4877,29.5197 C55.4877,26.5497 53.0707,24.1317 50.0987,24.1317 C47.1277,24.1317 44.7107,26.5497 44.7107,29.5197 C44.7107,32.4917 47.1277,34.9097 50.0987,34.9097" id="Fill-34" fill="#FFFFFF"></path>
                    <path d="M33.0441,22.7457 C36.0151,22.7457 38.4321,20.3287 38.4321,17.3577 C38.4321,14.3867 36.0151,11.9697 33.0441,11.9697 C30.0721,11.9697 27.6551,14.3867 27.6551,17.3577 C27.6551,20.3287 30.0721,22.7457 33.0441,22.7457 Z" id="Stroke-36" stroke="#332E48" stroke-linecap="round" stroke-linejoin="round"></path>
                    <path d="M50.0987,34.9097 C53.0707,34.9097 55.4877,32.4917 55.4877,29.5197 C55.4877,26.5497 53.0707,24.1317 50.0987,24.1317 C47.1277,24.1317 44.7107,26.5497 44.7107,29.5197 C44.7107,32.4917 47.1277,34.9097 50.0987,34.9097 Z" id="Stroke-38" stroke="#332E48" stroke-linecap="round" stroke-linejoin="round"></path>
                    <polyline id="Stroke-40" stroke="#332E48" stroke-linecap="round" stroke-linejoin="round" points="26.2032 43.483 26.2032 25.33 40.5872 25.33 40.5872 43.483"></polyline>
                    <polyline id="Stroke-42" stroke="#332E48" stroke-linecap="round" stroke-linejoin="round" points="44.711 51.6969 44.711 37.4919 55.487 37.4919 55.487 51.6969"></polyline>
                    <path d="M29.1642,42.1998 L29.1642,60.7468" id="Stroke-44" stroke="#332E48" stroke-linecap="round" stroke-linejoin="round"></path>
                    <path d="M37.4151,42.1998 L37.4151,60.7468" id="Stroke-46" stroke="#332E48" stroke-linecap="round" stroke-linejoin="round"></path>
                    <path d="M46.9864,51.0113 L46.9864,61.6373" id="Stroke-48" stroke="#332E48" stroke-linecap="round" stroke-linejoin="round"></path>
                    <path d="M53.1398,51.0113 L53.1398,61.6373" id="Stroke-50" stroke="#332E48" stroke-linecap="round" stroke-linejoin="round"></path>
                </g>
                <rect id="Rectangle-3" x="0" y="0" width="80" height="80"></rect>
            </g>
        </g>
    </g>
</svg>