<?xml version="1.0" encoding="UTF-8" standalone="no"?>
<svg width="144px" height="142px" viewBox="0 0 144 142" version="1.1" xmlns="http://www.w3.org/2000/svg" xmlns:xlink="http://www.w3.org/1999/xlink">
    <!-- Generator: Sketch 49 (51002) - http://www.bohemiancoding.com/sketch -->
    <title>Group 18</title>
    <desc>Created with Sketch.</desc>
    <defs></defs>
    <g id="Page-1" stroke="none" stroke-width="1" fill="none" fill-rule="evenodd">
        <g id="Contact--Copy" transform="translate(-842.000000, -489.000000)">
            <g id="Group-18" transform="translate(842.000000, 489.000000)">
                <circle id="Oval-2" fill-opacity="0.15" fill="#FFAD85" cx="72" cy="70" r="70"></circle>
                <g id="noun_204461_cc" transform="translate(0.000000, 53.000000)" fill="#000000" fill-rule="nonzero">
                    <g id="Group">
                        <path d="M45.5424032,0.924879661 C45.3395411,0.960820765 45.1584985,1.07431561 45.0373968,1.2414661 C44.6997611,1.69515763 44.0757845,2.19711356 43.5065974,2.8243678 C43.0887758,3.28481695 42.775475,3.92052203 42.6386183,4.62888305 C42.4029119,4.7742337 42.2594675,5.0320175 42.2598639,5.30954237 L42.2598639,5.6736 L42.0073614,5.9427 C41.7814386,6.16957312 41.7129216,6.5100834 41.8334308,6.80708654 C41.9539401,7.10408967 42.2400459,7.29984156 42.5597114,7.30400339 L43.3645653,7.30400339 L43.3645653,10.4856407 L42.5439297,10.4856407 C42.5176456,10.4843314 42.4913129,10.4843314 42.4650289,10.4856407 C42.0252769,10.5080033 41.6866999,10.8834249 41.7084693,11.3245307 C41.7302388,11.7656364 42.1041256,12.105684 42.5439297,12.0843763 L43.5697242,12.0843763 L44.0905107,13.6831119 C43.6979135,13.7527417 43.417018,14.1026486 43.4329537,14.50222 C43.4488893,14.9017914 43.7567526,15.2280756 44.1536405,15.2660288 L44.6270835,15.2660288 L44.926931,16.1682864 L44.926931,44.7872034 C44.6957735,44.9636949 44.4884231,45.1606271 44.3114544,45.3729661 C43.6693083,46.1431525 43.3487866,47.0739661 43.3487866,47.9372034 L43.3487866,48.1429831 L43.45926,48.3328983 C43.6138162,48.5922203 43.6500607,48.8698475 43.4750462,49.1560169 L43.3488018,49.3460847 L43.3488018,49.5675763 L43.3488018,53.5724237 L41.7706574,53.5724237 L41.7706574,51.9736271 C42.207441,51.968918 42.5590542,51.6124323 42.5590542,51.1743051 C42.5590542,50.7361779 42.207441,50.3796921 41.7706574,50.3749831 L41.7548712,50.3749831 L38.5828022,50.3749831 L38.5828022,46.3701356 L38.5828022,46.1169153 L38.4407715,45.9111356 C38.3111661,45.7235085 38.3004899,45.4173559 38.4723288,45.1195932 L38.5828022,44.929678 L38.5828022,44.7238983 C38.5828022,43.0358644 37.363182,41.3066441 35.4107332,40.8933 L35.4107332,28.0400797 L33.8325887,28.0400797 L33.8325887,30.4461 L29.050812,30.4461 L29.050812,28.0400797 L27.4568874,28.0400797 L27.4568874,30.4461 L21.081186,30.4461 L21.081186,28.0400797 L19.4872599,28.0400797 L19.4872599,30.4461 L14.7212648,30.4461 L14.7212648,28.0084271 L23.8745006,28.0084271 L23.9691877,28.0084271 L37.7937284,28.0084271 C38.1094342,28.0044037 38.3928759,27.813458 38.5160091,27.5218496 C38.6391422,27.2302412 38.5786502,26.8931897 38.3618601,26.6629576 L37.0204379,25.2541678 L37.0204379,22.4365881 C37.0187789,22.2244449 36.9329434,22.0217015 36.7819086,21.8731818 C36.6308738,21.7246622 36.4270802,21.6425997 36.215584,21.6451373 L35.6001089,21.6451373 C35.5596547,20.7513 35.3676191,19.9168932 34.9057252,19.2232983 C34.2861682,18.2929424 33.3884491,17.5545 32.3964765,16.8805831 C30.4125266,15.5327644 27.9785362,14.4185644 26.1470256,13.0024678 C25.8026967,12.7362203 25.4644147,12.4654119 25.0738875,12.2901559 L25.0738875,11.2929254 C25.0780407,11.0633986 24.9834135,10.8432016 24.8141976,10.6886286 C24.6449818,10.5340555 24.41758,10.4600897 24.1901282,10.4856407 C23.7807708,10.5298127 23.472688,10.8800277 23.479963,11.2929254 L23.479963,12.2585034 C23.0205907,12.4537424 22.6914489,12.7889542 22.3910432,13.0341203 C20.6426476,14.4609864 18.2099348,15.5575831 16.2047191,16.8805831 C15.2021112,17.5420831 14.2989172,18.2649203 13.6639069,19.1916305 C13.1890876,19.8845695 12.9800794,20.7394322 12.9379615,21.6451373 L12.3540482,21.6451373 C12.1425519,21.6425997 11.9387584,21.7246622 11.7877236,21.8731818 C11.6366888,22.0217015 11.5508533,22.2244449 11.5491943,22.4365881 L11.5491943,25.2383339 L10.1762087,26.6471237 C9.94839212,26.8760741 9.88095969,27.220344 10.0054874,27.5187256 C10.1300151,27.8171071 10.4218512,28.0105321 10.7443404,28.0084271 L13.1273387,28.0084271 L13.1273387,41.5738983 C12.8961811,41.7503898 12.6888292,41.947322 12.511862,42.159661 C12.4438503,42.2405085 12.3832907,42.3279153 12.3224848,42.4128814 C11.621046,41.4782542 10.4988231,40.7983119 9.07150887,40.7983119 C7.81112433,40.7983119 6.79408377,41.389322 6.15194231,42.159661 C5.50980085,42.9298475 5.18927458,43.860661 5.18927458,44.7238983 L5.18927458,44.9455424 L5.29974792,45.1354576 C5.4543026,45.3947797 5.4747426,45.6565424 5.29974792,45.9427119 L5.18927458,46.1484915 L5.18927458,46.3701356 L5.18927458,50.3591186 L5.18927458,50.3743729 L4.38442069,50.3743729 C4.35813661,50.3730636 4.33180394,50.3730636 4.30551985,50.3743729 C4.01861412,50.3855179 3.75979949,50.5504104 3.62779408,50.8061564 C3.49578867,51.0619023 3.51094858,51.369064 3.66749148,51.6104826 C3.82403437,51.8519012 4.09782028,51.9903483 4.38442069,51.9730169 L5.18927458,51.9730169 L5.18927458,64.0189831 L5.18927458,73.5005593 L5.18927458,74.3079661 L5.18927458,82.2699153 L1.21235169,82.2699153 L0.423279479,82.2699153 L0.423279479,83.0771695 L0.423279479,87.8734068 L0.423279479,88.6647966 L1.21235169,88.6647966 L142.771865,88.6647966 L143.576721,88.6647966 L143.576721,87.8734068 L143.576721,83.0771695 L143.576721,82.2699153 L142.771865,82.2699153 L137.232579,82.2699153 L137.232579,51.9730169 L137.990091,51.9730169 C138.426875,51.9683079 138.778488,51.6118221 138.778488,51.1736949 C138.778488,50.7355677 138.426875,50.379082 137.990091,50.3743729 L137.201022,50.3743729 L137.201022,46.4012542 L137.201022,46.1480339 L137.058976,45.9422542 C136.929401,45.7546271 136.918756,45.448322 137.09061,45.1507119 L137.201022,44.9607966 L137.201022,44.7550169 C137.201022,42.8209322 135.599296,40.8294 133.129402,40.8294 C131.869026,40.8294 130.851984,41.4204407 130.209843,42.1907797 C130.146576,42.2670508 130.093043,42.3494237 130.036239,42.4281356 C129.820601,42.1445593 129.554333,41.8907288 129.262957,41.668322 L129.262957,28.0395 L127.684803,28.0395 L127.684803,30.4455203 L122.903029,30.4455203 L122.903029,28.0395 L121.309105,28.0395 L121.309105,30.4455203 L114.933406,30.4455203 L114.933406,28.0395 L113.339482,28.0395 L113.339482,30.4455203 L108.573479,30.4455203 L108.573479,28.0078475 L117.726721,28.0078475 L117.821469,28.0078475 L131.646011,28.0078475 C131.961718,28.0038264 132.245162,27.8128816 132.368297,27.5212727 C132.491431,27.2296638 132.43094,26.8926108 132.214149,26.662378 L130.872728,25.2535881 L130.872728,22.4360085 C130.871069,22.223865 130.785234,22.0211213 130.634198,21.8726016 C130.483163,21.7240819 130.279369,21.6420196 130.067873,21.6445576 L129.452392,21.6445576 C129.411937,20.7507203 129.219902,19.9163136 128.758009,19.2227186 C128.138452,18.2923627 127.240735,17.5539203 126.248756,16.8800034 C124.264814,15.5321847 121.830827,14.4179847 119.999302,13.0018881 C119.651016,12.7325898 119.317832,12.4645881 118.926172,12.2895763 L118.926172,11.2923458 C118.930325,11.0628195 118.835698,10.8426231 118.666483,10.6880502 C118.497268,10.5334772 118.269867,10.459511 118.042416,10.485061 C117.633057,10.5292315 117.324972,10.8794469 117.332247,11.2923458 L117.332247,12.2579237 C116.875009,12.4541542 116.540882,12.7906932 116.243331,13.0335407 C114.494935,14.4604068 112.06221,15.5570034 110.057006,16.8800034 C109.054397,17.5415034 108.151204,18.2643407 107.516196,19.1910508 C107.041376,19.8839898 106.832368,20.7388525 106.790241,21.6445576 L106.206332,21.6445576 C105.994836,21.6420196 105.791042,21.7240819 105.640007,21.8726016 C105.488972,22.0211213 105.403136,22.223865 105.401477,22.4360085 L105.401477,25.2377542 L104.028499,26.6465441 C103.800684,26.8754932 103.733251,27.2197609 103.857776,27.5181416 C103.982301,27.8165223 104.274134,28.0099486 104.596622,28.0078475 L106.979615,28.0078475 L106.979615,40.908539 C106.043892,41.0824373 105.270381,41.5719153 104.754438,42.1907797 C104.112297,42.9609661 103.807552,43.8917797 103.807552,44.7550169 L103.807552,44.976661 L103.917965,45.1665763 C104.072664,45.4260508 104.093089,45.6873559 103.917965,45.9738305 L103.807552,46.1796102 L103.807552,46.4012542 L103.807552,50.3743729 L102.182071,50.3743729 L102.182071,47.9524576 L102.182071,47.6992373 L102.040025,47.4934576 C101.91045,47.3058305 101.915621,46.999678 102.087323,46.7019153 L102.182071,46.5278644 L102.182071,46.3062203 C102.182071,45.1389661 101.604853,43.9578305 100.603917,43.2038136 L100.603917,16.2626797 L100.935337,15.2654492 L101.408772,15.2654492 C101.693802,15.274409 101.9619,15.13 102.111882,14.8867252 C102.261863,14.6434505 102.270889,14.3383549 102.135553,14.0865882 C102.000217,13.8348214 101.741128,13.6747215 101.45607,13.6667136 L101.992636,12.0837966 L103.002651,12.0837966 C103.442486,12.0833488 103.798805,11.7255908 103.798805,11.2844288 C103.798805,10.8432668 103.442486,10.4855089 103.002651,10.485061 L102.213582,10.485061 L102.213582,7.30342373 L103.002651,7.30342373 C103.333906,7.30645341 103.632339,7.10320628 103.751727,6.79326658 C103.871116,6.48332689 103.786451,6.13161894 103.539217,5.9104678 L103.255155,5.65720169 L103.255155,5.30896271 C103.257084,5.04317582 103.126898,4.79388616 102.907964,4.64413729 C102.759987,3.9169678 102.422834,3.26976102 101.976864,2.80796949 C101.375588,2.18535254 100.724808,1.67906441 100.398711,1.24088644 C100.221389,0.997160772 99.9221391,0.874646045 99.625428,0.9243 C99.4225654,0.960240734 99.2415222,1.07373561 99.1204201,1.24088644 C98.7827799,1.69457797 98.1588109,2.1965339 97.5896192,2.82378814 C97.172009,3.28400847 96.8587037,3.92043051 96.7216401,4.62830339 C96.4859337,4.77365404 96.3424893,5.03143784 96.3428857,5.30896271 L96.3428857,5.67302034 L96.0746,5.94212034 C95.8466824,6.1710361 95.7791868,6.51535935 95.9037329,6.81378423 C96.028279,7.1122091 96.3201977,7.3056257 96.6427332,7.30342373 L97.4475856,7.30342373 L97.4475856,10.485061 L96.6111698,10.485061 C96.5848857,10.4837518 96.5585531,10.4837518 96.532269,10.485061 C96.2472979,10.4988674 95.991359,10.6642318 95.8609964,10.9187764 C95.7306338,11.1733209 95.7456856,11.4783098 95.9004741,11.7186965 C96.0552626,11.9590832 96.3262325,12.0982864 96.6111698,12.0837966 L97.6527445,12.0837966 L98.1735325,13.6825322 C97.7809353,13.752162 97.5000398,14.102069 97.5159755,14.5016404 C97.5319111,14.9012117 97.8397744,15.2274959 98.2366623,15.2654492 L98.7101038,15.2654492 L99.0099513,16.1677068 L99.0099513,29.6382356 L97.4002466,29.6382356 C97.421158,27.9135 96.7804066,26.4795254 95.979916,25.3327271 C95.0422827,23.9894695 93.9154319,22.9384373 93.3128534,22.0402831 C93.1604529,21.8159625 92.904789,21.6847631 92.6342515,21.6920441 C92.3748583,21.6953411 92.1333672,21.8253127 91.9872129,22.0402831 C91.385074,22.9377814 90.2600405,23.9896068 89.3201488,25.3327271 C89.0851755,25.6685186 88.868764,26.0411644 88.6731103,26.4249458 C88.4775661,26.0411034 88.2604793,25.6685492 88.0260717,25.3327271 C87.0884369,23.9894695 85.9615861,22.9384373 85.3590076,22.0402831 C85.2066071,21.8159625 84.9509432,21.6847631 84.6804057,21.6920441 C84.4266308,21.7004041 84.1920867,21.8297927 84.0491488,22.0402831 C83.4470038,22.9377814 82.3219764,23.9896068 81.3820847,25.3327271 C81.1445457,25.6721797 80.9337659,26.0522542 80.7350462,26.4407644 C80.5371903,26.0498898 80.3104417,25.6740102 80.0722259,25.3327271 C79.1345911,23.9894695 78.0077403,22.9384373 77.4051618,22.0402831 C77.2527613,21.8159625 76.9970974,21.6847631 76.7265599,21.6920441 C76.472785,21.7004041 76.2382409,21.8297927 76.095303,22.0402831 C75.493158,22.9377814 74.3523505,23.9896068 73.4124572,25.3327271 C73.1800389,25.6648729 72.9595074,26.0300288 72.7654187,26.4091119 C72.5722789,26.032439 72.3646806,25.6629814 72.1341618,25.3327271 C71.196527,23.9894695 70.0696762,22.9384373 69.4670977,22.0402831 C69.3146972,21.8159625 69.0590333,21.6847631 68.7884958,21.6920441 C68.5291027,21.6953411 68.2876115,21.8253127 68.1414572,22.0402831 C67.5393183,22.9377814 66.4142864,23.9896068 65.4743931,25.3327271 C65.2394198,25.6685186 65.0244896,26.0411644 64.8273546,26.4249458 C64.6318119,26.0411034 64.4147236,25.6685492 64.180316,25.3327271 C63.2426812,23.9894695 62.1158304,22.9384373 61.5132519,22.0402831 C61.3608514,21.8159625 61.1051875,21.6847631 60.83465,21.6920441 C60.5752569,21.6953411 60.3337657,21.8253127 60.1876115,22.0402831 C59.5854725,22.9377814 58.4604406,23.9896068 57.5205489,25.3327271 C57.285574,25.6685186 57.0706438,26.0411644 56.8735088,26.4249458 C56.6779661,26.0411034 56.4608793,25.6685492 56.2264702,25.3327271 C55.2888354,23.9894695 54.1619846,22.9384373 53.5594061,22.0402831 C53.4070056,21.8159625 53.1513417,21.6847631 52.8808042,21.6920441 C52.6270293,21.7004041 52.3924852,21.8297927 52.2495474,22.0402831 C51.6474038,22.9377814 50.5065948,23.9896068 49.5667031,25.3327271 C48.7642825,26.4794034 48.1249911,27.9132254 48.1463725,29.6382356 L46.5208845,29.6382356 L46.5208845,16.2626797 L46.8522954,15.2654492 L47.3257384,15.2654492 C47.7655797,15.2780956 48.1324834,14.9309555 48.1455474,14.4898 C48.1586113,14.0486444 47.8128962,13.680274 47.373082,13.6667136 L47.9096517,12.0837966 L48.9354447,12.0837966 C49.3752789,12.0833488 49.7315984,11.7255908 49.7315984,11.2844288 C49.7315984,10.8432668 49.3752789,10.4855089 48.9354447,10.485061 L48.1305908,10.485061 L48.1305908,7.30342373 L48.919663,7.30342373 C49.2509187,7.30645534 49.5493532,7.1032089 49.6687428,6.79326875 C49.7881324,6.4833286 49.7034682,6.13161949 49.4562328,5.9104678 L49.172167,5.65720169 L49.172167,5.30896271 C49.1740954,5.04317554 49.0439085,4.79388582 48.8249744,4.64413729 C48.6769821,3.9169678 48.3398407,3.26976102 47.89387,2.80796949 C47.292604,2.18535254 46.6418181,1.67906441 46.3157256,1.24088644 C46.1384027,0.997158044 45.8391487,0.874642981 45.5424351,0.9243 L45.5424032,0.924879661 Z M45.6844338,2.85603559 C46.0558046,3.21882712 46.4456185,3.60988475 46.7417901,3.91657119 C47.2214199,4.4132339 47.4429095,4.7660339 47.3888287,5.21455424 C47.3671639,5.38407599 47.4003563,5.55609499 47.4835157,5.7052678 L45.8422461,5.7052678 L43.9958176,5.7052678 C44.0844491,5.55793062 44.1232015,5.38579553 44.1062909,5.21455424 C44.0495638,4.74403729 44.2437438,4.39276271 44.6902042,3.90075254 C44.9631542,3.59995424 45.3332034,3.21089492 45.6844353,2.85603559 L45.6844338,2.85603559 Z M99.7674282,2.85603559 C100.138801,3.21882712 100.528605,3.60988475 100.824788,3.91657119 C101.304413,4.4132339 101.525907,4.7660339 101.471826,5.21455424 C101.45018,5.38408257 101.483394,5.55610198 101.566574,5.7052678 L99.9253059,5.7052678 L98.0788744,5.7052678 C98.1620338,5.55609499 98.1952262,5.38407599 98.1735614,5.21455424 C98.1168344,4.74403729 98.3267945,4.39276271 98.773258,3.90075254 C99.0462019,3.59995424 99.4162511,3.21089492 99.7674875,2.85603559 L99.7674282,2.85603559 Z M44.9584868,7.30400339 L45.8422476,7.30400339 L46.5366312,7.30400339 L46.5366312,10.4856407 L44.9584868,10.4856407 L44.9584868,7.30400339 Z M99.0414736,7.30400339 L99.9252451,7.30400339 L100.619627,7.30400339 L100.619627,10.4856407 L99.0414736,10.4856407 L99.0414736,7.30400339 Z M45.2425526,12.0843763 L46.2367837,12.0843763 L45.7317773,13.5723051 L45.2425526,12.0843763 Z M99.3255501,12.0843763 L100.31978,12.0843763 L99.8147718,13.5723051 L99.3255501,12.0843763 Z M24.2374566,13.6989458 C24.3893574,13.7065729 24.6239034,13.8318102 25.1685625,14.2529644 C25.6490713,14.6244814 26.1524565,14.9686017 26.6677984,15.2976814 L22.0122736,15.2976814 C22.4920296,14.9811712 22.9589832,14.6453797 23.4010408,14.2846169 C23.8930928,13.8830339 24.2547697,13.6997237 24.2374566,13.6989458 Z M118.089683,13.6989458 C118.241614,13.7065729 118.476096,13.8318102 119.020783,14.2529644 C119.50129,14.6244814 120.004671,14.9686017 120.52002,15.2976814 L115.864491,15.2976814 C116.344253,14.9811712 116.81121,14.6453797 117.253255,14.2846169 C117.745306,13.8830339 118.10696,13.6997237 118.089683,13.6989458 Z M29.1454838,16.7697915 C29.9909455,17.2516424 30.8073243,17.7151881 31.5127005,18.1944 C32.4176389,18.8091915 33.140491,19.4496407 33.5800696,20.109722 C34.0196467,20.7698034 34.2034835,21.429 34.0692943,22.3257966 C34.034248,22.5562097 34.1014173,22.7904721 34.2531467,22.9670079 C34.4048761,23.1435436 34.6259887,23.2446945 34.858365,23.2438729 L35.4264981,23.2438729 L35.4264981,25.5707542 C35.4259236,25.77714 35.5051151,25.9757178 35.6474372,26.1247729 L35.9157228,26.4096915 L23.9691725,26.4096915 L23.8744854,26.4096915 L12.6381003,26.4096915 L12.9221661,26.1247729 C13.0644887,25.9757181 13.1436808,25.7771403 13.1431067,25.5707542 L13.1431067,23.2438729 L13.6796749,23.2438729 C13.9120515,23.2446949 14.1331645,23.1435443 14.2848943,22.9670084 C14.436624,22.7904726 14.5037935,22.55621 14.4687471,22.3257966 C14.3327086,21.4166136 14.5251396,20.7644034 14.9737535,20.109722 C15.4223629,19.4550407 16.1549802,18.831539 17.0726845,18.2260678 C17.7713249,17.7651153 18.5813542,17.3297441 19.4083378,16.8647644 L19.4083378,16.8806288 L29.1454854,16.8806288 L29.1454854,16.7698831 L29.1454838,16.7697915 Z M122.997701,16.7697915 C123.843163,17.2516424 124.659546,17.7151881 125.364924,18.1944 C126.269865,18.8091915 126.992702,19.4496254 127.432284,20.109722 C127.871881,20.7698034 128.055704,21.429 127.921521,22.3257966 C127.886474,22.5562095 127.953644,22.7904716 128.105373,22.9670073 C128.257102,23.143543 128.478214,23.244694 128.71059,23.2438729 L129.278712,23.2438729 L129.278712,25.5707542 C129.27814,25.7771411 129.357334,25.975719 129.499659,26.1247729 L129.767949,26.4096915 L117.821393,26.4096915 L117.726645,26.4096915 L106.490257,26.4096915 L106.774318,26.1247729 C106.916643,25.975719 106.995837,25.7771411 106.995265,25.5707542 L106.995265,23.2438729 L107.53183,23.2438729 C107.764209,23.2446985 107.985325,23.1435494 108.137057,22.9670131 C108.28879,22.7904768 108.355961,22.5562121 108.320914,22.3257966 C108.184952,21.4166136 108.377337,20.7644034 108.825907,20.109722 C109.274522,19.4550407 110.007138,18.831539 110.924839,18.2260678 C111.62348,17.7651153 112.433521,17.3297441 113.260505,16.8647644 L113.260505,16.8806288 L122.99764,16.8806288 L122.99764,16.7698831 L122.997701,16.7697915 Z M52.8965509,23.7504051 C53.5743498,24.5811203 54.3054722,25.3759271 54.916575,26.2513983 C54.9598275,26.3133305 55.0013614,26.3787712 55.0428194,26.4413441 L50.7502673,26.4413441 C50.79171,26.3788017 50.8331527,26.313361 50.8765116,26.2513983 C51.4877908,25.3778797 52.2189041,24.5792593 52.8965357,23.7504051 L52.8965509,23.7504051 Z M60.8503967,23.7504051 C61.5270854,24.5789847 62.2607476,25.3779712 62.8704208,26.2513983 C62.9136733,26.3133305 62.9553137,26.3787712 62.9966804,26.4413441 L58.6883466,26.4413441 C58.7297893,26.3788017 58.771232,26.313361 58.814591,26.2513983 C59.4263355,25.3772085 60.1724062,24.5799458 60.8503967,23.7504051 Z M68.8042425,23.7504051 C69.4809297,24.5789847 70.2145934,25.3779712 70.8242666,26.2513983 C70.8675191,26.3133305 70.9091595,26.3787712 70.9505109,26.4413441 L66.6421772,26.4413441 C66.6836199,26.3788017 66.7250626,26.313361 66.7684367,26.2513983 C67.3801813,25.3772085 68.126252,24.5799458 68.8042425,23.7504051 Z M76.7423066,23.7504051 C77.4201055,24.5811203 78.1512279,25.3759271 78.7623307,26.2513983 C78.8055832,26.3133305 78.8471171,26.3787712 78.888575,26.4413441 L74.596023,26.4413441 C74.6374657,26.3788017 74.6789084,26.313361 74.7222825,26.2513983 C75.3335617,25.3778797 76.064675,24.5792593 76.7423066,23.7504051 Z M84.6961524,23.7504051 C85.3743102,24.5818068 86.12039,25.3752712 86.7319581,26.2513983 C86.7752106,26.3133305 86.8168511,26.3787712 86.8582177,26.4413441 L82.549884,26.4413441 C82.5913267,26.3788017 82.6327694,26.313361 82.6761435,26.2513983 C83.2874227,25.3778797 84.0185345,24.5792593 84.6961676,23.7504051 L84.6961524,23.7504051 Z M92.6499982,23.7662695 C93.324868,24.5913712 94.0626714,25.3813424 94.6700222,26.2514288 C94.7132747,26.313361 94.7549152,26.3788017 94.7962818,26.4413746 L90.5037297,26.4413746 C90.5452789,26.3788322 90.5866152,26.3133915 90.6299893,26.2514288 C91.2389356,25.3812356 91.9741992,24.5916458 92.6500134,23.7662695 L92.6499982,23.7662695 Z M49.9769844,28.0401102 L55.8318992,28.0401102 C55.9858394,28.5335847 56.0654246,29.0576746 56.0528397,29.6388458 L49.7560453,29.6388458 C49.7435745,29.0569881 49.826247,28.5342254 49.9769844,28.0401102 Z M57.9150485,28.0401102 L63.7699633,28.0401102 C63.9209668,28.5342102 64.0035085,29.0568051 63.9909039,29.6388458 L57.6941094,29.6388458 C57.6816386,29.0569881 57.7643111,28.5342254 57.9150485,28.0401102 Z M65.8688942,28.0401102 L71.7238091,28.0401102 C71.8748126,28.5342102 71.9573543,29.0568051 71.9447496,29.6388458 L65.6479552,29.6388458 C65.6354844,29.0569881 65.7181569,28.5342254 65.8688942,28.0401102 Z M73.82274,28.0401102 L79.6776549,28.0401102 C79.8315951,28.5335847 79.9111788,29.0576746 79.8985939,29.6388458 L73.6017995,29.6388458 C73.5893286,29.0569881 73.6720011,28.5342254 73.82274,28.0401102 Z M81.7765858,28.0401102 L87.6315006,28.0401102 C87.7825042,28.5342102 87.8650459,29.0568051 87.8524397,29.6388458 L81.5556452,29.6388458 C81.5431744,29.0569881 81.6258469,28.5342254 81.7765858,28.0401102 Z M89.7146499,28.0401102 L95.5695647,28.0401102 C95.7205683,28.5342102 95.80311,29.0568051 95.7905038,29.6388458 L89.4937094,29.6388458 C89.4812385,29.0578576 89.5609758,28.5336 89.7146499,28.0401102 Z M46.5208495,31.2375966 L48.1305558,31.2375966 L48.1305558,40.7983424 L46.5208495,40.7983424 L46.5208495,31.2375966 Z M49.7244819,31.2375966 L56.0686199,31.2375966 L56.0686199,33.6119492 C55.1433997,33.0615915 54.1248215,32.7195458 53.0701464,32.678039 C51.9499888,32.6339542 50.8065229,32.9484508 49.7244819,33.6119492 L49.7244819,31.2375966 Z M57.662546,31.2375966 L64.0382474,31.2375966 L64.0382474,33.6436017 C63.1077438,33.0798966 62.0929297,32.7200949 61.0239922,32.678039 C59.8974501,32.6336492 58.7499707,32.956322 57.662546,33.6277831 L57.662546,31.2375966 Z M65.6321735,31.2375966 L71.9920932,31.2375966 L71.9920932,33.6277831 C71.0665536,33.0707593 70.055426,32.7198203 68.9936197,32.678039 C67.8670776,32.6336492 66.7195982,32.956322 65.6321735,33.6277831 L65.6321735,31.2375966 Z M73.5860193,31.2375966 L79.945939,31.2375966 L79.945939,33.6436017 C79.0154354,33.0798966 78.0006198,32.7200949 76.9316838,32.678039 C75.8115201,32.6339542 74.6680542,32.9484508 73.5860193,33.6119492 L73.5860193,31.2375966 Z M81.5398651,31.2375966 L87.8997848,31.2375966 L87.8997848,33.6277831 C86.9695686,33.0707593 85.9473344,32.7198203 84.8855296,32.678039 C83.7653659,32.6339542 82.6219,32.9484508 81.5398651,33.6119492 L81.5398651,31.2375966 Z M89.4779292,31.2375966 L95.8378489,31.2375966 L95.8378489,33.6277831 C94.9076327,33.0707593 93.8854,32.7198203 92.8235937,32.678039 C91.70343,32.6339542 90.5599641,32.9484508 89.4779292,33.6119492 L89.4779292,31.2375966 Z M97.4317735,31.2375966 L99.0099164,31.2375966 L99.0099164,40.7983424 L97.4317735,40.7983424 L97.4317735,31.2375966 Z M14.7212481,32.0448661 L19.4872432,32.0448661 L19.4872432,41.5740508 C19.2509665,41.7519153 19.0350462,41.9448814 18.8559863,42.159661 C18.7927196,42.2359322 18.7391407,42.3183051 18.6823893,42.3971695 C17.9803726,41.4678814 16.8534564,40.7983424 15.4314134,40.7983424 C15.183697,40.7983424 14.9491647,40.8349525 14.7212481,40.8775119 L14.7212481,32.0448661 Z M21.0811693,32.0448661 L27.4568706,32.0448661 L27.4568706,40.8774966 C26.5182397,41.0487407 25.7504014,41.5374407 25.2316877,42.159661 C25.163676,42.2405085 25.1027971,42.3280678 25.0423105,42.4128814 C24.3408687,41.4782542 23.2186412,40.7983424 21.791333,40.7983424 C21.5436197,40.7983424 21.3100638,40.8349525 21.0811693,40.8775119 L21.0811693,32.0448661 Z M29.0507952,32.0448661 L33.832572,32.0448661 L33.832572,40.8616627 C32.885794,41.0297339 32.1135984,41.5334746 31.5916074,42.159661 C31.5283407,42.2359322 31.4747617,42.3183051 31.4180119,42.3971695 C30.8676877,41.6732034 30.0541392,41.1057458 29.0507952,40.8933305 L29.0507952,32.0448661 Z M108.573464,32.0448661 L113.339467,32.0448661 L113.339467,40.9091492 C112.407728,41.0830475 111.646003,41.5725254 111.130061,42.1913898 C111.062079,42.2722373 111.00155,42.3596441 110.940687,42.4446102 C110.390966,41.7121017 109.586978,41.1359644 108.573464,40.9249831 L108.573464,32.0448661 Z M114.933391,32.0448051 L121.309089,32.0448051 L121.309089,40.9249831 C121.024891,40.8647288 120.723827,40.8299492 120.409547,40.8299492 C119.149156,40.8299492 118.116343,41.4210508 117.474202,42.1912373 C117.410935,42.2675085 117.357402,42.3498814 117.300614,42.4287458 C116.751,41.7011186 115.942129,41.1348966 114.933391,40.924922 L114.933391,32.0448051 Z M122.903014,32.0448661 L127.684788,32.0448661 L127.684788,40.9408169 C127.394491,40.8779695 127.090766,40.8300712 126.769474,40.8300712 C125.509084,40.8300712 124.492057,41.4212034 123.8499,42.1913898 C123.781919,42.2722373 123.721086,42.3597966 123.660526,42.4446102 C123.444613,42.1569153 123.196581,41.8940847 122.903014,41.6690847 L122.903014,32.0448661 Z M53.0070212,34.2767746 C54.0611351,34.3182661 55.1229216,34.7694864 56.0686199,35.5589237 L56.0686199,40.7983424 L49.7244819,40.7983424 L49.7244819,35.6064102 C50.8286328,34.6177068 51.9265604,34.2342458 53.0070212,34.2767746 Z M60.960867,34.2767746 C62.0213699,34.3185712 63.0881691,34.7763203 64.0382474,35.5747576 L64.0382474,40.7983424 L57.662546,40.7983424 L57.662546,35.6064102 C58.7685188,34.6177068 59.8804168,34.234261 60.960867,34.2767746 Z M68.9304945,34.2767746 C69.9845977,34.3182661 71.0463934,34.7694559 71.9920932,35.5589237 L71.9920932,40.7983424 L65.6321735,40.7983424 L65.6321735,35.6064102 C66.738157,34.6177068 67.8500443,34.234261 68.9304945,34.2767746 Z M76.8685586,34.2767746 C77.9290615,34.3185712 78.9958653,34.7763203 79.945939,35.5747576 L79.945939,40.7983424 L73.5860193,40.7983424 L73.5860193,35.5905915 C74.6865034,34.6130542 75.7935469,34.2344746 76.8685586,34.2767746 Z M84.8224044,34.2767746 C85.8829058,34.3185712 86.9497065,34.7763203 87.8997848,35.5747576 L87.8997848,40.7983424 L81.5398651,40.7983424 L81.5398651,35.5905915 C82.6403477,34.6130542 83.7473927,34.2344746 84.8224044,34.2767746 Z M92.7604685,34.2767746 C93.8209699,34.3185712 94.8877706,34.7763203 95.8378489,35.5747576 L95.8378489,40.7983424 L89.4779292,40.7983424 L89.4779292,35.6064102 C90.5820892,34.6177068 91.6800183,34.234261 92.7604685,34.2767746 Z M9.07149367,42.3971695 C10.7086525,42.3971695 11.5333974,43.6524407 11.5333974,44.7238983 C11.3290993,45.2603898 11.3172337,45.8205254 11.5333974,46.3701356 L11.5333974,50.3591186 L9.97103465,50.3591186 C9.97124798,50.3484417 9.97124798,50.3377616 9.97103465,50.3270847 L9.97103465,46.4014068 C9.97517891,46.1718852 9.88054784,45.9516966 9.71133312,45.7971304 C9.5421184,45.6425642 9.31472175,45.5686023 9.08727535,45.5941525 C8.67792971,45.6383235 8.36985104,45.9885206 8.37711006,46.4014068 L8.37711006,50.3270847 C8.37689673,50.3377616 8.37689673,50.3484417 8.37711006,50.3591186 L6.78318396,50.3591186 L6.78318396,46.3701356 L6.76739771,46.3701356 C6.97702785,45.8115254 6.97838292,45.2468136 6.78318396,44.7238983 C6.78318396,44.2818305 6.98048623,43.6522881 7.36709727,43.1885593 C7.75370983,42.7248305 8.27833954,42.3971695 9.07149367,42.3971695 Z M15.4314134,42.3971695 C17.053373,42.3971695 17.8937338,43.6275763 17.9090987,44.692322 C17.6930598,45.2372034 17.6878327,45.8087797 17.9090987,46.3701356 L17.9090987,50.3591186 L16.3309559,50.3591186 C16.3311692,50.3484417 16.3311692,50.3377616 16.3309559,50.3270847 L16.3309559,46.4014068 C16.3351002,46.1718849 16.2404689,45.951696 16.0712538,45.7971297 C15.9020388,45.6425635 15.6746417,45.5686019 15.447195,45.5941525 C15.0378494,45.6383235 14.7297707,45.9885206 14.7370297,46.4014068 L14.7370297,50.3270847 C14.7368164,50.3377616 14.7368164,50.3484417 14.7370297,50.3591186 L14.7212435,50.3591186 L13.1431006,50.3591186 L13.1431006,46.3701356 L13.1273144,46.3701356 C13.3373141,45.8104576 13.3392425,45.2474237 13.1431006,44.7238983 C13.1431006,44.2818305 13.3403998,43.6522881 13.7270139,43.1885593 C14.1136265,42.7248305 14.6382471,42.3971695 15.4314088,42.3971695 L15.4314134,42.3971695 Z M21.791333,42.3971695 C23.4284736,42.3971695 24.2532383,43.6524407 24.2532383,44.7238983 C24.0489371,45.2603898 24.0370655,45.8205254 24.2532383,46.3701356 L24.2532383,50.3591186 L22.6593122,50.3591186 C22.6595259,50.3484418 22.6595259,50.3377616 22.6593122,50.3270847 L22.6593122,46.4014068 C22.6634564,46.1718852 22.5688254,45.9516966 22.3996106,45.7971304 C22.2303959,45.6425642 22.0029993,45.5686023 21.7755529,45.5941525 C21.372485,45.6458175 21.0730581,45.9939156 21.0811693,46.4014068 L21.0811693,50.3270847 C21.0809555,50.3377616 21.0809555,50.3484418 21.0811693,50.3591186 L19.5030249,50.3591186 L19.5030249,46.3701356 L19.4872386,46.3701356 C19.6968794,45.8115254 19.6982269,45.2468136 19.5030249,44.7238983 C19.5030249,44.2818305 19.7003226,43.6522881 20.0869382,43.1885593 C20.4735538,42.7248305 20.9981804,42.3971695 21.791333,42.3971695 Z M28.1512542,42.3971695 C29.7884131,42.3971695 30.6289396,43.6524407 30.6289396,44.7238983 C30.42464,45.2603898 30.412776,45.8205254 30.6289396,46.3701356 L30.6289396,50.3591186 L29.0350151,50.3591186 C29.0352284,50.3484417 29.0352284,50.3377616 29.0350151,50.3270847 L29.0350151,46.4014068 C29.0397795,46.168768 28.9430422,45.9456376 28.7701527,45.7904856 C28.5972632,45.6353336 28.3654551,45.5636257 28.1354726,45.5941525 C27.7324047,45.6458175 27.4329778,45.9939156 27.441089,46.4014068 L27.441089,50.3270847 C27.4408756,50.3377616 27.4408756,50.3484417 27.441089,50.3591186 L25.8629445,50.3591186 L25.8629445,46.386 L25.8629445,46.3707458 C26.0731283,45.8106102 26.0595868,45.248339 25.8629445,44.7245085 C25.8611195,44.7245085 25.8647695,44.7092542 25.8629445,44.7092542 C25.8668987,44.2679492 26.0798869,43.6487797 26.4626395,43.1897797 C26.8492506,42.7258983 27.3581016,42.3982373 28.1512542,42.3982373 L28.1512542,42.3971695 Z M34.5111739,42.3971695 C36.148313,42.3971695 36.9888593,43.6524407 36.9888593,44.7238983 C36.7845551,45.2603898 36.7726866,45.8203729 36.9888593,46.3701356 L36.9888593,50.3591186 L35.4107164,50.3591186 C35.4109302,50.3484418 35.4109302,50.3377616 35.4107164,50.3270847 L35.4107164,46.4014068 C35.4148608,46.1718849 35.3202295,45.951696 35.1510144,45.7971297 C34.9817993,45.6425635 34.7544023,45.5686019 34.5269556,45.5941525 C34.1238877,45.6458175 33.8244608,45.9939156 33.832572,46.4014068 L33.832572,50.3270847 C33.8323583,50.3377616 33.8323583,50.3484418 33.832572,50.3591186 L33.0277181,50.3591186 L32.2228657,50.3591186 L32.2228657,46.386 L32.2228657,46.3707458 C32.4330586,45.8106102 32.4195171,45.248339 32.2228657,44.7245085 C32.2228657,44.7245085 32.2228886,44.7092542 32.2228657,44.7092542 C32.2268199,44.2679492 32.439805,43.6487797 32.8225592,43.1897797 C33.2091779,42.7258983 33.7180213,42.3982373 34.5111739,42.3982373 L34.5111739,42.3971695 Z M46.5208495,42.3971695 L48.1305558,42.3971695 L48.1305558,44.1065593 C47.8459045,44.0470678 47.5452905,44.0119831 47.2310148,44.0119831 C46.9832985,44.0119831 46.7487647,44.0485932 46.5208495,44.0913051 L46.5208495,42.3976271 L46.5208495,42.3971695 Z M49.7244819,42.3971695 L56.0686199,42.3971695 L56.0686199,44.8347966 C55.4080125,44.3362881 54.5702721,44.011678 53.5909345,44.011678 C52.33055,44.011678 51.3135094,44.6026271 50.671368,45.3729661 C50.6081013,45.4492373 50.5547961,45.5316102 50.4977724,45.610322 C50.2821304,45.3267458 50.0158553,45.0729153 49.7244819,44.850661 L49.7244819,42.3971695 Z M57.662546,42.3971695 L64.0382474,42.3971695 L64.0382474,44.7873559 C63.8027783,44.965678 63.5866511,45.1574237 63.4069905,45.3729661 C63.3389789,45.4538136 63.2784193,45.5413729 63.2176133,45.6261864 C62.5117201,44.6915593 61.3781639,44.011678 59.9508542,44.011678 C59.0431007,44.011678 58.2687,44.3278983 57.662546,44.7873559 L57.662546,42.3971695 Z M65.6321735,42.3971695 L71.9920932,42.3971695 L71.9920932,44.0908475 C71.0534637,44.262 70.2856269,44.7507458 69.7669102,45.3729661 C69.6988986,45.4538136 69.638339,45.5413729 69.577533,45.6261864 C68.8760897,44.6915593 67.7538653,44.011678 66.3265571,44.011678 C66.0842944,44.011678 65.855517,44.0498136 65.6321735,44.091 L65.6321735,42.397322 L65.6321735,42.3971695 Z M73.5860193,42.3971695 L79.945939,42.3971695 L79.945939,44.1065593 C79.6661954,44.0485932 79.3709195,44.0119831 79.0621782,44.0119831 C77.8017845,44.0119831 76.7689759,44.6030847 76.1268299,45.3734237 C76.0588182,45.4542712 75.9979393,45.541678 75.9374527,45.6266441 C75.3904607,44.8977966 74.5925463,44.3204237 73.5860193,44.1070169 L73.5860193,42.3974746 L73.5860193,42.3971695 Z M81.5398651,42.3971695 L87.8997848,42.3971695 L87.8997848,44.8189322 C87.2447816,44.3282034 86.4085666,44.011678 85.4378795,44.011678 C84.1774965,44.011678 83.1446773,44.6026271 82.5025328,45.3729661 C82.4345211,45.4538136 82.3736422,45.5413729 82.3131556,45.6261864 C82.0929982,45.3328475 81.8406814,45.0628475 81.5398651,44.8347966 L81.5398651,42.3971695 Z M89.4779292,42.3971695 L91.7662374,42.3971695 L95.8378489,42.3971695 L95.8378489,43.1568305 C95.6000924,43.3345424 95.3876716,43.5253729 95.2065905,43.7425932 C95.1433238,43.8188644 95.0900186,43.9012373 95.032995,43.9799492 C94.3264204,43.0563051 93.1871732,42.3971695 91.7662374,42.3971695 C90.8612609,42.3971695 90.0832847,42.7045424 89.4779292,43.1568305 L89.4779292,42.3971695 Z M97.4317735,42.3971695 L98.1261571,42.3971695 L99.0099164,42.3971695 L99.0099164,42.4917458 C98.7301743,42.4337797 98.4348984,42.3971695 98.1261571,42.3971695 C97.8838914,42.3971695 97.655123,42.4368305 97.4317735,42.4764915 L97.4317735,42.3971695 Z M107.689708,42.4292034 C109.3269,42.4292034 110.151617,43.6844746 110.151617,44.7559322 C109.947293,45.2924237 109.935431,45.8524068 110.151617,46.4021695 L110.151617,50.3752881 L108.58925,50.3752881 C108.589298,50.3702035 108.589298,50.3651185 108.58925,50.3600339 L108.58925,46.4345085 C108.594015,46.2018697 108.497277,45.9787393 108.324388,45.8235873 C108.151498,45.6684353 107.91969,45.5967274 107.689708,45.6272542 C107.28664,45.6789199 106.987214,46.0270179 106.995326,46.4345085 L106.995326,50.3600339 C106.995277,50.3651185 106.995277,50.3702035 106.995326,50.3752881 L105.401401,50.3752881 L105.401401,46.4021695 L105.385584,46.4021695 C105.59517,45.8435593 105.596539,45.2788475 105.401401,44.7559322 C105.401401,44.3140169 105.598699,43.684322 105.98531,43.2205932 C106.371936,42.7568644 106.896563,42.4292034 107.689708,42.4292034 Z M114.049635,42.4292034 C115.686827,42.4292034 116.511529,43.6844746 116.511529,44.7559322 C116.307221,45.2924237 116.295358,45.8524068 116.511529,46.4021695 L116.511529,50.3752881 L114.949177,50.3752881 C114.949226,50.3702035 114.949226,50.3651185 114.949177,50.3600339 L114.949177,46.4345085 C114.953322,46.2049845 114.858689,45.9847936 114.689472,45.830227 C114.520254,45.6756604 114.292854,45.6017002 114.065406,45.6272542 C113.656065,45.6714311 113.347993,46.0216265 113.355253,46.4345085 L113.355253,50.3600339 C113.355204,50.3651185 113.355204,50.3702035 113.355253,50.3752881 L111.761328,50.3752881 L111.761328,46.4021695 L111.745512,46.4021695 C111.955447,45.8424915 111.957394,45.2794576 111.761328,44.7559322 C111.761328,44.3140169 111.958626,43.684322 112.345237,43.2205932 C112.731848,42.7568644 113.256475,42.4292034 114.049635,42.4292034 Z M120.409547,42.4292034 C122.046724,42.4292034 122.871457,43.6844746 122.871457,44.7559322 C122.667133,45.2924237 122.655255,45.8524068 122.871457,46.4021695 L122.871457,50.3752881 L121.277532,50.3752881 C121.277581,50.3702035 121.277581,50.3651185 121.277532,50.3600339 L121.277532,46.4345085 C121.281676,46.2049875 121.187046,45.9847994 121.017832,45.8302333 C120.848618,45.6756673 120.621222,45.601705 120.393776,45.6272542 C119.990703,45.6789128 119.691268,46.0270127 119.699379,46.4345085 L119.699379,50.3600339 C119.69933,50.3651185 119.69933,50.3702035 119.699379,50.3752881 L118.105454,50.3752881 L118.105454,46.4180339 L118.105454,46.4027797 C118.315588,45.8426441 118.302052,45.2803729 118.105454,44.7565424 C118.105454,44.7565424 118.105484,44.7412881 118.105454,44.7412881 C118.110017,44.2999831 118.322401,43.6808136 118.705149,43.221661 C119.09176,42.7579322 119.616387,42.4302712 120.409547,42.4302712 L120.409547,42.4292034 Z M126.769474,42.4292034 C128.406651,42.4292034 129.247155,43.6844746 129.247155,44.7559322 C129.042846,45.2924237 129.030969,45.8524068 129.247155,46.4021695 L129.247155,50.3752881 L127.653231,50.3752881 C127.653279,50.3702035 127.653279,50.3651185 127.653231,50.3600339 L127.653231,46.4345085 C127.657995,46.2018697 127.561258,45.9787393 127.388368,45.8235873 C127.215479,45.6684353 126.983671,45.5967274 126.753688,45.6272542 C126.350621,45.6789199 126.051195,46.0270179 126.059306,46.4345085 L126.059306,50.3600339 C126.059258,50.3651185 126.059258,50.3702035 126.059306,50.3752881 L124.481168,50.3752881 L124.481168,46.4180339 L124.481168,46.4027797 C124.691301,45.8426441 124.677751,45.2803729 124.481168,44.7565424 C124.479647,44.7565424 124.482688,44.7412881 124.481168,44.7412881 C124.48573,44.2999831 124.698099,43.6808136 125.080863,43.221661 C125.467474,42.7579322 125.976314,42.4302712 126.769474,42.4302712 L126.769474,42.4292034 Z M133.129386,42.4292034 C134.766563,42.4292034 135.607082,43.6844746 135.607082,44.7559322 C135.402758,45.2924237 135.390881,45.8524068 135.607082,46.4021695 L135.607082,50.3752881 L134.028929,50.3752881 C134.028977,50.3702035 134.028977,50.3651185 134.028929,50.3600339 L134.028929,46.4345085 C134.033073,46.2049875 133.938442,45.9847994 133.769228,45.8302333 C133.600014,45.6756673 133.372619,45.601705 133.145173,45.6272542 C132.742105,45.6789199 132.442679,46.0270179 132.450791,46.4345085 L132.450791,50.3600339 C132.450742,50.3651185 132.450742,50.3702035 132.450791,50.3752881 L130.84108,50.3752881 L130.84108,46.4180339 L130.84108,46.4027797 C131.051213,45.8426441 131.037678,45.2803729 130.84108,44.7565424 C130.84108,44.7565424 130.84111,44.7412881 130.84108,44.7412881 C130.845642,44.2999831 131.04224,43.6808136 131.424988,43.221661 C131.811615,42.7579322 132.336241,42.4302712 133.129386,42.4302712 L133.129386,42.4292034 Z M91.7662374,43.9804068 C93.4033764,43.9804068 94.2439228,45.235678 94.2439228,46.3072881 C94.040744,46.8407288 94.0316342,47.4062034 94.2439228,47.9535254 L94.2439228,51.9423559 L92.6657799,51.9423559 C92.6659936,51.931679 92.6659936,51.9209989 92.6657799,51.910322 L92.6657799,47.9847966 C92.6699242,47.7552747 92.5752929,47.5350858 92.4060778,47.3805196 C92.2368628,47.2259533 92.0094657,47.1519917 91.7820191,47.1775424 C91.3789512,47.2292073 91.0795243,47.5773055 91.0876355,47.9847966 L91.0876355,51.910322 C91.0874217,51.9209989 91.0874217,51.931679 91.0876355,51.9423559 L89.4937094,51.9423559 L89.4937094,49.5680339 L89.4937094,49.330678 L89.4779231,49.3154237 L89.4779231,48.1756271 L89.4937094,48.1435932 L89.4937094,47.9378136 C89.4937094,47.9225593 89.4938006,47.9164576 89.4937094,47.9057797 C89.6849906,47.3619661 89.6687557,46.8155593 89.4779231,46.3071356 C89.475946,46.3071356 89.4799002,46.2918814 89.4779231,46.2918814 C89.4820294,45.8505763 89.6948532,45.2314068 90.0776166,44.7722542 C90.4642398,44.3085254 90.9730893,43.9807119 91.7662313,43.9807119 L91.7662374,43.9804068 Z M98.1261571,43.9804068 C99.7478399,43.9804068 100.588207,45.2109661 100.603841,46.2755593 C100.389601,46.8167797 100.38735,47.3952203 100.603841,47.9535254 L100.603841,50.3752881 C100.588078,50.3748178 100.572306,50.3748178 100.556543,50.3752881 C100.167322,50.3932413 99.8479429,50.6905153 99.8010583,51.0784844 C99.7541737,51.4664535 99.9934952,51.8316524 100.367169,51.9423559 L99.0257482,51.9423559 C99.0259616,51.931679 99.0259616,51.9209989 99.0257482,51.910322 L99.0257482,47.9847966 C99.0298927,47.7552741 98.935261,47.5350847 98.7660452,47.3805183 C98.5968294,47.225952 98.3694315,47.1519907 98.1419844,47.1775424 C97.7326387,47.2217134 97.4245601,47.5719105 97.4318191,47.9847966 L97.4318191,51.910322 C97.4316058,51.9209989 97.4316058,51.931679 97.4318191,51.9423559 L95.8378945,51.9423559 L95.8378945,47.9535254 L95.8378945,47.9062373 C96.0300092,47.3625763 96.028312,46.8157119 95.8378945,46.3074407 C95.8378945,45.8655254 96.0351846,45.2358305 96.4218078,44.7721017 C96.8084295,44.3082203 97.3330607,43.9805593 98.1262027,43.9805593 L98.1261571,43.9804068 Z M47.2310148,45.6107797 C48.8605634,45.6107797 49.700979,46.8535424 49.7087002,47.9217966 C49.7067231,47.9217966 49.7106773,47.9370508 49.7087002,47.9370508 C49.5095258,48.4663729 49.4999263,49.0248305 49.7087002,49.5674237 L49.7087002,53.5722712 L48.1305558,53.5722712 C48.1310207,53.5565119 48.1310207,53.5407423 48.1305558,53.5249831 L48.1305558,49.5993051 C48.1331196,49.3844252 48.0491455,49.1775952 47.8976463,49.0256439 C47.746147,48.8736925 47.5399366,48.789472 47.3257034,48.7920508 C47.1142031,48.7937141 46.9120735,48.8798043 46.7640009,49.0312888 C46.6159284,49.1827733 46.534109,49.387175 46.5366312,49.5993051 L46.5366312,53.5249831 C46.5361663,53.5407423 46.5361663,53.5565119 46.5366312,53.5722712 L44.9427051,53.5722712 L44.9427051,49.5674237 C45.1463751,49.012322 45.136987,48.4555424 44.9427051,47.9370508 C44.9427051,47.4949831 45.1400013,46.8495763 45.5266184,46.3858475 C45.9132371,45.9221186 46.4378622,45.6101695 47.2310148,45.6101695 L47.2310148,45.6107797 Z M53.5909345,45.6107797 C55.2205029,45.6107797 56.0608986,46.8535424 56.0686199,47.9217966 C56.0666428,47.9217966 56.070597,47.9370508 56.0686199,47.9370508 C55.869447,48.4663729 55.8598566,49.0248305 56.0686199,49.5674237 L56.0686199,53.5722712 L54.490477,53.5722712 C54.4909429,53.5565119 54.4909429,53.5407423 54.490477,53.5249831 L54.490477,49.5993051 C54.4930408,49.3844249 54.4090665,49.1775947 54.257567,49.0256433 C54.1060674,48.8736919 53.8998566,48.7894716 53.6856231,48.7920508 C53.2512988,48.804113 52.9069982,49.1635357 52.9123326,49.5993051 L52.9123326,53.5249831 C52.9118667,53.5407423 52.9118667,53.5565119 52.9123326,53.5722712 L51.3026263,53.5722712 L51.3026263,49.5991525 L51.3026263,49.5671186 C51.5070172,49.0111017 51.4975683,48.456 51.3026263,47.9367458 C51.3026263,47.9367458 51.3026507,47.9214915 51.3026263,47.9214915 C51.3067326,47.4800339 51.503714,46.8453051 51.8865396,46.386 C52.2731522,45.9222712 52.7977819,45.6104746 53.5909345,45.6104746 L53.5909345,45.6107797 Z M59.9508542,45.6107797 C61.5804028,45.6107797 62.4208199,46.8535424 62.4285411,47.9217966 C62.426564,47.9217966 62.4305182,47.9370508 62.4285411,47.9370508 C62.2293621,48.4663729 62.2197657,49.0248305 62.4285411,49.5674237 L62.4285411,53.5722712 L60.834615,53.5722712 C60.83508,53.5565119 60.83508,53.5407423 60.834615,53.5249831 L60.834615,49.5993051 C60.8371788,49.3844252 60.7532047,49.1775952 60.6017055,49.0256439 C60.4502063,48.8736925 60.2439958,48.789472 60.0297626,48.7920508 C59.8182623,48.7937141 59.6161327,48.8798043 59.4680601,49.0312888 C59.3199876,49.1827733 59.2381682,49.387175 59.2406904,49.5993051 L59.2406904,53.5249831 C59.2402255,53.5407423 59.2402255,53.5565119 59.2406904,53.5722712 L57.662546,53.5722712 L57.662546,49.5674237 C57.8662145,49.012322 57.8568218,48.4555424 57.662546,47.9370508 C57.662546,47.4949831 57.8598422,46.8495763 58.2464593,46.3858475 C58.6330765,45.9221186 59.1577031,45.6101695 59.9508542,45.6101695 L59.9508542,45.6107797 Z M66.3265571,45.6107797 C67.9485152,45.6107797 68.7888745,46.8411864 68.8042425,47.9059322 C68.5942504,48.4430339 68.5913517,49.0147627 68.8042425,49.5680339 L68.8042425,53.5727288 L67.1945362,53.5727288 C67.1950012,53.5569696 67.1950012,53.5411999 67.1945362,53.5254407 L67.1945362,49.5999153 C67.1971,49.3850351 67.1131257,49.1782049 66.9616262,49.0262535 C66.8101266,48.8743021 66.6039158,48.7900818 66.3896823,48.792661 C66.178182,48.7943243 65.9760524,48.8804145 65.8279798,49.031899 C65.6799073,49.1833835 65.5980879,49.3877851 65.6006101,49.5999153 L65.6006101,53.5254407 C65.6001452,53.5411999 65.6001452,53.5569696 65.6006101,53.5727288 L64.0382474,53.5727288 L64.0382474,49.5680339 C64.2408756,49.0136949 64.232216,48.4552373 64.0382474,47.937661 C64.0382474,47.4955932 64.2355436,46.8501864 64.6221607,46.3864576 C65.0087778,45.9225763 65.5334045,45.6107797 66.3265571,45.6107797 Z M72.6864768,45.6107797 C74.3084349,45.6107797 75.1487957,46.8411864 75.1641622,47.9059322 C74.9541716,48.4430339 74.9512729,49.0147627 75.1641622,49.5680339 L75.1641622,53.5727288 L73.5860193,53.5727288 C73.5864842,53.5569696 73.5864842,53.5411999 73.5860193,53.5254407 L73.5860193,49.5999153 C73.5885831,49.3850351 73.5046088,49.1782049 73.3531092,49.0262535 C73.2016097,48.8743021 72.9953989,48.7900818 72.7811654,48.792661 C72.5696651,48.7943243 72.3675355,48.8804145 72.2194629,49.031899 C72.0713903,49.1833835 71.989571,49.3877851 71.9920932,49.5999153 L71.9920932,53.5254407 C71.9916283,53.5411999 71.9916283,53.5569696 71.9920932,53.5727288 L70.3981686,53.5727288 L70.3981686,49.5680339 C70.6007968,49.0136949 70.5921357,48.4552373 70.3981686,47.937661 C70.3981686,47.4955932 70.5954633,46.8501864 70.9820819,46.3864576 C71.368699,45.9225763 71.8933242,45.6107797 72.6864768,45.6107797 Z M79.0621782,45.6107797 C80.691672,45.6107797 81.5163104,46.8536949 81.5240834,47.9217966 C81.5221063,47.9217966 81.5260605,47.9370508 81.5240834,47.9370508 C81.3248983,48.4663729 81.315308,49.0248305 81.5240834,49.5674237 L81.5240834,53.5722712 L79.945939,53.5722712 C79.9464039,53.5565119 79.9464039,53.5407423 79.945939,53.5249831 L79.945939,49.5993051 C79.9486308,49.3816172 79.8625091,49.172282 79.7075464,49.0198462 C79.5525838,48.8674103 79.3422428,48.785117 79.1253034,48.7920508 C78.6909791,48.804113 78.3466784,49.1635357 78.3520129,49.5993051 L78.3520129,53.5249831 C78.3515479,53.5407423 78.3515479,53.5565119 78.3520129,53.5722712 L76.77387,53.5722712 L76.77387,49.5674237 C76.9761499,49.014 76.9669078,48.4540169 76.77387,47.9370508 C76.77387,47.4949831 76.9711707,46.8495763 77.3577833,46.3858475 C77.7443959,45.9221186 78.2690164,45.6101695 79.0621782,45.6101695 L79.0621782,45.6107797 Z M85.4378795,45.6107797 C87.0674342,45.6107797 87.8920635,46.8535424 87.8997848,47.9217966 C87.8978077,47.9217966 87.9017619,47.9370508 87.8997848,47.9370508 L87.8997848,47.9523051 C87.705766,48.4773559 87.6928891,49.0291017 87.8997848,49.5668136 L87.8997848,51.957 L87.8839985,51.957 L87.8839985,52.7485424 L87.8839985,53.571661 L86.3058541,53.571661 C86.306319,53.5559018 86.306319,53.5401321 86.3058541,53.5243729 L86.3058541,49.5986949 C86.3084179,49.383815 86.2244438,49.176985 86.0729446,49.0250337 C85.9214453,48.8730824 85.7152349,48.7888619 85.5010017,48.7914407 C85.2895014,48.793104 85.0873718,48.8791942 84.9392992,49.0306787 C84.7912267,49.1821631 84.7094073,49.3865648 84.7119295,49.5986949 L84.7119295,53.5243729 C84.7114646,53.5401321 84.7114646,53.5559018 84.7119295,53.571661 L83.1495668,53.571661 L83.1495668,49.5668136 C83.3518467,49.0133898 83.3426046,48.4535593 83.1495668,47.9364407 C83.1495668,47.4943729 83.346863,46.8489661 83.7334801,46.3852373 C84.1200972,45.9215085 84.6447224,45.6095593 85.437875,45.6095593 L85.4378795,45.6107797 Z M6.78318396,51.9740847 L14.7212481,51.9740847 L14.7212481,82.2709831 L6.78318396,82.2709831 L6.78318396,74.3088814 L9.16618227,74.3088814 L12.3382513,74.3088814 L13.1431052,74.3088814 L13.1431052,73.5016271 L13.1431052,64.0200508 C13.1431052,63.0790169 12.8056657,62.0853559 12.1330924,61.297322 C11.4605206,60.5092881 10.4146526,59.9554068 9.1346189,59.9677627 C8.21299694,59.9830169 7.41009275,60.2714746 6.78318396,60.7275763 L6.78318396,51.9740847 Z M16.3151742,51.9740847 L32.2228657,51.9740847 L32.2228657,82.2709831 L16.3151742,82.2709831 L16.3151742,51.9740847 Z M33.8167903,51.9740847 L40.1767115,51.9740847 L40.1767115,53.5727288 L40.1767115,54.3642712 L40.1767115,60.0785085 C39.9172543,60.0113898 39.6380309,59.9641017 39.3245126,59.9671525 C38.0657143,59.9824068 37.0250993,60.5051695 36.3576025,61.281 C35.6901057,62.0568305 35.3633714,63.0454576 35.3633714,64.0194407 L35.3633714,73.5010169 L35.3633714,74.3082712 L36.1682253,74.3082712 L39.3402943,74.3082712 L40.1767115,74.3082712 L40.1767115,82.2703729 L33.8167903,82.2703729 L33.8167903,51.9734746 L33.8167903,51.9740847 Z M102.213552,51.9740847 L103.807476,51.9740847 L103.807476,51.989339 L104.596546,51.989339 L107.374074,51.989339 L108.573464,51.989339 L108.573464,82.2703729 L102.213552,82.2703729 L102.213552,74.3082712 L103.034178,74.3082712 L106.222043,74.3082712 L107.026883,74.3082712 L107.026883,73.5010169 L107.026883,64.0194407 C107.026883,63.0453051 106.700162,62.0568305 106.032653,61.281 C105.365159,60.5051695 104.324544,59.9792034 103.065751,59.9671525 C102.752231,59.9671525 102.473006,60.0098644 102.213552,60.0785085 L102.213552,52.7496102 L102.213552,51.9740847 Z M110.167388,51.989339 L110.956473,51.989339 L113.734001,51.989339 L117.316385,51.989339 L120.078142,51.989339 L123.676312,51.989339 L123.692129,51.989339 L124.465427,51.989339 L126.075138,51.989339 L126.075138,82.2703729 L110.167388,82.2703729 L110.167388,51.989339 Z M127.669017,52.0045932 L135.63864,52.0045932 L135.63864,60.7422203 C135.007752,60.2740678 134.191095,59.9755424 133.255646,59.9665424 C131.975606,59.9512881 130.929744,60.5082203 130.257171,61.2962542 C129.584598,62.0842881 129.247155,63.0777966 129.247155,64.0188305 L129.247155,73.5004068 L129.247155,74.307661 L130.036224,74.307661 L133.224073,74.307661 L135.63864,74.307661 L135.63864,82.2697627 L127.669017,82.2697627 L127.669017,52.0045932 Z M89.4937094,53.5557966 L100.619627,53.5557966 L100.619627,61.3121186 C100.617777,61.3436168 100.617777,61.3751968 100.619627,61.4066949 L100.619627,82.2693051 L89.4937094,82.2693051 L89.4937094,54.3627458 L89.4937094,53.5712034 L89.4937094,53.5557966 Z M41.7706361,55.1703051 L87.8840031,55.1703051 L87.8840031,82.2697627 L41.7706361,82.2697627 L41.7706361,61.4387288 C41.7769251,61.3808323 41.7769251,61.3224219 41.7706361,61.2645254 L41.7706361,55.1703051 Z M24.2848016,59.1277119 C22.3067571,59.1124576 20.7155609,59.7970678 19.6292768,60.7422203 C18.5429927,61.6873729 17.9090987,62.8654576 17.9090987,64.0029661 L17.9090987,73.5004068 L17.9090987,74.2919492 L18.7139526,74.2919492 L24.1743314,74.2919492 L29.8398674,74.2919492 L30.6289396,74.2919492 L30.6289396,73.5004068 L30.6289396,64.0029661 C30.6289396,61.7043051 28.2261401,59.149678 24.2848016,59.1277119 Z M118.105454,59.1277119 C114.164123,59.1490678 111.761328,61.7043051 111.761328,64.0029661 L111.761328,73.5004068 L111.761328,74.2919492 L112.550397,74.2919492 L118.215927,74.2919492 L123.676312,74.2919492 L124.481168,74.2919492 L124.481168,73.5004068 L124.481168,64.0029661 C124.481168,62.8654576 123.847269,61.6873729 122.760983,60.7422203 C121.674698,59.7970678 120.083511,59.1165763 118.105454,59.1277119 Z M24.26902,60.7263559 C27.5082702,60.744661 29.0350151,62.9668983 29.0350151,64.0029661 L29.0350151,72.7090169 L24.1743314,72.7090169 L19.5030249,72.7090169 L19.5030249,64.0029661 C19.5030249,63.5110169 19.8731744,62.6392373 20.6708515,61.9451695 C21.468527,61.2511017 22.6567648,60.7173559 24.26902,60.7263559 Z M118.12124,60.7263559 C119.733506,60.7111017 120.921733,61.2511017 121.71941,61.9451695 C122.517087,62.6392373 122.887243,63.5110169 122.887243,64.0029661 L122.887243,72.7090169 L118.215927,72.7090169 L113.339467,72.7090169 L113.339467,64.0029661 C113.339467,62.9668983 114.881987,60.7445085 118.12124,60.7263559 Z M50.5293358,61.5336102 C48.4828082,61.5183559 47.0151797,62.5371864 46.1578768,63.7338814 C45.3005724,64.9305763 44.9742685,66.2461017 44.9742685,67.2004068 L44.9742685,76.6978475 L44.9742685,77.4893898 L45.7633407,77.4893898 L51.2237194,77.4893898 L55.3111111,77.4893898 L56.1001833,77.4893898 L56.1001833,76.6978475 L56.1001833,67.2004068 C56.1001833,66.1065254 55.775455,64.7632373 54.9007948,63.6072712 C54.0261331,62.4513051 52.5457342,61.5448983 50.5293358,61.5336102 Z M64.8115379,61.5336102 C62.7650012,61.5183559 61.2973833,62.5371864 60.4400789,63.7338814 C59.582776,64.9305763 59.2564721,66.2461017 59.2564721,67.2004068 L59.2564721,76.6978475 L59.2564721,77.4893898 L60.0455428,77.4893898 L65.5059215,77.4893898 L69.5933147,77.4893898 L70.3823869,77.4893898 L70.3823869,76.6978475 L70.3823869,67.2004068 C70.3823869,66.1065254 70.0576525,64.7632373 69.1829969,63.6072712 C68.3083413,62.4513051 66.8279363,61.5448983 64.8115379,61.5336102 Z M79.1568668,61.5336102 C77.11033,61.5183559 75.6269305,62.5371864 74.7696261,63.7338814 C73.9123232,64.9305763 73.5860193,66.2461017 73.5860193,67.2004068 L73.5860193,76.6978475 L73.5860193,77.4893898 L74.37509,77.4893898 L79.8354687,77.4893898 L83.9228619,77.4893898 L84.7277158,77.4893898 L84.7277158,76.6978475 L84.7277158,67.2004068 C84.7277158,66.1065254 84.3871997,64.7632373 83.5125441,63.6072712 C82.6378885,62.4513051 81.1732606,61.5448983 79.1568668,61.5336102 Z M9.15040058,61.5488644 C9.97983267,61.5488644 10.5299029,61.8672203 10.9337024,62.3404068 C11.3375034,62.8134407 11.5491791,63.4705932 11.5491791,64.0182203 L11.5491791,72.7084068 L9.16618227,72.7084068 L6.78318396,72.7084068 L6.78318396,63.8600339 C6.81662708,63.289678 7.0147506,62.7182542 7.36709727,62.308678 C7.75267262,61.8605085 8.29973462,61.5571017 9.15040058,61.5488644 Z M39.3245126,61.5488644 C39.7623529,61.5488644 39.9341919,61.6068305 40.1767115,61.7705085 L40.1767115,72.7084068 L39.3402943,72.7084068 L36.9572975,72.7084068 L36.9572975,64.0182203 C36.9572975,63.3953898 37.1714202,62.7568475 37.5569925,62.308678 C37.9425633,61.8605085 38.4738451,61.5571017 39.3245126,61.5488644 Z M103.049964,61.5488644 C103.900627,61.5488644 104.447686,61.8605085 104.833263,62.308678 C105.21884,62.7568475 105.432958,63.3953898 105.432958,64.0182203 L105.432958,72.7084068 L103.034178,72.7084068 L102.213552,72.7084068 L102.213552,61.7705085 C102.445251,61.6130847 102.619462,61.5447458 103.049964,61.5488644 Z M133.23986,61.5488644 C134.090523,61.5488644 134.637597,61.8605085 135.023158,62.308678 C135.408735,62.7568475 135.622853,63.3953898 135.622853,64.0182203 L135.622853,72.7084068 L133.224073,72.7084068 L130.84108,72.7084068 L130.84108,64.0182203 C130.84108,63.4705932 131.052749,62.8134407 131.456561,62.3404068 C131.860357,61.8672203 132.410428,61.5409322 133.23986,61.5488644 Z M50.5293358,63.1317966 C52.1032371,63.1470508 53.0206159,63.756 53.6382796,64.5722542 C54.2559417,65.388661 54.5220389,66.4500508 54.5220389,67.1999492 L54.5220389,75.9058475 L51.2237194,75.9058475 L46.5681946,75.9058475 L46.5681946,67.1999492 C46.5681946,66.6655932 46.825404,65.5418136 47.4519539,64.6672881 C48.0785053,63.7926102 48.985582,63.1229492 50.5293358,63.1317966 Z M64.8115379,63.1317966 C66.3854407,63.1470508 67.3028241,63.756 67.9204817,64.5722542 C68.5381392,65.388661 68.8042425,66.4500508 68.8042425,67.1999492 L68.8042425,75.9058475 L65.5059215,75.9058475 L60.8503967,75.9058475 L60.8503967,67.1999492 C60.8503967,66.6655932 61.1076122,65.5418136 61.7341575,64.6672881 C62.3607028,63.7926102 63.267775,63.1229492 64.8115379,63.1317966 Z M79.1410851,63.1317966 C80.7149727,63.1470508 81.6323667,63.756 82.2500289,64.5722542 C82.8676925,65.388661 83.1337897,66.4500508 83.1337897,67.1999492 L83.1337897,75.9058475 L79.8354687,75.9058475 L75.1799439,75.9058475 L75.1799439,67.1999492 C75.1799439,66.6655932 75.4371594,65.5418136 76.0637047,64.6672881 C76.69025,63.7926102 77.5973221,63.1229492 79.1410851,63.1317966 Z M2.01719037,83.8679492 L5.18925937,83.8679492 L5.18925937,83.8832034 L5.97833158,83.8832034 L15.5103203,83.8832034 L15.5261065,83.8832034 L16.3151787,83.8832034 L33.0277227,83.8832034 L33.8167949,83.8832034 L33.8167949,83.8679492 L40.9815685,83.8679492 L88.6888615,83.8679492 L100.619632,83.8679492 L100.619632,83.8832034 L101.408701,83.8832034 L109.378324,83.8832034 L110.167393,83.8832034 L110.167393,83.8679492 L126.864166,83.8679492 L126.879983,83.8679492 L127.669052,83.8679492 L136.427744,83.8679492 L141.982816,83.8679492 L141.982816,87.0653898 L2.01719037,87.0653898 L2.01719037,83.8679492 Z" id="Shape"></path>
                    </g>
                </g>
            </g>
        </g>
    </g>
</svg>