<?xml version="1.0" encoding="UTF-8" standalone="no"?>
<svg width="15px" height="16px" viewBox="0 0 15 16" version="1.1" xmlns="http://www.w3.org/2000/svg" xmlns:xlink="http://www.w3.org/1999/xlink">
    <!-- Generator: Sketch 49 (51002) - http://www.bohemiancoding.com/sketch -->
    <title>Page 1</title>
    <desc>Created with Sketch.</desc>
    <defs>
        <polygon id="path-1" points="0 14.6793 14.679 14.6793 14.679 0.0003 0 0.0003"></polygon>
    </defs>
    <g id="Listing" stroke="none" stroke-width="1" fill="none" fill-rule="evenodd">
        <g id="Listing-2" transform="translate(-226.000000, -1110.000000)">
            <g id="Group-40" transform="translate(152.000000, 690.000000)">
                <g id="Group-38">
                    <g id="Group-39">
                        <g id="Page-1" transform="translate(74.000000, 421.000000)">
                            <path d="M14.179,7.3395 C14.179,11.1165 11.117,14.1795 7.34,14.1795 C3.562,14.1795 0.5,11.1165 0.5,7.3395 C0.5,3.5625 3.562,0.4995 7.34,0.4995 C11.117,0.4995 14.179,3.5625 14.179,7.3395 Z" id="Stroke-1" stroke="#30343F" stroke-linecap="round" stroke-linejoin="round"></path>
                            <mask id="mask-2" fill="white">
                                <use xlink:href="#path-1"></use>
                            </mask>
                            <g id="Clip-4"></g>
                            <path d="M6.657,11.8633 L8.028,11.8633 L8.028,5.4763 L6.657,5.4763 L6.657,11.8633 Z M7.917,3.0503 C8.069,3.2063 8.145,3.4083 8.145,3.6543 C8.145,3.8923 8.069,4.0893 7.917,4.2453 C7.764,4.4023 7.571,4.4803 7.337,4.4803 C7.106,4.4803 6.915,4.4033 6.763,4.2483 C6.61,4.0943 6.534,3.8963 6.534,3.6543 C6.534,3.4083 6.61,3.2063 6.763,3.0503 C6.915,2.8943 7.106,2.8163 7.337,2.8163 C7.571,2.8163 7.764,2.8943 7.917,3.0503 Z" id="Fill-3" fill="#30343F" mask="url(#mask-2)"></path>
                        </g>
                    </g>
                </g>
            </g>
        </g>
    </g>
</svg>