<?xml version="1.0" encoding="UTF-8" standalone="no"?>
<svg width="17px" height="17px" viewBox="0 0 17 17" version="1.1" xmlns="http://www.w3.org/2000/svg" xmlns:xlink="http://www.w3.org/1999/xlink">
    <!-- Generator: Sketch 49.2 (51160) - http://www.bohemiancoding.com/sketch -->
    <title>Group 4</title>
    <desc>Created with Sketch.</desc>
    <defs></defs>
    <g id="Services" stroke="none" stroke-width="1" fill="none" fill-rule="evenodd" opacity="0.6">
        <g id="Guarantor" transform="translate(-1219.000000, -1408.000000)" fill="#303944">
            <g id="Group-19" transform="translate(0.000000, 1014.000000)">
                <g id="Group-17">
                    <g id="Group-16">
                        <g id="Group-14">
                            <g id="Group-2" transform="translate(153.000000, 63.000000)">
                                <g id="fine-print" transform="translate(186.000000, 327.000000)">
                                    <g id="social" transform="translate(709.000000, 0.000000)">
                                        <g id="Group-12">
                                            <g id="Group-4" transform="translate(167.115972, 0.000000)">
                                                <g id="instagram" transform="translate(4.413375, 4.087137)">
                                                    <path d="M8.06802849,1.49801644 C10.2216158,1.49801644 10.4766872,1.50645021 11.3271598,1.54637887 C12.1135365,1.58330958 12.5405977,1.71851355 12.8248356,1.83213891 C13.2012796,1.98269498 13.4699898,2.1625716 13.7522107,2.4529768 C14.0344316,2.743382 14.2092389,3.01988465 14.3555199,3.40724532 C14.4659751,3.69972602 14.5973687,4.13917185 14.6332586,4.94832014 C14.672062,5.82348908 14.6802581,6.0859574 14.6802581,8.30199781 C14.6802581,10.5180382 14.672062,10.7805065 14.6332586,11.6556425 C14.5973687,12.4648238 14.4659751,12.9042696 14.3555199,13.1967503 C14.2092389,13.584111 14.0344316,13.8606136 13.7522107,14.1510188 C13.4699898,14.441424 13.2012796,14.6213006 12.8248356,14.7718238 C12.5405977,14.8854821 12.1135365,15.020686 11.3271598,15.0576168 C10.4768152,15.0975454 10.2217439,15.1059792 8.06802849,15.1059792 C5.91431311,15.1059792 5.65924174,15.0975454 4.80889715,15.0576168 C4.02252051,15.020686 3.59545927,14.8854821 3.31125336,14.7718238 C2.93477738,14.6213006 2.66606721,14.441424 2.38384629,14.1510188 C2.10162537,13.8606136 1.92681809,13.584111 1.78053705,13.1967503 C1.6700819,12.9042696 1.53868829,12.4648238 1.50279837,11.6556755 C1.46399499,10.7805065 1.4557989,10.5180382 1.4557989,8.30199781 C1.4557989,6.0859574 1.46399499,5.82348908 1.50279837,4.94835308 C1.53868829,4.13917185 1.6700819,3.69972602 1.78053705,3.40724532 C1.92681809,3.01988465 2.10162537,2.743382 2.38384629,2.4529768 C2.66606721,2.1625716 2.93477738,1.98269498 3.31125336,1.83213891 C3.59545927,1.71851355 4.02252051,1.58330958 4.80886514,1.54637887 C5.65936981,1.50645021 5.91444117,1.49801644 8.06802849,1.49801644 M8.06802849,0.00260261042 C5.87755875,0.00260261042 5.60292563,0.0121564968 4.74265608,0.052546375 C3.88414741,0.0928703644 3.29787068,0.233147772 2.7848145,0.438325718 C2.25443767,0.650421995 1.80464509,0.934205365 1.3562612,1.39559219 C0.907877317,1.85697901 0.632091613,2.31981539 0.425972695,2.86557291 C0.226577133,3.39350749 0.0902530647,3.996786 0.0510654978,4.88019105 C0.0118138989,5.76537509 0.00256127889,6.04800541 0.00256127889,8.30199781 C0.00256127889,10.5559902 0.0118138989,10.8386205 0.0510654978,11.7238046 C0.0902530647,12.6072096 0.226577133,13.2104881 0.425972695,13.7384227 C0.632091613,14.2841473 0.907877317,14.7470166 1.3562612,15.2084034 C1.80464509,15.6697903 2.25443767,15.9535736 2.7848145,16.1656699 C3.29787068,16.3708478 3.88414741,16.5111253 4.74265608,16.5514492 C5.60292563,16.5918391 5.87755875,16.6013601 8.06802849,16.6013601 C10.2584982,16.6013601 10.5331634,16.5918391 11.3934009,16.5514492 C12.2519096,16.5111253 12.8381863,16.3708478 13.3512425,16.1656699 C13.8816193,15.9535736 14.3314119,15.6697903 14.7797958,15.2084034 C15.2281797,14.7470166 15.5039654,14.2841802 15.7100843,13.7384227 C15.9094798,13.2104881 16.0458039,12.6072096 16.0849915,11.7238046 C16.1242431,10.8386205 16.1335277,10.5559902 16.1335277,8.30199781 C16.1335277,6.04800541 16.1242431,5.76537509 16.0849915,4.88019105 C16.0458039,3.996786 15.9094798,3.39350749 15.7100843,2.86557291 C15.5039654,2.31981539 15.2281797,1.85697901 14.7797958,1.39559219 C14.3314119,0.934205365 13.8816193,0.650421995 13.3512425,0.438325718 C12.8381863,0.233147772 12.2519096,0.0928703644 11.3934009,0.052546375 C10.5331634,0.0121564968 10.2584982,0.00260261042 8.06802849,0.00260261042" id="Fill-1"></path>
                                                    <path d="M8.06802849,4.04014088 C5.78061435,4.04014088 3.92628045,5.94824965 3.92628045,8.30199781 C3.92628045,10.655746 5.78061435,12.5638547 8.06802849,12.5638547 C10.3554426,12.5638547 12.2097765,10.655746 12.2097765,8.30199781 C12.2097765,5.94824965 10.3554426,4.04014088 8.06802849,4.04014088 Z M8.06802849,11.0684739 C6.5832231,11.0684739 5.37951807,9.82986191 5.37951807,8.30199781 C5.37951807,6.77413371 6.5832231,5.53552176 8.06802849,5.53552176 C9.55283387,5.53552176 10.7565389,6.77413371 10.7565389,8.30199781 C10.7565389,9.82986191 9.55283387,11.0684739 8.06802849,11.0684739 L8.06802849,11.0684739 Z" id="Fill-2"></path>
                                                    <path d="M13.3412535,3.87176187 C13.3412535,4.42180217 12.9079491,4.86770511 12.3734102,4.86770511 C11.8388713,4.86770511 11.405535,4.42180217 11.405535,3.87176187 C11.405535,3.32172157 11.8388713,2.87585157 12.3734102,2.87585157 C12.9079491,2.87585157 13.3412535,3.32172157 13.3412535,3.87176187" id="Fill-3"></path>
                                                </g>
                                            </g>
                                        </g>
                                    </g>
                                </g>
                            </g>
                        </g>
                    </g>
                </g>
            </g>
        </g>
    </g>
</svg>