<?xml version="1.0" encoding="UTF-8" standalone="no"?>
<svg width="18px" height="19px" viewBox="0 0 18 19" version="1.1" xmlns="http://www.w3.org/2000/svg" xmlns:xlink="http://www.w3.org/1999/xlink">
    <!-- Generator: Sketch 49.2 (51160) - http://www.bohemiancoding.com/sketch -->
    <title>Group 5</title>
    <desc>Created with Sketch.</desc>
    <defs></defs>
    <g id="Services" stroke="none" stroke-width="1" fill="none" fill-rule="evenodd">
        <g id="Group-5" transform="translate(-3.000000, -3.000000)" fill="#FD6F56">
            <g id="linkedin" transform="translate(3.002083, 3.094828)">
                <path d="M15.2309483,15.6721283 L12.5801665,15.6721283 L12.5801665,11.4036242 C12.5801665,10.385927 12.5632857,9.07651034 11.202892,9.07651034 C9.82313499,9.07651034 9.61262151,10.1856573 9.61262151,11.3310775 L9.61262151,15.6721283 L6.96481869,15.6721283 L6.96481869,6.89500077 L9.50587529,6.89500077 L9.50587529,8.09508648 L9.54261585,8.09508648 C9.89611962,7.40487115 10.7610123,6.6773607 12.0504074,6.6773607 C14.7349507,6.6773607 15.2309483,8.49460416 15.2309483,10.8585022 L15.2309483,15.6721283 Z M3.97592444,5.69593684 C3.12443712,5.69593684 2.43778584,4.98732939 2.43778584,4.11370378 C2.43778584,3.24058905 3.12443712,2.53198161 3.97592444,2.53198161 C4.82393629,2.53198161 5.51207706,3.24058905 5.51207706,4.11370378 C5.51207706,4.98732939 4.82393629,5.69593684 3.97592444,5.69593684 Z M2.64829932,15.6721283 L5.30206008,15.6721283 L5.30206008,6.89500077 L2.64829932,6.89500077 L2.64829932,15.6721283 Z M16.551126,0 L1.31819173,0 C0.590827932,0 0,0.593656705 0,1.32627608 L0,17.0648204 C0,17.7974397 0.590827932,18.3921182 1.31819173,18.3921182 L16.551126,18.3921182 C17.2799793,18.3921182 17.8732897,17.7974397 17.8732897,17.0648204 L17.8732897,1.32627608 C17.8732897,0.593656705 17.2799793,0 16.551126,0 L16.551126,0 Z" id="Fill-4"></path>
            </g>
        </g>
    </g>
</svg>