<?xml version="1.0" encoding="UTF-8" standalone="no"?>
<svg width="10px" height="16px" viewBox="0 0 10 16" version="1.1" xmlns="http://www.w3.org/2000/svg" xmlns:xlink="http://www.w3.org/1999/xlink">
    <!-- Generator: Sketch 49 (51002) - http://www.bohemiancoding.com/sketch -->
    <title>Group 37</title>
    <desc>Created with Sketch.</desc>
    <defs>
        <polygon id="path-1" points="0 15.23 10 15.23 10 0 0 0"></polygon>
    </defs>
    <g id="Page-1" stroke="none" stroke-width="1" fill="none" fill-rule="evenodd">
        <g id="Book_accommodaton_1-Copy-3" transform="translate(-860.000000, -934.000000)">
            <g id="Group-29" transform="translate(800.000000, 489.000000)">
                <g id="Group-26">
                    <g id="Group-37" transform="translate(57.000000, 445.000000)">
                        <g id="Page-1" transform="translate(3.000000, 0.000000)">
                            <path d="M5,7.0681 C3.189,7.0681 1.716,5.5941 1.716,3.7841 C1.716,1.9731 3.189,0.5001 5,0.5001 C6.811,0.5001 8.284,1.9731 8.284,3.7841 C8.284,5.5941 6.811,7.0681 5,7.0681 Z" id="Fill-1" fill="#B4F1E3"></path>
                            <path d="M5,7.0681 C6.811,7.0681 8.284,5.5941 8.284,3.7841 C8.284,1.9731 6.811,0.5001 5,0.5001 C3.189,0.5001 1.716,1.9731 1.716,3.7841 C1.716,5.5941 3.189,7.0681 5,7.0681 Z" id="Stroke-3" stroke="#30343F" stroke-linecap="round" stroke-linejoin="round"></path>
                            <mask id="mask-2" fill="white">
                                <use xlink:href="#path-1"></use>
                            </mask>
                            <g id="Clip-6"></g>
                            <polygon id="Fill-5" fill="#B4F1E3" mask="url(#mask-2)" points="0.5 14.73 9.5 14.73 9.5 8.73 0.5 8.73"></polygon>
                            <polygon id="Stroke-7" stroke="#30343F" stroke-linecap="round" stroke-linejoin="round" mask="url(#mask-2)" points="0.5 14.73 9.5 14.73 9.5 8.73 0.5 8.73"></polygon>
                        </g>
                        <rect id="Rectangle-6" x="0" y="0" width="16" height="16"></rect>
                    </g>
                </g>
            </g>
        </g>
    </g>
</svg>