<svg xmlns="http://www.w3.org/2000/svg" viewBox="0 0 88.5 69.42"><defs><style>.cls-1,.cls-2,.cls-4,.cls-5{fill:none;stroke-linecap:round;stroke-linejoin:round;}.cls-1{stroke:#a7d3db;}.cls-2{stroke:#fff;}.cls-3{fill:#ffad85;stroke-miterlimit:10;}.cls-3,.cls-4,.cls-5{stroke:#332e48;}.cls-4{stroke-width:2px;}.cls-6{fill:#332e48;}</style></defs><title>Asset 4</title><g id="Layer_2" data-name="Layer 2"><g id="Layer_1-2" data-name="Layer 1"><line class="cls-1" x1="1.91" y1="38.71" x2="1.91" y2="41.52"/><line class="cls-1" x1="0.5" y1="40.12" x2="3.32" y2="40.12"/><line class="cls-2" x1="19.45" y1="22.06" x2="19.45" y2="24.88"/><line class="cls-2" x1="18.04" y1="23.47" x2="20.86" y2="23.47"/><line class="cls-2" x1="61.59" y1="10.27" x2="61.59" y2="14.96"/><line class="cls-2" x1="59.24" y1="12.61" x2="63.93" y2="12.61"/><line class="cls-1" x1="18.04" y1="0.5" x2="18.04" y2="5.19"/><line class="cls-1" x1="15.7" y1="2.84" x2="20.39" y2="2.84"/><line class="cls-1" x1="85.72" y1="17" x2="85.72" y2="19.81"/><line class="cls-1" x1="84.31" y1="18.4" x2="87.13" y2="18.4"/><line class="cls-1" x1="85.66" y1="59.79" x2="85.66" y2="64.48"/><line class="cls-1" x1="83.31" y1="62.14" x2="88" y2="62.14"/><path class="cls-3" d="M44.09,75.6a32,32,0,1,1,32-32A32,32,0,0,1,44.09,75.6Z" transform="translate(0 -6.68)"/><path class="cls-4" d="M57,60.74l-.7-.79c-3.75-4.23-8-6.34-12.17-6.34S35.67,55.72,31.91,60l-.7.79" transform="translate(0 -6.68)"/><path class="cls-5" d="M20.75,33.79l.32.05a5.7,5.7,0,0,0,4.34-1,5.67,5.67,0,0,0,2-4l0-.33" transform="translate(0 -6.68)"/><circle class="cls-6" cx="26.11" cy="30.91" r="1.57"/><path class="cls-5" d="M67.13,33.79l-.33.05a5.71,5.71,0,0,1-4.34-1,5.66,5.66,0,0,1-2-4l0-.33" transform="translate(0 -6.68)"/><circle class="cls-6" cx="63.86" cy="30.91" r="1.57"/></g></g></svg>