<svg id="Layer_1" data-name="Layer 1" xmlns="http://www.w3.org/2000/svg" xmlns:xlink="http://www.w3.org/1999/xlink" viewBox="0 0 80 80"><defs><style>.cls-1,.cls-4,.cls-5,.cls-6{fill:none;}.cls-2{clip-path:url(#clip-path);}.cls-3{fill:#ffad85;}.cls-4{stroke:#a7d3db;}.cls-4,.cls-5,.cls-6{stroke-linecap:round;stroke-linejoin:round;}.cls-5{stroke:#fff;}.cls-6{stroke:#545a5b;}.cls-7{fill:#fff;}.cls-8{fill:#b4f1e3;}</style><clipPath id="clip-path"><rect class="cls-1" x="1.6" y="6.48" width="76.02" height="67.03"/></clipPath></defs><title>payment_active</title><g class="cls-2"><circle class="cls-3" cx="40.6" cy="46.02" r="33.3"/></g><line class="cls-4" x1="2.38" y1="45.85" x2="2.38" y2="48.29"/><line class="cls-4" x1="1.15" y1="47.07" x2="3.6" y2="47.07"/><line class="cls-5" x1="17.59" y1="31.41" x2="17.59" y2="33.85"/><line class="cls-5" x1="16.37" y1="32.63" x2="18.81" y2="32.63"/><line class="cls-5" x1="54.13" y1="21.18" x2="54.13" y2="25.25"/><line class="cls-5" x1="52.1" y1="23.22" x2="56.16" y2="23.22"/><line class="cls-4" x1="16.37" y1="12.71" x2="16.37" y2="16.78"/><line class="cls-4" x1="14.34" y1="14.74" x2="18.4" y2="14.74"/><line class="cls-4" x1="75.06" y1="27.02" x2="75.06" y2="29.46"/><line class="cls-4" x1="73.84" y1="28.24" x2="76.28" y2="28.24"/><line class="cls-4" x1="76.81" y1="64.53" x2="76.81" y2="68.6"/><line class="cls-4" x1="74.78" y1="66.57" x2="78.85" y2="66.57"/><line class="cls-6" x1="19.26" y1="73.51" x2="60.74" y2="73.51"/><path class="cls-7" d="M67.61,48.71,56.89,31.6a1.88,1.88,0,0,0-2.62-.46L26,48.83a1.88,1.88,0,0,0-.73,2.56L36,68.5a1.88,1.88,0,0,0,2.62.46L66.87,51.27A1.89,1.89,0,0,0,67.61,48.71Z"/><path class="cls-6" d="M67.61,48.71,56.89,31.6a1.9,1.9,0,0,0-2.65-.44l-28.79,18a1.91,1.91,0,0,0-.76,2.58L35.4,68.87a1.92,1.92,0,0,0,2.66.44l28.78-18A1.92,1.92,0,0,0,67.61,48.71Z"/><polygon class="cls-6" points="27.75 56.91 60.16 37.09 60.16 37.09 27.75 56.91 27.75 56.91"/><path class="cls-8" d="M25.18,39.87H59a1.39,1.39,0,0,1,1.39,1.39v5.54a.18.18,0,0,1-.18.18h-35a1.39,1.39,0,0,1-1.39-1.39V41.26a1.39,1.39,0,0,1,1.39-1.39Z" transform="translate(-16.53 28.57) rotate(-31.67)"/><path class="cls-7" d="M60,71.33V51.14a1.89,1.89,0,0,0-2-1.78H24.63a1.89,1.89,0,0,0-2,1.78V71.33a1.89,1.89,0,0,0,2,1.78H58A1.89,1.89,0,0,0,60,71.33Z"/><path class="cls-6" d="M60.15,71.33V51.14a1.92,1.92,0,0,0-2-1.78h-34a1.91,1.91,0,0,0-2,1.78V71.33a1.91,1.91,0,0,0,2,1.78h34A1.92,1.92,0,0,0,60.15,71.33Z"/><circle class="cls-6" cx="49.73" cy="68.09" r="1.75"/><circle class="cls-6" cx="53.83" cy="68.09" r="1.75"/><line class="cls-6" x1="44.71" y1="54.11" x2="41.15" y2="54.11"/><line class="cls-6" x1="37.58" y1="54.11" x2="26.9" y2="54.11"/></svg>