<?xml version="1.0" encoding="utf-8"?>
<!-- Generator: Adobe Illustrator 21.1.0, SVG Export Plug-In . SVG Version: 6.00 Build 0)  -->
<svg version="1.1" id="Layer_1" xmlns="http://www.w3.org/2000/svg" xmlns:xlink="http://www.w3.org/1999/xlink" x="0px" y="0px"
	 viewBox="0 0 19 19" style="enable-background:new 0 0 19 19;" xml:space="preserve">
<style type="text/css">
	.st0{fill:#FD6F56;}
</style>
<title>pinterest-logo</title>
<desc>Created with Sketch.</desc>
<g id="Account-Setttings">
	<g id="Account-Setttings-2" transform="translate(-1199.000000, -1529.000000)">
		<g id="pinterest-logo" transform="translate(1199.000000, 1529.000000)">
			<path id="Shape" class="st0" d="M16.6,0H1.9C0.8,0,0,0.8,0,1.9v14.8c0,1,0.8,1.9,1.9,1.9h14.8c1,0,1.9-0.8,1.9-1.9V1.9
				C18.5,0.8,17.7,0,16.6,0z M10.2,13.1c-0.7,0-1.5-0.3-1.9-0.8l-0.9,3l-0.1,0.2c-0.2,0.3-0.5,0.5-0.8,0.5c-0.6,0-1-0.5-1-1
				c0-0.1,0-0.1,0-0.1l0.1-0.2l1.7-5.2c0,0-0.2-0.6-0.2-1.4c0-1.6,0.8-2,1.6-2c0.6,0,1.3,0.3,1.3,1.2C9.8,8.4,9,9.1,9,10
				c0,0.6,0.6,1.2,1.2,1.2c2.1,0,3-1.7,3-3.1c0-2-1.8-3.7-3.9-3.7C7.1,4.3,5.4,6,5.4,8c0,0.6,0.2,1.2,0.5,1.8
				c0.1,0.2,0.1,0.3,0.1,0.5c0,0.6-0.4,0.9-0.9,0.9c-0.4,0-0.6-0.2-0.8-0.5C3.7,9.9,3.4,9,3.4,8c0-3.1,2.6-5.6,5.7-5.6
				s5.7,2.5,5.7,5.6C15,10.5,13.5,13.1,10.2,13.1z"/>
		</g>
	</g>
</g>
</svg>
