<?xml version="1.0" encoding="UTF-8" standalone="no"?>
<svg width="19px" height="19px" viewBox="0 0 19 19" version="1.1" xmlns="http://www.w3.org/2000/svg" xmlns:xlink="http://www.w3.org/1999/xlink">
    <!-- Generator: Sketch 49.2 (51160) - http://www.bohemiancoding.com/sketch -->
    <title>pinterest-logo</title>
    <desc>Created with Sketch.</desc>
    <defs></defs>
    <g id="Account-Setttings" stroke="none" stroke-width="1" fill="none" fill-rule="evenodd" opacity="0.6">
        <g id="Account-Setttings-2" transform="translate(-1199.000000, -1529.000000)" fill="#303944" fill-rule="nonzero">
            <g id="pinterest-logo" transform="translate(1199.000000, 1529.000000)">
                <path d="M16.65,0 L1.85,0 C0.8325,0 0,0.8325 0,1.85 L0,16.65 C0,17.6675 0.8325,18.5 1.85,18.5 L16.65,18.5 C17.6675,18.5 18.5,17.6675 18.5,16.65 L18.5,1.85 C18.5,0.8325 17.6675,0 16.65,0 Z M10.175,13.135 C9.435,13.135 8.695,12.8575363 8.2325,12.3025363 L7.3075,15.2625363 L7.215,15.4475363 C7.03,15.7250363 6.7525,15.9100363 6.3825,15.9100363 C5.8275,15.9100363 5.365,15.4475363 5.365,14.8925363 C5.365,14.8000363 5.365,14.8000363 5.365,14.8000363 L5.4575,14.6150363 L7.1225,9.435 C7.1225,9.435 6.9375,8.88 6.9375,8.0475 C6.9375,6.475 7.77,6.0125 8.51,6.0125 C9.1575,6.0125 9.805,6.29 9.805,7.215 C9.805,8.4175 8.9725,9.065 8.9725,9.99 C8.9725,10.6375 9.5275,11.1924637 10.175,11.1924637 C12.3025,11.1924637 13.135,9.5275 13.135,8.04746373 C13.135,6.01246373 11.3775363,4.34746373 9.25,4.34746373 C7.1225,4.34746373 5.365,6.01246373 5.365,8.04746373 C5.365,8.69496373 5.55,9.24996373 5.8275,9.80496373 C5.92,9.99 5.92,10.0824637 5.92,10.2674637 C5.92,10.8224637 5.55,11.1924637 4.995,11.1924637 C4.625,11.1924637 4.3475,11.0074637 4.1625,10.7299637 C3.7,9.89746373 3.4225,8.97246373 3.4225,7.95496373 C3.4225,4.90246373 6.0125,2.40496373 9.1575,2.40496373 C12.3025,2.40496373 14.8925,4.90246373 14.8925,7.95496373 C14.985,10.545 13.505,13.135 10.175,13.135 Z" id="Shape"></path>
            </g>
        </g>
    </g>
</svg>