<?xml version="1.0" encoding="UTF-8" standalone="no"?>
<svg width="15px" height="16px" viewBox="0 0 15 16" version="1.1" xmlns="http://www.w3.org/2000/svg" xmlns:xlink="http://www.w3.org/1999/xlink">
    <!-- Generator: Sketch 49 (51002) - http://www.bohemiancoding.com/sketch -->
    <title>Group 38</title>
    <desc>Created with Sketch.</desc>
    <defs></defs>
    <g id="Page-1" stroke="none" stroke-width="1" fill="none" fill-rule="evenodd">
        <g id="Book_accommodaton_1-Copy-3" transform="translate(-858.000000, -1028.000000)">
            <g id="Group-29" transform="translate(800.000000, 489.000000)">
                <g id="Group-26">
                    <g id="Group-38" transform="translate(57.000000, 539.000000)">
                        <g id="Page-1" transform="translate(1.000000, 1.000000)">
                            <path d="M14.1792,7.3395 C14.1792,11.1165 11.1172,14.1795 7.3402,14.1795 C3.5622,14.1795 0.5002,11.1165 0.5002,7.3395 C0.5002,3.5625 3.5622,0.4995 7.3402,0.4995 C11.1172,0.4995 14.1792,3.5625 14.1792,7.3395" id="Fill-1" fill="#B4F1E3"></path>
                            <path d="M14.1792,7.3395 C14.1792,11.1165 11.1172,14.1795 7.3402,14.1795 C3.5622,14.1795 0.5002,11.1165 0.5002,7.3395 C0.5002,3.5625 3.5622,0.4995 7.3402,0.4995 C11.1172,0.4995 14.1792,3.5625 14.1792,7.3395 Z" id="Stroke-3" stroke="#30343F" stroke-linecap="round" stroke-linejoin="round"></path>
                            <path d="M6.9321,12.2624 L6.9321,11.0514 C6.2371,11.0394 5.5171,10.8244 5.0971,10.5244 L5.3851,9.7204 C5.8171,10.0084 6.4411,10.2364 7.1131,10.2364 C7.9641,10.2364 8.5391,9.7434 8.5391,9.0604 C8.5391,8.4014 8.0721,7.9924 7.1841,7.6334 C5.9611,7.1544 5.2051,6.6024 5.2051,5.5584 C5.2051,4.5634 5.9121,3.8074 7.0161,3.6274 L7.0161,2.4164 L7.7601,2.4164 L7.7601,3.5794 C8.4801,3.6034 8.9711,3.7954 9.3191,3.9994 L9.0191,4.7904 C8.7671,4.6474 8.2761,4.3834 7.5081,4.3834 C6.5841,4.3834 6.2371,4.9354 6.2371,5.4144 C6.2371,6.0374 6.6801,6.3504 7.7241,6.7824 C8.9591,7.2854 9.5821,7.9084 9.5821,8.9764 C9.5821,9.9244 8.9231,10.8114 7.6881,11.0154 L7.6881,12.2624 L6.9321,12.2624 Z" id="Fill-5" fill="#30343F"></path>
                        </g>
                        <rect id="Rectangle-6" x="0" y="0" width="16" height="16"></rect>
                    </g>
                </g>
            </g>
        </g>
    </g>
</svg>