<?xml version="1.0" encoding="UTF-8" standalone="no"?>
<svg width="48px" height="51px" viewBox="0 0 48 51" version="1.1" xmlns="http://www.w3.org/2000/svg" xmlns:xlink="http://www.w3.org/1999/xlink">
    <!-- Generator: Sketch 49 (51002) - http://www.bohemiancoding.com/sketch -->
    <title>Page 1</title>
    <desc>Created with Sketch.</desc>
    <defs></defs>
    <g id="5th-Feb" stroke="none" stroke-width="1" fill="none" fill-rule="evenodd">
        <g id="Home-Copy-5" transform="translate(-525.000000, -1742.000000)">
            <g id="Group-46" transform="translate(132.000000, 1741.000000)">
                <g id="Group-45" transform="translate(299.333333, 1.000000)">
                    <g id="Page-1" transform="translate(94.000000, 0.000000)">
                        <path d="M47.2559,22.98315 C47.2559,17.5764906 45.4618845,12.6145775 42.4719093,8.73284471 C39.481934,4.85111194 32.6782794,0.46665 26.0639,0.46665 C14.3609,0.46665 4.8719,10.5487125 4.8719,22.98315 C4.8719,35.4175875 14.3609,45.49965 26.0639,45.49965 C37.7669,45.49965 47.2559,35.4175875 47.2559,22.98315 Z" id="Fill-1" fill="#B4F1E3"></path>
                        <path d="M37.3769,26.3934563 C36.8699,25.7336438 36.3929,25.1088938 36.2159,24.5383313 C36.0299,23.9231438 36.0689,23.0912063 36.1109,22.2114562 C36.1739,20.8822687 36.2459,19.3713938 35.4539,18.2143313 C34.6589,17.0477063 33.2729,16.6556438 32.0549,16.3082063 C31.2599,16.0818937 30.5099,15.8651438 30.0299,15.4953937 C29.5589,15.1288313 29.1389,14.4435188 28.6949,13.7167688 C28.0079,12.5852063 27.2249,11.3006437 25.9199,10.8480188 C24.7799,10.4591438 23.4059,10.9213312 22.1849,11.4185813 C21.3929,11.7373312 20.6519,12.0401437 20.0189,12.0401437 C19.3889,12.0401437 18.6479,11.7373312 17.8589,11.4185813 C16.6349,10.9213312 15.2579,10.4591438 14.1239,10.8480188 C12.8159,11.2974563 12.0329,12.5820188 11.3429,13.7135813 C10.9019,14.4403313 10.4849,15.1256438 10.0109,15.4922063 C9.5309,15.8651438 8.7779,16.0787063 7.9859,16.3050188 C6.7679,16.6524562 5.3849,17.0477063 4.5869,18.2143313 C3.7949,19.3682063 3.8669,20.8790813 3.9299,22.2082688 C3.9749,23.0912063 4.0109,23.9231438 3.8249,24.5383313 C3.6509,25.1088938 3.1739,25.7336438 2.6669,26.3934563 C1.8599,27.4453313 0.9419,28.6406438 0.9419,30.1323938 C0.9419,31.6177688 1.8569,32.8130813 2.6639,33.8681438 C3.1739,34.5279563 3.6479,35.1527063 3.8219,35.7232688 C4.0109,36.3384563 3.9719,37.1703938 3.9299,38.0501438 C3.8669,39.3793313 3.7949,40.8902063 4.5869,42.0440813 C5.3819,43.2107063 6.7679,43.6059563 7.9889,43.9533937 C8.7809,44.1797063 9.5309,44.3932688 10.0109,44.7662063 C10.4849,45.1295813 10.9019,45.8180813 11.3459,46.5416438 C12.0329,47.6763938 12.8159,48.9609563 14.1239,49.4135813 C15.2549,49.7992687 16.6349,49.3338938 17.8589,48.8430188 C18.6479,48.5210813 19.3889,48.2214563 20.0189,48.2214563 C20.6519,48.2214563 21.3929,48.5178938 22.1849,48.8430188 C23.0699,49.2032063 23.9909,49.5729563 24.9179,49.5729563 C25.2689,49.5729563 25.6079,49.5187688 25.9169,49.4135813 C27.2219,48.9609563 28.0079,47.6795813 28.6949,46.5416438 C29.1389,45.8212688 29.5559,45.1327688 30.0299,44.7693937 C30.5099,44.3932688 31.2599,44.1797063 32.0579,43.9533937 C33.2729,43.6059563 34.6559,43.2107063 35.4539,42.0440813 C36.2459,40.8933938 36.1739,39.3825188 36.1109,38.0501438 C36.0689,37.1672063 36.0299,36.3352688 36.2159,35.7232688 C36.3929,35.1527063 36.8699,34.5279563 37.3769,33.8681438 C38.1839,32.8162687 39.0989,31.6209562 39.0989,30.1323938 C39.0959,28.6438312 38.1839,27.4485187 37.3769,26.3934563 Z" id="Stroke-3" stroke="#332E48" stroke-linecap="round" stroke-linejoin="round"></path>
                        <path d="M20.0213,19.0347937 C13.4513,19.0347937 8.2793,25.5086063 9.8543,32.7633562 C10.7243,36.7668562 13.7903,40.0212938 17.5613,40.9424812 C24.3893,42.6095437 30.4703,37.1111062 30.4703,30.1368563" id="Stroke-5" stroke="#332E48" stroke-linecap="round" stroke-linejoin="round"></path>
                        <polyline id="Stroke-7" stroke="#332E48" stroke-linecap="round" stroke-linejoin="round" points="16.1789 28.0633875 20.7329 32.898825 28.9949 21.9242625"></polyline>
                    </g>
                </g>
            </g>
        </g>
    </g>
</svg>