<svg id="Layer_1" data-name="Layer 1" xmlns="http://www.w3.org/2000/svg" xmlns:xlink="http://www.w3.org/1999/xlink" viewBox="0 0 80 80"><defs><style>.cls-1,.cls-4{fill:none;}.cls-2{clip-path:url(#clip-path);}.cls-3{fill:#ffad85;}.cls-4{stroke:#424242;stroke-linecap:round;stroke-linejoin:round;}.cls-5{fill:#c5bed0;}.cls-6{fill:#fff;}.cls-7{fill:#424242;}.cls-8{fill:#cebde3;}.cls-9{fill:#b4f1e3;}</style><clipPath id="clip-path"><rect class="cls-1" x="0.73" y="3.36" width="79.11" height="69.75"/></clipPath></defs><title>Unilive-icons_services</title><g class="cls-2"><circle class="cls-3" cx="41.3" cy="44.5" r="34.65"/></g><line class="cls-4" x1="19.24" y1="73.11" x2="70.24" y2="73.11"/><path class="cls-5" d="M4.23,46.89a.23.23,0,0,0,0-.45l-.72,0a.21.21,0,0,0-.23.22.23.23,0,0,0,.22.23Z"/><path class="cls-5" d="M2,46.86c.11,0,.21-.11.23-.22A.21.21,0,0,0,2,46.41l-.72,0a.21.21,0,0,0-.23.22.23.23,0,0,0,.22.23Z"/><path class="cls-5" d="M2.68,48.37a.21.21,0,0,0,.23-.22l0-.72c0-.11-.11-.21-.22-.23a.21.21,0,0,0-.23.22l0,.72a.23.23,0,0,0,.22.23Z"/><path class="cls-5" d="M2.74,46.06A.21.21,0,0,0,3,45.84l0-.72a.23.23,0,0,0-.45,0l0,.72a.24.24,0,0,0,.06.16S2.67,46.08,2.74,46.06Z"/><path class="cls-5" d="M77,26.46A.23.23,0,1,0,77,26l-.72,0a.21.21,0,0,0-.23.22.23.23,0,0,0,.22.23Z"/><path class="cls-5" d="M74.7,26.43c.11,0,.21-.11.23-.22a.21.21,0,0,0-.22-.23L74,26a.21.21,0,0,0-.23.22.23.23,0,0,0,.22.23Z"/><path class="cls-5" d="M75.43,27.94a.21.21,0,0,0,.23-.22l0-.72c0-.11-.11-.21-.22-.23a.21.21,0,0,0-.23.22l0,.72a.23.23,0,0,0,.22.23Z"/><path class="cls-5" d="M75.49,25.63a.21.21,0,0,0,.23-.22l0-.72a.23.23,0,1,0-.45,0l0,.72a.24.24,0,0,0,.06.16S75.42,25.65,75.49,25.63Z"/><path class="cls-6" d="M18.18,59.23a.23.23,0,1,0,0-.45l-.72,0a.21.21,0,0,0-.23.22.23.23,0,0,0,.22.23Z"/><path class="cls-6" d="M15.89,59.19c.11,0,.21-.11.23-.22a.21.21,0,0,0-.22-.23l-.72,0a.21.21,0,0,0-.23.22.23.23,0,0,0,.22.23Z"/><path class="cls-6" d="M16.63,60.71a.21.21,0,0,0,.23-.22l0-.72c0-.11-.11-.21-.22-.23a.21.21,0,0,0-.23.22l0,.72a.23.23,0,0,0,.22.23Z"/><path class="cls-6" d="M16.68,58.4a.21.21,0,0,0,.23-.22l0-.72a.23.23,0,1,0-.45,0l0,.72a.24.24,0,0,0,.06.16S16.62,58.42,16.68,58.4Z"/><path class="cls-5" d="M19.09,12.2a.32.32,0,0,0-.33.36.35.35,0,0,0,.36.33l1.09,0a.34.34,0,1,0,0-.68Z"/><path class="cls-5" d="M15.6,12.35a.32.32,0,0,0-.33.36.35.35,0,0,0,.36.33l1.09,0a.34.34,0,1,0,0-.68Z"/><path class="cls-5" d="M17.94,13.45a.32.32,0,0,0-.33.36l0,1.09a.35.35,0,0,0,.36.33.32.32,0,0,0,.33-.36l0-1.09A.32.32,0,0,0,17.94,13.45Z"/><path class="cls-5" d="M17.79,10a.32.32,0,0,0-.33.36l0,1.09a.35.35,0,0,0,.36.33.32.32,0,0,0,.33-.36l0-1.09A.32.32,0,0,0,17.79,10Z"/><path class="cls-5" d="M77.69,63.82a.32.32,0,0,0-.33.36.35.35,0,0,0,.36.33l1.09,0a.34.34,0,1,0,0-.68Z"/><path class="cls-5" d="M74.2,64a.32.32,0,0,0-.33.36.35.35,0,0,0,.36.33l1.09,0a.34.34,0,1,0,0-.68Z"/><path class="cls-5" d="M76.54,65.07a.32.32,0,0,0-.33.36l0,1.09a.35.35,0,0,0,.36.33.32.32,0,0,0,.33-.36l0-1.09A.32.32,0,0,0,76.54,65.07Z"/><path class="cls-5" d="M76.39,61.58a.32.32,0,0,0-.33.36l0,1.09a.35.35,0,0,0,.36.33A.32.32,0,0,0,76.8,63l0-1.09A.32.32,0,0,0,76.39,61.58Z"/><path class="cls-6" d="M73,40.13a.32.32,0,0,0-.33.36.35.35,0,0,0,.36.33l1.09,0a.34.34,0,0,0,0-.68Z"/><path class="cls-6" d="M69.56,40.28a.32.32,0,0,0-.33.36.35.35,0,0,0,.36.33l1.09,0a.34.34,0,0,0,0-.68Z"/><path class="cls-6" d="M71.9,41.38a.32.32,0,0,0-.33.36l0,1.09a.35.35,0,0,0,.36.33.32.32,0,0,0,.33-.36l0-1.09A.32.32,0,0,0,71.9,41.38Z"/><path class="cls-6" d="M71.75,37.89a.32.32,0,0,0-.33.36l0,1.09a.35.35,0,0,0,.36.33.32.32,0,0,0,.33-.36l0-1.09A.32.32,0,0,0,71.75,37.89Z"/><path class="cls-6" d="M60.71,58.41l-9.27-9.46a1.24,1.24,0,0,0-1.75,0L40,58.41l.16,3.26-.07,9.93a1.24,1.24,0,0,0,1.23,1.25L59.44,73a1.24,1.24,0,0,0,1.25-1.23l.07-9.93Z"/><path class="cls-4" d="M64.15,61.85,51.44,48.94a1.24,1.24,0,0,0-1.75,0L36.78,61.65m3.41-3.06-.1,13a1.24,1.24,0,0,0,1.23,1.25L59.44,73a1.24,1.24,0,0,0,1.25-1.23l.1-12.93"/><path class="cls-6" d="M40.56,30.15l-9.27-9.46a1.24,1.24,0,0,0-1.75,0l-9.67,9.48L20,33.41l-.07,9.93a1.24,1.24,0,0,0,1.23,1.25l18.12.13a1.24,1.24,0,0,0,1.25-1.23l.07-9.93Z"/><path class="cls-4" d="M44,33.59,31.29,20.69a1.24,1.24,0,0,0-1.75,0L16.63,33.39M20,30.33l-.1,13a1.24,1.24,0,0,0,1.23,1.25l18.12.13a1.24,1.24,0,0,0,1.25-1.23l.1-12.93"/><path class="cls-4" d="M33,67.8a24.12,24.12,0,0,1-15.6-27.53"/><polygon class="cls-7" points="36.78 68.79 32.13 65.14 32.77 67.65 30.91 69.45 36.78 68.79"/><path class="cls-4" d="M41.52,21A24.09,24.09,0,0,1,63.15,54.64"/><polygon class="cls-7" points="37.64 21.23 43.22 23.2 41.81 21.03 43 18.73 37.64 21.23"/><path class="cls-8" d="M43.09,72.53a7.61,7.61,0,1,1,14.42,0"/><line class="cls-4" x1="45.21" y1="70.11" x2="55.73" y2="70.11"/><line class="cls-4" x1="44.74" y1="67.1" x2="44.74" y2="72.66"/><line class="cls-4" x1="55.75" y1="68.53" x2="55.75" y2="72.66"/><line class="cls-4" x1="46.14" y1="69.21" x2="47.7" y2="69.21"/><path class="cls-9" d="M23.16,44.42a7.61,7.61,0,1,1,14.42,0"/><line class="cls-4" x1="25.28" y1="42" x2="35.8" y2="42"/><line class="cls-4" x1="24.81" y1="38.99" x2="24.81" y2="44.55"/><line class="cls-4" x1="35.82" y1="40.42" x2="35.82" y2="44.55"/><line class="cls-4" x1="26.21" y1="41.1" x2="27.77" y2="41.1"/></svg>