<?xml version="1.0" encoding="UTF-8" standalone="no"?>
<svg width="80px" height="67px" viewBox="0 0 80 67" version="1.1" xmlns="http://www.w3.org/2000/svg" xmlns:xlink="http://www.w3.org/1999/xlink">
    <!-- Generator: Sketch 49.2 (51160) - http://www.bohemiancoding.com/sketch -->
    <title>Page 1</title>
    <desc>Created with Sketch.</desc>
    <defs>
        <polygon id="path-1" points="0.212820513 0.407692308 68.5225641 0.407692308 68.5225641 62.76 0.212820513 62.76"></polygon>
        <polygon id="path-3" points="0 0.242628461 1.21928359 0.242628461 1.21928359 1.26826949 0 1.26826949"></polygon>
        <polygon id="path-5" points="0.60158556 0.172049184 2.44205128 0.172049184 2.44205128 1.19769021 0.60158556 1.19769021"></polygon>
    </defs>
    <g id="Home" stroke="none" stroke-width="1" fill="none" fill-rule="evenodd">
        <g id="Home-Copy" transform="translate(-784.000000, -3288.000000)">
            <g id="Group-70" transform="translate(207.000000, 2955.000000)">
                <g id="Page-1" transform="translate(577.000000, 332.000000)">
                    <path d="M13.5886154,67.4567179 L69.5547692,67.4567179" id="Stroke-1" stroke="#424242" stroke-linecap="round" stroke-linejoin="round"></path>
                    <g id="Group-4" transform="translate(6.153846, 3.937744)">
                        <mask id="mask-2" fill="white">
                            <use xlink:href="#path-1"></use>
                        </mask>
                        <g id="Clip-3"></g>
                        <path d="M68.5225641,34.5625641 C68.5225641,53.4261538 53.2312821,68.7184615 34.3676923,68.7184615 C15.5051282,68.7184615 0.212820513,53.4261538 0.212820513,34.5625641 C0.212820513,15.6989744 15.5051282,0.407692308 34.3676923,0.407692308 C53.2312821,0.407692308 68.5225641,15.6989744 68.5225641,34.5625641" id="Fill-2" fill="#FFAD85" mask="url(#mask-2)"></path>
                    </g>
                    <g id="Group-75" transform="translate(0.000000, 0.860821)">
                        <path d="M66.0024615,51.9013333 L16.1019487,51.9013333 L16.1019487,41.6028718 C16.1019487,41.0367179 16.5614359,40.5772308 17.1275897,40.5772308 L64.9768205,40.5772308 C65.544,40.5772308 66.0024615,41.0367179 66.0024615,41.6028718 L66.0024615,51.9013333 Z" id="Fill-5" fill="#B4F1E3"></path>
                        <path d="M60.8712821,40.5572308 L20.4579487,40.5572308 L20.4579487,26.8331282 C20.4579487,26.5500513 20.6866667,26.3203077 20.9707692,26.3203077 L60.3584615,26.3203077 C60.6415385,26.3203077 60.8712821,26.5500513 60.8712821,26.8331282 L60.8712821,40.5572308 Z" id="Fill-7" fill="#FFFFFF"></path>
                        <path d="M39.1955897,40.5772308 L26.0284103,40.5772308 L26.0284103,32.5085128 C26.0284103,32.3659487 26.1422564,32.2521026 26.2848205,32.2521026 L38.9391795,32.2521026 C39.0807179,32.2521026 39.1955897,32.3659487 39.1955897,32.5085128 L39.1955897,40.5772308 Z" id="Fill-9" fill="#CEBDE3"></path>
                        <path d="M56.4151795,40.5772308 L43.2469744,40.5772308 L43.2469744,32.5085128 C43.2469744,32.3659487 43.3618462,32.2521026 43.5033846,32.2521026 L56.1587692,32.2521026 C56.3003077,32.2521026 56.4151795,32.3659487 56.4151795,32.5085128 L56.4151795,40.5772308 Z" id="Fill-11" fill="#CEBDE3"></path>
                        <polygon id="Fill-13" fill="#FFFFFF" points="66.0024615 66.5958974 58.7450256 66.5958974 58.6968205 61.3876923 23.6332308 61.3876923 23.6229744 66.5958974 16.1019487 66.5958974 16.1019487 51.9015385 66.0024615 51.9015385"></polygon>
                        <path d="M39.1955897,40.5772308 L26.0284103,40.5772308 L26.0284103,32.5085128 C26.0284103,32.3659487 26.1422564,32.2521026 26.2848205,32.2521026 L38.9391795,32.2521026 C39.0807179,32.2521026 39.1955897,32.3659487 39.1955897,32.5085128 L39.1955897,40.5772308 Z" id="Stroke-15" stroke="#424242" stroke-linecap="round" stroke-linejoin="round"></path>
                        <path d="M56.4151795,40.5772308 L43.2469744,40.5772308 L43.2469744,32.5085128 C43.2469744,32.3659487 43.3618462,32.2521026 43.5033846,32.2521026 L56.1587692,32.2521026 C56.3003077,32.2521026 56.4151795,32.3659487 56.4151795,32.5085128 L56.4151795,40.5772308 Z" id="Stroke-17" stroke="#424242" stroke-linecap="round" stroke-linejoin="round"></path>
                        <path d="M66.0024615,51.9013333 L16.1019487,51.9013333 L16.1019487,41.6028718 C16.1019487,41.0367179 16.5614359,40.5772308 17.1275897,40.5772308 L64.9768205,40.5772308 C65.544,40.5772308 66.0024615,41.0367179 66.0024615,41.6028718 L66.0024615,51.9013333 Z" id="Stroke-19" stroke="#424242" stroke-linecap="round" stroke-linejoin="round"></path>
                        <polygon id="Stroke-21" stroke="#424242" stroke-linecap="round" stroke-linejoin="round" points="66.0024615 66.5958974 58.7450256 66.5958974 58.6968205 61.3876923 23.6332308 61.3876923 23.6229744 66.5958974 16.1019487 66.5958974 16.1019487 51.9015385 66.0024615 51.9015385"></polygon>
                        <path d="M60.8712821,40.5572308 L20.4579487,40.5572308 L20.4579487,26.8331282 C20.4579487,26.5500513 20.6866667,26.3203077 20.9707692,26.3203077 L60.3584615,26.3203077 C60.6415385,26.3203077 60.8712821,26.5500513 60.8712821,26.8331282 L60.8712821,40.5572308 Z" id="Stroke-23" stroke="#424242" stroke-linecap="round" stroke-linejoin="round"></path>
                        <path d="M3.33825641,37.6926154 C3.45415385,37.7192821 3.57415385,37.6054359 3.57723077,37.4649231 C3.60492308,37.3490256 3.49005128,37.2290256 3.3505641,37.2259487 L2.60184615,37.2064615 C2.48594872,37.1797949 2.36594872,37.293641 2.36184615,37.4341538 C2.36082051,37.4813333 2.38235897,37.5510769 2.42748718,37.5992821 C2.47364103,37.6474872 2.54338462,37.6721026 2.5905641,37.6741538 L3.33825641,37.6926154 Z" id="Fill-25" fill="#CEBDE3"></path>
                        <g id="Group-29" transform="translate(0.000000, 36.923077)">
                            <mask id="mask-4" fill="white">
                                <use xlink:href="#path-3"></use>
                            </mask>
                            <g id="Clip-28"></g>
                            <path d="M0.976410256,0.733435897 C1.09230769,0.759076923 1.18974359,0.622666667 1.21538462,0.50574359 C1.24205128,0.388820513 1.12820513,0.269846154 0.987692308,0.26574359 L0.238974359,0.24625641 C0.123076923,0.220615385 0.0041025641,0.334461538 6.77626358e-21,0.474974359 C-0.00102564103,0.521128205 0.0205128205,0.591897436 0.0656410256,0.640102564 C0.111794872,0.688307692 0.181538462,0.712923077 0.228717949,0.713948718 L0.976410256,0.733435897 Z" id="Fill-27" fill="#CEBDE3" mask="url(#mask-4)"></path>
                        </g>
                        <path d="M1.73169231,39.22 C1.84758974,39.245641 1.96758974,39.1317949 1.97169231,38.9912821 L1.99117949,38.2435897 C2.01682051,38.1276923 1.87938462,38.0302564 1.76246154,38.0035897 C1.6465641,37.9779487 1.5265641,38.0907692 1.52348718,38.2312821 L1.504,38.98 C1.50297436,39.0271795 1.52451282,39.0979487 1.57066667,39.1461538 C1.61579487,39.194359 1.68553846,39.2189744 1.73169231,39.22" id="Fill-30" fill="#CEBDE3"></path>
                        <path d="M1.79271795,36.8352821 C1.90861538,36.8609231 2.02758974,36.7470769 2.03169231,36.6065641 L2.05117949,35.8588718 C2.07682051,35.7429744 1.96297436,35.6219487 1.82246154,35.6188718 C1.7065641,35.5932308 1.58758974,35.7060513 1.58348718,35.8465641 L1.564,36.5952821 C1.56297436,36.6424615 1.58451282,36.7132308 1.63066667,36.7614359 C1.67579487,36.809641 1.72194872,36.8568205 1.79271795,36.8352821" id="Fill-32" fill="#CEBDE3"></path>
                        <path d="M77.1293333,18.0001026 C77.2452308,18.0257436 77.3652308,17.9129231 77.3693333,17.7724103 C77.396,17.6554872 77.2811282,17.5365128 77.141641,17.5324103 L76.3929231,17.5129231 C76.2770256,17.4872821 76.1570256,17.6011282 76.1539487,17.741641 C76.1529231,17.7877949 76.1734359,17.8585641 76.2195897,17.9067692 C76.2647179,17.9549744 76.3354872,17.9795897 76.381641,17.9806154 L77.1293333,18.0001026 Z" id="Fill-34" fill="#CEBDE3"></path>
                        <path d="M74.7674872,17.964 C74.8833846,17.989641 74.9808205,17.8522051 75.0064615,17.7352821 C75.0341538,17.6193846 74.9192821,17.4993846 74.7797949,17.4963077 L74.0310769,17.4768205 C73.9151795,17.4511795 73.7951795,17.564 73.7921026,17.7045128 C73.7900513,17.7516923 73.8115897,17.8224615 73.8567179,17.8706667 C73.9028718,17.9178462 73.9726154,17.9434872 74.0197949,17.9445128 L74.7674872,17.964 Z" id="Fill-36" fill="#CEBDE3"></path>
                        <path d="M75.5236923,19.5265641 C75.6395897,19.5532308 75.7595897,19.4393846 75.7626667,19.2988718 L75.7821538,18.5511795 C75.8077949,18.4352821 75.6713846,18.3378462 75.5534359,18.3111795 C75.4375385,18.2845128 75.3185641,18.398359 75.3144615,18.5388718 L75.2949744,19.2875897 C75.2939487,19.3347692 75.3165128,19.4045128 75.361641,19.4527179 C75.4077949,19.5009231 75.4765128,19.5255385 75.5236923,19.5265641" id="Fill-38" fill="#CEBDE3"></path>
                        <path d="M75.5837949,17.1417436 C75.6996923,17.1684103 75.8196923,17.0545641 75.8227692,16.9140513 L75.8422564,16.166359 C75.8689231,16.0504615 75.7550769,15.9294359 75.6145641,15.926359 C75.4986667,15.8996923 75.3786667,16.0135385 75.3745641,16.1540513 L75.3561026,16.9027692 C75.3540513,16.9499487 75.3766154,17.0196923 75.4217436,17.0678974 C75.4678974,17.1161026 75.5130256,17.1632821 75.5837949,17.1417436" id="Fill-40" fill="#CEBDE3"></path>
                        <path d="M18.4744615,22.5053333 C18.590359,22.532 18.710359,22.4181538 18.7134359,22.277641 C18.7401026,22.1617436 18.6262564,22.0417436 18.4867692,22.037641 L17.7380513,22.0181538 C17.6211282,21.9925128 17.5021538,22.106359 17.4980513,22.2468718 C17.4970256,22.2940513 17.5185641,22.3637949 17.5636923,22.412 C17.6098462,22.4602051 17.6795897,22.4848205 17.7267692,22.4858462 L18.4744615,22.5053333 Z" id="Fill-42" fill="#FFFFFF"></path>
                        <path d="M16.1116923,22.4692308 C16.2286154,22.4948718 16.3260513,22.3574359 16.3516923,22.2405128 C16.378359,22.1246154 16.2634872,22.005641 16.124,22.0015385 L15.3752821,21.9820513 C15.2593846,21.9564103 15.1404103,22.0702564 15.1363077,22.2107692 C15.1352821,22.2569231 15.1557949,22.3276923 15.2019487,22.3758974 C15.2470769,22.4241026 15.3178462,22.4487179 15.364,22.4497436 L16.1116923,22.4692308 Z" id="Fill-44" fill="#FFFFFF"></path>
                        <path d="M16.8678974,24.0327179 C16.9837949,24.058359 17.1037949,23.9445128 17.1068718,23.804 L17.126359,23.0563077 C17.1530256,22.9404103 17.0155897,22.8429744 16.8986667,22.8163077 C16.7827692,22.789641 16.6627692,22.9034872 16.6596923,23.044 L16.6402051,23.7927179 C16.6381538,23.8398974 16.6607179,23.9106667 16.7068718,23.9578462 C16.752,24.0060513 16.8207179,24.0306667 16.8678974,24.0327179" id="Fill-46" fill="#FFFFFF"></path>
                        <path d="M16.928,21.6478974 C17.0449231,21.6735385 17.1638974,21.5596923 17.168,21.4191795 L17.1874872,20.6714872 C17.2131282,20.5555897 17.0992821,20.4345641 16.9587692,20.4314872 C16.8428718,20.4048205 16.7228718,20.5186667 16.7197949,20.6591795 L16.7003077,21.4078974 C16.6992821,21.4550769 16.7208205,21.5258462 16.7669744,21.5730256 C16.8121026,21.6212308 16.8582564,21.6694359 16.928,21.6478974" id="Fill-48" fill="#FFFFFF"></path>
                        <path d="M17.2634872,3.25148718 C17.0850256,3.22379487 16.9157949,3.40738462 16.9250256,3.61969231 C16.9281026,3.69046154 16.9681026,3.79507692 17.0409231,3.86276923 C17.1147692,3.93046154 17.2224615,3.96020513 17.2932308,3.95712821 L18.4245128,3.90994872 C18.6029744,3.93661538 18.7722051,3.752 18.7629744,3.54071795 C18.7906667,3.36225641 18.6070769,3.19302564 18.3947692,3.20225641 L17.2634872,3.25148718 Z" id="Fill-50" fill="#CEBDE3"></path>
                        <path d="M13.6577436,3.40676923 C13.4792821,3.37907692 13.3100513,3.56266667 13.3192821,3.77497436 C13.322359,3.84574359 13.362359,3.95035897 13.4362051,4.01805128 C13.5090256,4.08574359 13.6177436,4.11548718 13.6874872,4.11241026 L14.8197949,4.06523077 C14.9982564,4.09189744 15.1664615,3.90728205 15.1572308,3.696 C15.1849231,3.51753846 15.0013333,3.34830769 14.7890256,3.35753846 L13.6577436,3.40676923 Z" id="Fill-52" fill="#CEBDE3"></path>
                        <path d="M16.0795897,4.54153846 C15.9011282,4.51384615 15.7318974,4.6974359 15.7411282,4.90974359 L15.790359,6.04102564 C15.7934359,6.11179487 15.8324103,6.21641026 15.9062564,6.28410256 C15.9801026,6.35282051 16.0877949,6.3825641 16.1585641,6.37948718 C16.3370256,6.40717949 16.5062564,6.22358974 16.496,6.01128205 L16.4477949,4.88 C16.4395897,4.66769231 16.2908718,4.53230769 16.0795897,4.54153846" id="Fill-54" fill="#CEBDE3"></path>
                        <path d="M15.9244103,0.935794872 C15.7459487,0.908102564 15.5767179,1.09271795 15.5859487,1.304 L15.6341538,2.43630769 C15.6382564,2.50605128 15.6772308,2.61169231 15.7510769,2.67835897 C15.8249231,2.74707692 15.9326154,2.77682051 16.0033846,2.77374359 C16.1818462,2.8014359 16.3500513,2.61784615 16.3408205,2.40553846 L16.2926154,1.27425641 C16.2844103,1.06194872 16.1356923,0.926564103 15.9244103,0.935794872" id="Fill-56" fill="#CEBDE3"></path>
                        <g id="Group-60" transform="translate(76.923077, 56.410256)">
                            <mask id="mask-6" fill="white">
                                <use xlink:href="#path-5"></use>
                            </mask>
                            <g id="Clip-59"></g>
                            <path d="M0.939384615,0.221641026 C0.760923077,0.193948718 0.592717949,0.377538462 0.601948718,0.589846154 C0.605025641,0.661641026 0.645025641,0.765230769 0.717846154,0.833948718 C0.791692308,0.900615385 0.899384615,0.931384615 0.970153846,0.928307692 L2.1014359,0.880102564 C2.27989744,0.907794872 2.44912821,0.723179487 2.43989744,0.510871795 C2.46758974,0.332410256 2.284,0.163179487 2.07169231,0.172410256 L0.939384615,0.221641026 Z" id="Fill-58" fill="#CEBDE3" mask="url(#mask-6)"></path>
                        </g>
                        <path d="M74.2577436,56.7871795 C74.0792821,56.7594872 73.9100513,56.9430769 73.9192821,57.1553846 C73.922359,57.2271795 73.962359,57.3307692 74.0351795,57.3994872 C74.1090256,57.4661538 74.2167179,57.4969231 74.2874872,57.4938462 L75.4187692,57.445641 C75.5972308,57.4733333 75.7664615,57.2887179 75.7572308,57.0764103 C75.7849231,56.8979487 75.6013333,56.7287179 75.3890256,56.7379487 L74.2577436,56.7871795 Z" id="Fill-61" fill="#CEBDE3"></path>
                        <path d="M76.6785641,57.9219487 C76.5001026,57.8952821 76.3318974,58.0788718 76.3411282,58.2911795 L76.3893333,59.4224615 C76.3924103,59.4932308 76.4324103,59.5978462 76.5062564,59.6645128 C76.5801026,59.7332308 76.6877949,59.764 76.7575385,59.7609231 C76.936,59.7875897 77.1052308,59.604 77.096,59.3927179 L77.0477949,58.2604103 C77.0385641,58.0481026 76.8908718,57.9127179 76.6785641,57.9219487" id="Fill-63" fill="#CEBDE3"></path>
                        <path d="M76.5232821,54.3172308 C76.3448205,54.2895385 76.1766154,54.4731282 76.1858462,54.6854359 L76.2340513,55.8167179 C76.2371282,55.8874872 76.2771282,55.9921026 76.3509744,56.0597949 C76.4237949,56.1274872 76.5325128,56.1582564 76.6022564,56.1551795 C76.7807179,56.1828718 76.9499487,55.9982564 76.9407179,55.7869744 L76.8925128,54.6546667 C76.8832821,54.4433846 76.7355897,54.308 76.5232821,54.3172308" id="Fill-65" fill="#CEBDE3"></path>
                        <path d="M65.1802051,36.433641 C65.0017436,36.4059487 64.8325128,36.5895385 64.8417436,36.8018462 C64.8448205,36.873641 64.8848205,36.9772308 64.957641,37.0459487 C65.0314872,37.1126154 65.1391795,37.1433846 65.2099487,37.1403077 L66.3412308,37.0921026 C66.5196923,37.1197949 66.6889231,36.9351795 66.6796923,36.7228718 C66.7073846,36.5444103 66.5237949,36.3751795 66.3114872,36.3844103 L65.1802051,36.433641 Z" id="Fill-67" fill="#FFFFFF"></path>
                        <path d="M61.574359,36.5888205 C61.3958974,36.5611282 61.2266667,36.7447179 61.2358974,36.9570256 C61.2389744,37.0288205 61.2789744,37.1324103 61.3528205,37.2011282 C61.425641,37.2677949 61.534359,37.2985641 61.6041026,37.2954872 L62.7364103,37.2472821 C62.9148718,37.2749744 63.0830769,37.090359 63.0738462,36.8780513 C63.1015385,36.6995897 62.9179487,36.530359 62.705641,36.5395897 L61.574359,36.5888205 Z" id="Fill-69" fill="#FFFFFF"></path>
                        <path d="M63.9963077,37.7236923 C63.8178462,37.6970256 63.6486154,37.8806154 63.6578462,38.0929231 L63.7070769,39.2242051 C63.7101538,39.2949744 63.7491282,39.3995897 63.8229744,39.4662564 C63.8968205,39.5349744 64.0045128,39.5657436 64.0752821,39.5626667 C64.2537436,39.5893333 64.4219487,39.4057436 64.4127179,39.1944615 L64.3645128,38.0621538 C64.3563077,37.8498462 64.2075897,37.7144615 63.9963077,37.7236923" id="Fill-71" fill="#FFFFFF"></path>
                        <path d="M63.8410256,34.1188718 C63.6625641,34.0911795 63.4933333,34.2747692 63.5025641,34.4870769 L63.5507692,35.618359 C63.5548718,35.6891282 63.5938462,35.7937436 63.6676923,35.8614359 C63.7415385,35.9291282 63.8492308,35.9598974 63.92,35.9568205 C64.0984615,35.9845128 64.2666667,35.7998974 64.2574359,35.5886154 L64.2092308,34.4563077 C64.2010256,34.2450256 64.0523077,34.1086154 63.8410256,34.1188718" id="Fill-73" fill="#FFFFFF"></path>
                    </g>
                </g>
            </g>
        </g>
    </g>
</svg>