<?xml version="1.0" encoding="UTF-8" standalone="no"?>
<svg width="50px" height="49px" viewBox="0 0 50 49" version="1.1" xmlns="http://www.w3.org/2000/svg" xmlns:xlink="http://www.w3.org/1999/xlink">
    <!-- Generator: Sketch 49 (51002) - http://www.bohemiancoding.com/sketch -->
    <title>Page 1</title>
    <desc>Created with Sketch.</desc>
    <defs></defs>
    <g id="5th-Feb" stroke="none" stroke-width="1" fill="none" fill-rule="evenodd">
        <g id="Home-Copy-5" transform="translate(-225.000000, -1744.000000)">
            <g id="Group-46" transform="translate(132.000000, 1741.000000)">
                <g id="Group-32" transform="translate(0.000000, 3.000000)">
                    <g id="Page-1" transform="translate(94.000000, 0.000000)">
                        <path d="M25.9983719,46 C38.7007149,46 49,35.7014439 49,23.0032559 C49,10.2985561 38.7007149,0 25.9983719,0 C13.2960289,0 3,10.2985561 3,23.0032559 C3,35.7014439 13.2960289,46 25.9983719,46" id="Fill-1" fill="#B4F1E3"></path>
                        <path d="M44.2039002,13.0026209 L35.0176287,9.10221529 C34.6834633,8.96592824 34.3132605,8.96592824 33.9790952,9.10221529 L24.7928237,13.0026209 C24.3112324,13.2070515 24,13.6808112 24,14.2 L24,19.4016225 C24,26.5534477 26.6667707,30.7361622 33.8480499,34.8312637 C34.0478939,34.9448362 34.273947,35 34.5,35 C34.7227769,35 34.9521061,34.9448362 35.1519501,34.8312637 C42.3332293,30.745897 45,26.5631825 45,19.4016225 L45,14.2 C45,13.6808112 44.6854914,13.2070515 44.2039002,13.0026209 Z" id="Stroke-3" stroke="#332E48" stroke-linecap="round" stroke-linejoin="round"></path>
                        <polyline id="Stroke-5" stroke="#332E48" stroke-linecap="round" stroke-linejoin="round" points="18.1989185 21 0 21 0 48 39 48 39 39.6397242"></polyline>
                        <path d="M0,29 C7.27375937,29 11.908525,29 13.9042969,29 C16.6347656,29 18,29 18,29" id="Stroke-7" stroke="#332E48" stroke-linecap="round" stroke-linejoin="round"></path>
                        <path d="M5,37 L13,37" id="Stroke-9" stroke="#332E48" stroke-linecap="round" stroke-linejoin="round"></path>
                        <polyline id="Stroke-11" stroke="#332E48" stroke-linecap="round" stroke-linejoin="round" points="30 19.5787736 33.1188738 24 39 17"></polyline>
                    </g>
                </g>
            </g>
        </g>
    </g>
</svg>