<?xml version="1.0" encoding="UTF-8" standalone="no"?>
<svg width="15px" height="16px" viewBox="0 0 15 16" version="1.1" xmlns="http://www.w3.org/2000/svg" xmlns:xlink="http://www.w3.org/1999/xlink">
    <!-- Generator: Sketch 49 (51002) - http://www.bohemiancoding.com/sketch -->
    <title>Page 1</title>
    <desc>Created with Sketch.</desc>
    <defs>
        <polygon id="path-1" points="0 0.977 14.979 0.977 14.979 17 0 17"></polygon>
    </defs>
    <g id="Page-1" stroke="none" stroke-width="1" fill="none" fill-rule="evenodd">
        <g id="Detail-1--Copy-2" transform="translate(-1111.000000, -318.000000)">
            <g id="Group-27" transform="translate(1111.000000, 309.000000)">
                <g id="Page-1" transform="translate(0.000000, 8.000000)">
                    <path d="M13.5435,15.5898 C12.7285,16.4048 11.4015,16.4048 10.5855,15.5898 C10.1905,15.1938 9.9735,14.6688 9.9735,14.1108 C9.9735,13.5518 10.1905,13.0268 10.5855,12.6318 C10.9935,12.2238 11.5295,12.0208 12.0645,12.0208 C12.6005,12.0208 13.1355,12.2238 13.5435,12.6318 C13.9395,13.0268 14.1565,13.5518 14.1565,14.1108 C14.1565,14.6688 13.9395,15.1938 13.5435,15.5898 M2.9145,11.0928 C1.7615,11.0928 0.8235,10.1538 0.8235,9.0008 C0.8235,7.8478 1.7615,6.9088 2.9145,6.9088 C4.0675,6.9088 5.0055,7.8478 5.0055,9.0008 C5.0055,10.1538 4.0675,11.0928 2.9145,11.0928 M12.0645,1.8228 C13.2175,1.8228 14.1565,2.7618 14.1565,3.9148 C14.1565,5.0678 13.2175,6.0058 12.0645,6.0058 C10.9115,6.0058 9.9735,5.0678 9.9735,3.9148 C9.9735,2.7618 10.9115,1.8228 12.0645,1.8228 M10.2165,12.2618 C10.0795,12.3988 9.9615,12.5498 9.8595,12.7088 L5.3415,9.9668 C5.4615,9.6668 5.5285,9.3418 5.5285,9.0008 C5.5285,8.6598 5.4615,8.3348 5.3415,8.0348 L9.8605,5.3148 C10.3245,6.0428 11.1385,6.5288 12.0645,6.5288 C13.5065,6.5288 14.6795,5.3568 14.6795,3.9148 C14.6795,2.4728 13.5065,1.2998 12.0645,1.2998 C10.6235,1.2998 9.4505,2.4728 9.4505,3.9148 C9.4505,4.2428 9.5145,4.5558 9.6255,4.8458 L5.1005,7.5698 C4.6325,6.8588 3.8285,6.3868 2.9145,6.3868 C1.4725,6.3868 0.2995,7.5598 0.2995,9.0008 C0.2995,10.4428 1.4725,11.6148 2.9145,11.6148 C3.8285,11.6148 4.6325,11.1438 5.1005,10.4318 L9.6245,13.1768 C9.5115,13.4718 9.4505,13.7858 9.4505,14.1108 C9.4505,14.8088 9.7225,15.4658 10.2155,15.9588 C10.7255,16.4688 11.3955,16.7238 12.0645,16.7238 C12.7335,16.7238 13.4035,16.4688 13.9135,15.9588 C14.4065,15.4648 14.6785,14.8088 14.6785,14.1108 C14.6785,13.4118 14.4065,12.7558 13.9135,12.2618 C12.8945,11.2418 11.2355,11.2418 10.2165,12.2618" id="Fill-1" fill="#626262"></path>
                    <g id="Group-5" transform="translate(0.000000, 0.023400)">
                        <mask id="mask-2" fill="white">
                            <use xlink:href="#path-1"></use>
                        </mask>
                        <g id="Clip-4"></g>
                        <path d="M9.873,4.9912 C9.898,4.9922 9.924,4.9972 9.948,5.0042 C9.934,4.9772 9.92,4.9502 9.908,4.9232 C9.899,4.9472 9.887,4.9702 9.873,4.9912 Z M12.065,2.0992 C11.077,2.0992 10.273,2.9032 10.273,3.8912 C10.273,4.8792 11.077,5.6822 12.065,5.6822 C13.053,5.6822 13.856,4.8792 13.856,3.8912 C13.856,2.9032 13.053,2.0992 12.065,2.0992 Z M5.015,7.8342 C5.029,7.8612 5.043,7.8882 5.057,7.9162 C5.065,7.8912 5.077,7.8682 5.091,7.8462 C5.065,7.8452 5.04,7.8422 5.015,7.8342 Z M5.057,10.0392 C5.043,10.0662 5.029,10.0942 5.015,10.1212 C5.04,10.1132 5.065,10.1092 5.091,10.1082 C5.077,10.0872 5.065,10.0632 5.057,10.0392 Z M2.915,7.1852 C1.927,7.1852 1.123,7.9892 1.123,8.9772 C1.123,9.9662 1.927,10.7692 2.915,10.7692 C3.902,10.7692 4.706,9.9662 4.706,8.9772 C4.706,7.9892 3.902,7.1852 2.915,7.1852 Z M10.216,12.2382 L10.224,12.2382 L10.216,12.2382 Z M9.873,12.9852 C9.887,13.0072 9.898,13.0292 9.907,13.0532 C9.92,13.0262 9.934,12.9992 9.948,12.9722 C9.923,12.9792 9.898,12.9842 9.873,12.9852 Z M12.065,12.2972 C11.585,12.2972 11.135,12.4832 10.798,12.8202 C10.459,13.1582 10.273,13.6082 10.273,14.0872 C10.273,14.5652 10.459,15.0152 10.798,15.3542 C11.497,16.0532 12.633,16.0522 13.331,15.3542 C13.67,15.0152 13.856,14.5652 13.856,14.0872 C13.856,13.6082 13.67,13.1582 13.332,12.8202 C12.994,12.4832 12.544,12.2972 12.065,12.2972 Z M12.064,17.0002 C11.285,17.0002 10.553,16.6972 10.004,16.1472 C9.453,15.5972 9.15,14.8662 9.15,14.0872 C9.15,13.8152 9.188,13.5472 9.264,13.2852 L5.18,10.8072 C4.628,11.4912 3.8,11.8912 2.915,11.8912 C1.307,11.8912 0,10.5842 0,8.9772 C0,7.3712 1.307,6.0632 2.915,6.0632 C3.801,6.0632 4.629,6.4642 5.181,7.1482 L9.264,4.6892 C9.189,4.4282 9.151,4.1602 9.151,3.8912 C9.151,2.2842 10.458,0.9762 12.065,0.9762 C13.672,0.9762 14.979,2.2842 14.979,3.8912 C14.979,5.4982 13.672,6.8052 12.065,6.8052 C11.164,6.8052 10.329,6.3942 9.777,5.6912 L5.705,8.1422 C5.787,8.4152 5.829,8.6942 5.829,8.9772 C5.829,9.2612 5.787,9.5412 5.705,9.8122 L9.776,12.2842 C9.849,12.1912 9.925,12.1042 10.004,12.0252 C11.103,10.9282 13.025,10.9262 14.125,12.0262 C14.676,12.5772 14.978,13.3082 14.978,14.0872 C14.978,14.8652 14.676,15.5962 14.125,16.1472 C13.576,16.6972 12.844,17.0002 12.064,17.0002 Z" id="Fill-3" fill="#FD6F56" mask="url(#mask-2)"></path>
                    </g>
                </g>
            </g>
        </g>
    </g>
</svg>