<?xml version="1.0" encoding="UTF-8" standalone="no"?>
<svg width="51px" height="52px" viewBox="0 0 51 52" version="1.1" xmlns="http://www.w3.org/2000/svg" xmlns:xlink="http://www.w3.org/1999/xlink">
    <!-- Generator: Sketch 49 (51002) - http://www.bohemiancoding.com/sketch -->
    <title>Page 1</title>
    <desc>Created with Sketch.</desc>
    <defs></defs>
    <g id="5th-Feb" stroke="none" stroke-width="1" fill="none" fill-rule="evenodd">
        <g id="Home-Copy-5" transform="translate(-824.000000, -1741.000000)">
            <g id="Group-46" transform="translate(132.000000, 1741.000000)">
                <g id="Group-43" transform="translate(598.666667, 0.000000)">
                    <g id="Page-1" transform="translate(94.000000, 0.000000)">
                        <path d="M27.0016281,46 C39.7039711,46 50,35.7014439 50,23 C50,10.2985561 39.7039711,0 27.0016281,0 C14.2992851,0 4,10.2985561 4,23 C4,35.7014439 14.2992851,46 27.0016281,46 L39.0911458,11.7685547" id="Fill-1" fill="#B4F1E3"></path>
                        <polygon id="Stroke-3" stroke="#332E48" stroke-linecap="round" stroke-linejoin="round" points="37.3998887 34.5579128 39 34.5579128 21.0979546 34.5579128 16 40 16 15 39 15 39 34.5579128"></polygon>
                        <polyline id="Stroke-5" stroke="#332E48" stroke-linecap="round" stroke-linejoin="round" points="23 41.4919847 23 51 17.8839149 46.9311959 0 46.9311959 0 28 15.0860559 28"></polyline>
                        <path d="M6.945,36 C6.423,36 6,36.423 6,36.945 C6,37.467 6.423,37.893 6.945,37.893 L7.023,37.893 C7.545,37.893 7.971,37.467 7.971,36.945 C7.971,36.423 7.545,36 7.023,36 L6.945,36 Z" id="Fill-7" fill="#332E48"></path>
                        <path d="M9.945,36 C9.423,36 9,36.423 9,36.945 C9,37.467 9.423,37.893 9.945,37.893 L10.023,37.893 C10.545,37.893 10.971,37.467 10.971,36.945 C10.971,36.423 10.545,36 10.023,36 L9.945,36 Z" id="Fill-9" fill="#332E48"></path>
                        <path d="M28.668277,28.387197 C28.8454106,28.5643257 28.9355878,28.7849596 28.9355878,29.0490988 C28.9355878,29.3225606 28.8454106,29.5463021 28.668277,29.7296457 C28.4911433,29.9067744 28.2721417,30 28.0080515,30 C27.7439614,30 27.5249597,29.9098819 27.3446055,29.7327533 C27.1674718,29.5525171 27.0805153,29.3287756 27.0805153,29.0490988 C27.0805153,28.7849596 27.1674718,28.5643257 27.3446055,28.387197 C27.5249597,28.2100684 27.7439614,28.1261653 28.0080515,28.1261653 C28.2721417,28.1261653 28.4911433,28.2100684 28.668277,28.387197 M25.8566828,20.7395898 C26.3977456,20.2454941 27.1288245,20 28.0499195,20 C28.9516908,20 29.6698873,20.2050963 30.2012882,20.6183965 C30.7326892,21.0285892 31,21.612803 31,22.3710379 C31,22.7346178 30.942029,23.0515848 30.8293076,23.3250466 C30.7165862,23.5954009 30.5813205,23.8284649 30.4170692,24.0180236 C30.252818,24.2075823 30.037037,24.4313238 29.763285,24.6830329 C29.389694,25.0341827 29.1127214,25.3449347 28.9355878,25.615289 C28.7552335,25.8887508 28.668277,26.2274705 28.668277,26.6345556 L27.373591,26.6345556 C27.373591,26.0938471 27.47343,25.6556868 27.6666667,25.3262896 C27.8663446,24.993785 28.1465378,24.6519577 28.510467,24.3039155 C28.826087,23.9869484 29.057971,23.7134866 29.2028986,23.4835301 C29.3510467,23.2535736 29.4219002,22.9583592 29.4219002,22.610317 C29.4219002,22.2125544 29.2866345,21.9080174 29.0161031,21.6998135 C28.7455717,21.4916097 28.3752013,21.3890615 27.9082126,21.3890615 C27.4251208,21.3890615 27.0483092,21.5102548 26.7745572,21.7588564 C26.4975845,22.007458 26.3494364,22.3679304 26.3301127,22.8371659 L25,22.8247359 C25.0289855,21.9266625 25.31562,21.230578 25.8566828,20.7395898" id="Fill-11" fill="#332E48"></path>
                    </g>
                </g>
            </g>
        </g>
    </g>
</svg>