<?xml version="1.0" encoding="UTF-8" standalone="no"?>
<svg width="15px" height="16px" viewBox="0 0 15 16" version="1.1" xmlns="http://www.w3.org/2000/svg" xmlns:xlink="http://www.w3.org/1999/xlink">
    <!-- Generator: Sketch 49 (51002) - http://www.bohemiancoding.com/sketch -->
    <title>Page 1</title>
    <desc>Created with Sketch.</desc>
    <defs></defs>
    <g id="Page-1" stroke="none" stroke-width="1" fill="none" fill-rule="evenodd">
        <g id="Book_accommodaton_1-Copy-3" transform="translate(-856.000000, -844.000000)">
            <g id="Group-29" transform="translate(800.000000, 489.000000)">
                <g id="Group-26">
                    <g id="Group-36" transform="translate(56.000000, 355.000000)">
                        <g id="Page-1" transform="translate(1.000000, 0.000000)">
                            <polygon id="Fill-1" fill="#B4F1E3" points="0.5 14.5975 13.159 14.5975 13.159 1.9375 0.5 1.9375"></polygon>
                            <g id="Group-14" transform="translate(0.000000, 0.437500)" stroke="#30343F" stroke-linecap="round" stroke-linejoin="round">
                                <path d="M12.3398,14.5 L1.6598,14.5 C1.0198,14.5 0.4998,13.98 0.4998,13.34 L0.4998,2.66 C0.4998,2.02 1.0198,1.5 1.6598,1.5 L12.3398,1.5 C12.9808,1.5 13.4998,2.02 13.4998,2.66 L13.4998,13.34 C13.4998,13.98 12.9808,14.5 12.3398,14.5 Z" id="Stroke-2"></path>
                                <path d="M2.75,0.0625 L2.75,2.7505" id="Stroke-4"></path>
                                <path d="M5.5835,0.0625 L5.5835,2.7505" id="Stroke-6"></path>
                                <path d="M8.4165,0.0625 L8.4165,2.7505" id="Stroke-8"></path>
                                <path d="M11.25,0.0625 L11.25,2.7505" id="Stroke-10"></path>
                                <path d="M0.5,5.6934 L13.5,5.6934" id="Stroke-12"></path>
                            </g>
                        </g>
                    </g>
                </g>
            </g>
        </g>
    </g>
</svg>