<?xml version="1.0" encoding="UTF-8" standalone="no"?>
<svg width="21px" height="18px" viewBox="0 0 21 18" version="1.1" xmlns="http://www.w3.org/2000/svg" xmlns:xlink="http://www.w3.org/1999/xlink">
    <!-- Generator: Sketch 49.2 (51160) - http://www.bohemiancoding.com/sketch -->
    <title>Group 8</title>
    <desc>Created with Sketch.</desc>
    <defs></defs>
    <g id="Services" stroke="none" stroke-width="1" fill="none" fill-rule="evenodd">
        <g id="Group-8" transform="translate(-2.000000, -3.000000)" fill="#FD6F56">
            <path d="M8.88638975,20.6444527 C16.4743482,20.6444527 20.6246414,14.1755769 20.6246414,8.5657969 C20.6246414,8.38205964 20.6246414,8.19915002 20.6125765,8.01706805 C21.4199786,7.41612377 22.1169416,6.67204459 22.6708324,5.81966973 C21.9178912,6.16297847 21.1191611,6.38812024 20.3013046,6.4875795 C21.1625258,5.957044 21.8070917,5.12260365 22.115047,4.13954973 C21.3052231,4.63403082 20.419255,4.98251643 19.4953755,5.16996815 C18.2165727,3.77074624 16.1845671,3.42828175 14.5387908,4.33460911 C12.8930145,5.24093648 12.0427641,7.17065648 12.4648111,9.04169296 C9.14771001,8.8705769 6.05717334,7.25838485 3.96234039,4.60634169 C2.86735693,6.54604828 3.42665328,9.02750669 5.23960115,10.2732292 C4.58306757,10.2532064 3.94084845,10.0709636 3.36714331,9.7418809 L3.36714331,9.79567784 C3.36768071,11.8164508 4.75198312,13.5569411 6.67692167,13.9570785 C6.0695549,14.1275238 5.4323007,14.1524395 4.81411567,14.0299113 C5.35457709,15.7592123 6.90339783,16.9438716 8.66841893,16.9779839 C7.20756001,18.1593913 5.40292606,18.8007302 3.54489812,18.7988036 C3.21665784,18.7981552 2.88873682,18.7777049 2.56282293,18.7375579 C4.44946573,19.983393 6.6446792,20.6442184 8.88638975,20.6411421" id="Shape"></path>
        </g>
    </g>
</svg>