<?xml version="1.0" encoding="UTF-8" standalone="no"?>
<svg width="140px" height="140px" viewBox="0 0 140 140" version="1.1" xmlns="http://www.w3.org/2000/svg" xmlns:xlink="http://www.w3.org/1999/xlink">
    <!-- Generator: Sketch 49 (51002) - http://www.bohemiancoding.com/sketch -->
    <title>Group 17</title>
    <desc>Created with Sketch.</desc>
    <defs></defs>
    <g id="Page-1" stroke="none" stroke-width="1" fill="none" fill-rule="evenodd">
        <g id="Contact--Copy" transform="translate(-844.000000, -304.000000)">
            <g id="Group-17" transform="translate(844.000000, 304.000000)">
                <circle id="Oval-2-Copy" fill-opacity="0.15" fill="#FFAD85" cx="70" cy="70" r="70"></circle>
                <g id="002-big-ben" transform="translate(41.000000, 0.000000)" fill="#000000" fill-rule="nonzero">
                    <path d="M16.989961,100.498926 C16.9586034,98.4779658 17.0234266,96.1726168 16.0278889,94.3480596 C15.34013,93.0868324 14.0621104,92.4826419 12.9190076,93.5507352 C11.6106845,94.7732811 11.5237265,96.3968047 11.381695,98.0933323 C11.2446702,99.7282969 10.9824786,101.254845 11.0009242,102.903974 C11.0172618,104.383941 11.0367615,105.863636 11.036498,107.343875 C11.0362345,108.024611 11.0836661,108.687096 11.138476,109.347402 C11.0989497,109.887577 11.0686461,110.428843 11.0314913,110.969018 C10.9548101,112.082331 11.166408,113.102481 11.1495434,114.191822 C11.1382125,114.931124 10.909223,115.827059 11.4409846,116.42907 C11.8968555,116.945002 12.6388973,116.936285 13.2610425,116.921575 C14.5293122,116.891338 16.2552973,117.506425 16.6347506,115.719187 C16.863213,114.642104 16.6708513,113.295887 16.6595204,112.198647 C16.646345,110.942323 16.8089301,109.734759 16.8500376,108.48688 C16.9369956,105.826317 17.0313319,103.163302 16.989961,100.498926 Z M15.8176086,99.9366854 C15.7367113,104.729894 15.3356503,109.482514 15.3596296,114.277629 C15.3625282,114.879912 15.5701735,115.408375 14.8054698,115.609681 C14.580433,115.668792 13.9951791,115.53477 13.7369401,115.54158 C13.4576204,115.548662 13.0307355,115.684047 12.7756586,115.579444 C12.0612852,115.28661 12.3848745,114.481386 12.3384968,113.895992 C12.3221593,113.691689 12.2979164,113.49229 12.2705115,113.294525 C12.2884301,111.941498 12.1840805,110.584385 12.055488,109.247974 C11.8249175,106.855184 11.984604,104.186177 12.0686634,101.7814 C12.113987,100.483671 12.3076663,99.0993177 12.4960753,97.8067641 C12.6249313,96.9230878 12.6394243,95.9666799 13.0945047,95.1957786 C13.5253422,94.4654654 14.179372,93.8620921 14.9583051,94.6376243 C15.3301166,95.0078203 15.4610807,95.6942766 15.5801868,96.1984951 C15.872155,97.4332992 15.8386893,98.6776374 15.8176086,99.9366854 Z" id="Shape"></path>
                    <path d="M23.9898689,100.498926 C23.9585104,98.4779658 24.0233355,96.1726168 23.0280329,94.3480596 C22.3399907,93.0868324 21.0621981,92.4826419 19.9190625,93.5507352 C18.610702,94.7732811 18.5237414,96.3968047 18.3817059,98.0933323 C18.2446772,99.7282969 17.9824781,101.254845 18.0009243,102.903974 C18.0172623,104.383941 18.0367625,105.863636 18.036499,107.343875 C18.0362355,108.024611 18.083405,108.687096 18.1382165,109.347402 C18.098689,109.887577 18.0683845,110.428843 18.0312287,110.969018 C17.9545453,112.082331 18.1661492,113.102481 18.1492842,114.191822 C18.137953,114.931124 17.9089569,115.827059 18.4407337,116.42907 C18.8966176,116.945002 19.6386807,116.936285 20.2608437,116.921575 C21.5291497,116.891338 23.2551843,117.506425 23.6346484,115.719187 C23.8631174,114.642104 23.6707502,113.295887 23.6594189,112.198647 C23.6462431,110.942323 23.8088329,109.734759 23.8499415,108.48688 C23.9369021,105.826317 24.0315046,103.163302 23.9898689,100.498926 Z M22.817483,99.9366854 C22.7365834,104.729894 22.3355109,109.482514 22.3594909,114.277629 C22.3623896,114.879912 22.5700408,115.408375 21.8053153,115.609681 C21.580272,115.668792 20.9947378,115.53477 20.7367549,115.54158 C20.4574272,115.548662 20.0305301,115.684047 19.7754459,115.579444 C19.0610521,115.28661 19.3846506,114.481386 19.3382717,113.895992 C19.3219336,113.691689 19.297163,113.49229 19.2702843,113.294525 C19.2882035,111.941498 19.1838509,110.584385 19.0552547,109.247974 C18.8246776,106.855184 18.9843687,104.186177 19.0684305,101.7814 C19.1137554,100.483671 19.3074402,99.0993177 19.4958547,97.8067641 C19.6247143,96.9230878 19.6392078,95.9666799 20.0943011,95.1957786 C20.525151,94.4654654 21.1791995,93.8620921 21.9584185,94.6376243 C22.3302406,95.0078203 22.4612084,95.6942766 22.5803179,96.1984951 C22.872031,97.4332992 22.8388279,98.6776374 22.817483,99.9366854 Z" id="Shape"></path>
                    <path d="M50.997196,81.2996943 C50.9516188,79.4788724 50.6306907,77.5961528 50.7329023,75.786733 C50.8421257,73.8543324 50.83835,71.947994 50.8550707,70.0134216 C50.872061,68.0916088 51.0241647,66.1923289 50.9923416,64.2566705 C50.9615972,62.3831813 50.8103026,60.5639882 50.4864079,58.7206334 C50.244768,57.34504 50.188673,56.8094083 49.0303653,56.0973141 C48.3661251,55.6890069 47.7239993,55.5310051 47.0095972,55.4729082 C46.997731,55.362144 46.9893707,55.2494794 46.9753469,55.1400727 C46.7455732,53.3491136 46.3458964,51.9990394 44.490177,51.4867551 C44.4588933,51.4780677 44.4270702,51.4723666 44.3957864,51.4642222 C44.5546323,49.9384999 44.3442761,48.2276277 43.944869,46.763803 C44.5190336,46.6622692 45.0926588,46.5474328 45.6633175,46.4344968 C47.1339232,46.1437408 47.2302016,45.1729253 47.1560375,43.8163356 C47.1296082,43.3298419 47.1161238,42.9717587 47.0665013,42.6864324 C47.071086,42.3522395 47.0454657,42.0185895 47.0128335,41.7080154 C46.9456813,41.0646059 47.1010213,40.25505 47.0246997,39.5508287 C48.5311739,38.5265316 48.7641838,35.8817653 47.1808488,34.7771098 C46.409273,34.2387633 45.4294984,34.5827295 44.8264773,35.2155513 C44.3221618,35.7449389 43.9014493,36.7529473 44.0112121,37.4843166 C44.1274474,38.2577655 44.598052,39.0917546 45.345356,39.399071 C45.53171,39.4756285 45.7312787,39.5190655 45.9335443,39.5348114 C45.8472443,40.1611177 45.920869,40.8832567 45.9756155,41.4042284 C45.9775034,41.4218746 45.9791215,41.4416927 45.9810093,41.4596105 C45.9022606,41.4183454 45.8186574,41.3757229 45.7280425,41.3314715 C44.117469,40.5411908 42.5484274,39.3496614 41.1846179,38.1844657 C39.7571622,36.9649738 38.2523062,35.8288265 36.7245268,34.7418173 C35.5810519,33.9281892 34.5411371,32.8137604 33.2609308,32.2089011 C33.3402189,31.0314887 33.225332,29.7620443 33.1196145,28.633227 C33.0500352,27.8888266 32.8890318,27.1463265 32.7881687,26.4065412 C32.7617393,26.2132469 32.7309949,26.0392276 32.6894631,25.8744388 C33.1050514,25.8600503 33.4896257,25.7978812 33.8822907,25.5261289 C34.2218272,25.291298 34.5149774,24.8175639 34.3434562,24.3848234 C33.1349867,21.3358222 31.8078548,18.2838347 30.6897306,15.1585473 C30.0449079,13.3564575 29.2781864,11.5608833 28.4421553,9.86277069 C28.363946,9.14470389 28.1589835,8.42826597 27.8701482,7.85788474 C27.6465773,7.41672838 27.4052071,6.77359029 27.0664796,6.23361491 C27.6061242,6.03271909 28.0966857,5.69282509 28.4618425,5.20225922 C29.0529974,4.40709186 29.2175068,3.26687236 29.0597396,2.30148651 C28.8860609,1.23999645 28.0311516,0.550978098 27.0608162,0.206197439 C26.0753782,-0.144012836 24.935679,-0.0783144746 24.1379435,0.637851965 C23.798407,0.942724941 23.5219774,1.28451931 23.3261843,1.65427621 C23.2566049,1.73327713 23.1932284,1.81472138 23.1390212,1.89833748 C22.6306603,2.68644634 22.5764532,3.97625178 23.0241343,4.80481128 C23.3197118,5.35157368 23.7539086,5.75825197 24.2544485,6.03299057 C23.6816324,6.78689285 23.335893,7.89263428 23.028719,8.53170017 C22.7447381,9.12244246 22.2862695,9.89969209 22.1948454,10.6245459 C21.5009396,12.0946146 20.8598925,13.6222373 20.3105392,15.1582758 C19.192415,18.2835632 17.865283,21.3355507 16.6568135,24.384552 C16.4852923,24.8170209 16.7787123,25.290755 17.1179791,25.5258574 C17.5103743,25.7976097 17.8952183,25.8597788 18.3108067,25.8741673 C18.2695445,26.0389562 18.2385304,26.2129754 18.2121011,26.4062697 C18.1109683,27.1463265 17.9502346,27.8885551 17.8806552,28.6329555 C17.7749377,29.7612299 17.6597812,31.0306743 17.739339,32.2086296 C16.4591326,32.8134889 15.4189481,33.9279177 14.275743,34.7415458 C12.7479635,35.828555 11.2431075,36.9649738 9.81565184,38.1841942 C8.45184238,39.3491185 6.88280076,40.5406479 5.27222728,41.3312 C5.18188198,41.3754514 5.09800919,41.4180739 5.01926045,41.459339 C5.02114826,41.4414213 5.02276639,41.4216032 5.0246542,41.4039569 C5.07967044,40.8829852 5.15302543,40.1608462 5.06672544,39.5345399 C5.26899103,39.5190655 5.46882944,39.4753571 5.65491378,39.3987995 C6.40248741,39.0914832 6.87282233,38.2577655 6.98905762,37.4840452 C7.0990901,36.7529473 6.67810799,35.7446675 6.17379244,35.2152798 C5.57104098,34.5827295 4.59072708,34.2384918 3.81942096,34.7768383 C2.23608591,35.8814938 2.46909587,38.5265316 3.97557,39.5505573 C3.89951813,40.25505 4.05485811,41.0643344 3.98743624,41.707744 C3.95507375,42.0180466 3.92918375,42.3516965 3.93376844,42.6861609 C3.88414595,42.9712158 3.87093126,43.3295705 3.84423221,43.8160641 C3.77006816,45.1726538 3.86661626,46.1431978 5.33695227,46.4342253 C5.90761093,46.5471613 6.48096646,46.6619977 7.05540074,46.7635315 C6.65599361,48.2273562 6.4456374,49.9379569 6.60448331,51.4639507 C6.57319957,51.4723666 6.54137645,51.4777962 6.5100927,51.4864836 C4.65410363,51.9987679 4.25469651,53.3485706 4.0249228,55.1398012 C4.01089905,55.2492079 4.00226905,55.3618725 3.99067249,55.4726367 C3.27627042,55.5307336 2.63414459,55.6890069 1.96990439,56.0970426 C0.811866457,56.8091368 0.755501779,57.3447685 0.513861819,58.7203619 C0.190236873,60.5639882 0.038672523,62.3831813 0.00792815312,64.256399 C-0.0238949666,66.1920574 0.128208758,68.0910658 0.145199068,70.0131501 C0.162189378,71.9474511 0.158413753,73.8543324 0.267097798,75.7864615 C0.369579031,77.5958813 0.0483812714,79.4786009 0.00280409147,81.2994228 C-0.0295584032,82.6009019 0.20965437,84.3096023 1.1678539,85.2695585 C1.91677596,86.020203 2.78058488,86.133682 3.70048879,86.2029096 C3.68835286,86.9432379 3.72260316,87.6903531 3.97799718,88.3891448 C4.43322961,89.6346989 5.49310131,90.2379293 6.67325361,90.5381871 C6.63468831,91.2277484 6.6778383,91.9281689 6.57158144,92.6188162 C6.40518428,93.7012103 6.35798898,94.738267 6.3445046,95.8385789 C6.30998461,98.6598077 6.03813965,101.478865 6.05782684,104.299822 C6.08722277,108.454836 6.25631681,112.625868 6.17325307,116.785497 C5.92594967,117.458227 5.69240034,118.211043 5.74768627,118.881058 C5.38549601,118.889473 5.02546326,118.920422 4.67325144,119.013269 C2.70129677,119.53234 1.91542752,123.041773 3.65895692,124.291671 C4.1840384,124.668215 4.88171985,124.819701 5.6050216,124.89653 C5.50550693,125.45388 5.53490286,126.047066 5.48932568,126.658712 C5.40895882,127.737848 5.37686601,128.796895 5.39951976,129.876846 C5.42136444,130.930191 5.54299349,131.978922 5.58857067,133.03281 C5.61041535,133.535593 5.58857067,134.090228 5.59827941,134.644864 C5.52141849,135.36103 5.44914225,136.090771 5.54569036,136.761871 C5.86257312,138.966839 8.52843362,138.761599 10.1959112,138.773544 C12.736367,138.791462 15.2671141,138.824583 17.8024458,138.958151 C20.308112,139.090362 22.8453316,138.866662 25.3569308,138.871006 C28.2924788,138.875892 31.235578,138.936161 34.1684291,138.850645 C36.4869321,138.783046 38.9297611,138.780874 41.238016,138.952179 C42.8297114,139.070544 44.2889902,139.020863 44.8388829,137.271169 C45.5759387,134.925846 45.6560359,132.751828 45.5611059,130.331848 C45.527395,129.471253 45.5333281,128.578081 45.5020444,127.685995 C45.5028534,127.685995 45.5036625,127.685995 45.5044716,127.685995 C45.5114834,127.369449 45.4890994,127.036342 45.4478372,126.703778 C45.4009116,126.098104 45.3221628,125.498946 45.1889372,124.916348 C45.9847849,124.846577 46.7660695,124.703507 47.3407734,124.291128 C49.0840332,123.04123 48.2984336,119.531797 46.3264789,119.012726 C45.9742671,118.919879 45.6142343,118.888931 45.2520441,118.880515 C45.30733,118.210771 45.0737807,117.457684 44.8264773,116.784954 C44.7434136,112.625596 44.9125076,108.454293 44.9419035,104.299279 C44.9618604,101.478322 44.6897458,98.6592647 44.6552258,95.8380359 C44.6417414,94.7377241 44.5945461,93.7012103 44.4281489,92.6182732 C44.3218921,91.927626 44.3650421,91.2272054 44.3264768,90.5376441 C45.5068987,90.2371148 46.5665008,89.6338844 47.0217332,88.3886018 C47.2771272,87.6898102 47.3116472,86.9429664 47.2992416,86.2023667 C48.2191455,86.1331391 49.0826847,86.0196601 49.8318765,85.2690156 C50.7903457,84.3096023 51.0295585,82.6011734 50.997196,81.2996943 Z M45.1646654,36.9429839 C45.2625619,36.5919591 45.4556581,36.0525267 45.7242668,35.814438 C46.3283667,35.2793493 46.8448182,35.7139901 47.1209782,36.2990313 C47.3367281,37.0208989 47.1608919,38.0207628 46.6592732,38.3231924 C45.7892615,38.8482363 44.9340826,37.7699145 45.1646654,36.9429839 Z M4.10313216,68.3899662 C4.0764331,70.7819838 4.04460998,73.174273 4.02600155,75.5665621 C4.01683218,76.7575485 4.02249561,77.9496208 4.0076628,79.1406072 C3.99417843,80.2056265 3.73096347,81.2310097 3.7045341,82.2933142 C3.68997098,82.8775409 3.70480379,83.4606817 3.71667004,84.044094 C3.68134098,84.0413792 3.64709068,84.0413792 3.61122224,84.0375785 C2.74471645,83.9374021 2.5737346,83.350732 2.33856714,82.5805409 C1.97529814,81.3903689 2.08694875,80.0039163 2.12254749,78.7613485 C2.1654278,77.2706472 2.24363716,75.8974972 2.13360468,74.399466 C2.02006626,72.8503963 2.090185,71.2942682 2.05000156,69.7424837 C1.9761072,66.8805328 1.5591704,64.0058222 1.79191067,61.1259536 C1.89034659,59.908362 1.89789784,58.060392 2.97745672,57.3895628 C3.27950667,57.2016981 3.58775944,57.0274074 3.89412438,56.8482301 C3.83829908,58.4182037 3.92918375,60.0530613 3.98689687,61.5573366 C4.07562404,63.8475489 4.12902216,66.0894376 4.10313216,68.3899662 Z M24.0052573,2.98969043 C24.1492704,2.64545273 24.308386,2.31044538 24.5028307,2.02158977 C24.8121622,1.7053146 25.216154,1.4688548 25.5799624,1.21311985 C25.5821199,1.21203393 25.5829289,1.20931912 25.5848167,1.20769023 C25.8553132,1.14823593 26.1659932,1.15475147 26.5319591,1.25438494 C27.9006229,1.6273996 28.36044,3.03529921 27.6619495,4.26212109 C26.9718193,5.47374005 25.1948487,5.39148136 24.3221401,4.41740813 C23.9847611,4.04032125 23.9141029,3.48921516 24.0052573,2.98969043 Z M21.9308214,15.3708453 C22.5063344,13.6089347 23.2199274,11.8608696 23.9265086,10.1766025 C24.2474366,9.41156955 24.4648047,8.58029523 24.784654,7.8060319 C24.8720328,7.59427685 24.9842228,7.38632253 25.0532628,7.16750898 C25.1206846,6.95249616 25.1365962,6.78770729 25.3048812,6.61368808 C25.437028,6.47713322 25.5246764,6.79992393 25.5810411,6.90580145 C25.7282905,7.18189746 25.8847092,7.44116166 26.0049898,7.73408948 C26.1641054,8.12176411 26.3259179,8.45297072 26.5111931,8.82598539 C26.7091437,9.22479073 26.7668568,9.70476885 26.997979,10.0948868 C27.0330384,10.1537981 27.0707946,10.2105376 27.110978,10.2656482 C27.8054232,11.9227673 28.5044531,13.6398835 29.069718,15.3708453 C30.0087697,18.2458274 30.942158,21.1300397 32.0106597,23.909189 C31.7407026,23.8969724 31.4715545,23.8722676 31.2746827,23.8977868 C30.5492234,23.9914477 29.8820166,24.13669 29.143073,24.0750638 C28.6441512,24.0335272 28.1778616,24.0004066 27.7183142,24.0082795 C26.5875147,23.7658471 25.2630796,23.7457576 24.3539632,23.7932667 C23.1166371,23.8573362 21.7339496,23.7278398 20.4850269,24.0058362 C20.2350267,23.9710867 19.983678,23.931179 19.7245083,23.8977868 C19.5281759,23.8722676 19.2584884,23.8969724 18.9885313,23.909189 C20.0583814,21.1300397 20.9917697,18.2458274 21.9308214,15.3708453 Z M19.6417143,25.9173328 C20.3032576,25.9719004 20.9599466,26.0606746 21.6320077,25.9960622 C21.6641005,25.9930759 21.6986205,25.9903611 21.7320617,25.9873748 C22.686216,26.055788 23.6643724,25.9871033 24.5850853,25.9740722 C25.7145364,25.9583264 26.9316359,26.1803977 28.0082282,25.8814973 C28.4966322,25.9387797 28.979103,25.9585978 29.3690711,25.9960622 C30.0416716,26.0606746 30.6980909,25.9716289 31.3593645,25.9173328 C31.3526223,26.8254361 31.3013817,27.7091063 31.3688036,28.6340415 C31.4397314,29.603771 31.4831511,30.8762017 31.3631401,31.9336195 C30.3137863,32.0297237 29.2614658,31.8809522 28.2142694,31.8233983 C27.7574189,31.7981506 27.3226827,31.8717219 26.8755409,31.8578764 C26.3342782,31.841316 25.7930154,31.8320857 25.2517527,31.834529 C24.6441469,31.8369723 24.0462498,31.7970646 23.443768,31.8014083 C22.1746189,31.8103672 20.9076272,32.0503563 19.6379387,31.9341625 C19.5179277,30.8764731 19.5613474,29.6040425 19.6322752,28.6345844 C19.6996971,27.7091063 19.6489958,26.8254361 19.6417143,25.9173328 Z M9.70211342,40.8493216 C10.3213158,40.4388425 10.8426217,39.9632081 11.4070775,39.4799722 C12.7797867,38.3041888 14.1732617,37.1653267 15.6063809,36.0671867 C16.1862089,35.6227726 16.7050876,35.1286774 17.251744,34.646256 C17.8515289,34.1165969 18.2015833,33.5014213 19.09317,33.7373382 C20.0610783,33.9936161 21.0157719,33.8557038 22.0101095,33.8483738 C22.6538535,33.8434872 23.2145337,33.8950685 23.7388061,33.7856618 C23.9782886,33.8052084 24.216962,33.8269268 24.4532082,33.8578757 C25.2479771,33.9623958 26.2218185,33.9222166 27.1104387,33.7498263 C27.6778611,33.9061992 28.2843882,33.8432157 28.9901602,33.8483738 C30.1611432,33.8567897 31.3264627,34.0251079 32.4801856,33.7547129 C32.5613615,33.7354378 32.6441556,33.6996023 32.7229043,33.6520932 C33.0883308,33.9933446 33.4378457,34.3720604 33.748256,34.6459845 C34.2951822,35.128406 34.8137911,35.6225011 35.3938889,36.0669152 C36.8272777,37.1653267 38.2207528,38.3041888 39.5931922,39.4797008 C40.1576481,39.9632081 40.6786842,40.4385711 41.2981563,40.8490501 C41.4818135,40.9706735 41.6557619,41.1115721 41.8275528,41.2568143 C41.5416841,41.2568143 41.2684907,41.2598006 41.0217267,41.2581717 C39.6441632,41.2492128 38.3175706,41.0317567 36.9578064,41.0184541 C35.1233923,41.0008079 33.2876298,41.0423444 31.4537551,41.0366433 C30.275221,41.0331141 29.1757052,40.7331278 28.0246791,40.9044322 C26.7703628,40.9014459 25.4675027,41.0616196 24.3224098,41.077094 C24.114211,41.0798088 23.8984611,41.0773655 23.6781264,41.0724788 C23.673272,41.0705784 23.6703055,41.0675922 23.6657208,41.0659633 C22.2555251,40.6001022 20.9575194,41.0320282 19.5454359,41.0366433 C17.7115612,41.0423444 15.8757987,41.0010794 14.0416543,41.0184541 C12.6818901,41.0317567 11.3552975,41.2492128 9.977734,41.2581717 C9.73096998,41.2598006 9.45777659,41.2568143 9.17190789,41.2568143 C9.34477754,41.1118435 9.51899564,40.9714879 9.70211342,40.8493216 Z M4.34180556,38.3231924 C3.84018689,38.0204913 3.66435067,37.0208989 3.88010064,36.2990313 C4.15626059,35.7139901 4.67298176,35.2796208 5.27708166,35.814438 C5.54569036,36.0525267 5.73932595,36.5919591 5.83668313,36.9429839 C6.06699621,37.7699145 5.21181729,38.8482363 4.34180556,38.3231924 Z M6.44482834,44.8216291 C6.21316681,44.8189143 5.95615467,44.8965578 5.72395377,44.8745679 C5.71073908,44.873482 5.69779409,44.8718531 5.68484909,44.8696812 C5.06133169,44.7779207 4.85097548,43.9192268 5.07373731,43.3941829 C5.32427696,42.8031691 6.43943459,42.5094269 7.01710512,42.5846271 C7.26953258,42.6182907 7.47988879,42.7518592 7.74903687,42.776564 C8.4062652,42.8368327 9.07347196,42.7575603 9.73231842,42.7651618 C11.188361,42.7817221 12.611232,42.6077029 14.0424633,42.5952148 C15.806489,42.5802834 17.5861565,42.5593793 19.3491034,42.6155759 C19.7641524,42.6288784 20.1352423,42.5965722 20.5144229,42.5490631 C21.7927414,42.6690576 23.1662596,42.5341316 24.3234885,42.5493345 C25.9621095,42.5707815 27.7161567,42.7388282 29.3447992,42.4065356 C29.4993301,42.4182093 29.6546701,42.4323263 29.8116282,42.4554022 C30.453754,42.550149 30.9971743,42.6364799 31.6519754,42.6155759 C33.4149223,42.5593793 35.1948595,42.5802834 36.9586155,42.5952148 C38.3898468,42.60716 39.8127178,42.7814507 41.2687604,42.7651618 C41.8728603,42.7583748 42.5031199,42.8542075 43.1039835,42.7855229 C43.8836499,42.6964772 45.2981607,42.3962194 45.8124546,43.2117478 C46.0791755,43.6347149 46.033059,44.6590121 45.5009656,44.8653375 C45.2601347,44.9587269 44.9470276,44.8064262 44.697297,44.8031684 C44.2234561,44.7969244 43.7288493,44.8957434 43.2563569,44.9370085 C41.8024719,45.064333 40.2409815,44.7247105 38.7539249,44.7768348 C37.9027913,44.8066977 37.0778173,45.0263257 36.2285715,45.0654189 C35.4448598,45.1012544 34.6700477,44.9557407 33.8857966,44.9562836 C33.3326676,44.9568266 32.7549971,44.9565551 32.1722025,44.9652425 C31.5699904,44.9199052 30.9645421,44.9128467 30.3439913,44.9902187 C28.9389196,45.1647809 27.5246786,44.9837032 26.115292,45.0336557 C24.6325503,45.0863229 23.1533146,45.1590798 21.6643702,45.1102133 C20.1476479,45.0605323 18.6322741,44.958184 17.1142034,44.9565551 C16.330222,44.9560121 15.55541,45.1015259 14.7714285,45.0656904 C13.9221827,45.0268686 13.0972088,44.8072406 12.2463449,44.7771063 C10.7595579,44.7249819 9.19779788,45.0646045 7.74391281,44.93728 C7.31430069,44.8998156 6.87605858,44.8262443 6.44482834,44.8216291 Z M42.7358601,46.891399 C42.4462158,48.2045518 42.5864533,49.5052165 42.4526883,50.8113108 C41.8949747,50.7781901 41.3210797,50.6294186 40.7800867,50.5973839 C40.0538184,50.5542184 39.3442707,50.4415539 38.6212386,50.3440922 C37.4685944,50.1879908 36.2916784,50.0755977 35.1312133,50.0335182 C33.5608232,49.9765072 32.0476069,49.8757878 30.4607659,49.9401288 C29.9394601,49.9610328 29.420042,49.9596754 28.9070965,50.0609377 C28.4135684,50.0183152 27.9076348,50.0318893 27.3865986,50.0321608 C25.9691214,50.0329752 24.52926,49.9773216 23.11421,50.0685392 C22.8426347,50.0861855 22.5554175,50.0946014 22.2598401,50.0997595 C22.2164204,50.0883573 22.1724614,50.0755977 22.1295811,50.0666388 C21.6053086,49.957775 21.0737547,49.9618472 20.5403129,49.9401288 C18.9534719,49.8757878 17.4402556,49.9767787 15.8698655,50.0335182 C14.7094004,50.0753262 13.5324844,50.1879908 12.3798402,50.3440922 C11.6568081,50.4420968 10.9475301,50.5544899 10.2209921,50.5973839 C9.67999905,50.6294186 9.10610415,50.7779186 8.54839049,50.8113108 C8.41435582,49.5046735 8.55432361,48.2045518 8.26521866,46.891399 C8.89520856,46.8837975 9.50955658,46.7836211 10.1678637,46.7947518 C11.2307019,46.812941 12.291113,46.7450708 13.3466697,46.8851549 C14.150608,46.9921184 14.924611,47.0428853 15.7301674,46.9294063 C16.3415489,46.8433469 16.9472669,46.7741193 17.5492093,46.7070635 C18.3089189,46.7407271 19.0826522,46.6978332 19.8143142,46.7160224 C21.6179839,46.7610882 23.3615133,46.8628935 25.1581712,46.6438085 C26.8795862,46.4339538 28.6077434,46.8392747 30.3259222,46.5721375 C30.6978212,46.5143121 31.0640568,46.4868926 31.4257076,46.466803 C32.6964749,46.6389218 33.9707482,46.7461568 35.2719901,46.9296778 C36.0772769,47.0428853 36.8510102,46.9923899 37.6554879,46.8854264 C38.7110446,46.7453423 39.7711859,46.812941 40.8342939,46.7950233 C41.4917919,46.7836211 42.1061399,46.8837975 42.7358601,46.891399 Z M15.1581603,136.801779 C14.9251504,136.794992 14.6926798,136.79092 14.4594001,136.781689 C13.5389568,136.745582 12.6228286,136.722778 11.7029247,136.714905 C11.8261718,135.653686 11.745805,134.516996 11.6880918,133.472609 C11.6101522,132.063352 11.2622554,129.890691 12.5114476,128.88757 C14.3825392,127.38438 14.9982357,130.136653 15.1271463,131.538851 C15.2865316,133.269813 15.2061647,135.0567 15.1581603,136.801779 Z M22.3221379,132.340806 C22.3051476,133.844538 22.2231626,135.334696 22.184867,136.833814 C21.7013174,136.839515 21.2180375,136.844673 20.7355666,136.845216 C20.0929014,136.84603 19.4515846,136.847388 18.8102679,136.847116 C18.8002894,135.551338 18.760106,134.268048 18.6560066,132.96304 C18.5492104,131.621925 18.5972148,129.744635 19.6446808,128.746128 C21.2177678,127.246739 22.3636698,128.658711 22.353961,130.322346 C22.3504551,130.994804 22.3296891,131.668076 22.3221379,132.340806 Z M31.3569373,136.663867 C30.111251,136.671468 28.8644859,136.69373 27.6174511,136.721964 C27.7315289,135.612421 27.5492202,134.531385 27.5834705,133.387907 C27.6233842,132.056294 27.4969008,129.812233 28.6077434,128.90603 C30.660874,127.230722 31.327002,130.404333 31.3898392,131.807617 C31.4618458,133.421843 31.2587711,135.050728 31.3569373,136.663867 Z M38.6738277,132.255018 C38.6705914,133.75685 38.6646583,135.222575 38.544108,136.718706 C37.4375804,136.721421 36.3275468,136.741782 35.2245251,136.706218 C35.1929717,136.705403 35.1611486,136.705132 35.1295951,136.703774 C35.3882254,135.386821 35.2849351,133.938199 35.3143311,132.622331 C35.3326698,131.799473 35.2388186,131.002405 35.4302967,130.190135 C35.5896819,129.51279 36.3442674,127.479127 37.3294357,127.828523 C37.5713454,127.914582 38.2202134,129.061589 38.310289,129.275787 C38.6811092,130.161086 38.6759852,131.303749 38.6738277,132.255018 Z M43.2814379,133.694138 C43.1398519,134.621788 42.6999917,135.568713 42.6819226,136.507765 C42.6813833,136.535456 42.6441664,136.622873 42.6072192,136.707575 C42.175989,136.699702 41.6533347,136.818882 41.2377463,136.789562 C40.7852108,136.757528 40.3305177,136.740153 39.8747459,136.729836 C39.9950265,134.414648 40.1193524,131.813047 39.5729657,129.573059 C39.3229654,128.549033 38.423288,126.704592 37.2261454,126.692104 C35.4494445,126.6731 34.530889,128.822143 34.2741465,130.291397 C34.0894106,131.349901 34.1835316,132.45157 34.1314819,133.522019 C34.0815897,134.551203 34.1001981,135.654229 34.3132512,136.684771 C33.7415138,136.673097 33.1697764,136.664681 32.5969603,136.662509 C32.8019227,134.463243 32.8294308,131.89612 32.2463666,129.802732 C31.8814794,128.492837 30.902514,127.198687 29.4130302,127.378408 C27.5764586,127.599936 26.9100609,129.323025 26.7018622,130.927205 C26.4602222,132.790378 26.4135663,134.860419 26.7671265,136.742325 C25.6673411,136.768387 24.5678253,136.795263 23.4699277,136.815081 C23.4604886,134.43338 23.6444155,132.016929 23.4577918,129.647173 C23.3215996,127.917297 22.2520192,126.649482 20.3998057,127.114528 C18.8736444,127.497859 17.8900943,129.128645 17.6349699,130.590026 C17.4343225,131.73839 17.5715934,132.878609 17.6460271,134.030231 C17.7050887,134.937249 17.7547112,135.935755 17.9909574,136.843587 C17.4475371,136.841415 16.9043866,136.839786 16.3609664,136.83137 C16.3917108,134.34352 17.1808162,126.550934 13.103951,127.386281 C11.4313494,127.728889 10.7293529,129.313252 10.6088026,130.850376 C10.4650592,132.685586 10.6212083,134.848746 10.9979616,136.711104 C10.0799455,136.727393 8.73771108,136.931004 7.95103278,136.537357 C7.73420406,136.429036 7.63334095,136.298996 7.59126971,136.143438 C7.83560654,135.21796 7.7849053,134.122263 7.76036374,133.25271 C7.70777469,131.365104 7.62120502,129.51822 7.71343813,127.625727 C7.76117281,126.650568 7.53571409,125.973494 7.42352411,125.040958 C7.57778534,125.018696 7.71020188,125.045844 7.8644631,125.06702 C9.60772281,125.308366 11.3507128,124.987747 13.0842638,125.185386 C14.9149022,125.394154 16.7894997,125.122402 18.639286,125.065934 C19.4122103,125.042315 20.2158789,125.070006 20.9820609,124.953269 C21.082115,124.938066 21.1800115,124.916619 21.2768293,124.894087 C22.6107035,124.847392 23.9658829,125.057518 25.2841152,124.889471 C26.6802872,124.711651 28.1228454,124.842234 29.5373561,124.844949 C29.6945839,124.888928 29.8536995,124.928293 30.0182088,124.953269 C30.7841212,125.070278 31.5877898,125.042315 32.3609837,125.065934 C34.21077,125.122945 36.0859069,125.394426 37.9160059,125.185386 C39.5740444,124.996163 41.2399038,125.275789 42.907651,125.090096 C42.8634223,126.019918 43.1091076,127.046658 43.1527969,127.897479 C43.2488057,129.750607 43.5627219,131.854312 43.2814379,133.694138 Z M45.6908256,120.554194 C46.306522,120.761877 46.7879142,121.865446 46.3839223,122.480079 C45.9680643,123.112901 43.7315462,122.896259 43.0058173,122.99182 C41.6536044,123.170455 40.3445415,123.067021 38.9880136,123.054532 C38.4238274,123.049374 37.9219391,123.114258 37.3663829,123.176427 C36.6091005,123.261401 35.958075,123.124574 35.2075348,123.073265 C34.2307269,123.00648 33.2315348,123.052089 32.2425909,123.099598 C30.0268388,122.784952 27.7048298,122.740429 25.5373517,122.933181 C23.7482452,123.091997 21.9332486,123.075708 20.1244548,123.166926 C20.013883,123.158781 19.9030414,123.150094 19.7913908,123.146021 C18.4715404,123.097969 17.1117763,122.983404 15.7927349,123.073536 C15.0427341,123.124846 14.3911692,123.261672 13.6338868,123.176699 C13.0783307,123.11453 12.576712,123.049646 12.0122562,123.054804 C10.6557283,123.067021 9.34666536,123.170726 7.99445246,122.992092 C7.26872351,122.896259 5.03247513,123.113444 4.61634739,122.48035 C4.21235558,121.865718 4.69374769,120.761877 5.30944415,120.554465 C5.88064218,120.361986 6.67972611,120.502884 7.29326507,120.493654 C7.81969498,120.603875 8.39682614,120.609576 8.87848793,120.683962 C9.98555494,120.855538 11.2387925,120.785496 12.352332,120.739887 C12.9647923,120.714639 13.5683528,120.587043 14.1794646,120.572926 C14.8089151,120.558538 15.4097787,120.752918 16.0341052,120.779795 C16.7377198,120.8102 17.4656062,120.738258 18.1924139,120.667944 C18.565931,120.674731 18.9372906,120.677446 19.3013687,120.688848 C20.7277457,120.733371 22.0885886,120.647312 23.4885361,120.576184 C24.9861106,120.500169 26.5341166,120.46922 28.0354666,120.45999 C28.2857366,120.458361 28.5365459,120.460533 28.7876249,120.462976 C29.5961479,120.640525 30.5751134,120.543063 31.313248,120.560438 C32.5176721,120.589215 33.7763035,120.831104 34.9664342,120.779523 C35.5907607,120.752646 36.191894,120.558266 36.8210749,120.572655 C37.431917,120.5865 38.0357472,120.714368 38.6479377,120.739615 C39.7614772,120.785224 41.0144451,120.855266 42.1220515,120.68369 C42.6031739,120.609033 43.1808444,120.603332 43.7072744,120.493382 C44.3205436,120.502613 45.1198972,120.361171 45.6908256,120.554194 Z M8.25389179,92.847946 C8.27250022,92.6049707 8.22611398,91.5733435 8.14331993,90.7781761 C9.22989069,90.8778096 10.3218552,90.8569056 11.404111,91.0211515 C12.532753,91.1921844 13.627684,91.3081067 14.7719679,91.3078352 C15.5025512,91.3075638 16.2555186,91.276072 17.01361,91.2171606 C17.6978071,91.2752575 18.4626407,91.1791533 18.9548203,91.197614 C19.8224049,91.2301917 20.6684144,91.1349019 21.5330324,91.1262146 C22.5271004,91.1158983 23.4790971,91.3686469 24.4755922,91.2654842 C26.6535881,91.0401551 29.0346587,91.1332731 31.3032695,90.8664074 C32.9346089,91.1715519 34.6336399,91.3075638 36.2296503,91.3078352 C37.3736645,91.3081067 38.4688652,91.1921844 39.5975072,91.0211515 C40.6800327,90.8569056 41.7719972,90.8780811 42.8582982,90.7781761 C42.7752345,91.573615 42.7285786,92.6049707 42.7477264,92.847946 C42.8545226,94.2276116 42.8369929,95.5831154 42.8375323,96.9676677 C42.8380717,99.9411972 43.0826782,102.91527 42.8542529,105.88527 C42.6371545,108.704327 42.6778773,111.536687 42.6482117,114.363074 C42.6358061,115.553788 42.5772839,116.747761 42.565957,117.936033 C42.5635299,118.18118 42.5810595,118.400265 42.6217823,118.598175 C42.3491283,118.630481 42.0686534,118.646498 41.8512853,118.669845 C41.82998,118.672289 41.808405,118.672017 41.7870997,118.673918 C41.6954059,118.664687 41.6050606,118.653014 41.5125578,118.646227 C40.9575411,118.606319 40.4100755,118.629123 39.8655766,118.678261 C38.760667,118.599803 37.6587241,118.433114 36.5602871,118.434743 C35.5621738,118.435829 34.6678902,118.589216 33.6584501,118.483881 C32.8307793,118.397279 31.9850394,118.413296 31.1519749,118.435015 C31.0686414,118.420355 30.9842293,118.406509 30.894693,118.395378 C30.1260838,118.301717 29.3542383,118.32778 28.581314,118.326694 C27.0532649,118.324793 25.5373517,118.459448 24.0093026,118.467049 C23.1026134,118.471664 22.2228929,118.574556 21.3280699,118.634824 C20.8582744,118.541435 20.3917151,118.44886 19.9755873,118.437458 C19.1020697,118.414111 18.2129101,118.392664 17.3437075,118.483338 C16.3339976,118.588673 15.4399837,118.435286 14.4418705,118.4342 C13.3431638,118.433114 12.2412208,118.59926 11.1363113,118.677718 C10.5918123,118.62858 10.0443468,118.606048 9.48933002,118.645684 C9.39709691,118.652199 9.30621224,118.664144 9.21478819,118.673375 C9.19348288,118.671203 9.17190789,118.671203 9.15060258,118.669031 C8.93350417,118.645684 8.65275953,118.629666 8.38010552,118.59736 C8.42082832,118.399451 8.43835801,118.180094 8.43593082,117.934947 C8.42460395,116.746675 8.36635146,115.552703 8.35367615,114.361988 C8.32428021,111.535872 8.36500302,108.703241 8.14763493,105.884184 C7.91893997,102.914184 8.1632768,99.9403828 8.16435555,96.9665817 C8.16462524,95.5831154 8.14709556,94.2276116 8.25389179,92.847946 Z M45.2258844,61.311375 C45.1530688,63.6738012 44.9944926,66.0158663 44.9675238,68.3899662 C44.9386673,70.9733778 44.9060351,73.5570609 44.8860782,76.1404725 C44.8771785,77.3018675 44.8202745,78.4711355 44.853446,79.6319875 C44.8860782,80.7920251 45.1320332,81.8950518 45.0888832,83.0616049 C45.0446544,84.2604643 45.125291,85.4823995 45.0505876,86.6755578 C44.9599726,88.1247225 44.0187634,88.3701411 42.6811136,88.4963797 C40.0788993,88.7423414 37.5090476,88.8938277 34.9302961,88.9144602 C34.9111483,88.9060443 34.8973942,88.8938277 34.8763586,88.8867692 C33.3755479,88.3728559 31.4006267,88.5732088 29.8458785,88.6837015 C27.9386488,88.8194419 26.0934473,89.0219666 24.1686879,88.9964474 C22.1508864,88.9698423 20.1338939,88.8642363 18.115553,88.9063158 C14.8455926,88.974186 11.5756322,88.8039675 8.32050459,88.4963797 C6.98339419,88.3698697 6.04191528,88.124451 5.95103061,86.6755578 C5.87632718,85.482128 5.95696373,84.2604643 5.91273499,83.0616049 C5.86958499,81.8950518 6.11527027,80.7920251 6.14817214,79.6319875 C6.18080432,78.471407 6.12443964,77.3018675 6.11553995,76.1404725 C6.09558308,73.5570609 6.06322059,70.9733778 6.03409434,68.3899662 C6.00739528,66.0158663 5.84881906,63.6738012 5.77573376,61.311375 C5.74121377,60.1931454 5.75928283,59.0724725 5.75577689,57.9539715 C5.75227095,56.806965 5.51305818,55.3219648 5.98689904,54.2322407 C6.38495772,53.3165359 7.05540074,53.0065048 7.8258978,52.819726 C9.20831569,52.9524801 10.6694823,52.6017269 12.0219649,52.3902433 C13.5127972,52.1573127 15.028171,52.0796692 16.5219698,51.9466436 C17.389015,51.8692716 18.2590267,51.7761536 19.1301172,51.6944379 C20.3275295,51.7690951 21.5902061,51.6393273 22.7088697,51.5752578 C23.0400459,51.6097359 23.3561196,51.6276536 23.6473821,51.5489242 C25.4181499,51.5643986 27.5872461,51.9241107 29.3477658,51.5152606 C31.0605508,51.5828593 32.7754934,51.7954288 34.4799181,51.9469151 C35.9737169,52.0799407 37.4893604,52.1575842 38.9799229,52.3905148 C40.3326752,52.6019983 41.7935722,52.9527516 43.1759901,52.8199974 C43.9464871,53.0067763 44.6166605,53.3168074 45.0149888,54.2325122 C45.4890994,55.3222363 45.2498866,56.8072365 45.246111,57.954243 C45.2420657,59.072201 45.2604044,60.1931454 45.2258844,61.311375 Z M48.9508075,69.7422123 C48.9108938,71.2937252 48.9807429,72.8498534 48.8672044,74.3991945 C48.757172,75.8974972 48.835651,77.2706472 48.8782616,78.761077 C48.9138604,80.0036448 49.025511,81.3900974 48.662242,82.5802694 C48.4270745,83.3504605 48.2560927,83.9371306 47.3895869,84.037307 C47.3539881,84.0413792 47.3197378,84.0411078 47.2841391,84.0438226 C47.2960053,83.4604103 47.3108381,82.8772694 47.296275,82.2930427 C47.2698456,81.2310097 47.006361,80.205898 46.9931463,79.1403358 C46.9783135,77.9493493 46.9839769,76.757277 46.9748076,75.5662906 C46.9564688,73.174273 46.9249154,70.7817124 46.8976769,68.3896947 C46.871787,66.0891662 46.9251851,63.8472774 47.0131032,61.5570651 C47.0708163,60.0530613 47.1622403,58.4179322 47.1058757,56.8479586 C47.4122406,57.0271359 47.7204934,57.2014266 48.0225433,57.3892914 C49.1021022,58.059849 49.1096535,59.9080905 49.2080894,61.1256821 C49.4419084,64.0052793 49.0247019,66.8799898 48.9508075,69.7422123 Z" id="Shape"></path>
                    <path d="M41.9378882,62.5928018 C41.9245262,61.2437168 42.3603944,58.7773876 41.0971517,57.8003633 C40.272984,57.1627347 38.9570951,57.2442641 37.7205763,57.3470389 C38.0025144,55.3542173 36.4605405,53.294207 34.3848887,53.2533095 C33.2429729,53.2307362 32.541201,53.9036853 32.0975829,54.9059386 C31.8244638,55.5223218 31.4949571,56.5835311 31.660913,57.3759858 C31.6598441,57.3759858 31.6587751,57.3757202 31.6577061,57.3757202 C31.2720791,57.3735957 30.8901933,57.3717367 30.5085748,57.3722678 C30.4724975,56.8844196 30.5147214,55.6784757 30.4297391,55.398036 C30.2482832,54.7981181 29.9938709,54.1997935 29.524865,53.7709014 C28.5072157,52.8403514 26.8735786,52.9452507 25.607129,53.1069816 C24.3091451,53.2729615 23.4264519,54.0457642 22.7623609,55.1414974 C22.3719235,55.785234 21.9929774,56.7742089 22.20864,57.5494016 C22.1290025,57.5847222 22.0418823,57.6139346 21.9422019,57.6319932 C21.6335398,57.6365079 21.3248778,57.6378357 21.0154141,57.6381013 C20.7797086,57.6149969 20.5381237,57.5807386 20.3029527,57.5427624 C20.5592357,56.7394195 20.1941861,55.5658749 19.9023602,54.9059386 C19.4584748,53.9039509 18.7572375,53.2307362 17.6150544,53.2533095 C15.5391353,53.2939414 13.9974287,55.3542173 14.2793668,57.3470389 C13.042848,57.2442641 11.7266918,57.1630003 10.9027914,57.8003633 C9.63954869,58.7776532 10.0754169,61.2437168 10.0623221,62.5930674 C10.0404084,64.877217 10.3020362,67.1292329 10.3736565,69.3998386 C10.4067943,70.4480351 10.2916139,71.5007463 10.2461831,72.5462872 C10.1986144,73.6454728 10.4324493,74.6896858 10.4500871,75.7851534 C10.4869662,78.0549624 10.7208011,80.382134 10.9305843,82.6484905 C11.0845145,84.3112112 12.0519227,84.8678416 13.6593703,84.9058178 C15.2879299,84.9445907 17.2550823,85.0465688 19.0242101,84.7786108 C19.1097268,84.7802042 19.1952436,84.7812664 19.281562,84.7831254 C21.3091107,84.8224295 23.3305128,84.9799112 25.3572597,84.9836292 C27.5341955,84.9873471 29.7130018,85.0173563 31.8894031,84.9854882 C32.5136753,84.9764589 33.1879215,84.9674295 33.8458659,84.8816511 C35.3707364,85.0147006 36.9741755,84.9382171 38.3395038,84.9055522 C39.9469514,84.867576 40.9143596,84.3109457 41.0682898,82.648225 C41.2783403,80.382134 41.5121752,78.0544312 41.548787,75.7848879 C41.5664248,74.6894202 41.8005269,73.6449416 41.752691,72.5460216 C41.7072602,71.5004807 41.5923471,70.4477695 41.6252176,69.399573 C41.6981741,67.1289673 41.9598019,64.8766859 41.9378882,62.5928018 Z M34.3848887,54.4677516 C36.1871542,54.4616435 36.3269206,56.0948862 36.6703238,57.4245847 C36.3405498,57.4407843 36.0313533,57.4418466 35.756898,57.4105096 C34.7916277,57.3005645 33.8937019,57.3008301 32.9180092,57.3661598 C33.1804387,56.2282013 32.8014926,54.4730629 34.3848887,54.4677516 Z M26.3123749,54.1373851 C27.6910652,54.056918 28.8834894,54.088255 29.275263,55.7140618 C29.4091502,56.2690987 29.328711,56.8302437 29.319892,57.3921854 C29.2592286,57.39431 29.1990996,57.3932477 29.138169,57.3956378 C28.3228202,57.4264437 27.5061353,57.3481011 26.6918555,57.3334949 C25.7669384,57.3167641 24.9021503,57.4896488 23.9823108,57.5536507 C23.6971659,57.5733027 23.410952,57.5836599 23.1244709,57.5953449 C23.6346317,55.8800417 24.1565511,54.2632643 26.3123749,54.1373851 Z M17.6147872,54.4677516 C19.1981832,54.4733285 18.8192371,56.2282013 19.0816666,57.3661598 C18.105974,57.3008301 17.2080481,57.3005645 16.2427778,57.4105096 C15.9683225,57.4418466 15.6585916,57.4407843 15.3293521,57.4245847 C15.6732897,56.0946206 15.8127889,54.4616435 17.6147872,54.4677516 Z M40.3248286,63.1305769 C40.2994408,65.0333709 40.0562525,66.9321815 39.8576933,68.8174481 C39.6668841,70.6310114 39.9985287,72.4318274 39.6372205,74.2188339 C39.451756,75.136371 39.5410141,76.0783404 39.3884202,77.0027823 C39.2494554,77.8422425 39.1826455,78.7141019 39.1139649,79.5623258 C39.06506,80.1646339 39.0765513,80.7669419 39.0054655,81.3681876 C38.9939742,81.4664478 38.9060523,82.5316407 38.8576818,82.6407891 C38.8459233,82.6415858 38.840044,82.6418513 38.8261475,82.6431792 C38.6644674,82.6564576 38.5027873,82.6588477 38.3405728,82.6500839 C37.8392308,82.6567231 37.3384234,82.6540675 36.8368142,82.664159 C35.6617606,82.687529 34.3659147,82.6437103 33.1280597,82.7849924 C32.5077961,82.8107525 31.8979548,82.8593515 31.3543889,82.8548368 C29.1737119,82.8362471 26.9919658,82.8715676 24.8110215,82.8662562 C22.8174123,82.861476 20.8417082,82.7470162 18.8448921,82.7823368 C17.6153216,82.644507 16.3301653,82.687529 15.1636634,82.664159 C14.6620542,82.654333 14.161514,82.6567231 13.6599048,82.6500839 C13.4976902,82.6585821 13.3357429,82.656192 13.17433,82.6431792 C13.1604336,82.6421169 13.1545543,82.6415858 13.1427957,82.6407891 C13.0944253,82.5319062 13.0065034,81.4664478 12.9950121,81.3681876 C12.9239263,80.7672074 12.9354176,80.1648994 12.8865127,79.5623258 C12.8178321,78.7141019 12.7504876,77.8422425 12.6120574,77.0027823 C12.4591962,76.0783404 12.5489888,75.136371 12.3632571,74.2188339 C12.0016816,72.432093 12.3335935,70.6310114 12.1427842,68.8174481 C11.9442251,66.9321815 11.7010368,65.0333709 11.675649,63.1305769 C11.662287,62.1389463 11.5813134,61.1255391 11.6451837,60.1360331 C11.7186746,59.001527 12.202646,58.9423053 13.215485,58.9595672 C13.6604393,58.9672687 14.0995143,58.958505 14.535917,58.9393841 C14.9319664,59.04269 15.3322917,59.1231571 15.7759098,59.1441369 C16.7601542,59.1903457 17.7481398,59.1876901 18.7334531,59.204952 C20.7070193,59.2392102 22.734568,59.4057213 24.7033239,59.2447872 C26.4120554,59.1050984 28.129873,59.290996 29.8225702,59.0368475 C30.6253587,58.9160141 31.6502234,58.8798969 32.5513562,58.6520396 C32.9447332,58.6544297 33.3119207,58.6538986 33.615238,58.6700982 C35.3549693,58.7638437 37.0257528,58.989842 38.7844581,58.9595672 C39.7972971,58.9423053 40.2815357,59.001527 40.3547594,60.1360331 C40.418897,61.1252736 40.3379233,62.1389463 40.3248286,63.1305769 Z" id="Shape"></path>
                    <path d="M39.9685095,110.969249 C39.9313547,110.429077 39.9010512,109.887815 39.8615248,109.347642 C39.9165982,108.687341 39.9637664,108.02486 39.9635029,107.343856 C39.9632394,105.863625 39.9827391,104.38394 39.9990766,102.903982 C40.0175223,101.254862 39.755067,99.7283234 39.6183056,98.0933688 C39.4760106,96.3968514 39.389316,94.7733377 38.0809922,93.5507992 C36.9378888,92.4827123 35.6598685,93.0866268 34.9721092,94.3481187 C33.9768344,96.1726649 34.0413942,98.4779999 34.0100366,100.498948 C33.9686656,103.16358 34.063002,105.826306 34.1504871,108.486308 C34.1915945,109.734453 34.3539163,110.942009 34.3410043,112.198325 C34.3296734,113.295559 34.1367846,114.641768 34.3657742,115.719117 C34.7452276,117.506616 36.4712137,116.891261 37.7394841,116.921497 C38.3616297,116.936207 39.1036719,116.944924 39.5595431,116.428995 C40.0913049,115.826988 39.8625788,114.931059 39.8509844,114.191761 C39.8335928,113.102426 40.0449273,112.082555 39.9685095,110.969249 Z M38.9442488,109.247943 C38.8153927,110.584618 38.711043,111.941451 38.7292252,113.29447 C38.7018202,113.492233 38.6775773,113.691631 38.6612398,113.895932 C38.6145986,114.481324 38.9381881,115.286543 38.2240778,115.579375 C37.9690008,115.683977 37.5423792,115.548321 37.2627958,115.541511 C37.0045566,115.534973 36.4190389,115.668995 36.1942654,115.609611 C35.4295614,115.408306 35.6372067,114.879847 35.6401053,114.277567 C35.6643482,109.482754 35.2630235,104.72989 35.1821261,99.9367107 C35.1605183,98.6779427 35.1275797,97.4338845 35.419548,96.1990878 C35.5386542,95.6951448 35.6693548,95.0086927 36.04143,94.6382265 C36.8206271,93.862699 37.4743937,94.4660686 37.9052315,95.1963774 C38.3603121,95.9675465 38.3748051,96.9239486 38.5036612,97.8073471 C38.6920704,99.0996205 38.8857497,100.483966 38.9310733,101.781959 C39.0151328,104.186449 39.1748194,106.855985 38.9442488,109.247943 Z" id="Shape"></path>
                    <path d="M31.968534,110.969249 C31.9313789,110.429077 31.9010751,109.887815 31.8615484,109.347642 C31.9163588,108.687341 31.9637908,108.02486 31.9635273,107.343856 C31.9632638,105.863625 31.9827636,104.38394 31.9991013,102.903982 C32.0172836,101.254862 31.7550899,99.7283234 31.6183275,98.0933688 C31.4760314,96.3968514 31.3893362,94.7733377 30.0810028,93.5507992 C28.9378909,92.4827123 27.6598612,93.0866268 26.9720968,94.3481187 C25.9768147,96.1726649 26.0413749,98.4779999 26.0100171,100.498948 C25.9686458,103.16358 26.0632464,105.826306 26.1507321,108.486308 C26.1913128,109.734453 26.3538993,110.942009 26.3409873,112.198325 C26.3296563,113.295559 26.136766,114.641768 26.3657573,115.719117 C26.7452135,117.506616 28.4712124,116.891261 29.7394921,116.921497 C30.3616423,116.936207 31.10369,116.944924 31.5595645,116.428995 C32.0913303,115.826988 31.8626025,114.931059 31.851008,114.191761 C31.8338798,113.102426 32.0452158,112.082555 31.968534,110.969249 Z M30.9440022,109.247943 C30.8151452,110.584618 30.7107947,111.941451 30.728977,113.29447 C30.7015718,113.492233 30.6773288,113.691631 30.6609911,113.895932 C30.6143496,114.481324 30.9382049,115.286543 30.2238259,115.579375 C29.968747,115.683977 29.5421222,115.548321 29.2625367,115.541511 C29.0042957,115.534973 28.4187736,115.668995 28.1939985,115.609611 C27.4292888,115.408306 27.6369357,114.879847 27.6398343,114.277567 C27.6640774,109.482754 27.2627497,104.72989 27.1818517,99.9367107 C27.1605073,98.6779427 27.1275684,97.4338845 27.4192754,96.1990878 C27.5383825,95.6951448 27.6690841,95.0086927 28.041162,94.6382265 C28.8203648,93.862699 29.4741363,94.4660686 29.9052407,95.1963774 C30.3603247,95.9675465 30.3748178,96.9239486 30.5036748,97.8073471 C30.6920854,99.0996205 30.8857662,100.483966 30.9310901,101.781959 C31.0151502,104.186449 31.1745745,106.855985 30.9440022,109.247943 Z" id="Shape"></path>
                    <path d="M24.9217376,22.5753532 C24.8105698,22.2674197 24.6435271,22.2445816 24.4532031,22.0603544 C24.3330138,21.9442609 24.241053,21.779446 24.1322133,21.6454626 C23.7687352,21.1982168 23.3397788,20.9275856 22.8307931,21.0170347 C22.0110031,21.1616759 20.7570184,22.1376233 21.0410493,23.4218848 C21.2016897,24.1466132 21.874808,24.1648837 22.1824111,23.6167697 C22.3084207,23.3929565 22.4321022,23.2296642 22.6224262,23.0949196 C22.7172971,23.0275472 22.8159513,22.9605555 22.9218809,22.9278209 C22.9597128,22.9160212 22.982412,22.9076473 22.9998729,22.9004152 C23.1561481,22.9875806 23.2853589,23.2483153 23.4099134,23.3899114 C23.6144971,23.6228599 23.8176258,23.7823458 24.0783755,23.8889235 C24.3065314,23.982179 24.622865,23.8904461 24.7814683,23.645698 C24.794855,23.6247631 24.8085327,23.6038281 24.8219194,23.5832739 C25.0209738,23.2764823 25.0515305,22.9354336 24.9217376,22.5753532 Z" id="Shape"></path>
                    <path d="M29.826179,22.5474922 C29.5309438,22.1308629 29.3591606,21.7250936 28.9642248,21.415748 C28.5239958,21.0708606 28.0312927,20.9109223 27.5095909,21.0501278 C26.8915026,21.2150025 25.6208038,22.1357993 26.1093642,23.0799615 C26.5700305,23.9694946 27.3701206,22.4928631 27.9332492,22.5985013 C28.3765163,22.6817613 28.5966308,23.356398 28.84243,23.7200436 C29.3997589,24.5447458 30.4047737,23.363638 29.826179,22.5474922 Z" id="Shape"></path>
                    <path d="M26.9116473,18.6812116 C26.7797715,18.4364528 26.6800291,18.3183549 26.6008522,18.1620803 C26.4844005,17.9323067 26.3897995,17.6900454 26.2355588,17.5020164 C25.8054843,16.9786036 25.1795241,16.9136676 24.6463653,17.083857 C24.0044669,17.289012 22.5409796,18.1306827 23.1417472,19.3794522 C23.2556282,19.6163616 23.5214364,19.7819127 23.7101242,19.5863911 C24.046626,19.2381628 24.8206573,18.4596442 25.277724,18.8000231 C25.4700107,18.9430964 25.5586991,19.451524 25.7337624,19.6784433 C26.0167941,20.0452247 26.3476404,20.0905372 26.6900548,19.8536278 C26.9651174,19.6631012 27.1018775,19.0347918 26.9116473,18.6812116 Z" id="Shape"></path>
                    <path d="M21.975831,29.8269671 C21.9638088,29.3262266 21.9656743,28.8158515 21.8566459,28.331516 C21.7571522,27.8896249 21.2431016,27.8893645 21.1434006,28.331516 C21.0345794,28.8155911 21.036445,29.3270078 21.0242155,29.8269671 C21.0113643,30.3579135 20.9752978,30.9003172 21.0271174,31.4278784 C21.1023595,32.1897955 21.8974797,32.1916183 21.9727218,31.4278784 C22.0247487,30.9010984 21.9886823,30.3571323 21.975831,29.8269671 Z" id="Shape"></path>
                    <path d="M25.9429175,27.98374 C25.9464284,27.3671044 26.0410481,26.8901077 25.886567,26.2912668 C25.7922985,25.9259813 25.4078512,25.8805059 25.326222,26.2912668 C25.1926309,26.9647466 24.5901547,29.7436847 25.4663082,29.9811945 C26.247491,30.1932479 25.9395821,28.5539117 25.9429175,27.98374 Z" id="Shape"></path>
                    <path d="M28.9114332,27.3774866 C28.9092235,27.242818 28.9197196,27.1044632 28.9138271,26.9705318 C28.9136429,26.9670913 28.9132746,26.9648796 28.9130905,26.9616849 C29.1254072,26.6129718 28.9261646,26.0177758 28.5595362,26.0005736 C27.9638341,25.9723128 27.9907189,26.9953521 28.0054504,27.5313234 C28.0115271,27.7564265 28.0238646,27.981038 28.0373071,28.2056496 C28.0137368,28.6666685 27.9583098,29.1235097 28.0737674,29.5734701 C28.1813068,29.9932037 28.5591679,30.1480235 28.8090498,29.832486 C29.0742155,29.4975346 28.9631773,28.7774998 28.9462362,28.3499023 C28.9331621,28.0260095 28.9167733,27.7018709 28.9114332,27.3774866 Z" id="Shape"></path>
                    <path d="M36.7765929,68.5748303 C36.0049132,66.0651891 34.9459956,64.0790464 32.806128,62.4770379 C30.5403218,60.7804901 27.9045881,59.5311028 25.0417298,60.1697872 C24.610057,60.2659566 24.1819203,60.3724493 23.7584076,60.4889935 C23.2663496,60.5726664 22.7212505,60.6878523 22.2653692,60.8329214 C21.2657489,61.1510411 20.1592303,61.8043954 19.312477,62.4066767 C18.8824363,62.7128432 18.4782361,63.0622043 18.1009644,63.4438936 C17.8768318,63.6574223 17.6584113,63.8804593 17.4497831,64.1203395 C17.4084383,64.1684242 17.3817817,64.2213988 17.3657334,64.2762752 C16.2521427,65.6805115 15.4769269,67.3909143 15.188057,69.111912 C14.7860328,71.5088122 14.9549483,74.1366277 16.4224182,76.1496652 C18.0204507,78.34173 19.9633863,80.0325729 22.6654894,80.6318659 C27.5931418,81.7253175 33.3629234,80.4916868 35.5599121,75.4609945 C36.4466502,73.4311137 37.4574228,70.7891716 36.7765929,68.5748303 Z M34.9982207,73.0869141 C34.227901,75.2605057 33.4246686,77.1589007 31.3683067,78.4270328 C29.3516576,79.6709868 26.6626108,79.8193159 24.3712361,79.5805224 C21.909586,79.3235273 20.0196915,78.3656366 18.3365212,76.5596077 C16.5717492,74.6661027 16.0840433,72.6530651 16.2233101,70.1154425 C16.3405445,67.975809 17.2629153,65.8282973 18.7521456,64.2548136 C20.145358,63.3846707 21.5100098,62.6454702 23.1346989,62.1977663 C24.1928005,61.9059981 25.3153674,61.6161316 26.4058376,61.5107256 C27.553701,61.3996146 28.8965923,61.8899699 29.9144371,62.4140117 C32.0164959,63.4968683 33.8125485,64.8568233 34.8138009,67.0339465 C35.1861765,67.8440515 35.5971769,68.8176988 35.6918348,69.703055 C35.8196774,70.8964793 35.3866446,71.9907459 34.9982207,73.0869141 Z" id="Shape"></path>
                    <path d="M17.9664703,60.8636996 C17.6423821,59.7717059 15.4603243,59.8471322 13.9398494,60.3649849 C13.7061095,60.4291536 13.4749927,60.5003584 13.2336752,60.5603055 C12.8623727,60.6528998 12.6073573,60.6709121 12.3508846,60.9740248 C11.9274133,61.4752724 12.0165958,62.2087094 12.0407858,62.8070545 C12.0789653,63.7473512 11.8982686,64.6741386 12.0894574,65.6071178 C12.1331743,65.8201692 12.3960588,66.0166155 12.6225125,65.9988847 C13.2703974,65.9487881 13.3776496,65.6178126 13.7955835,65.212818 C14.3956713,64.6310781 15.1843247,64.2269278 15.7844125,63.624924 C16.3439892,63.0634479 16.7843644,62.4116289 17.3981502,61.8946205 C17.735062,61.6106459 18.1162736,61.3688874 17.9664703,60.8636996 Z M15.7678,61.9925622 C15.4326369,62.3618137 15.1528485,62.753862 14.7806717,63.0932807 C14.3612806,63.4754785 13.9101219,63.810957 13.4490539,64.1430582 C13.3989252,64.1793642 13.251162,64.3285283 13.0946553,64.4866985 C13.1045645,64.0487752 13.1587735,63.6102891 13.1555676,63.1709586 C13.1523617,62.7017953 12.925908,61.9768015 13.348505,61.629221 C14.0386496,61.4868115 14.7145134,61.2301367 15.4215619,61.1637165 C15.6961043,61.1378238 15.9782242,61.1299435 16.2536409,61.139231 C16.3011466,61.1406382 16.4025699,61.1592134 16.5098221,61.1775071 C16.2346969,61.4127924 15.9313014,61.812721 15.7678,61.9925622 Z" id="Shape"></path>
                    <path d="M18.3931681,79.1659707 C17.9289598,78.699987 17.4356835,78.2587987 16.9946709,77.7714396 C16.3833606,77.0956919 15.7544332,76.3441328 14.8591953,76.0212217 C14.7032848,75.9650757 14.4672168,76.0246418 14.3603403,76.1491891 C13.990383,76.5806872 13.9674809,77.0936968 14.0223872,77.6220968 C13.9997787,78.222888 14.1040127,78.8399246 14.1777106,79.4241856 C14.2613914,80.089388 14.0869829,81.0182205 14.627238,81.5603006 C15.0333102,81.9675733 15.6372801,81.9214024 16.1628543,81.8430259 C17.1937432,81.6899781 18.2909894,81.7957151 19.3201166,81.9869536 C19.4889463,82.0183042 19.6941845,81.9994939 19.8139802,81.8601263 C20.5436182,81.0105253 18.9278445,79.7029208 18.3931681,79.1659707 Z M17.1866964,80.6961644 C16.7177902,80.6545536 16.0950288,80.9184686 15.6681098,80.8130166 C15.1489952,80.6853342 15.3066675,79.0964294 15.2215186,78.6578062 C15.1551612,78.3152298 14.9044123,77.6275119 14.9648974,77.1663732 C15.8216715,77.6776728 16.4858329,78.6874467 17.1752453,79.341819 C17.5255302,79.6738502 17.8708237,80.0107266 18.2002618,80.3621382 C18.3485384,80.5206011 18.4962276,80.6827692 18.6351084,80.8509223 C18.1521087,80.781381 17.6623557,80.7383452 17.1866964,80.6961644 Z" id="Shape"></path>
                    <path d="M38.8954486,77.7002615 C38.9281349,77.1412888 39.0305517,76.4213583 38.4397094,76.0611194 C38.2576005,75.9502555 37.9821025,76.0003496 37.8320572,76.1301013 C36.8679695,76.9633592 36.1488728,77.9334861 35.249535,78.8119108 C34.4921488,79.5518242 33.6681449,80.2509506 33.0720106,81.1050126 C32.8976842,81.3546615 33.0523989,81.7578774 33.4010518,81.8159098 C34.0002991,81.9155503 34.5721522,81.8750371 35.1779367,81.8657301 C35.9412376,81.8539593 36.7431393,82.0469445 37.4871398,81.9891858 C38.4643019,81.9133604 38.8297649,81.1964411 38.9527273,80.4381873 C39.1030839,79.5096686 38.8419055,78.6265903 38.8954486,77.7002615 Z M37.8557158,80.6571775 C37.4911867,81.1263642 36.9224465,80.9169547 36.4660848,80.8854749 C35.8391321,80.842498 35.1910111,80.922977 34.5547195,80.9322841 C35.1110077,80.321575 35.7634868,79.7814902 36.3017198,79.1559993 C36.8536499,78.5149053 37.2555346,77.812494 37.9435016,77.2527001 C37.9189091,77.5617501 37.8697241,77.9340336 37.8650547,78.0005519 C37.830812,78.5362568 38.000469,78.9931253 38.0182129,79.5310201 C38.026618,79.7883337 38.026618,80.4373661 37.8557158,80.6571775 Z" id="Shape"></path>
                    <path d="M37.8288472,61.8683798 C37.831452,61.3026182 38.1682562,60.7168 37.6519794,60.2956125 C37.0226531,59.7822208 35.6209954,60.0942114 34.8934671,60.0908687 C34.0474192,60.0869688 33.1544844,59.9315306 32.3248468,60.1476955 C32.042744,60.2212362 31.9171913,60.5889395 32.0581125,60.8491174 C32.4649865,61.6006807 32.616848,61.8115529 33.2628452,62.2709035 C33.4803483,62.5188247 33.748906,62.72329 34.0338741,62.957283 C34.8340771,63.6138562 35.3670248,64.5222505 36.0536573,65.2933132 C36.3633713,65.6412385 36.9658678,66.1264954 37.4584407,65.9696644 C37.9572652,65.8108834 37.9648192,65.2261794 37.9913884,64.7498365 C38.0458293,63.7665088 37.8241585,62.8358295 37.8288472,61.8683798 Z M37.1307534,64.9119603 C36.5743623,64.5949555 35.9163829,63.4954669 35.6074503,63.1324992 C35.332641,62.8096445 35.0507987,62.4959825 34.721809,62.2352474 C34.563696,62.109894 34.3878701,62.0023687 34.2120443,61.8928934 C34.1516123,61.8215812 34.0870126,61.7527761 34.012254,61.6906566 C33.7218158,61.4485852 33.4777434,61.2482984 33.2612823,61.0034414 C33.7395286,61.008177 34.2289757,61.0861746 34.6962817,61.0875674 C35.0070376,61.0884031 36.8400547,60.8402034 37.0473989,61.1260092 C37.0802198,61.1711364 36.9773291,61.7850895 36.978371,61.8683798 C36.9851436,62.3787074 37.113822,62.8806781 37.1453405,63.3887772 C37.1685234,63.7634446 37.2385933,64.4389601 37.1307534,64.9119603 Z" id="Shape"></path>
                    <path d="M30.9916798,65.5357384 C31.049129,65.2707677 30.8001824,65.0625939 30.5189548,65.0394364 C30.4965223,65.0374863 30.4749104,65.0379738 30.4524779,65.0369988 C29.9026068,64.9126795 29.1057042,65.1401106 28.678665,65.1569303 C28.0672412,65.1810628 28.0650527,65.9830439 28.678665,66.0049826 C28.8419849,66.0105892 29.0085876,66.0015699 29.1760111,65.9867004 C29.2750426,65.9820689 29.3751683,65.9754873 29.472832,65.966468 C29.2862588,66.1068756 29.098865,66.2387516 28.9809573,66.3545391 C28.5544653,66.7733244 28.1613485,67.221605 27.7416957,67.6481907 C27.2221906,68.1759381 26.6652068,68.6651709 26.1651251,69.2063253 C25.5074683,68.7151424 24.8369539,69.5522254 24.4878815,69.9376151 C23.9369162,70.5455606 22.9545346,70.4851073 22.1663861,70.6781678 C21.7155466,70.7883488 21.2600564,70.8912169 20.8083961,71.0045668 C20.8409507,70.9558142 20.8745995,70.9077928 20.9079748,70.8595277 C21.09701,70.6827993 21.2403595,70.4760881 21.3834354,70.2679143 C21.6635687,69.8603421 21.0023556,69.3898791 20.6322185,69.7516237 C20.5309985,69.8503478 20.4396269,69.955166 20.3518116,70.0624219 C19.8087798,70.5643304 18.7960322,71.0674577 19.0362246,71.8426249 C19.0400546,71.8555443 19.0474409,71.8670012 19.0520915,71.8796769 C19.0657699,72.0227659 19.1639807,72.1504978 19.3062359,72.2241143 C19.8013935,72.6502125 20.7867843,72.8364476 21.2928845,72.9736863 C22.0279609,73.1730847 22.3171219,72.1809682 21.6072138,71.9581686 C21.4403375,71.9057595 21.2709991,71.8621259 21.1013871,71.8187361 C22.2249296,71.5074504 23.3955258,71.2985453 24.5127762,70.9855533 C24.8426988,71.6488331 25.7837717,71.799235 26.375225,71.2229787 C26.7215617,70.8856104 26.8227818,70.3220297 26.6452364,69.8737491 C27.4432333,69.1353902 28.2395888,68.3950813 29.0269167,67.648922 C29.286806,67.4027211 29.5166028,67.1416506 29.7625402,66.8898432 C29.7734829,67.1011859 29.7937269,67.3032657 29.800019,67.4641494 C29.8271022,68.1249916 30.92575,68.1257229 30.9536539,67.4639056 C30.9741715,66.9756479 30.9049589,66.4878776 30.954201,66.0074202 C30.9697944,65.8501929 31.0116503,65.6900405 30.9916798,65.5357384 Z" id="Shape"></path>
                    <path d="M25.8287515,63.2084981 C25.7006768,62.9470792 25.4693877,62.9144018 25.3450864,63.2084981 C25.2105747,63.5256406 25.2167897,63.9122654 25.1273372,64.2576136 C25.0205713,64.6696924 24.9544253,65.0253597 25.0374408,65.4704598 C25.129113,65.96406 25.57349,66.2020889 25.8109942,65.7872583 C26.0127618,65.4350307 25.8955635,65.0886506 25.9566043,64.6782917 C26.0280775,64.2012021 26.0276336,63.6147294 25.8287515,63.2084981 Z" id="Shape"></path>
                    <path d="M25.9915066,78.1078371 C25.9885804,78.0820857 25.9536753,77.9213047 25.9469868,77.8981945 C25.9377903,77.8523042 25.9288027,77.8067441 25.9227413,77.7582127 C25.9221143,77.7380738 25.9139628,77.63903 25.9131268,77.6248337 C25.9070654,77.5284312 25.8997499,77.4316984 25.8938976,77.3352959 C25.8732053,76.9962361 25.8610825,76.6717027 25.7935714,76.3458488 C25.6951263,75.8724197 25.3040632,75.8971806 25.1995567,76.3458488 C25.058682,76.9500157 24.8091206,78.2920585 25.2465846,78.8193014 C25.2934035,78.888632 25.349419,78.9421156 25.4094057,78.9648957 C25.4200653,78.9688574 25.430725,78.9728192 25.4411756,78.9767809 C25.7937804,79.1118106 26.0506572,78.6364006 25.9915066,78.1078371 Z" id="Shape"></path>
                    <path d="M19.593268,70.0340711 C19.2189636,69.9489269 18.8329622,70.0472717 18.453559,70.0712529 C18.0759554,70.0952341 17.6596617,70.1044745 17.3048523,70.2087597 C17.0217246,70.2917037 16.8375716,70.6505414 17.2055777,70.765167 C17.9802799,71.0058588 19.3542291,71.1988083 19.9174853,70.6188598 C20.1295311,70.4008291 19.9009895,70.1042545 19.593268,70.0340711 Z" id="Shape"></path>
                    <path d="M34.467309,71.0179284 C34.1214518,70.9720699 33.8016571,71.0278022 33.4536867,71.035043 C33.114169,71.0422838 32.7799343,71.0517188 32.4506303,71.1085482 L32.4573221,71.1127171 C32.3523674,71.1285152 32.2544567,71.1598921 32.17803,71.2075058 C31.8413299,71.4172698 32.0100322,71.7663644 32.4509825,71.8510599 C33.1405838,71.9835886 34.2116141,72.1349872 34.7916822,71.7828208 C35.1717025,71.5524315 35.0132139,71.0898976 34.467309,71.0179284 Z" id="Shape"></path>
                    <path d="M28.7958044,76.3162844 C28.6118384,76.1230383 28.3438989,75.9568661 28.1734225,76.0100412 C27.9086868,76.092722 28.0019345,76.5354696 28.0951822,76.7066675 C28.1472862,76.8019936 28.2312597,76.8802972 28.3278798,76.9347692 C28.3801525,76.9641128 28.4379897,76.9829186 28.4973444,76.9921594 C28.5110028,76.994267 28.6899102,77.0086956 28.6865377,76.9921594 C28.6239792,76.9971851 28.6234733,76.9960503 28.6848515,76.9892413 C28.7089644,76.9895655 28.7318969,76.9847019 28.7531432,76.9748127 C29.1386119,76.8289054 29.0086048,76.5396847 28.7958044,76.3162844 Z" id="Shape"></path>
                    <path d="M30.9574405,75.4838602 C30.9192652,75.4114211 30.8694923,75.3735401 30.8084441,75.3278503 C30.8063501,75.3260227 30.8052225,75.3250258 30.8028064,75.3228659 C30.7720406,75.2966151 30.7403084,75.2718595 30.7076097,75.2485993 C30.7918531,75.3195431 30.5967886,75.1595457 30.6396352,75.1919439 C30.6085473,75.1685175 30.5771372,75.1437619 30.5449218,75.1218308 C30.5173776,75.0980721 30.4854843,75.0816238 30.4498862,75.0728181 C30.478719,75.0814577 30.4775915,75.0771379 30.4465036,75.0605234 C30.4101002,75.0425798 30.3730524,75.0279591 30.3342328,75.0184888 C30.2707684,75.0030374 30.1953842,74.9869213 30.1282151,75.0166612 C29.7392136,75.112859 30.3186083,76.1157086 30.758188,75.9889401 C30.9703266,75.9281312 31.0602077,75.6785818 30.9574405,75.4838602 Z" id="Shape"></path>
                    <path d="M28.9688899,64.232448 C28.9656787,64.2261173 28.9639661,64.2233037 28.9616112,64.2187315 C28.9611831,64.2146869 28.9598986,64.2088838 28.9573297,64.1988602 C28.8993146,63.9802757 28.5375233,63.9371919 28.3735397,64.0929971 C28.360481,64.1016138 28.3446392,64.1118133 28.321947,64.1271124 C28.2990407,64.149094 28.2789174,64.1726582 28.2590082,64.1963982 C28.2523717,64.2016738 28.2046324,64.2486264 28.1971397,64.2563639 C28.0819659,64.3715472 28.0166722,64.4953472 28.0010445,64.6448217 C27.9896984,64.7552569 28.0723324,64.8628785 28.1738052,64.9270646 C28.2919761,65.0019777 28.4118596,65.0102428 28.5555058,64.9914266 C28.5662097,64.9900198 28.5764854,64.9887888 28.5871893,64.987382 C28.7646597,64.9643453 28.8721267,64.8275322 28.8898952,64.6854435 C28.9153704,64.6383151 28.9410598,64.5913626 28.9598986,64.5415963 C28.977453,64.4953472 28.9881569,64.4501531 28.9960777,64.4023213 C29.0059253,64.3425315 28.9973622,64.288369 28.9688899,64.232448 Z" id="Shape"></path>
                    <path d="M32.6496757,68.0086869 C32.4441906,68.066227 32.1722421,68.2217576 32.0574549,68.4216583 C31.9261244,68.6504075 32.0249488,68.9873382 32.3027019,68.9997242 C32.4156026,69.0047414 32.5112345,68.9407731 32.5945314,68.8506218 C32.7261521,68.7081043 32.8271533,68.5002076 32.917706,68.3951617 C32.9217693,68.3813646 32.927574,68.3366809 32.9367163,68.3261763 C33.1384284,68.0908422 32.8072723,67.9646303 32.6496757,68.0086869 Z" id="Shape"></path>
                    <path d="M21.9739935,64.5863717 C21.9682641,64.5702688 21.9396172,64.5172984 21.9279675,64.4959691 C21.9289224,64.4979466 21.9294953,64.4987942 21.9312141,64.5017605 C21.9562324,64.5469618 21.8974108,64.4401737 21.9042861,64.4521803 C21.8553954,64.3674278 21.7937091,64.2962357 21.7188453,64.2229248 C21.6930631,64.1976403 21.6682358,64.1681181 21.6378701,64.1456587 C21.6359603,64.1442462 21.5987194,64.1227756 21.5786666,64.1111927 C21.5500197,64.0943835 21.5213728,64.0748904 21.4900522,64.0611887 C21.4806942,64.0570924 21.3806212,64.0151399 21.4382969,64.0398594 C21.409459,64.0275702 21.3798572,64.0140098 21.3470088,64.0072296 C21.0664604,63.9644296 20.9820476,64.1174079 21.0030553,64.3143162 C21.0307473,64.5722463 21.2398695,64.9050411 21.4268381,64.9691705 C21.6789306,65.0557593 22.0037862,64.9553276 21.9999666,64.7259309 C21.9990117,64.6801645 21.9894628,64.6310081 21.9739935,64.5863717 Z" id="Shape"></path>
                    <path d="M20.729842,67.1905741 C20.3832619,67.008147 20.0154854,66.9897761 19.5718479,67.004302 C19.2739824,67.0139146 18.9999164,66.9840085 18.7232473,67.0130602 C18.4093915,67.0459569 18.1323506,66.9325273 18.0174436,67.2198394 C17.9482764,67.3935083 18.0914452,67.5285129 18.3294401,67.6346795 C18.7596903,67.8265057 19.5008213,67.9239141 19.8555825,67.9818038 C20.6205131,68.1065549 21.4360175,67.5622641 20.729842,67.1905741 Z" id="Shape"></path>
                    <path d="M18.9052323,74.1062264 C18.8269815,74.0248455 18.6858541,73.9717531 18.577052,74.0160309 C18.6588507,74.0131611 18.6420967,74.0174658 18.5267901,74.0293552 C18.4972243,74.0422696 18.4674614,74.0553889 18.4378956,74.0685083 C18.4260693,74.074248 18.4211417,74.0769129 18.4183822,74.0785528 C18.4138488,74.0803977 18.4106951,74.0814226 18.4043877,74.0838825 C18.2541935,74.1425096 18.1641164,74.213231 18.0661551,74.3503692 C17.8733861,74.6201356 18.1351419,75.0030564 18.4244925,74.9999816 C18.4359246,74.9997766 18.4475538,74.9997766 18.4589859,74.9995716 C18.5869072,74.9981367 18.7018196,74.932335 18.7761283,74.8294301 C18.8163378,74.7857673 18.8520138,74.7367748 18.8872957,74.6877822 C18.9054294,74.6629785 18.9235631,74.6381747 18.9393315,74.6115261 C18.9598304,74.5791377 18.9750075,74.5438795 18.9848628,74.5057514 C19.000237,74.3878823 19.0027994,74.3684083 18.9919586,74.4475343 C19.0124575,74.3204407 18.9972804,74.2015466 18.9052323,74.1062264 Z" id="Shape"></path>
                    <path d="M21.4997981,75.1316627 C21.3012882,75.4360998 21.1426094,75.7914679 21.0601481,76.2414221 C21.0188098,76.4669736 20.9985712,76.7231603 21.0000784,76.9609659 C21.0007243,77.0800602 21.0052457,77.2232796 21.0231159,77.3385445 C21.031728,77.3948367 21.1387339,77.8290903 21.1077302,77.621537 C21.1518674,77.9164006 21.374922,78.1159122 21.5267111,77.9248253 C21.6291956,77.7961575 21.7424453,77.7279942 21.810266,77.5212068 C21.8905742,77.2768912 21.9084444,76.9931329 21.9230851,76.7181821 C21.9450461,76.3107342 21.9788487,75.9090304 21.998872,75.4989019 C22.0223401,75.0125685 21.6737635,74.8643708 21.4997981,75.1316627 Z" id="Shape"></path>
                </g>
            </g>
        </g>
    </g>
</svg>