<?xml version="1.0" encoding="utf-8"?>
<!-- Generator: Adobe Illustrator 22.1.0, SVG Export Plug-In . SVG Version: 6.00 Build 0)  -->
<svg version="1.1" id="Layer_1" xmlns="http://www.w3.org/2000/svg" xmlns:xlink="http://www.w3.org/1999/xlink" x="0px" y="0px"
	 viewBox="0 0 590 272.7" style="enable-background:new 0 0 590 272.7;" xml:space="preserve">
<style type="text/css">
	.st0{fill:#3C3C71;}
	.st1{fill:#FFFFFF;}
	.st2{fill:#010101;}
</style>
<g>
	<path class="st0" d="M209.3,104.3c0.2,15.3-3.9,27.4-9.1,39.1c-9.6,21.6-22.7,41.1-36.6,60c-16.1,21.8-33.6,42.5-52.1,62.2
		c-3.2,3.4-5.7,3.6-8.7,0.4c-29.7-32-57.5-65.5-79.5-103.4c-7.6-13.2-14.1-27-17.5-42c-2.6-11.8-1.9-23.5,1-35
		c10.1-39.7,35-65.7,74.6-76.5C136.6-6,194.7,29.8,206.9,85.6C208.4,92.5,209.4,99.4,209.3,104.3z"/>
	<path class="st1" d="M142,92.4c-12.4-4.9-24.2-9.6-36.1-14.2c-3.5-1.4-5.1-3.7-4.4-6.4c0.8-3.5,4-5,7.8-3.5
		c9.6,3.8,19.2,7.6,28.7,11.4c5.8,2.3,11.6,4.6,17.4,6.9c2.4,0.9,4.2,2.3,4.3,5.1c0.1,2.8-1.6,4.3-3.8,5.4
		c-13.7,7.1-27.4,14.1-41.1,21.2c-1.8,0.9-3.4,1.3-5.4,0.6c-15.6-5.3-31.3-10.6-47-15.9c-3.1-1.1-4.3-2.8-4-5.7c0.3-2.7,2-4,4.4-4.5
		c1.3-0.3,2.4,0.3,3.6,0.7c14.1,4.8,28.3,9.5,42.4,14.3c1.5,0.5,2.7,0.5,4.2-0.3c8.8-4.7,17.6-9.2,26.4-13.8
		C140.2,93.4,140.9,93,142,92.4z"/>
	<path class="st1" d="M52.7,110.7c1.1-0.1,2.3,0.5,3.6,1c17.6,6.5,35.2,13,52.9,19.6c1.5,0.6,2.8,0.5,4.3-0.3
		c11.6-5.6,23.2-11,34.9-16.5c0.8-0.4,1.7-0.8,2.6-1c2.6-0.6,4.5,0.5,5.7,2.7c1.2,2.3,0.6,4.5-1.3,6.1c-0.8,0.7-1.8,1.1-2.7,1.5
		c-12.2,5.8-24.5,11.5-36.6,17.4c-2.9,1.4-5.3,1.6-8.4,0.4c-18.6-7-37.2-13.8-55.8-20.7c-3.9-1.4-5.3-4-4.2-7.1
		C48.5,111.8,50.2,110.7,52.7,110.7z"/>
</g>
<g>
	<path class="st2" d="M261.1,73.7v27.5c0,10.4,4.5,14.8,10.7,14.8c6.8,0,11.1-4.6,11.1-14.8V73.7h6v27.1c0,14.3-7.4,20.2-17.3,20.2
		c-9.4,0-16.4-5.5-16.4-19.9V73.7H261.1z"/>
	<path class="st2" d="M299.1,120.2V73.7h6.4l14.7,23.5c3.4,5.5,6,10.4,8.2,15.1l0.1-0.1c-0.5-6.2-0.7-11.9-0.7-19.1V73.7h5.6v46.5
		h-6l-14.5-23.6c-3.2-5.2-6.2-10.5-8.6-15.5l-0.2,0.1c0.3,5.9,0.5,11.5,0.5,19.2v19.9H299.1z"/>
	<path class="st2" d="M349.6,73.7v46.5h-5.9V73.7H349.6z"/>
	<path class="st2" d="M370,120.2l-14.9-46.5h6.4l7.1,22.9c2,6.3,3.7,11.9,4.9,17.4h0.1c1.3-5.4,3.2-11.3,5.2-17.3l7.7-23h6.3
		l-16.4,46.5H370z"/>
	<path class="st2" d="M421.5,98.4h-17.8v16.8h19.8v5h-25.7V73.7h24.7v5h-18.8v14.7h17.8V98.4z"/>
	<path class="st2" d="M431.2,74.3c3-0.6,7.3-1,11.3-1c6.3,0,10.4,1.2,13.2,3.8c2.3,2.1,3.6,5.2,3.6,8.8c0,6.1-3.8,10.2-8.6,11.9v0.2
		c3.5,1.2,5.6,4.6,6.7,9.4c1.5,6.5,2.6,11,3.5,12.8h-6.1c-0.7-1.3-1.8-5.3-3.1-11.1c-1.4-6.4-3.8-8.8-9.2-9h-5.6v20.2h-5.9V74.3z
		 M437.1,95.5h6c6.3,0,10.3-3.5,10.3-8.8c0-6-4.3-8.6-10.5-8.7c-2.9,0-4.9,0.3-5.8,0.6V95.5z"/>
	<path class="st2" d="M466.9,112.9c2.6,1.7,6.5,3,10.6,3c6,0,9.6-3.2,9.6-7.9c0-4.4-2.4-6.8-8.6-9.3c-7.5-2.7-12.1-6.6-12.1-13.2
		c0-7.3,5.9-12.6,14.8-12.6c4.7,0,8.1,1.1,10.1,2.3l-1.6,4.9c-1.5-0.8-4.5-2.2-8.7-2.2c-6.2,0-8.6,3.8-8.6,7c0,4.4,2.8,6.5,9.1,9
		c7.7,3,11.7,6.8,11.7,13.7c0,7.2-5.2,13.4-16,13.4c-4.4,0-9.2-1.3-11.7-3L466.9,112.9z"/>
	<path class="st2" d="M507.1,73.7v46.5h-5.9V73.7H507.1z"/>
	<path class="st2" d="M526.1,78.8h-13.9v-5.1h33.9v5.1h-14v41.4h-6V78.8z"/>
	<path class="st2" d="M563.3,120.2v-19.7l-14.5-26.8h6.7l6.4,12.8c1.8,3.5,3.1,6.4,4.5,9.6h0.1c1.3-3,2.9-6.1,4.6-9.6l6.6-12.8h6.7
		l-15.3,26.7v19.8H563.3z"/>
	<path class="st2" d="M255.2,155.7h5.9v41.5h19.6v5h-25.5V155.7z"/>
	<path class="st2" d="M293.1,155.7v46.5h-5.9v-46.5H293.1z"/>
	<path class="st2" d="M313.5,202.2l-14.9-46.5h6.4l7.1,22.9c2,6.3,3.7,11.9,4.9,17.4h0.1c1.3-5.4,3.2-11.3,5.2-17.3l7.7-23h6.3
		L320,202.2H313.5z"/>
	<path class="st2" d="M347.2,155.7v46.5h-5.9v-46.5H347.2z"/>
	<path class="st2" d="M357.5,202.2v-46.5h6.4l14.7,23.5c3.4,5.5,6,10.4,8.2,15.1l0.1-0.1c-0.5-6.2-0.7-11.9-0.7-19.1v-19.5h5.6v46.5
		h-6l-14.5-23.6c-3.2-5.2-6.2-10.5-8.6-15.5l-0.2,0.1c0.3,5.9,0.5,11.5,0.5,19.2v19.9H357.5z"/>
	<path class="st2" d="M437,200.2c-2.6,1-7.9,2.6-14.1,2.6c-6.9,0-12.6-1.8-17.1-6.1c-3.9-3.9-6.4-10.1-6.4-17.3
		c0.1-13.9,9.4-24,24.8-24c5.3,0,9.4,1.2,11.4,2.1l-1.4,4.9c-2.4-1.1-5.5-2-10.1-2c-11.1,0-18.4,7-18.4,18.7
		c0,11.8,7,18.8,17.7,18.8c3.9,0,6.5-0.6,7.9-1.2v-13.9h-9.3v-4.8H437V200.2z"/>
</g>
</svg>
