<?xml version="1.0" encoding="UTF-8" standalone="no"?>
<svg width="16px" height="16px" viewBox="0 0 16 16" version="1.1" xmlns="http://www.w3.org/2000/svg" xmlns:xlink="http://www.w3.org/1999/xlink">
    <!-- Generator: Sketch 49 (51002) - http://www.bohemiancoding.com/sketch -->
    <title>Page 1</title>
    <desc>Created with Sketch.</desc>
    <defs></defs>
    <g id="Page-1" stroke="none" stroke-width="1" fill="none" fill-rule="evenodd" stroke-linecap="round" stroke-linejoin="round">
        <g id="Contact--Copy-2" transform="translate(-1025.000000, -430.000000)" stroke="#32B496">
            <g id="Group-15" transform="translate(834.000000, 227.000000)">
                <g id="Group-2" transform="translate(191.000000, 78.000000)">
                    <g id="Group-9" transform="translate(0.000000, 123.000000)">
                        <g id="Page-1" transform="translate(0.000000, 2.000000)">
                            <path d="M10.9538,8.7444 C10.7578,8.5394 10.5198,8.4304 10.2688,8.4304 C10.0188,8.4304 9.7798,8.5374 9.5758,8.7424 L8.9348,9.3814 C8.8818,9.3524 8.8288,9.3264 8.7788,9.3004 C8.7058,9.2634 8.6368,9.2284 8.5778,9.1924 C7.9778,8.8104 7.4328,8.3144 6.9098,7.6724 C6.6558,7.3514 6.4858,7.0814 6.3618,6.8074 C6.5288,6.6564 6.6828,6.4984 6.8328,6.3464 C6.8898,6.2894 6.9458,6.2304 7.0028,6.1734 C7.4288,5.7474 7.4288,5.1964 7.0028,4.7704 L6.4498,4.2174 C6.3868,4.1544 6.3218,4.0894 6.2608,4.0244 C6.1398,3.8984 6.0118,3.7684 5.8798,3.6474 C5.6828,3.4534 5.4478,3.3494 5.2008,3.3494 C4.9538,3.3494 4.7138,3.4534 4.5118,3.6474 C4.5088,3.6494 4.5088,3.6494 4.5068,3.6514 L3.8178,4.3474 C3.5578,4.6064 3.4108,4.9234 3.3778,5.2894 C3.3288,5.8824 3.5038,6.4324 3.6378,6.7944 C3.9658,7.6804 4.4568,8.5014 5.1878,9.3814 C6.0768,10.4404 7.1448,11.2784 8.3648,11.8684 C8.8308,12.0894 9.4538,12.3504 10.1488,12.3954 C10.1918,12.3974 10.2368,12.3994 10.2768,12.3994 C10.7458,12.3994 11.1388,12.2304 11.4468,11.8964 C11.4488,11.8924 11.4528,11.8904 11.4548,11.8864 C11.5598,11.7594 11.6818,11.6424 11.8088,11.5194 C11.8968,11.4364 11.9858,11.3484 12.0728,11.2584 C12.2738,11.0494 12.3788,10.8064 12.3788,10.5564 C12.3788,10.3054 12.2718,10.0634 12.0668,9.8614 L10.9538,8.7444 Z" id="Stroke-1"></path>
                            <path d="M7.8742,0.5003 C3.8082,0.5003 0.5002,3.8083 0.5002,7.8743 C0.5002,9.2623 0.8852,10.6083 1.6162,11.7773 C1.3252,12.7983 0.7992,14.7293 0.7932,14.7493 C0.7662,14.8493 0.7952,14.9553 0.8702,15.0263 C0.9442,15.0993 1.0522,15.1243 1.1502,15.0943 L4.0742,14.1953 C5.2192,14.8853 6.5302,15.2493 7.8742,15.2493 C11.9402,15.2493 15.2492,11.9403 15.2492,7.8743 C15.2492,3.8083 11.9402,0.5003 7.8742,0.5003 Z" id="Stroke-3"></path>
                        </g>
                    </g>
                </g>
            </g>
        </g>
    </g>
</svg>