<?xml version="1.0" encoding="UTF-8" standalone="no"?>
<svg width="19px" height="19px" viewBox="0 0 19 19" version="1.1" xmlns="http://www.w3.org/2000/svg" xmlns:xlink="http://www.w3.org/1999/xlink">
    <!-- Generator: Sketch 49.2 (51160) - http://www.bohemiancoding.com/sketch -->
    <title>001-video-play-button</title>
    <desc>Created with Sketch.</desc>
    <defs></defs>
    <g id="Account-Setttings" stroke="none" stroke-width="1" fill="none" fill-rule="evenodd" opacity="0.6">
        <g id="Account-Setttings-2" transform="translate(-1160.000000, -1548.000000)" fill="#303944" fill-rule="nonzero">
            <g id="001-video-play-button" transform="translate(1160.000000, 1548.000000)">
                <path d="M15.0312614,0 L3.46873863,0 C1.55285053,0 0,1.55285053 0,3.46873863 L0,15.0312614 C0,16.9471858 1.55285053,18.5 3.46873863,18.5 L15.0312614,18.5 C16.9471858,18.5 18.5,16.9471495 18.5,15.0312614 L18.5,3.46873863 C18.5000364,1.55285053 16.9471858,0 15.0312614,0 Z M14.9329986,11.3208494 C14.8705702,12.0909081 14.2855046,13.073718 13.4680425,13.215928 C10.8491443,13.4194386 7.74573516,13.3940089 5.03319443,13.215928 C4.18681013,13.1095524 3.6306667,12.0897439 3.56823835,11.3208494 C3.43643305,9.70440633 3.43643305,8.78402479 3.56823835,7.16758174 C3.6306667,6.39868717 4.20070735,5.38462673 5.03319443,5.29214838 C7.71455737,5.06666418 10.8352834,5.11523168 13.4680425,5.29214838 C14.4092335,5.32681866 14.8705702,6.29693187 14.9329986,7.06699061 C15.0624755,8.68343366 15.0624755,9.70440633 14.9329986,11.3208494 Z" id="Shape"></path>
                <polygon id="Shape" points="7.92857143 11.3265306 11.3265306 9.06122449 7.92857143 6.79591837"></polygon>
            </g>
        </g>
    </g>
</svg>