<?xml version="1.0" encoding="utf-8"?>
<!-- Generator: Adobe Illustrator 21.1.0, SVG Export Plug-In . SVG Version: 6.00 Build 0)  -->
<svg version="1.1" id="Layer_1" xmlns="http://www.w3.org/2000/svg" xmlns:xlink="http://www.w3.org/1999/xlink" x="0px" y="0px"
	 viewBox="0 0 19 19" style="enable-background:new 0 0 19 19;" xml:space="preserve">
<style type="text/css">
	.st0{fill:#FD6F56;}
</style>
<title>001-video-play-button</title>
<desc>Created with Sketch.</desc>
<g id="Account-Setttings">
	<g id="Account-Setttings-2" transform="translate(-1160.000000, -1548.000000)">
		<g id="_x30_01-video-play-button" transform="translate(1160.000000, 1548.000000)">
			<path id="Shape" class="st0" d="M15,0H3.5C1.6,0,0,1.6,0,3.5V15c0,1.9,1.6,3.5,3.5,3.5H15c1.9,0,3.5-1.6,3.5-3.5V3.5
				C18.5,1.6,16.9,0,15,0z M14.9,11.3c-0.1,0.8-0.6,1.8-1.5,1.9c-2.6,0.2-5.7,0.2-8.4,0c-0.8-0.1-1.4-1.1-1.5-1.9
				c-0.1-1.6-0.1-2.5,0-4.2C3.6,6.4,4.2,5.4,5,5.3c2.7-0.2,5.8-0.2,8.4,0c0.9,0,1.4,1,1.5,1.8C15.1,8.7,15.1,9.7,14.9,11.3z"/>
			<polygon id="Shape_1_" class="st0" points="7.9,11.3 11.3,9.1 7.9,6.8 			"/>
		</g>
	</g>
</g>
</svg>
